<?xml version="1.0" encoding="UTF-8"?>
<svg width="24px" height="24px" viewBox="0 0 24 24" version="1.1" xmlns="http://www.w3.org/2000/svg" xmlns:xlink="http://www.w3.org/1999/xlink">
    <title>563958FB-1839-480F-95E5-4B1DA0A18F24</title>
    <g id="Tiếp-cận-KH" stroke="none" stroke-width="1" fill="none" fill-rule="evenodd">
        <g id="New-KH-Tiềm-năng-3.1.3" transform="translate(-14.000000, -87.000000)" fill="#424D6C" fill-rule="nonzero">
            <g id="Components/-Select/-RSA" transform="translate(0.000000, 77.000000)">
                <g id="ic/close/grey600" transform="translate(14.000000, 10.000000)">
                    <path d="M20.0935714,3.90642857 C19.5929648,3.40582189 18.781321,3.40582189 18.2807143,3.90642857 L12,10.1871429 L12,10.1871429 L5.71928571,3.90642857 C5.21867904,3.40582189 4.40703525,3.40582189 3.90642857,3.90642857 C3.40582189,4.40703525 3.40582189,5.21867904 3.90642857,5.71928571 L10.1871429,12 L10.1871429,12 L3.90642857,18.2807143 C3.40582189,18.781321 3.40582189,19.5929648 3.90642857,20.0935714 C4.40703525,20.5941781 5.21867904,20.5941781 5.71928571,20.0935714 L12,13.8128571 L12,13.8128571 L18.2807143,20.0935714 C18.781321,20.5941781 19.5929648,20.5941781 20.0935714,20.0935714 C20.5941781,19.5929648 20.5941781,18.781321 20.0935714,18.2807143 L13.8128571,12 L13.8128571,12 L20.0935714,5.71928571 C20.5941781,5.21867904 20.5941781,4.40703525 20.0935714,3.90642857 Z" id="Shape"></path>
                </g>
            </g>
        </g>
    </g>
</svg>