<?xml version="1.0" encoding="UTF-8"?>
<svg width="16px" height="16px" viewBox="0 0 16 16" version="1.1" xmlns="http://www.w3.org/2000/svg" xmlns:xlink="http://www.w3.org/1999/xlink">
    <title>53920D75-E334-4126-BD72-16B81D84A813</title>
    <g id="Tiếp-cận-KH" stroke="none" stroke-width="1" fill="none" fill-rule="evenodd">
        <g id="New-KH-Tiềm-năng-3.1" transform="translate(-254.000000, -396.000000)" fill="#FFFFFF" fill-rule="nonzero">
            <g id="Group-22" transform="translate(16.000000, 146.000000)">
                <g id="Group-9" transform="translate(0.000000, 34.000000)">
                    <g id="Group-10" transform="translate(14.000000, 197.000000)">
                        <g id="Group-16-Copy" transform="translate(212.000000, 13.000000)">
                            <g id="Iconly/Bold/Paper" transform="translate(12.000000, 6.000000)">
                                <g id="Paper" transform="translate(2.333333, 1.333333)">
                                    <path d="M6.50165017,0 C6.67326733,0 6.80528053,0.14 6.80528053,0.306666667 L6.80528053,0.306666667 L6.80528053,2.45333333 C6.80528053,3.67333333 7.8019802,4.67333333 9.00990099,4.68 C9.51155116,4.68 9.90759076,4.68666667 10.2112211,4.68666667 C10.4158416,4.68666667 10.7524752,4.68 11.0363036,4.68 C11.2013201,4.68 11.3333333,4.81333333 11.3333333,4.98 L11.3333333,4.98 L11.3333333,10.34 C11.3333333,11.9933333 10.0066007,13.3333333 8.36963696,13.3333333 L8.36963696,13.3333333 L3.11551155,13.3333333 C1.39933993,13.3333333 1.24344979e-14,11.9266667 1.24344979e-14,10.1933333 L1.24344979e-14,10.1933333 L1.24344979e-14,3.00666667 C1.24344979e-14,1.35333333 1.33333333,0 2.97689769,0 L2.97689769,0 Z M7.20792079,8.6 L3.61716172,8.6 C3.34653465,8.6 3.12211221,8.82 3.12211221,9.09333333 C3.12211221,9.36666667 3.34653465,9.59333333 3.61716172,9.59333333 L3.61716172,9.59333333 L7.20792079,9.59333333 C7.47854785,9.59333333 7.7029703,9.36666667 7.7029703,9.09333333 C7.7029703,8.82 7.47854785,8.6 7.20792079,8.6 L7.20792079,8.6 Z M5.84818482,5.26666667 L3.61716172,5.26666667 C3.34653465,5.26666667 3.12211221,5.49333333 3.12211221,5.76666667 C3.12211221,6.04 3.34653465,6.26 3.61716172,6.26 L3.61716172,6.26 L5.84818482,6.26 C6.11881188,6.26 6.34323432,6.04 6.34323432,5.76666667 C6.34323432,5.49333333 6.11881188,5.26666667 5.84818482,5.26666667 L5.84818482,5.26666667 Z M7.76712871,0.604 C7.76712871,0.316666667 8.11234323,0.174 8.30970297,0.381333333 C9.02323432,1.13066667 10.270099,2.44066667 10.9671287,3.17266667 C11.159868,3.37466667 11.0186139,3.71 10.7407261,3.71066667 C10.1981518,3.71266667 9.55854785,3.71066667 9.09848185,3.706 C8.36844884,3.706 7.76712871,3.09866667 7.76712871,2.36133333 L7.76712871,2.36133333 Z"></path>
                                </g>
                            </g>
                        </g>
                    </g>
                </g>
            </g>
        </g>
    </g>
</svg>