<?xml version="1.0" encoding="UTF-8"?>
<svg width="28px" height="28px" viewBox="0 0 28 28" version="1.1" xmlns="http://www.w3.org/2000/svg" xmlns:xlink="http://www.w3.org/1999/xlink">
    <title>ED8C7661-E202-40E7-8D48-42DAD1266F30</title>
    <g id="Tiếp-cận-KH" stroke="none" stroke-width="1" fill="none" fill-rule="evenodd">
        <g id="New-KH-Tiềm-năng-2.3" transform="translate(-30.000000, -1029.000000)" fill="#39B818" fill-rule="nonzero">
            <g id="Group-26" transform="translate(0.000000, 85.000000)">
                <g id="Group-9-Copy" transform="translate(16.000000, 825.000000)">
                    <g id="Group-7-Copy" transform="translate(0.000000, 107.000000)">
                        <path d="M33.8807735,12 C34.7452809,12 35.6293695,12.1456681 36.5079753,12.4325012 C39.3789623,13.3666177 41.3885749,15.8034263 41.8835862,18.9497797 C42.4236341,22.3849241 41.527601,29.5665198 29.4564145,39.0668625 L29.4564145,39.0668625 L28.4846024,39.8320117 C28.3424433,39.9438081 28.1713041,40 27.9999691,40 C27.8286342,40 27.6576908,39.9440039 27.5155317,39.8320117 L27.5155317,39.8320117 L26.543328,39.0664709 C14.4721415,29.5665198 13.5761084,22.3849241 14.1165479,18.9497797 C14.6111676,15.8030348 16.6213676,13.3666177 19.4937253,12.4321096 C20.3701772,12.1456681 21.2538741,12 22.1187732,12 C24.7132745,12 26.6815709,13.2610866 27.9999691,14.5200196 C29.3181716,13.2606951 31.2860764,12 33.8807735,12 Z M32.6176141,21.4060137 C32.107563,20.8646621 31.2805803,20.8646621 30.7706163,21.4060137 L30.7706163,21.4060137 L26.7687444,25.6533785 L25.229536,24.0198051 C24.719485,23.4784535 23.8925023,23.4784535 23.3825383,24.0198051 C22.8724872,24.5611568 22.8724872,25.438797 23.3825383,25.9801487 L23.3825383,25.9801487 L25.8452019,28.5939401 C26.1001404,28.8647083 26.4344859,29 26.7686573,29 C27.1028287,29 27.4370871,28.8646159 27.6921126,28.5939401 L27.6921126,28.5939401 L32.6174399,23.3663573 C33.127491,22.8250056 33.127491,21.9473654 32.6176141,21.4060137 Z" id="icon/-insurance"></path>
                    </g>
                </g>
            </g>
        </g>
    </g>
</svg>