<?xml version="1.0" encoding="UTF-8"?>
<svg width="56px" height="56px" viewBox="0 0 56 56" version="1.1" xmlns="http://www.w3.org/2000/svg" xmlns:xlink="http://www.w3.org/1999/xlink">
    <title>C6B9D0C8-B52F-478B-A4A3-5421212E0ECD</title>
    <defs>
        <linearGradient x1="50%" y1="0%" x2="50%" y2="100%" id="linearGradient-1">
            <stop stop-color="#F2AD42" offset="0%"></stop>
            <stop stop-color="#F76B1C" offset="100%"></stop>
        </linearGradient>
    </defs>
    <g id="Tiếp-cận-KH" stroke="none" stroke-width="1" fill="none" fill-rule="evenodd">
        <g id="New-KH-Tiềm-năng-3.1.4" transform="translate(-156.000000, -162.000000)" fill="url(#linearGradient-1)">
            <g id="Group-43" transform="translate(16.000000, 150.000000)">
                <g id="Group-6" transform="translate(16.000000, 12.000000)">
                    <g id="icons/-status/-success" transform="translate(124.000000, 0.000000)">
                        <g id="Notification" transform="translate(8.166667, 4.666667)">
                            <path d="M23.5874587,41.0652688 C24.2310102,40.4213944 25.2753562,40.3598274 25.9934151,40.9488195 C26.7537128,41.5724583 26.8602984,42.6892842 26.2314808,43.4433201 C24.6813064,45.4537435 22.2830518,46.6429949 19.7312523,46.6666667 L19.7312523,46.6666667 L19.4383838,46.6580867 C17.0042053,46.5440628 14.7379889,45.3709924 13.2517251,43.4433201 L13.2517251,43.4433201 L13.1537174,43.3144351 C12.6367679,42.5667146 12.7717319,41.5378117 13.4897908,40.9488195 C14.2500885,40.3251808 15.3761889,40.4308886 16.0050066,41.1849245 C16.281164,41.5510364 16.6088185,41.8759923 16.9779707,42.1498753 C17.96468,42.87843 19.2037745,43.1862844 20.4202741,43.0051196 C21.6367737,42.8239548 22.7300554,42.1687558 23.4574979,41.1849245 L23.4574979,41.1849245 L23.4781993,41.1849245 Z M19.7519536,-2.22488694e-13 C26.9146259,-2.22488694e-13 34.9467555,5.05059393 35.8576155,13.1602874 L35.8576155,13.1602874 L35.8576155,17.3896466 C36.168589,18.9161189 36.8830172,20.3332073 37.927752,21.4958205 C37.9896506,21.5660401 38.0450761,21.6416225 38.0933629,21.7216601 C39.0406096,23.147563 39.5840001,24.7997634 39.6666667,26.5053527 L39.6666667,26.5053527 L39.6045626,26.936501 C39.6759303,29.2705383 38.8969032,31.5519275 37.4102179,33.3626631 C35.5116713,35.4112525 32.9161895,36.6909924 30.1233374,36.9555653 C23.2438878,37.710731 16.3014222,37.710731 9.42197254,36.9555653 C6.6699378,36.6729699 4.11965792,35.3937119 2.25930029,33.3626631 C0.748103814,31.5779057 -0.0542567848,29.3074562 0.00285151289,26.9775627 L0.00285151289,26.9775627 L0.00285151289,26.6901305 C0.116666007,24.9335033 0.70281265,23.2391705 1.70036343,21.7832527 L1.70036343,21.7832527 L1.86597435,21.577944 C2.90340433,20.4104337 3.61680433,18.9953848 3.93611084,17.4717701 L3.93611084,17.4717701 L3.93611084,13.2424109 L3.9964915,13.106765 C4.32457786,12.4459664 5.03764805,12.05129 5.78640711,12.1323 C6.58508344,12.2187108 7.22644302,12.8249333 7.35183605,13.6119666 L7.35183605,13.6119666 L7.35183605,17.8413257 C7.35988705,17.9163938 7.35988705,17.9920971 7.35183605,18.0671653 C6.92079698,20.1852565 5.9355716,22.1536398 4.4950477,23.774747 C3.94029085,24.6511432 3.62628189,25.6561895 3.58418764,26.6901305 L3.58418764,26.6901305 L3.58418764,27.1418096 C3.53822981,28.5960107 4.02342719,30.0177418 4.95047772,31.1453292 C6.23575445,32.4619552 7.95448613,33.2778208 9.79459711,33.4447866 C16.4545881,34.1633903 23.1735273,34.1633903 29.8335183,33.4447866 C31.7238869,33.2727105 33.4846337,32.4178539 34.7811445,31.0426749 C35.6626716,29.9416996 36.1244813,28.5676809 36.0853305,27.1623405 L36.0853305,27.1623405 L36.0853305,26.6901305 C36.0428603,25.6527261 35.7366554,24.6428035 35.1951718,23.7542162 C33.6946958,22.1515118 32.6515037,20.1815192 32.1727726,18.0466344 C32.1647216,17.9715663 32.1647216,17.895863 32.1727726,17.8207948 L32.1727726,17.8207948 L32.1727726,13.5709048 C31.572433,7.3705822 25.3413222,3.53130958 19.9175645,3.53130958 C17.6116678,3.52605092 15.3436987,4.11312982 13.3345305,5.23537176 L13.3345305,5.23537176 L13.1927318,5.31148614 C12.6634171,5.56561666 12.0371803,5.54518982 11.5227301,5.24867336 C10.9615117,4.92520086 10.6222877,4.32443269 10.6374541,3.6808431 C10.6526204,3.0372535 11.0197731,2.45285822 11.5956159,2.15574131 C14.0852613,0.760833236 16.8925494,0.0188596761 19.7519536,-2.22488694e-13 Z"></path>
                        </g>
                    </g>
                </g>
            </g>
        </g>
    </g>
</svg>