<?xml version="1.0" encoding="UTF-8"?>
<svg width="28px" height="28px" viewBox="0 0 28 28" version="1.1" xmlns="http://www.w3.org/2000/svg" xmlns:xlink="http://www.w3.org/1999/xlink">
    <title>3C713A9B-5DB6-4E1F-9126-AF87B34C212E</title>
    <g id="Tiếp-cận-KH" stroke="none" stroke-width="1" fill="none" fill-rule="evenodd">
        <g id="New-KH-Tiềm-năng-2.3" transform="translate(-30.000000, -922.000000)">
            <g id="Group-26" transform="translate(0.000000, 85.000000)">
                <g id="Group-9-Copy" transform="translate(16.000000, 825.000000)">
                    <g id="icon/buy/15" transform="translate(14.000000, 12.000000)">
                        <rect id="Rectangle" x="0" y="0" width="28" height="28"></rect>
                        <path d="M15.51575,6.09207529 C17.7168484,4.30284235 19.1876062,0.271962353 18.2824931,0.0956611765 C17.0798514,-0.138682353 14.4682726,0.888884706 13.205989,1.06992941 C11.4156434,1.27910588 9.46570808,-0.808705882 8.37118433,0.35504 C7.48125401,1.30124235 9.00920262,4.74227765 11.3997117,6.24136471 C4.26774156,9.63325176 -5.75672336,26.6608094 11.7314866,27.8963012 C35.9294076,29.6058824 23.8126431,9.39739294 15.51575,6.09207529 Z" id="Path" fill="#39B818" fill-rule="nonzero"></path>
                        <path d="M14.2099799,11.0661907 C14.4869632,11.1851612 14.6690541,11.4501186 14.6690541,11.734494 L14.6690541,12.5431558 C14.7721685,12.5552569 14.8749813,12.5697501 14.977266,12.5870574 C15.7371598,12.7153148 16.4803833,13.0079921 17.0360849,13.5189814 C17.2993398,13.761003 17.5148467,14.0493887 17.666388,14.3638761 C17.7087049,14.4516089 17.7457416,14.5413821 17.7777999,14.6329141 C17.8076706,14.7182548 17.8376922,14.8061284 17.8519487,14.895198 C17.874729,15.0373857 17.8514962,15.1842872 17.7862482,15.3143738 C17.6525841,15.580879 17.3528205,15.7505756 17.0374427,15.737982 C16.7275714,15.7253884 16.4468165,15.5371885 16.3358572,15.2670248 C16.3028183,15.1866793 16.2862989,15.1016199 16.2525811,15.0214854 C16.2185617,14.940366 16.1745099,14.8629753 16.1237447,14.7898764 C16.0250807,14.647759 15.8972248,14.5259039 15.7512654,14.4255072 C15.4352087,14.2078284 15.0518674,14.094416 14.6688278,14.031026 L14.6688278,16.8158225 C15.1240551,16.9174857 15.5796595,17.0283653 16.0158026,17.188775 C16.6749958,17.4312188 17.2996415,17.8029753 17.6594483,18.3891742 L17.6613341,18.3921994 L17.681,18.425 L17.663597,18.3962097 L17.663597,18.3962097 C17.9498584,18.8667447 18.0439211,19.4293747 17.9816904,19.9638625 C17.8992441,20.6727608 17.4964415,21.3138367 16.8943497,21.7490535 C16.2586156,22.2086131 15.4612325,22.422352 14.6689787,22.4822242 L14.6689787,23.2654878 C14.6689787,23.4750757 14.5708427,23.6777688 14.4026311,23.8165091 C14.1714345,24.0073122 13.8316924,24.0543798 13.5510884,23.9337911 C13.2740296,23.814891 13.0920141,23.5498632 13.0920141,23.2654878 L13.0920141,22.4094067 C12.9561626,22.3853452 12.8212916,22.3567107 12.6880047,22.3225884 C11.9475721,22.1328407 11.260771,21.7629838 10.7590782,21.2157616 C10.5091746,20.9429948 10.305435,20.6335026 10.1645295,20.2993861 C10.1277191,20.2120754 10.0949065,20.1231465 10.0661672,20.0332327 C10.0401435,19.9518318 10.01329,19.8690942 10.0040119,19.7842459 C9.98839768,19.6419175 10.0186456,19.4967045 10.0897772,19.3699246 C10.2359629,19.1091181 10.5440238,18.951593 10.8585719,18.9777651 C11.1681415,19.0033744 11.4394675,19.2037458 11.5369246,19.478975 C11.5669463,19.563753 11.5873127,19.6506415 11.6210304,19.7345048 C11.6544464,19.8178053 11.6948021,19.8987841 11.7422484,19.9758933 C11.8359339,20.1277196 11.9533048,20.2677263 12.0884775,20.3892296 C12.3671204,20.6396235 12.7220241,20.8023549 13.0920141,20.8991636 L13.0920141,17.9891349 C12.3685536,17.8144431 11.6217847,17.5888143 11.0243697,17.1555674 C10.734035,16.9449242 10.4876767,16.6832031 10.3263294,16.3734295 C10.1560812,16.0464892 10.0855531,15.6822608 10.0826867,15.3204947 C10.0797449,14.9531706 10.1545726,14.5890828 10.3188617,14.2544035 C10.4727414,13.9410418 10.6942828,13.6596916 10.9659105,13.4264644 C11.5467307,12.9278576 12.318241,12.6497438 13.0920896,12.5475882 L13.0920896,11.734494 C13.0920896,11.5249765 13.1902255,11.322213 13.3584371,11.1834727 C13.5897091,10.99274 13.9293004,10.945602 14.2099799,11.0661907 Z M14.6690541,18.3323272 L14.6690541,21.0069476 C15.2196578,20.9489046 15.8449903,20.7732171 16.1883099,20.3414804 L16.2746825,20.2172817 C16.4252431,19.9674507 16.4551893,19.6604913 16.3938638,19.3823774 C16.3605986,19.2316768 16.2918808,19.0933586 16.1803181,18.9793129 C16.0606088,18.8570357 15.9091429,18.7655741 15.7526232,18.6893795 C15.4118251,18.5236228 15.0391195,18.4230853 14.6690541,18.3323272 Z M13.0920141,14.0405239 C12.6310541,14.132267 12.1274,14.3281357 11.8516236,14.7036913 C11.7483583,14.8443312 11.6835629,15.0041077 11.6656857,15.173945 C11.6478085,15.344134 11.6578409,15.5334597 11.7271621,15.6936583 C11.7931644,15.8463289 11.9314298,15.9590378 12.0741456,16.0497959 C12.234286,16.1513887 12.4104179,16.2307493 12.5897932,16.2980088 C12.7402785,16.354504 12.9095461,16.4085367 13.0920141,16.4607402 L13.0920141,14.0405239 Z" id="Combined-Shape" fill="#FFFFFF" fill-rule="nonzero"></path>
                    </g>
                </g>
            </g>
        </g>
    </g>
</svg>