<?xml version="1.0" encoding="UTF-8"?>
<svg width="16px" height="16px" viewBox="0 0 16 16" version="1.1" xmlns="http://www.w3.org/2000/svg" xmlns:xlink="http://www.w3.org/1999/xlink">
    <title>568304BA-1150-4336-BA08-88E90FBBC84D</title>
    <g id="Tiếp-cận-KH" stroke="none" stroke-width="1" fill="none" fill-rule="evenodd">
        <g id="New-KH-Tiềm-năng-3.1" transform="translate(-142.000000, -396.000000)" fill="#39B818">
            <g id="Group-22" transform="translate(16.000000, 146.000000)">
                <g id="Group-9" transform="translate(0.000000, 34.000000)">
                    <g id="Group-10" transform="translate(14.000000, 197.000000)">
                        <g id="Group-16" transform="translate(112.000000, 19.000000)">
                            <g id="Arrow---Right-Square" transform="translate(1.333267, 1.333333)">
                                <path d="M9.38666667,-7.57912251e-14 C11.7466667,-7.57912251e-14 13.3333333,1.52 13.3333333,3.78 L13.3333333,3.78 L13.3333333,9.56 C13.3333333,11.8193333 11.7466667,13.3333333 9.38666667,13.3333333 L9.38666667,13.3333333 L3.94,13.3333333 C1.58666667,13.3333333 2.31050029e-16,11.8193333 2.31050029e-16,9.56 L2.31050029e-16,9.56 L2.31050029e-16,3.78 C2.31050029e-16,1.52 1.58666667,-7.57912251e-14 3.94,-7.57912251e-14 L3.94,-7.57912251e-14 Z M7.23333333,3.81333333 C7.04,3.62 6.72,3.62 6.52666667,3.81333333 C6.33333333,4.01333333 6.33333333,4.32666667 6.52666667,4.52666667 L6.52666667,4.52666667 L8.18,6.16666667 L3.94666667,6.16666667 C3.66666667,6.16666667 3.44666667,6.39333333 3.44666667,6.66666667 C3.44666667,6.94666667 3.66666667,7.16666667 3.94666667,7.16666667 L3.94666667,7.16666667 L8.18,7.16666667 L6.52666667,8.81333333 C6.43333333,8.90666667 6.38,9.04 6.38,9.16666667 C6.38,9.29266667 6.43333333,9.42 6.52666667,9.52 C6.72,9.71333333 7.04,9.71333333 7.23333333,9.52 L7.23333333,9.52 L9.74666667,7.02 C9.93333333,6.83333333 9.93333333,6.5 9.74666667,6.31333333 L9.74666667,6.31333333 Z"></path>
                            </g>
                        </g>
                    </g>
                </g>
            </g>
        </g>
    </g>
</svg>