<?xml version="1.0" encoding="UTF-8"?>
<svg width="29px" height="29px" viewBox="0 0 29 29" version="1.1" xmlns="http://www.w3.org/2000/svg" xmlns:xlink="http://www.w3.org/1999/xlink">
    <title>CDAFB1D3-AF0F-4A4C-B782-12FD80EEA84C</title>
    <defs>
        <linearGradient x1="50%" y1="0%" x2="50%" y2="100%" id="linearGradient-1">
            <stop stop-color="#B9499E" offset="0%"></stop>
            <stop stop-color="#DB2872" offset="100%"></stop>
        </linearGradient>
    </defs>
    <g id="Tiếp-cận-KH" stroke="none" stroke-width="1" fill="none" fill-rule="evenodd">
        <g id="New-KH-Tiềm-năng-1.2" transform="translate(-32.000000, -775.000000)" fill="url(#linearGradient-1)">
            <g id="Group-26" transform="translate(0.000000, 85.000000)">
                <g id="Group-11" transform="translate(0.000000, 214.000000)">
                    <g id="Group-8" transform="translate(16.000000, 54.000000)">
                        <g id="Group-7-Copy-4" transform="translate(0.000000, 358.000000)">
                            <g id="Group-9" transform="translate(16.000000, 64.000000)">
                                <g id="insurance/-protection/-health" transform="translate(0.000000, 0.777778)">
                                    <path d="M19.8595869,16.8751661 L19.7445649,17.000917 L19.5121664,17.2527838 C19.0118034,17.7977255 18.5604851,18.3320449 18.7131775,18.7461567 C18.9747715,19.4575252 20.3317117,19.2754358 20.87499,19.1220973 C23.3385773,18.431203 24.2279968,17.8278685 25.3639424,16.8128724 C26.4797976,15.8139943 27.0599083,14.9183583 27.5697027,14.9571285 C28.4155929,15.0211648 27.7726996,15.8684469 27.6617837,16.0583775 C26.919694,17.3321322 24.8566594,19.9166694 22.6496434,20.7112414 L22.2418991,20.855506 C22.105931,20.9030602 21.9699977,20.9502265 21.8343628,20.9974431 L21.4286172,21.1396822 C19.070068,21.9754044 16.883694,22.9607544 16.2830743,26.4444444 C13.1205079,23.2748688 13.8065119,19.8042792 16.7129255,17.2903126 C18.3381564,15.8836936 18.754614,15.980837 19.5126087,14.3947423 C20.0299369,13.3144031 21.3513003,15.2354901 19.8595869,16.8751661 Z M8.48757425,14.3947423 C9.24515036,15.980837 9.6628636,15.8836936 11.2885131,17.2903126 C14.193671,19.8042792 14.8792564,23.2748688 11.7166901,26.4444444 C11.082127,22.7616864 8.67506165,21.8709508 6.16551213,20.9974431 L5.75792358,20.855506 C5.62193713,20.8079517 5.48591499,20.7600096 5.35012093,20.7112414 C3.143105,19.9166694 1.08048894,17.3321322 0.338399197,16.0583775 C0.227483358,15.8684469 -0.415828509,15.0211648 0.430480271,14.9571285 C0.940274582,14.9183583 1.52038535,15.8139943 2.6374962,16.8128724 C3.77176761,17.8278685 4.66160563,18.431203 7.12477436,19.1220973 C7.66972689,19.2754358 9.02541144,19.4575252 9.2870054,18.7461567 C9.4749345,18.2364806 8.74791256,17.544715 8.14059602,16.8751661 C6.64888262,15.2354901 7.96982749,13.3144031 8.48757425,14.3947423 Z M22.7513512,16.4852857 C22.9258867,16.6325255 22.60444,17.4610759 22.2654142,18.2804783 C21.9330853,18.3963534 21.5622497,18.510486 21.1432808,18.6250542 C21.2512668,18.3919972 21.345022,18.1641676 21.4153385,17.9507135 C21.9000198,16.4913844 22.500221,16.2709603 22.7513512,16.4852857 Z M6.58484442,17.9507135 C6.65516088,18.1641676 6.74891615,18.3919972 6.85690214,18.6250542 C6.43793325,18.510486 6.06667911,18.3963534 5.73476869,18.2804783 C5.39574292,17.4610759 5.07429626,16.6325255 5.24883175,16.4852857 C5.5012176,16.2709603 6.10016313,16.4913844 6.58484442,17.9507135 Z M24.3602587,15.5334546 C24.5371577,15.6833594 24.2555704,16.4576411 23.9220561,17.2787456 L23.7868447,17.6083157 L23.7868447,17.6083157 C23.3996856,17.8296109 22.9631376,18.0295608 22.4269747,18.223412 C22.6149038,17.8526988 22.7768827,17.4859063 22.8886357,17.1500428 C23.4222874,15.5417314 24.084434,15.2995263 24.3602587,15.5334546 Z M5.11154724,17.1500428 C5.22371873,17.4859063 5.38653481,17.8526988 5.57278971,18.223412 C5.03662673,18.0295608 4.60049728,17.8296109 4.21333821,17.6083157 C3.82785335,16.6752163 3.43943864,15.7033467 3.63992425,15.5334546 C3.91700458,15.2995263 4.57789556,15.5417314 5.11154724,17.1500428 Z M26.1324008,14.6256212 C26.2860088,14.7641486 26.0574803,15.390571 25.7506829,16.0997614 C25.6054459,16.2361107 25.4505823,16.378123 25.2827436,16.5210066 C24.8436843,16.8973828 24.4406203,17.2153858 23.9735182,17.4985393 C24.2309266,17.0520281 24.4590366,16.598547 24.6101332,16.1894993 C25.1956851,14.5999196 25.8628544,14.3812381 26.1324008,14.6256212 Z M3.3900497,16.1894993 C3.54114637,16.598547 3.77051196,17.0520281 4.02666476,17.4985393 C3.55956259,17.2153858 3.15649861,16.8973828 2.71743931,16.5210066 C2.55043773,16.378123 2.394737,16.2361107 2.24908148,16.0997614 C1.94228409,15.390571 1.71417415,14.7641486 1.86736358,14.6256212 C2.13690999,14.3812381 2.80575343,14.5999196 3.3900497,16.1894993 Z M13.9998822,2.69963533 C16.9506621,-2.0930628 26.6133151,-0.564034404 25.3626867,7.76459636 C24.937021,10.5952592 23.1050262,13.9212227 20.8482028,16.6665039 C21.1432808,16.125463 21.2897734,15.5060105 21.2018778,14.8721825 C21.1031,14.1660415 20.637672,13.3405404 19.8541457,13.3758256 C19.4188534,13.3936861 19.0919656,13.6894725 18.9052921,14.0802242 C18.7052251,14.5005981 18.4850676,14.9018047 18.1556685,15.2280846 C17.9430449,15.4363112 17.6940075,15.6201431 17.4575265,15.7987476 C17.2026294,15.99347 16.9506621,16.1894993 16.7037174,16.3916272 C17.4252981,14.3625064 18.434423,13.0029344 21.3952481,9.42082598 C23.0966552,7.36382538 21.6756768,6.1837291 20.4622994,6.91382927 C20.4693435,6.90636811 20.4740802,6.90134654 20.4765843,6.89866413 L20.440863,6.934968 C20.4204277,6.95586526 20.3919604,6.98491394 20.3560599,7.02131056 L20.0562494,7.32143768 C18.8863482,8.47906506 15.5823409,11.6015428 13.935844,11.6015428 C12.2817331,11.6015428 8.90102787,8.38838014 7.76957982,7.26743165 L7.49168523,6.98918313 C7.45937647,6.95646224 7.43445764,6.93108393 7.41750841,6.91382171 L7.39114916,6.88715677 C7.39071877,6.8869002 7.39883763,6.89553321 7.41608539,6.91382927 C6.20145231,6.1837291 4.78047392,7.36382538 6.48313669,9.42082598 C9.39122443,12.9393338 10.4036977,14.2989058 11.1135591,16.2439519 C10.92563,16.0932271 10.734771,15.9459873 10.5426564,15.7987476 C10.306594,15.6201431 10.0579751,15.4363112 9.84451444,15.2280846 C9.51511533,14.9018047 9.2962135,14.5005981 9.09447224,14.0802242 C8.90821734,13.6894725 8.58091098,13.3936861 8.14561863,13.3758256 C7.36251095,13.3405404 6.89708297,14.1660415 6.79830509,14.8721825 C6.70999097,15.5060105 6.85690214,16.125463 7.15156158,16.6665039 C4.89515671,13.9212227 3.06316189,10.5952592 2.63875185,7.76459636 C1.38686779,-0.564034404 11.0495209,-2.0930628 13.9998822,2.69963533 Z M13.9998822,4.54666679 C12.5826707,4.54666679 11.4324944,5.74200979 11.4324944,7.21745685 C11.4324944,8.69377515 12.5826707,9.88911815 13.9998822,9.88911815 C15.4183493,9.88911815 16.56727,8.69377515 16.56727,7.21745685 C16.56727,5.74200979 15.4183493,4.54666679 13.9998822,4.54666679 Z" id="Combined-Shape"></path>
                                </g>
                            </g>
                        </g>
                    </g>
                </g>
            </g>
        </g>
    </g>
</svg>