<?xml version="1.0" encoding="UTF-8"?>
<svg width="24px" height="24px" viewBox="0 0 24 24" version="1.1" xmlns="http://www.w3.org/2000/svg" xmlns:xlink="http://www.w3.org/1999/xlink">
    <title>D162FEC5-495A-4774-9F51-618B16D6ECC7</title>
    <g id="Tiếp-cận-KH" stroke="none" stroke-width="1" fill="none" fill-rule="evenodd">
        <g id="New-KH-Tiềm-năng-1.1" transform="translate(-339.000000, -361.000000)" fill-rule="nonzero">
            <g id="Group-12" transform="translate(0.000000, 138.000000)">
                <g id="Group-11" transform="translate(0.000000, 181.000000)">
                    <g id="Group-5" transform="translate(0.000000, 34.000000)">
                        <g id="Components/-Customer/-Potential/-full" transform="translate(12.000000, 8.000000)">
                            <g id="Group-5" transform="translate(305.000000, 0.000000)">
                                <g id="icon/-call/-2" transform="translate(22.000000, 0.000000)">
                                    <circle id="Oval-3" stroke="#39B818" stroke-width="0.5" cx="12" cy="12" r="11.75"></circle>
                                    <path d="M7.82701,6.03092891 C8.17505505,6.03092891 8.50608662,6.17617087 8.78293901,6.44970158 C8.96837519,6.62069388 9.14810453,6.80308331 9.31934498,6.97977417 C9.40487603,7.07087984 9.49629225,7.16202113 9.58460538,7.25034875 L9.58460538,7.25034875 L10.3637298,8.0282017 C10.9628395,8.62658575 10.9628395,9.40166065 10.3637298,9.99990223 C10.2837629,10.0797532 10.2039387,10.1623823 10.1239361,10.2420909 C9.91285488,10.4557867 9.69592415,10.6781373 9.46201563,10.8918332 C9.63603815,11.2763433 9.87568917,11.6553329 10.2323658,12.1055544 C10.9685463,13.00874 11.7361144,13.7068844 12.580689,14.2425131 C12.6634736,14.2938357 12.760561,14.3422735 12.8632482,14.3935961 C12.9345835,14.4306011 13.0087009,14.4676061 13.082961,14.5075316 L13.082961,14.5075316 L13.9847108,13.6100446 C14.2728342,13.3221962 14.6095726,13.1712557 14.9605424,13.1712557 C15.3142943,13.1712557 15.6481079,13.3251167 15.9249603,13.6128226 L15.9249603,13.6128226 L17.4915554,15.1827037 C17.7796787,15.4676315 17.9308383,15.8068381 17.9308383,16.1600773 C17.9308383,16.5105029 17.7826035,16.8524876 17.5000443,17.145892 C17.3773118,17.2741807 17.2517617,17.3965928 17.1291719,17.5134845 C16.9492999,17.6872192 16.7782021,17.8497349 16.6298246,18.0292038 C16.6268999,18.0349024 16.6211931,18.0376804 16.6183753,18.043379 C16.1846566,18.5136524 15.6311301,18.75 14.971956,18.75 C14.9148521,18.75 14.8521484,18.747222 14.792084,18.7443014 C13.8134704,18.6816886 12.9373656,18.3141317 12.281152,18.003596 C10.5633974,17.1744204 9.05964873,15.9977041 7.80988953,14.5075316 C6.77984311,13.270838 6.08917451,12.1169516 5.62702861,10.8717814 C5.43866769,10.3646811 5.19330984,9.58960616 5.26172042,8.75765254 C5.30741069,8.24189757 5.51570984,7.79741017 5.88091103,7.43277379 L5.88091103,7.43277379 L6.85117844,6.45540013 C7.14222656,6.17617087 7.47882229,6.03092891 7.82701,6.03092891 Z M7.83271683,6.8001628 C7.68712143,6.8001628 7.53874396,6.87139475 7.39899806,7.00242593 L7.39899806,7.00242593 L6.42594857,7.97410103 C6.18907963,8.21059113 6.06074738,8.48689988 6.03221325,8.82037228 C5.98941206,9.34168334 6.08639243,9.89458578 6.35183117,10.6039848 C6.78262519,11.7664903 7.43327468,12.8491804 8.4061815,14.020305 C9.58460538,15.4249279 11.002823,16.5333328 12.6178904,17.3141062 C13.2085112,17.5961136 13.9961245,17.9266654 14.8435168,17.9808017 C14.8862823,17.9835798 14.9319726,17.9835798 14.9747381,17.9835798 C15.4199062,17.9835798 15.7594267,17.8383378 16.0476927,17.5305802 C16.224533,17.3225828 16.4128939,17.1374154 16.5983301,16.9607245 C16.7210625,16.8410904 16.835199,16.7328535 16.9465178,16.6130413 L16.9465178,16.6130413 L17.0186763,16.5307792 C17.2351364,16.2568171 17.2108411,15.9854587 16.9435931,15.7212529 L16.9435931,15.7212529 L15.3656914,14.1456733 C15.2772356,14.048691 15.1317828,13.9376759 14.9548356,13.9376759 C14.7751062,13.9376759 14.6209863,14.0543895 14.5238989,14.1513718 L14.5238989,14.1513718 L13.5480316,15.125825 C13.4995593,15.1742271 13.3511818,15.3223895 13.1143129,15.3223895 C13.0201503,15.3223895 12.9288767,15.2995597 12.8318963,15.2511576 L12.8318963,15.2511576 L12.7976197,15.2312483 C12.7148707,15.1799256 12.6178904,15.1315235 12.5150962,15.0801653 C12.4009596,15.0232866 12.281152,14.9634517 12.1641264,14.8892993 C11.2481808,14.310967 10.4179446,13.5557658 9.63033132,12.5870468 L9.63033132,12.5870468 C9.19379481,12.0343225 8.90845351,11.5727038 8.70589686,11.0826992 L8.70589686,11.0826992 L8.69722962,11.0569488 C8.64597519,10.8946112 8.60028491,10.6553074 8.84564276,10.4101627 C8.84856751,10.4046066 8.85427434,10.4016861 8.85998116,10.3959875 C9.10812109,10.1737794 9.33646546,9.94576594 9.57611648,9.70076363 C9.65886545,9.62105507 9.73872535,9.538426 9.82147433,9.45576132 C10.1239361,9.15373783 10.1239361,8.87450857 9.82147433,8.57248508 L9.82147433,8.57248508 L9.04249259,7.79463212 C8.95125471,7.70057033 8.85998116,7.60942904 8.77148969,7.5181809 C8.59736017,7.33871199 8.43196922,7.17064019 8.25780402,7.0081601 L8.25780402,7.0081601 L8.24931512,6.99964789 C8.1578989,6.90854222 8.01244618,6.8001628 7.83271683,6.8001628 Z M12.6023898,7.69850008 L12.6805941,7.70334837 C13.585126,7.8572094 14.409798,8.28460113 15.0632296,8.93712145 C15.7166612,9.58960616 16.1446731,10.4130832 16.2987931,11.3163044 C16.333034,11.5271866 16.1931811,11.7265648 15.9820999,11.7607918 C15.9592369,11.7635698 15.9391917,11.7664903 15.9164714,11.7664903 C15.7308926,11.7664903 15.5682837,11.6354592 15.5369318,11.4473356 C15.4084926,10.7007891 15.0575228,10.0226965 14.51541,9.48136921 C13.9732615,8.94004196 13.2940422,8.58666023 12.546555,8.46129199 C12.3353311,8.42706504 12.198403,8.2248019 12.2354617,8.01680459 C12.2726631,7.80880728 12.4695129,7.66926388 12.6805941,7.70334837 Z M12.7089203,5.2501672 L12.7862061,5.255854 C14.275759,5.509511 15.6311301,6.21039782 16.7096489,7.28735375 C17.7881676,8.36448777 18.4902499,9.71789492 18.7440966,11.2051113 C18.781298,11.4131086 18.6386274,11.6126293 18.4301856,11.6439358 C18.4075009,11.6468563 18.38742,11.6496343 18.3645927,11.6496343 C18.1791209,11.6496343 18.0165477,11.5185675 17.9851958,11.330622 C17.7597405,10.0028227 17.131954,8.7918795 16.1675361,7.82885908 C15.2031182,6.8686167 13.9904177,6.23892622 12.6606916,6.01383324 C12.4494677,5.97682824 12.3097218,5.78008558 12.3439984,5.56931022 C12.3810571,5.36131291 12.5779069,5.218849 12.7862061,5.255854 Z" id="Combined-Shape" fill="#39B818"></path>
                                </g>
                            </g>
                        </g>
                    </g>
                </g>
            </g>
        </g>
    </g>
</svg>