<?xml version="1.0" encoding="UTF-8"?>
<svg width="16px" height="16px" viewBox="0 0 16 16" version="1.1" xmlns="http://www.w3.org/2000/svg" xmlns:xlink="http://www.w3.org/1999/xlink">
    <title>FCDAEA96-F350-4E8A-B6CB-1E79676D6C3F</title>
    <g id="Tiếp-cận-KH" stroke="none" stroke-width="1" fill="none" fill-rule="evenodd" opacity="0.600000024">
        <g id="New-KH-Tiềm-năng-2.2" transform="translate(-343.000000, -111.000000)" fill="#424D6C" fill-rule="nonzero">
            <g id="icon/-clock/1" transform="translate(343.000000, 111.000000)">
                <path d="M8,1.33333333 C11.6759649,1.33333333 14.6666667,4.32403509 14.6666667,8 C14.6666667,11.6759649 11.6759649,14.6666667 8,14.6666667 C4.32403509,14.6666667 1.33333333,11.6759649 1.33333333,8 C1.33333333,4.32403509 4.32403509,1.33333333 8,1.33333333 Z M8,2 C4.6916,2 2,4.6916 2,8 C2,11.3084 4.6916,14 8,14 C11.3084,14 14,11.3084 14,8 C14,4.6916 11.3084,2 8,2 Z M7.72908824,5.1537183 C7.91318316,5.1537183 8.06242157,5.30295672 8.06242157,5.48705163 L8.06175491,8.4867183 L11.7290882,8.48705163 C11.9131832,8.48705163 12.0624216,8.63629005 12.0624216,8.82038497 C12.0624216,9.00447988 11.9131832,9.1537183 11.7290882,9.1537183 L7.72908824,9.1537183 L7.72908824,9.1537183 C7.54499332,9.1537183 7.39575491,9.00447988 7.39575491,8.82038497 L7.39575491,5.48705163 C7.39575491,5.30295672 7.54499332,5.1537183 7.72908824,5.1537183 Z" id="Combined-Shape"></path>
            </g>
        </g>
    </g>
</svg>