<?xml version="1.0" encoding="UTF-8"?>
<svg width="24px" height="24px" viewBox="0 0 24 24" version="1.1" xmlns="http://www.w3.org/2000/svg" xmlns:xlink="http://www.w3.org/1999/xlink">
    <title>46A3E55C-6241-47B1-A6A7-345AA22F30A7</title>
    <g id="Tiếp-cận-KH" stroke="none" stroke-width="1" fill="none" fill-rule="evenodd">
        <g id="New-KH-Tiềm-năng-1.2" transform="translate(-341.000000, -353.000000)" fill="#29A93B">
            <g id="Group-26" transform="translate(0.000000, 85.000000)">
                <g id="Group-11" transform="translate(0.000000, 214.000000)">
                    <g id="Group-8" transform="translate(16.000000, 54.000000)">
                        <g id="Group-5" transform="translate(258.000000, 0.000000)">
                            <g id="icon/-next/1" transform="translate(67.000000, 0.000000)">
                                <path d="M6.81412527,2.3157676 C7.27025041,1.85964246 8.00977539,1.85964246 8.46590053,2.3157676 L8.46590053,2.3157676 L17.2239604,11.0738275 C17.5332111,11.3830782 17.6327913,11.8226016 17.5227009,12.2157491 C17.4968187,12.4747601 17.3846659,12.7273814 17.1858747,12.9261725 L8.42781486,21.6842324 C7.97168972,22.1403575 7.23216475,22.1403575 6.7760396,21.6842324 C6.31991446,21.2281073 6.31991446,20.4885823 6.7760396,20.0324571 L14.828,11.981 L6.81412527,3.96754286 C6.39058049,3.54399808 6.3603273,2.87609325 6.72336567,2.41763989 Z" id="Mask"></path>
                            </g>
                        </g>
                    </g>
                </g>
            </g>
        </g>
    </g>
</svg>