<?xml version="1.0" encoding="UTF-8"?>
<svg width="16px" height="16px" viewBox="0 0 16 16" version="1.1" xmlns="http://www.w3.org/2000/svg" xmlns:xlink="http://www.w3.org/1999/xlink">
    <title>6827703F-C7E8-45C2-87C3-3B5E18B6D7A8</title>
    <defs>
        <rect id="path-1" x="0" y="0" width="16" height="16"></rect>
    </defs>
    <g id="Tiếp-cận-KH" stroke="none" stroke-width="1" fill="none" fill-rule="evenodd">
        <g id="New-KH-Tiềm-năng-1.1" transform="translate(-334.000000, -98.000000)">
            <g id="Group-16" transform="translate(0.000000, 88.000000)">
                <g id="Group-15" transform="translate(16.000000, 10.000000)">
                    <g id="icon-sort" transform="translate(318.000000, 0.000000)">
                        <mask id="mask-2" fill="white">
                            <use xlink:href="#path-1"></use>
                        </mask>
                        <g id="Rectangle"></g>
                        <g id="sort" mask="url(#mask-2)" fill="#424D6C" fill-rule="nonzero">
                            <g transform="translate(1.333333, 0.000000)" id="Combined-Shape">
                                <path d="M9.10911717,3.32137799 C9.46579292,3.32137799 9.75761853,3.61420096 9.75761853,3.97213397 L9.75761853,3.97213397 L9.75761853,14.0257225 L12.9677003,11.6506029 C13.2595259,11.4445167 13.6594223,11.498756 13.8756022,11.7915789 C14.0809864,12.0844019 14.0269319,12.4856651 13.7351063,12.7025837 L13.7351063,12.7025837 L9.49821798,15.8368612 C9.37931335,15.9236364 9.24961308,15.9670048 9.10911717,15.9670048 C9.01184196,15.9670048 8.91456676,15.9453014 8.81729155,15.901933 C8.60111172,15.782622 8.4606158,15.5657416 8.4606158,15.3162871 L8.4606158,15.3162871 L8.4606158,3.97209569 C8.4606158,3.61420096 8.75244142,3.32137799 9.10911717,3.32137799 Z M4.50475749,0.132861244 C4.6993079,-0.0189856459 4.96950409,-0.0406507177 5.18568392,0.0677894737 C5.40186376,0.176229665 5.54235967,0.403980861 5.54235967,0.653435407 L5.54235967,0.653435407 L5.54235967,12.106067 C5.54235967,12.4639617 5.25053406,12.7567847 4.89385831,12.7567847 C4.53718256,12.7567847 4.24535695,12.4639617 4.24535695,12.106067 L4.24535695,12.106067 L4.24535695,1.95487081 L1.04607084,4.36252632 C0.754245232,4.57944498 0.354348774,4.52520574 0.138168937,4.23238278 C-0.0780108992,3.93955981 -0.0239564033,3.53829665 0.26786921,3.32137799 L0.26786921,3.32137799 Z"></path>
                            </g>
                        </g>
                    </g>
                </g>
            </g>
        </g>
    </g>
</svg>