<?xml version="1.0" encoding="UTF-8"?>
<svg width="20px" height="20px" viewBox="0 0 20 20" version="1.1" xmlns="http://www.w3.org/2000/svg" xmlns:xlink="http://www.w3.org/1999/xlink">
    <title>icon-search-2</title>
    <g id="MB-Bank" stroke="none" stroke-width="1" fill="none" fill-rule="evenodd">
        <g id="MB-2.1" transform="translate(-32.000000, -316.000000)" fill="#39B818">
            <g id="Group-7" transform="translate(0.000000, 276.000000)">
                <g id="Group-2" transform="translate(16.000000, 32.000000)">
                    <g id="icon-search-2" transform="translate(16.000000, 8.000000)">
                        <path d="M18.9421301,17.8646259 L14.5347406,13.4572364 C15.6272109,12.1252168 16.2856207,10.4190944 16.2856207,8.55947704 C16.2856207,4.29421769 12.8247364,0.833333333 8.55947704,0.833333333 C4.29056973,0.833333333 0.833333333,4.29421769 0.833333333,8.55947704 C0.833333333,12.8247364 4.29056973,16.2856207 8.55947704,16.2856207 C10.4190944,16.2856207 12.1213818,15.6308588 13.4534014,14.5383886 L17.8607908,18.9421301 C18.1602041,19.2415901 18.6429039,19.2415901 18.9421301,18.9421301 C19.2415901,18.6465519 19.2415901,18.1602041 18.9421301,17.8646259 Z M8.55947704,14.7479592 C5.14353741,14.7479592 2.36739371,11.9717687 2.36739371,8.55947704 C2.36739371,5.14718537 5.14353741,2.36739371 8.55947704,2.36739371 C11.9717687,2.36739371 14.7517942,5.14718537 14.7517942,8.55947704 C14.7517942,11.9717687 11.9717687,14.7479592 8.55947704,14.7479592 Z" id="Fill-1"></path>
                    </g>
                </g>
            </g>
        </g>
    </g>
</svg>