<?xml version="1.0" encoding="UTF-8"?>
<svg width="16px" height="16px" viewBox="0 0 16 16" version="1.1" xmlns="http://www.w3.org/2000/svg" xmlns:xlink="http://www.w3.org/1999/xlink">
    <title>A7D52EBF-3377-4ED4-80DD-AD0C2428BAB7</title>
    <g id="Tiếp-cận-KH" stroke="none" stroke-width="1" fill="none" fill-rule="evenodd">
        <g id="New-KH-Tiềm-năng-1.1" transform="translate(-233.000000, -98.000000)" fill="#424D6C" fill-rule="nonzero">
            <g id="Group-16" transform="translate(0.000000, 88.000000)">
                <g id="Group-15" transform="translate(16.000000, 10.000000)">
                    <g id="icon/-local/-8" transform="translate(217.000000, 0.000000)">
                        <path d="M8,0 C12.4111579,0 16,3.58884211 16,8 C16,12.4111579 12.4111579,16 8,16 C3.58884211,16 0,12.4111579 0,8 C0,3.58884211 3.58884211,0 8,0 Z M8,0.8 C4.02992,0.8 0.8,4.02992 0.8,8 C0.8,11.97008 4.02992,15.2 8,15.2 C11.97008,15.2 15.2,11.97008 15.2,8 C15.2,4.02992 11.97008,0.8 8,0.8 Z M7.74957255,4.58446196 C7.92924919,4.58446196 8.07490589,4.73011866 8.07490589,4.90979529 L8.07390589,8.58446196 L12.5495726,8.58446196 C12.7292492,8.58446196 12.8749059,8.73011866 12.8749059,8.90979529 L12.8749059,9.05912863 C12.8749059,9.23880527 12.7292492,9.38446196 12.5495726,9.38446196 L7.60023922,9.38446196 C7.42056258,9.38446196 7.27490589,9.23880527 7.27490589,9.05912863 L7.27490589,4.90979529 C7.27490589,4.73011866 7.42056258,4.58446196 7.60023922,4.58446196 L7.74957255,4.58446196 Z" id="Combined-Shape"></path>
                    </g>
                </g>
            </g>
        </g>
    </g>
</svg>