<?xml version="1.0" encoding="UTF-8"?>
<svg width="64px" height="64px" viewBox="0 0 64 64" version="1.1" xmlns="http://www.w3.org/2000/svg" xmlns:xlink="http://www.w3.org/1999/xlink">
    <title>F4B73D30-CB38-4940-B77F-74EF1D6B74AA</title>
    <defs>
        <linearGradient x1="50%" y1="0%" x2="50%" y2="100%" id="linearGradient-1">
            <stop stop-color="#92E106" offset="0%"></stop>
            <stop stop-color="#2C7D0B" offset="100%"></stop>
        </linearGradient>
    </defs>
    <g id="Tiếp-cận-KH" stroke="none" stroke-width="1" fill="none" fill-rule="evenodd">
        <g id="New-KH-Tiềm-năng-3.1.5" transform="translate(-156.000000, -149.000000)" fill="url(#linearGradient-1)">
            <g id="Components/-Select/-RSA" transform="translate(0.000000, 77.000000)">
                <g id="icons/-status/-success" transform="translate(156.000000, 72.000000)">
                    <path d="M32,-1.98951966e-13 C36.6075458,-1.98951966e-13 41.0558023,0.958607222 45.2189718,2.85008998 C46.1436667,3.26955723 46.5529178,4.35927349 46.1330474,5.2835718 C45.7135855,6.20746168 44.6238832,6.61712637 43.6991882,6.19684225 C40.0163374,4.52387456 36.0794404,3.67595441 32,3.67595441 C16.3822944,3.67595441 3.67590749,16.382095 3.67590749,32 C3.67590749,47.617905 16.3822944,60.3240456 32,60.3240456 C47.6177056,60.3240456 60.3240925,47.617905 60.3240925,32 C60.3240925,30.2212465 60.1578598,28.4408593 59.8311125,26.7094847 C59.6428243,25.7116673 60.2983612,24.7506095 61.295349,24.5619105 C62.2919283,24.3736199 63.2537908,25.0291651 63.4428958,26.0269825 C63.8125287,27.9829987 64,29.9929289 64,32 C64,49.6445812 49.6447644,64 32,64 C14.3552356,64 1.0658141e-14,49.6445812 1.0658141e-14,32 C1.0658141e-14,14.3550104 14.3552356,-1.98951966e-13 32,-1.98951966e-13 Z M48.2225966,18.0362745 C49.0386481,17.2198042 50.3619748,17.2198042 51.1784347,18.0362745 L51.1784347,18.0362745 L51.5546025,18.4124472 C52.3710624,19.2285091 52.3710624,20.5522611 51.5546025,21.368323 L51.5546025,21.368323 L28.0161331,44.9075012 L14.9797315,31.8705247 C14.16368,31.0544628 14.16368,29.7307108 14.9797315,28.9146489 L14.9797315,28.9146489 L15.3563078,28.5384763 C16.1723592,27.7220059 17.4956859,27.7220059 18.3121458,28.5384763 L18.3121458,28.5384763 L28.0161331,38.242179 Z M54.8220759,12.4047124 C56.1474447,12.4047124 57.2216266,13.4789079 57.2216266,14.8038853 C57.2216266,16.1288626 56.1474447,17.2034666 54.8220759,17.2034666 C53.4971154,17.2034666 52.4229336,16.1288626 52.4229336,14.8038853 C52.4229336,13.4789079 53.4971154,12.4047124 54.8220759,12.4047124 Z" id="Combined-Shape"></path>
                </g>
            </g>
        </g>
    </g>
</svg>