<?xml version="1.0" encoding="UTF-8"?>
<svg width="20px" height="20px" viewBox="0 0 20 20" version="1.1" xmlns="http://www.w3.org/2000/svg" xmlns:xlink="http://www.w3.org/1999/xlink">
    <title>2FBB735F-7C1F-439B-832A-F4DCCA3BFA46</title>
    <g id="Tiếp-cận-KH" stroke="none" stroke-width="1" fill="none" fill-rule="evenodd">
        <g id="New-KH-Tiềm-năng-4.7" transform="translate(-330.000000, -309.000000)" fill="#424D6C">
            <g id="Group-26" transform="translate(0.000000, 9.000000)">
                <g id="Group-7" transform="translate(16.000000, 158.000000)">
                    <g id="Group-30" transform="translate(1.000000, 50.000000)">
                        <g id="Group-24" transform="translate(13.000000, 64.000000)">
                            <g id="icon/-next/1" transform="translate(300.000000, 28.000000)">
                                <path d="M5.67843772,1.92980633 C6.05854201,1.54970205 6.67481282,1.54970205 7.05491711,1.92980633 L7.05491711,1.92980633 L14.3533003,9.22818956 C14.6125335,9.48742277 14.6949683,9.85650447 14.6006045,10.1856001 C14.5789705,10.3994717 14.4857099,10.6076628 14.3215623,10.7718104 L7.02317905,18.0701937 C6.64307477,18.450298 6.02680395,18.450298 5.64669967,18.0701937 C5.26659538,17.6900894 5.26659538,17.0738186 5.64669967,16.6937143 L12.3556215,9.98372812 L5.67843772,3.30628571 C5.32757223,2.95542022 5.30058258,2.40332408 5.59746876,2.02150002 Z" id="Mask"></path>
                            </g>
                        </g>
                    </g>
                </g>
            </g>
        </g>
    </g>
</svg>