<?xml version="1.0" encoding="UTF-8"?>
<svg width="29px" height="29px" viewBox="0 0 29 29" version="1.1" xmlns="http://www.w3.org/2000/svg" xmlns:xlink="http://www.w3.org/1999/xlink">
    <title>DB6D0738-2900-4B49-A59C-8BBFEA9E6DA2</title>
    <defs>
        <linearGradient x1="50%" y1="0%" x2="50%" y2="100%" id="linearGradient-1">
            <stop stop-color="#13A7E2" offset="0%"></stop>
            <stop stop-color="#0663C8" offset="100%"></stop>
        </linearGradient>
    </defs>
    <g id="Tiếp-cận-KH" stroke="none" stroke-width="1" fill="none" fill-rule="evenodd">
        <g id="New-KH-Tiềm-năng-1.2" transform="translate(-32.000000, -603.000000)">
            <g id="Group-26" transform="translate(0.000000, 85.000000)">
                <g id="Group-11" transform="translate(0.000000, 214.000000)">
                    <g id="Group-8" transform="translate(16.000000, 54.000000)">
                        <g id="Group-7-Copy-3" transform="translate(0.000000, 202.000000)">
                            <g id="bike66" transform="translate(16.000000, 48.000000)">
                                <rect id="Mask" x="0" y="0" width="28" height="28"></rect>
                                <path d="M6.69322438,22.9230172 L13.9816066,28 L21.2983453,22.9230172 C23.2993932,21.5381025 24.8888889,18.4129083 24.8888889,15.9556766 L24.8888889,5.46423002 C22.2302391,5.1150545 20.0419683,4.50943308 18.3240767,3.64736577 C16.606185,2.78529846 15.1648261,1.56950987 14,0 C12.761798,1.49103633 11.2031551,2.70682492 9.32407134,3.64736577 C7.44498757,4.58790662 5.37400083,5.18886244 3.11111111,5.45023323 L3.11111111,15.9556766 C3.11111111,18.4121305 4.69141026,21.5381025 6.69322438,22.9230172 Z" id="Shape" fill="#424D6C" fill-rule="nonzero" opacity="0.149999991"></path>
                                <path d="M13.9999746,19.8840347 C15.4035892,19.8840347 16.5454268,20.9762292 16.5454268,22.3188194 L16.5454268,22.3188194 L16.5454268,25.5652153 C16.5454268,26.9078056 15.4035892,28 13.9999746,28 C12.59636,28 11.4545224,26.9078056 11.4545224,25.5652153 L11.4545224,25.5652153 L11.4545224,22.3188194 C11.4545224,20.9762292 12.59636,19.8840347 13.9999746,19.8840347 Z M13.9999746,3.11111111 C16.0488586,3.11111111 17.7627331,4.50741667 18.1568978,6.35750694 L18.1568978,6.35750694 L22.4848323,6.35750694 C22.9532459,6.35750694 23.3333333,6.72072917 23.3333333,7.16906944 C23.3333333,7.61740972 22.9532459,7.98068056 22.4848323,7.98068056 L22.4848323,7.98068056 L18.1568978,7.98068056 C17.9757731,8.83084028 17.5129497,9.58188194 16.8699673,10.1489306 C19.6616962,11.2407847 21.6363313,13.8624792 21.6363313,16.9082083 L21.6363313,16.9082083 L21.6363313,22.7679375 C21.6363313,23.8627569 20.7049419,24.7536528 19.5604107,24.7536528 L19.5604107,24.7536528 L18.242378,24.7536528 L18.242378,22.3188194 C18.242378,20.0811528 16.3393492,18.2608611 13.9999746,18.2608611 C11.6606,18.2608611 9.75757114,20.0811528 9.75757114,22.3188194 L9.75757114,22.3188194 L9.75757114,24.7536528 L8.53345494,24.7536528 C7.38892383,24.7536528 6.45814423,23.8627569 6.45814423,22.7679861 L6.45814423,22.7679861 L6.45814423,16.9082569 C6.45814423,13.8851806 8.40213447,11.2779722 11.1559512,10.1715347 C10.4994505,9.60200694 10.0266663,8.84226389 9.84310224,7.98072917 L9.84310224,7.98072917 L5.51516769,7.98072917 C5.04675406,7.98072917 4.66666667,7.61745833 4.66666667,7.16911806 C4.66666667,6.72077778 5.04675406,6.35750694 5.51516769,6.35750694 L5.51516769,6.35750694 L9.84310224,6.35750694 C10.2372161,4.50741667 11.9510906,3.11111111 13.9999746,3.11111111 Z M13.9999746,4.73428472 C12.59636,4.73428472 11.4545224,5.82647917 11.4545224,7.16906944 C11.4545224,8.51165972 12.59636,9.60385417 13.9999746,9.60385417 C15.4035892,9.60385417 16.5454268,8.51165972 16.5454268,7.16906944 C16.5454268,5.82647917 15.4035892,4.73428472 13.9999746,4.73428472 Z" id="Combined-Shape" fill="url(#linearGradient-1)"></path>
                            </g>
                        </g>
                    </g>
                </g>
            </g>
        </g>
    </g>
</svg>