<?xml version="1.0" encoding="UTF-8"?>
<svg width="16px" height="16px" viewBox="0 0 16 16" version="1.1" xmlns="http://www.w3.org/2000/svg" xmlns:xlink="http://www.w3.org/1999/xlink">
    <title>6189C2F2-9981-4FBC-8FCA-D251BC021863</title>
    <g id="Tiếp-cận-KH" stroke="none" stroke-width="1" fill="none" fill-rule="evenodd">
        <g id="New-KH-Tiềm-năng-3.1" transform="translate(-30.000000, -396.000000)" fill="#39B818">
            <g id="Group-22" transform="translate(16.000000, 146.000000)">
                <g id="Group-9" transform="translate(0.000000, 34.000000)">
                    <g id="Group-10" transform="translate(14.000000, 197.000000)">
                        <g id="Group-20" transform="translate(0.000000, 19.000000)">
                            <g id="Edit" transform="translate(2.000000, 2.000000)">
                                <path d="M11.3265186,10.6355011 C11.6979238,10.6355011 12,10.94151 12,11.3177505 C12,11.6947077 11.6979238,12 11.3265186,12 L11.3265186,12 L7.51979255,12 C7.14838738,12 6.84631118,11.6947077 6.84631118,11.3177505 C6.84631118,10.94151 7.14838738,10.6355011 7.51979255,10.6355011 L7.51979255,10.6355011 Z M8.68657072,0.466042438 L9.66991011,1.24718941 C10.07315,1.5625148 10.3419766,1.97817098 10.4339436,2.41532663 C10.5400594,2.89619784 10.4268692,3.36846927 10.1085219,3.77695897 L4.25093189,11.3519347 C3.98210529,11.695926 3.58593978,11.8894211 3.16147674,11.8965876 L0.826929984,11.9252536 C0.69959107,11.9252536 0.593475309,11.8392557 0.565177772,11.7174255 L0.0345989646,9.41698345 C-0.0573680287,8.99416078 0.0345989646,8.55700513 0.30342556,8.22018029 L4.45608903,2.84531579 C4.52683287,2.75931796 4.65417178,2.74570163 4.73906439,2.80948336 L6.48643726,4.19978164 C6.59962741,4.29294596 6.75526386,4.34311136 6.91797469,4.32161191 C7.26461951,4.27861299 7.49807419,3.96328761 7.46270227,3.62646276 C7.44147912,3.4544671 7.35658651,3.31113738 7.24339636,3.20364009 C7.20802444,3.17497415 5.54554418,1.84200775 5.54554418,1.84200775 C5.43942842,1.75600992 5.41820526,1.59834723 5.50309787,1.49156658 L6.1610156,0.638038102 C6.76941263,-0.143108872 7.83057024,-0.214773732 8.68657072,0.466042438 Z"></path>
                            </g>
                        </g>
                    </g>
                </g>
            </g>
        </g>
    </g>
</svg>