<?xml version="1.0" encoding="UTF-8"?>
<svg width="16px" height="16px" viewBox="0 0 16 16" version="1.1" xmlns="http://www.w3.org/2000/svg" xmlns:xlink="http://www.w3.org/1999/xlink">
    <title>37219DC7-AD47-41F8-B47D-0CF84C72937D</title>
    <g id="Tiếp-cận-KH" stroke="none" stroke-width="1" fill="none" fill-rule="evenodd">
        <g id="New-KH-Tiềm-năng-7.1" transform="translate(-77.000000, -228.000000)" fill="#00863D" fill-rule="nonzero">
            <g id="Group-11" transform="translate(0.000000, 184.000000)">
                <g id="Group-5" transform="translate(0.000000, 34.000000)">
                    <g id="Group-2" transform="translate(14.000000, 9.000000)">
                        <g id="Group" transform="translate(63.000000, 0.000000)">
                            <g id="KH-tự-tiếp" transform="translate(0.000000, 1.000000)">
                                <path d="M9.8594807,0.000967105263 C9.89122041,0.000978668262 9.92153126,0.000990285631 9.95041322,0.00100195737 L10.3882105,0.00136842105 C10.4074105,0.00263157895 10.426386,0.00463157895 10.4456982,0.00821052632 C10.4656842,0.0118947368 10.4849965,0.0171578947 10.5139649,0.0266315789 C10.5318175,0.0328421053 10.5491088,0.0397894737 10.5690947,0.0495789474 C10.5866105,0.0582105263 10.6032281,0.0683157895 10.6299509,0.0865263158 C10.6458947,0.098 10.6610526,0.109894737 10.6754246,0.123263158 C13.0708959,2.36908772 14.2687064,3.49203509 14.2688561,3.49210526 L14.2899649,3.51390789 L14.2899649,3.51390789 L14.3157895,3.54463158 C14.3272421,3.55947368 14.3377965,3.57494737 14.3491368,3.59515789 C14.3575579,3.61042105 14.3649684,3.62642105 14.3755228,3.65294737 C14.3818105,3.67042105 14.3873123,3.68842105 14.3916912,3.70915789 C14.3950596,3.726 14.397193,3.74336842 14.4,3.78947368 L14.4,3.78947368 L14.4,15.5789474 C14.4,15.8115789 14.1989053,16 13.9508772,16 L13.9508772,16 L2.04912281,16 C1.80109474,16 1.6,15.8115789 1.6,15.5789474 L1.6,15.5789474 L1.6,0.421052632 C1.6,0.188526316 1.80109474,0 2.04912281,0 L2.04912281,0 Z M9.90877193,0.842105263 L2.49824561,0.842105263 L2.49824561,15.1578947 L13.5017544,15.1578947 L13.5017544,4.21052632 L10.3578947,4.21052632 C10.1098667,4.21052632 9.90877193,4.022 9.90877193,3.78947368 L9.90877193,3.78947368 L9.90877193,0.842105263 Z M11.56,11.2 C11.8030053,11.2 12,11.3969947 12,11.64 C12,11.8830053 11.8030053,12.08 11.56,12.08 L4.44,12.08 C4.19699471,12.08 4,11.8830053 4,11.64 C4,11.3969947 4.19699471,11.2 4.44,11.2 L11.56,11.2 Z M11.56,8.8 C11.8030053,8.8 12,8.99699471 12,9.24 C12,9.48300529 11.8030053,9.68 11.56,9.68 L4.44,9.68 C4.19699471,9.68 4,9.48300529 4,9.24 C4,8.99699471 4.19699471,8.8 4.44,8.8 L11.56,8.8 Z M11.56,6.4 C11.8030053,6.4 12,6.59699471 12,6.84 C12,7.08300529 11.8030053,7.28 11.56,7.28 L4.44,7.28 C4.19699471,7.28 4,7.08300529 4,6.84 C4,6.59699471 4.19699471,6.4 4.44,6.4 L11.56,6.4 Z M10.8070175,1.43757895 L10.8070175,3.36842105 L12.8666947,3.36842105 L10.8070175,1.43757895 Z" id="Combined-Shape"></path>
                            </g>
                        </g>
                    </g>
                </g>
            </g>
        </g>
    </g>
</svg>