<?xml version="1.0" encoding="UTF-8"?>
<svg width="16px" height="16px" viewBox="0 0 16 16" version="1.1" xmlns="http://www.w3.org/2000/svg" xmlns:xlink="http://www.w3.org/1999/xlink">
    <title>C3254951-C55C-43B6-A232-5BBE88585CB9</title>
    <g id="Tiếp-cận-KH" stroke="none" stroke-width="1" fill="none" fill-rule="evenodd">
        <g id="New-KH-Tiềm-năng-4.7" transform="translate(-30.000000, -303.000000)" fill="#D66100" fill-rule="nonzero">
            <g id="Group-26" transform="translate(0.000000, 9.000000)">
                <g id="Group-7" transform="translate(16.000000, 158.000000)">
                    <g id="Group-30" transform="translate(1.000000, 50.000000)">
                        <g id="Group-24" transform="translate(13.000000, 64.000000)">
                            <g id="Group-25" transform="translate(0.000000, 22.000000)">
                                <g id="Discount" transform="translate(1.333333, 1.333333)">
                                    <path d="M7.96753863,0.477642596 L8.08908672,0.590979943 L8.56824793,1.07014313 C8.73284065,1.23395764 8.94872719,1.33495801 9.17837818,1.3576485 L9.27753333,1.36253333 L9.96286667,1.36253333 C11.0320754,1.36253333 11.9063714,2.19864329 11.9674573,3.25256589 L11.9708667,3.37053333 L11.9708667,4.0552 C11.9708667,4.2883956 12.0512767,4.51258214 12.1963384,4.69083775 L12.2624201,4.76431328 L12.7416184,5.24351338 C13.4959622,5.99444777 13.529677,7.19531158 12.8385823,7.98669235 L12.7484201,8.08342006 L12.2628392,8.56900041 C12.0995192,8.73270838 11.9984677,8.94875815 11.9757567,9.17817415 L11.9708667,9.2772 L11.9708667,9.9632 C11.9708667,11.0323521 11.1348114,11.9060808 10.08084,11.9671262 L9.96286667,11.9705333 L9.27753333,11.9705333 C9.04517239,11.9705333 8.8206984,12.0512853 8.64234362,12.1967445 L8.56884094,12.262999 L8.09028588,12.7408835 C7.34015742,13.4961265 6.13842755,13.5296261 5.34674258,12.8382804 L5.24397994,12.7420867 L4.76590405,12.2640064 C4.60030734,12.0995813 4.38401822,11.9982098 4.15501294,11.9754361 L4.0562,11.9705333 L3.3702,11.9705333 C2.30144506,11.9705333 1.42734761,11.134861 1.36627528,10.0811454 L1.36286667,9.9632 L1.36286667,9.2772 C1.36286667,9.045217 1.28200107,8.82051534 1.13661292,8.64249554 L1.070401,8.56917428 L0.592315122,8.09041907 C-0.162734929,7.33963003 -0.196226869,6.13787452 0.495119538,5.34697367 L0.585313276,5.25031328 L1.06939363,4.76557072 C1.23402508,4.59976611 1.33524179,4.38388812 1.3579736,4.15431895 L1.36286667,4.0552 L1.36286667,3.37053333 L1.3662755,3.25257957 C1.42508958,2.23780092 2.23786522,1.42477531 3.25228778,1.36594321 L3.3702,1.36253333 L4.0562,1.36253333 C4.2885206,1.36253333 4.51303418,1.28194338 4.69106213,1.13715876 L4.764401,1.07122572 L5.24318005,0.591781648 C5.99408928,-0.162536932 7.19570822,-0.195746175 7.96753863,0.477642596 Z M6.02781053,1.22838809 L5.95133233,1.29784094 L5.47049595,1.77933971 C5.12566526,2.12173056 4.66958373,2.32644949 4.18808386,2.3581916 L4.0562,2.36253333 L3.3702,2.36253333 C2.84515827,2.36253333 2.41334557,2.76530003 2.36698688,3.27882161 L2.36286667,3.37053333 L2.36286667,4.0552 C2.36286667,4.54131037 2.18646034,5.00874259 1.86826806,5.37411909 L1.777999,5.47117428 L1.29321995,5.95661835 C0.925343161,6.32616541 0.90392513,6.90994401 1.22902536,7.30597522 L1.29866567,7.38255906 L1.77817254,7.86273292 C2.1211073,8.20648225 2.32663381,8.66336346 2.35850674,9.14522893 L2.36286667,9.2772 L2.36286667,9.9632 C2.36286667,10.4885566 2.76533596,10.9200894 3.27854376,10.966416 L3.3702,10.9705333 L4.0562,10.9705333 C4.54139371,10.9705333 5.00922927,11.1471379 5.37468567,11.4653707 L5.47175339,11.5556466 L5.95396149,12.0378551 C6.32610493,12.4079119 6.91004503,12.4294662 7.30571956,12.1043741 L7.38222572,12.0347343 L7.86281874,11.5548098 C8.20729482,11.2119624 8.66358115,11.006714 9.14552322,10.9748869 L9.27753333,10.9705333 L9.96286667,10.9705333 C10.4886576,10.9705333 10.920399,10.5682484 10.9667474,10.054887 L10.9708667,9.9632 L10.9708667,9.2772 C10.9708667,8.79130143 11.1473949,8.32263511 11.4651714,7.95885862 L11.5553133,7.86231328 L12.0403143,7.37731512 C12.4081926,7.00734894 12.4294902,6.4238584 12.104853,6.0279762 L12.0353133,5.95142006 L11.5540603,5.47016262 C11.211454,5.12511497 11.0069146,4.66949433 10.9752039,4.18730253 L10.9708667,4.0552 L10.9708667,3.37053333 C10.9708667,2.84492706 10.5681615,2.41302152 10.0545886,2.36665426 L9.96286667,2.36253333 L9.27753333,2.36253333 C8.79141994,2.36253333 8.32338902,2.18627448 7.95878806,1.86829591 L7.86197994,1.77808672 L7.40335141,1.31823799 L7.37678165,1.29355328 C7.00726804,0.925709788 6.42335598,0.904173092 6.02781053,1.22838809 Z M8.73113333,8.02826667 C8.7778,8.07493333 8.8178,8.12826667 8.84446667,8.18826667 C8.86446667,8.24826667 8.8778,8.31493333 8.8778,8.3816 C8.8778,8.44893333 8.86446667,8.50826667 8.84446667,8.56826667 C8.8178,8.62826667 8.7778,8.68826667 8.73113333,8.73493333 C8.6378,8.82826667 8.51113333,8.8816 8.3778,8.8816 C8.24446667,8.8816 8.1178,8.82826667 8.02446667,8.73493333 C7.9778,8.68826667 7.94446667,8.62826667 7.9178,8.56826667 C7.89113333,8.50826667 7.8778,8.44893333 7.8778,8.3816 C7.8778,8.31493333 7.89113333,8.24826667 7.9178,8.18826667 C7.94446667,8.12826667 7.9778,8.07493333 8.02446667,8.02826667 C8.21113333,7.8416 8.54446667,7.8416 8.73113333,8.02826667 Z M8.73355339,4.59944661 C8.91106443,4.77695765 8.9272018,5.05473344 8.78196549,5.25047444 L8.73355339,5.30655339 L5.30688672,8.73322006 C5.11162458,8.9284822 4.79504209,8.9284822 4.59977994,8.73322006 C4.4222689,8.55570902 4.40613153,8.27793323 4.55136784,8.08219223 L4.59977994,8.02611328 L8.02644661,4.59944661 C8.22170876,4.40418446 8.53829124,4.40418446 8.73355339,4.59944661 Z M5.3044,4.60186667 C5.39773333,4.69453333 5.45106667,4.82186667 5.45106667,4.9552 C5.45106667,5.02186667 5.4444,5.0812 5.41773333,5.14186667 C5.39106667,5.20186667 5.35106667,5.2552 5.3044,5.30853333 C5.25773333,5.3552 5.2044,5.38786667 5.1444,5.41453333 C5.0844,5.4412 5.01773333,5.4552 4.95106667,5.4552 C4.8844,5.4552 4.8244,5.4412 4.7644,5.41453333 C4.7044,5.38786667 4.6444,5.3552 4.59773333,5.30853333 C4.55106667,5.2552 4.51773333,5.20186667 4.49106667,5.14186667 C4.4644,5.0812 4.45106667,5.02186667 4.45106667,4.9552 C4.45106667,4.88786667 4.4644,4.82186667 4.49106667,4.76186667 C4.51773333,4.70186667 4.55106667,4.64186667 4.59773333,4.60186667 C4.79106667,4.41453333 5.11773333,4.41453333 5.3044,4.60186667 Z"></path>
                                </g>
                            </g>
                        </g>
                    </g>
                </g>
            </g>
        </g>
    </g>
</svg>