<?xml version="1.0" encoding="UTF-8"?>
<svg width="16px" height="16px" viewBox="0 0 16 16" version="1.1" xmlns="http://www.w3.org/2000/svg" xmlns:xlink="http://www.w3.org/1999/xlink">
    <title>1D2CE86C-EF41-41D8-A64C-6FA588D901E0</title>
    <g id="Tiếp-cận-KH" stroke="none" stroke-width="1" fill="none" fill-rule="evenodd">
        <g id="New-KH-Tiềm-năng-1.1" transform="translate(-258.000000, -391.000000)" fill="#BC0F23">
            <g id="Group-12" transform="translate(0.000000, 138.000000)">
                <g id="Group-11" transform="translate(0.000000, 181.000000)">
                    <g id="Group-5" transform="translate(0.000000, 34.000000)">
                        <g id="Group-2" transform="translate(42.000000, 38.000000)">
                            <g id="icon/-Waitting-Copy-2" transform="translate(216.000000, 0.000000)">
                                <path d="M8,0.666666667 C12.0500882,0.666666667 15.3333333,3.94991183 15.3333333,8 C15.3333333,12.0500882 12.0500882,15.3333333 8,15.3333333 C3.94991183,15.3333333 0.666666667,12.0500882 0.666666667,8 C0.666666667,3.94991183 3.94991183,0.666666667 8,0.666666667 Z M5.29588336,4.78306284 C5.23159952,4.71877901 5.12737484,4.71877901 5.063091,4.78306284 L5.063091,4.78306284 L4.78306284,5.063091 C4.71877901,5.12737484 4.71877901,5.23159952 4.78306284,5.29588336 L4.78306284,5.29588336 L7.48786832,7.99986832 L4.78306284,10.7041166 C4.71877901,10.7684005 4.71877901,10.8726252 4.78306284,10.936909 L4.78306284,10.936909 L5.063091,11.2169372 C5.12737484,11.281221 5.23159952,11.281221 5.29588336,11.2169372 L5.29588336,11.2169372 L7.99986832,8.51286832 L10.7041166,11.2169372 C10.7684005,11.281221 10.8726252,11.281221 10.936909,11.2169372 L10.936909,11.2169372 L11.2169372,10.936909 C11.281221,10.8726252 11.281221,10.7684005 11.2169372,10.7041166 L11.2169372,10.7041166 L8.51286832,7.99986832 L11.2169372,5.29588336 C11.281221,5.23159952 11.281221,5.12737484 11.2169372,5.063091 L11.2169372,5.063091 L10.936909,4.78306284 C10.8726252,4.71877901 10.7684005,4.71877901 10.7041166,4.78306284 L10.7041166,4.78306284 L7.99986832,7.48786832 Z" id="Combined-Shape"></path>
                            </g>
                        </g>
                    </g>
                </g>
            </g>
        </g>
    </g>
</svg>