<?xml version="1.0" encoding="UTF-8"?>
<svg width="36px" height="36px" viewBox="0 0 36 36" version="1.1" xmlns="http://www.w3.org/2000/svg" xmlns:xlink="http://www.w3.org/1999/xlink">
    <title>4BE238E5-19A7-471F-899E-7F4EDF61400F</title>
    <defs>
        <linearGradient x1="50%" y1="0%" x2="50%" y2="100%" id="linearGradient-1">
            <stop stop-color="#1177B7" offset="0%"></stop>
            <stop stop-color="#074281" offset="100%"></stop>
        </linearGradient>
    </defs>
    <g id="Tiếp-cận-KH" stroke="none" stroke-width="1" fill="none" fill-rule="evenodd">
        <g id="New-KH-Tiềm-năng-2.4" transform="translate(-28.000000, -329.000000)" fill-rule="nonzero">
            <g id="Group-26" transform="translate(0.000000, 85.000000)">
                <g id="Group-2" transform="translate(16.000000, 126.000000)">
                    <g id="Group-4-Copy-2" transform="translate(0.000000, 105.000000)">
                        <g id="Group-2" transform="translate(12.000000, 10.000000)">
                            <g id="insurance/-motorcycle/-comprehensive" transform="translate(0.000000, 3.000000)">
                                <g id="scooter" transform="translate(1.000000, 6.000000)" fill="url(#linearGradient-1)">
                                    <path d="M16.6649143,16.5021741 C16.5511161,16.6017318 16.4073045,16.6599609 16.2499805,16.6599609 L16.315,16.6547612 L16.2500391,16.6599023 L16.2500391,16.6599023 L11.2006205,16.6603975 C11.2337477,16.8699718 11.2500586,17.077325 11.2500586,17.2849219 C11.2500586,19.6974609 9.28751953,21.6599414 6.87503906,21.6599414 C4.4625,21.6599414 2.50001953,19.6974023 2.50001953,17.2849219 C2.50001953,17.0773505 2.51631935,16.8700117 2.54953515,16.6604407 L1.875,16.6599023 C0.841230469,16.6599023 -2.13162821e-14,15.8186719 -2.13162821e-14,14.7849023 C-2.13162821e-14,13.5086719 0.421230469,12.2874023 1.18751953,11.3448633 C1.29128906,11.2186523 1.4025,11.0898633 1.52126953,10.9648828 C1.74878906,10.7236523 2.12501953,10.7023828 2.37878906,10.9149023 C2.95875,11.4024023 3.64875,11.6599219 4.37501953,11.6599219 L4.37501953,11.6599219 L12.3499805,11.6599219 C12.5350195,11.6599219 12.7099805,11.7411328 12.82875,11.8824023 C12.9475195,12.0236719 12.9975,12.2111719 12.9662695,12.3924023 C12.7750118,13.4838357 12.6370352,14.6838964 12.5621773,15.4114873 L15.833,15.4097612 L18.708,8.50876118 L17.7674414,5.68488281 L19.7149219,4.51611328 C20.0099414,4.33857422 20.1061523,3.95484375 19.9286719,3.65859375 C19.7511328,3.36357422 19.3686328,3.26736328 19.0711523,3.44484375 L19.0711523,3.44484375 L15.9462891,5.31990234 C15.8462695,5.38113281 15.735,5.40990234 15.6250195,5.40990234 C15.4125,5.40990234 15.20625,5.30238281 15.0887695,5.10615234 C14.9112891,4.80990234 15.0075,4.42611328 15.3025195,4.24863281 L15.3025195,4.24863281 L16.956,3.25576118 L16.7374219,2.59863281 C16.5840885,2.13972656 16.608533,1.63836661 16.799356,1.1981332 L16.8786914,1.03611328 C17.1399609,0.559863281 17.5924219,0.209882812 18.1199414,0.0786328125 C19.0624219,-0.153867188 20.0162109,0.318632812 20.3961914,1.20738281 L20.3592556,1.12881299 C20.5622615,0.972453022 20.8005362,0.862548046 21.0574805,0.811171875 L21.0574805,0.811171875 L23.0025,0.422402344 C23.2112109,0.379863281 23.4287109,0.448652344 23.5774805,0.603632812 C23.7250195,0.758671875 23.7837305,0.978632812 23.7312891,1.18623047 L23.7312891,1.18623047 L23.1062695,3.68625 C23.03625,3.96498047 22.7862305,4.15998047 22.5,4.15998047 L22.5,4.15998047 L21.661,4.15976118 L23.6987109,8.91363281 C23.731998,8.99913281 24.2210124,10.2725484 25.4283418,10.3996762 L25.6249805,10.4098828 C27.5350195,10.4098828 30.0001172,11.6224219 30.0001172,12.9098437 C30.0001172,13.1398242 29.9038477,13.3623047 29.7275977,13.5335742 C29.492759,13.7615862 29.0497952,13.9117152 28.5205763,14.0085792 C29.4271716,14.8094811 30,15.9815348 30,17.2849219 C30,19.6974023 28.0375195,21.6599414 25.6249805,21.6599414 C23.2124414,21.6599414 21.2499609,19.6974609 21.2499609,17.2849219 C21.2499609,17.0720508 21.2652402,16.8626836 21.2947597,16.6578593 L20.9125195,16.6586133 C20.27625,16.6586133 19.6875,16.3386328 19.33875,15.8036133 C18.99,15.2698828 18.9362695,14.6036133 19.1925,14.0223633 C19.4025,13.5474023 19.6875,13.0749023 20.0412305,12.6186328 C20.5624805,11.9448633 20.5487695,11.0023828 20.00625,10.3248633 L20.00625,10.3248633 L19.546,9.74876118 L16.8275391,16.2748828 C16.8251567,16.2805299 16.8227024,16.2861243 16.8201776,16.2916656 C16.8140822,16.3046566 16.8077428,16.317496 16.8009851,16.3300777 C16.794496,16.3423234 16.787626,16.354123 16.7804244,16.3656282 C16.7703993,16.3815563 16.7597188,16.3970407 16.7483806,16.4119997 C16.7405193,16.4224125 16.7326356,16.4321661 16.7244964,16.4416433 C16.7238077,16.4424101 16.722721,16.443669 16.7216294,16.4449235 L16.6649143,16.5021741 L16.6649143,16.5021741 Z M25.6249805,15.4099219 C24.5912109,15.4099219 23.7499805,16.2511523 23.7499805,17.2849219 C23.7499805,18.3186914 24.5912109,19.1599219 25.6249805,19.1599219 C26.65875,19.1599219 27.4999805,18.3186914 27.4999805,17.2849219 C27.4999805,16.2511523 26.65875,15.4099219 25.6249805,15.4099219 Z M8.6428122,16.6597991 L5.10714873,16.6597991 C5.03776125,16.8554101 4.99998047,17.0658424 4.99998047,17.2849219 C4.99998047,18.3186914 5.84121094,19.1599219 6.87498047,19.1599219 C7.90875,19.1599219 8.74998047,18.3186914 8.74998047,17.2849219 C8.74998047,17.0658424 8.71219969,16.8554101 8.6428122,16.6597991 Z M13.125,6.65988281 C14.1587695,6.65988281 15,7.50117187 15,8.53488281 C15,9.56865234 14.1587695,10.4098828 13.125,10.4098828 L13.125,10.4098828 L4.37501953,10.4098828 C3.34125,10.4098828 2.50001953,9.56865234 2.50001953,8.53488281 C2.50001953,7.50111328 3.34125,6.65988281 4.37501953,6.65988281 L4.37501953,6.65988281 Z" id="Combined-Shape"></path>
                                </g>
                                <path d="M5.4881194,8.78421504 C6.10889552,8.93428031 6.78686567,9 7.464,9 C9.08823881,9 10.801194,8.62155615 12.1986866,8.12003339 C14.1074627,7.43532096 15.9368358,7.05909951 15.4660299,5.89053773 C15.3640597,5.63781852 14.9305075,5.55315546 14.361791,5.55315546 C13.2059701,5.55315546 11.5016119,5.9029197 10.9330149,5.9029197 C10.6499104,5.9029197 10.6489552,5.81635173 11.137194,5.55664781 C12.1226269,5.03268935 13.5180896,4.73806192 15.0296119,4.73816775 C16.8889552,4.73827358 18.9242985,5.18413038 20.5865075,6.19691215 C21.4958806,6.750926 22.2114627,6.96014957 22.7430448,6.96014957 C23.9731343,6.96014957 24.2183881,5.83963407 23.6003582,5.27852968 C22.3133134,4.11017956 17.5731343,0.687675646 14.8419104,0.103394753 C14.5061493,0.0315369872 14.1042388,0 13.6538507,0 C10.4364179,0.000105828816 4.72632836,1.60584645 3.32167164,1.60584645 C2.55629851,1.60584645 1.22089552,1.2431711 0.0268656716,0.864833084 L0.0268656716,7.42315064 C0.623880597,7.5897252 2.66853731,8.1027833 5.4881194,8.78421504 Z" id="Path" fill="#424D6C" opacity="0.200000003"></path>
                                <path d="M22.36,35.416 C25.5774328,35.416 31.2476418,33.8101535 32.6522985,33.8101535 C33.4176716,33.8101535 34.7134328,34.1728289 35.9074627,34.5511669 L35.9074627,27.9928494 C35.3104478,27.8262748 33.3054328,27.3131109 30.4859701,26.631785 C29.865194,26.4817197 29.2070448,26.416 28.5299104,26.416 C26.9056716,26.416 25.2026269,26.7944438 23.8051343,27.2959666 C21.8963582,27.980679 20.072,28.3569005 20.542806,29.5254623 C20.6447761,29.7781815 21.0808358,29.8628445 21.6495522,29.8628445 C22.8053731,29.8628445 24.5109254,29.5129745 25.0796418,29.5130803 C25.3627463,29.5130803 25.3644179,29.5996483 24.8761791,29.859458 C23.8907463,30.3834165 22.4956418,30.6779381 20.9841194,30.6779381 C19.1247761,30.6779381 17.0896716,30.2319754 15.4274627,29.2191937 C14.5180896,28.6651798 13.8026269,28.4559563 13.2710448,28.4559563 C12.0409552,28.4560621 11.7958209,29.5764718 12.4137313,30.1375761 C13.7007761,31.3059263 18.4410746,34.7284302 21.1721791,35.3127111 C21.5075821,35.384463 21.9094925,35.416 22.36,35.416 Z" id="Path" fill="#424D6C" opacity="0.200000003"></path>
                            </g>
                        </g>
                    </g>
                </g>
            </g>
        </g>
    </g>
</svg>