<?xml version="1.0" encoding="UTF-8"?>
<svg width="20px" height="20px" viewBox="0 0 20 20" version="1.1" xmlns="http://www.w3.org/2000/svg" xmlns:xlink="http://www.w3.org/1999/xlink">
    <title>A4106EC5-40C8-44B2-BA68-38C1D9907FA1</title>
    <defs>
        <polygon id="path-1" points="0 0.0499314175 19.9041606 0.0499314175 19.9041606 19.8754813 0 19.8754813"></polygon>
        <path d="M3.7994723,1.19677179 C4.31262455,1.19677179 4.80069241,1.41006821 5.20887931,1.81176426 C5.48228355,2.0628766 5.74727374,2.33072627 5.99974802,2.59020727 C6.12585369,2.72400135 6.26063635,2.85784773 6.39084387,2.98756208 L6.39084387,2.98756208 L7.53957291,4.12988523 C8.42289105,5.00864764 8.42289105,6.14689106 7.53957291,7.02544427 C7.42167094,7.14271022 7.30397933,7.2640559 7.18602478,7.38111264 C6.87480987,7.69493768 6.55497056,8.02147264 6.21009942,8.33529768 C6.46667555,8.89997354 6.82001333,9.45654224 7.34589185,10.1177193 C8.43130511,11.4441008 9.56299568,12.4693672 10.8082234,13.2559697 C10.9302798,13.33134 11.073424,13.4024737 11.2248244,13.477844 C11.3300001,13.532188 11.4392776,13.5865321 11.5487656,13.6451651 L11.5487656,13.6451651 L12.8782916,12.3271522 C13.3030963,11.9044299 13.7995782,11.6827648 14.3170427,11.6827648 C14.838609,11.6827648 15.3307787,11.9087188 15.7389656,12.3312319 L15.7389656,12.3312319 L18.0487292,14.6366953 C18.4735339,15.0551287 18.6964012,15.5532736 18.6964012,16.0720264 C18.6964012,16.5866472 18.4778461,17.0888718 18.0612451,17.5197536 C17.8802903,17.7081532 17.6951811,17.8879227 17.5144366,18.059585 C17.2492361,18.3147247 16.9969722,18.5533887 16.7782067,18.8169494 C16.7738945,18.8253181 16.7654805,18.8293978 16.761326,18.8377665 C16.1218577,19.5283908 15.3057469,19.8754813 14.3338708,19.8754813 C14.2496776,19.8754813 14.1572282,19.8714016 14.0686702,19.8671126 C12.6258173,19.7751619 11.3341019,19.2353828 10.3665906,18.7793427 C7.8339597,17.5616493 5.61685587,15.8335717 3.77423013,13.6451651 C2.25554555,11.8290072 1.23723439,10.1344566 0.555853594,8.30585043 C0.278137148,7.56114361 -0.0836146844,6.42290019 0.0172488154,5.201127 C0.0846138536,4.44371027 0.391726908,3.79095418 0.930173923,3.25546406 L0.930173923,3.25546406 L2.36072126,1.82013293 L2.36913531,1.81176426 C2.78983813,1.41006821 3.28610969,1.19677179 3.7994723,1.19677179 Z M3.80788635,2.32643733 C3.59322274,2.32643733 3.37445728,2.43104567 3.16841807,2.62347273 L3.16841807,2.62347273 L1.73376889,4.05043519 C1.38453296,4.3977349 1.19532187,4.80351068 1.15325159,5.29323465 C1.09014617,6.05881084 1.23313254,6.87078082 1.62449133,7.91257535 C2.25964741,9.61978357 3.218955,11.2097781 4.65339383,12.929644 C6.39084387,14.992416 8.48184204,16.6201741 10.8630726,17.7667862 C11.7338748,18.1809307 12.8951197,18.6663657 14.1445019,18.745868 C14.2075548,18.7499478 14.2749198,18.7499478 14.3379726,18.7499478 C14.9943216,18.7499478 15.4949054,18.5366514 15.9199204,18.084691 C16.180651,17.7792346 16.4583674,17.5073052 16.7317716,17.2478242 C16.9127264,17.0721345 17.0810076,16.9131821 17.2451343,16.7372309 L17.2451343,16.7372309 L17.3305182,16.6422932 C17.6720398,16.2311781 17.6432919,15.8239029 17.2408221,15.4275867 L17.2408221,15.4275867 L14.9143881,13.1137547 C14.7839702,12.9713304 14.5695169,12.8082983 14.3086286,12.8082983 C14.0436384,12.8082983 13.8164063,12.9796991 13.6732622,13.1221233 L13.6732622,13.1221233 L12.2344586,14.5531655 C12.1629917,14.6242469 11.9442262,14.8418322 11.5949903,14.8418322 C11.4561583,14.8418322 11.321586,14.8083053 11.1785997,14.7372239 C11.1617716,14.7288552 11.1449434,14.7164068 11.1280627,14.7079859 C11.0060589,14.6326155 10.8630726,14.5615342 10.7115144,14.4861116 C10.5432332,14.4025818 10.3665906,14.3147108 10.1940499,14.2058135 C8.84359387,13.3564983 7.61950644,12.2474406 6.4582615,10.8248194 L6.4582615,10.8248194 C5.81463878,10.013111 5.39393596,9.33519656 5.09528955,8.61559574 L5.09528955,8.61559574 L5.0825107,8.57777983 C5.00694196,8.3393774 4.93957692,7.98794566 5.30132876,7.62793604 C5.30564096,7.61977659 5.31405502,7.61548765 5.32246907,7.60711898 C5.68832276,7.28079324 6.02499019,6.94594192 6.37832796,6.58614151 C6.50033178,6.46908477 6.61807598,6.34773909 6.74007979,6.2263411 C7.18602478,5.78280171 7.18602478,5.37273699 6.74007979,4.9291976 L6.74007979,4.9291976 L5.59156111,3.78687446 C5.45704139,3.64873914 5.32246907,3.51489276 5.19199861,3.38088946 C4.93526472,3.11732873 4.69141485,2.87050534 4.43462837,2.6318937 L4.43462837,2.6318937 L4.42211246,2.619393 C4.2873298,2.48559893 4.07287654,2.32643733 3.80788635,2.32643733 Z M10.8630014,3.64529736 L10.955522,3.65281886 C12.2891499,3.87877289 13.5050336,4.50642297 14.4684431,5.46468773 C15.4318525,6.42290019 16.0629068,7.63222498 16.2901389,8.95865882 C16.3406232,9.26835183 16.1344262,9.56115059 15.8232113,9.6114149 C15.7895025,9.61549463 15.7599481,9.61978357 15.7264497,9.61978357 C15.4528351,9.61978357 15.2130871,9.42735652 15.1668623,9.15108587 C14.9774935,8.05473809 14.460029,7.05891894 13.6607463,6.2639478 C12.8614109,5.46897667 11.8599805,4.95001467 10.7578969,4.76590397 C10.4464716,4.71563966 10.2445868,4.41860426 10.2992256,4.11314789 C10.3540747,3.80769152 10.6443071,3.60276377 10.955522,3.65281886 Z M11.0198258,0.04996466 L11.1112346,0.05852837 C13.3074085,0.431038693 15.3057469,1.46033252 16.8958983,3.04190612 C18.4860498,4.62374123 19.5211891,6.61129982 19.8954568,8.79536519 C19.9503059,9.10082156 19.7399545,9.39382954 19.4326311,9.43980491 C19.3991853,9.44409385 19.3695783,9.44817358 19.3359221,9.44817358 C19.0624652,9.44817358 18.8227698,9.25569422 18.7765451,8.9796851 C18.4441373,7.02973321 17.5185385,5.25139131 16.0966156,3.83713877 C14.6746926,2.42696595 12.8867057,1.50222816 10.926178,1.17166579 C10.6147527,1.11732175 10.4087135,0.828393498 10.4592504,0.5188574 C10.5138892,0.213401027 10.8041216,0.00418433387 11.1112346,0.05852837 Z" id="path-3"></path>
    </defs>
    <g id="Tiếp-cận-KH" stroke="none" stroke-width="1" fill="none" fill-rule="evenodd">
        <g id="New-KH-Tiềm-năng-1.2" transform="translate(-179.000000, -134.000000)">
            <g id="Group-26" transform="translate(0.000000, 85.000000)">
                <g id="Group-14" transform="translate(0.000000, 16.000000)">
                    <g id="Group-4" transform="translate(16.000000, 10.000000)">
                        <g id="icon/-call/-7" transform="translate(163.000000, 23.000000)">
                            <mask id="mask-2" fill="white">
                                <use xlink:href="#path-1"></use>
                            </mask>
                            <g id="Clip-2"></g>
                            <g id="color/-xanh/-appay" mask="url(#mask-2)">
                                <mask id="mask-4" fill="white">
                                    <use xlink:href="#path-3"></use>
                                </mask>
                                <use id="Mask" fill="#39B818" fill-rule="nonzero" xlink:href="#path-3"></use>
                            </g>
                        </g>
                    </g>
                </g>
            </g>
        </g>
    </g>
</svg>