<?xml version="1.0" encoding="UTF-8"?>
<svg width="50px" height="12px" viewBox="0 0 50 12" version="1.1" xmlns="http://www.w3.org/2000/svg" xmlns:xlink="http://www.w3.org/1999/xlink">
    <title>D46D94C2-8053-4648-A174-11F79E176A63</title>
    <g id="Tiếp-cận-KH" stroke="none" stroke-width="1" fill="none" fill-rule="evenodd">
        <g id="New-KH-Tiềm-năng-7.1" transform="translate(-14.000000, -230.000000)" fill-rule="nonzero">
            <g id="Group-11" transform="translate(0.000000, 184.000000)">
                <g id="Group-5" transform="translate(0.000000, 34.000000)">
                    <g id="Group-2" transform="translate(14.000000, 9.000000)">
                        <g id="Group-2" transform="translate(0.000000, 3.000000)">
                            <g id="Group" transform="translate(18.852459, 2.800000)" fill="#233A95">
                                <path d="M7.66885026,-2.25648072e-14 L7.36823645,1.7012434 L3.50502914,1.7012434 L3.13405891,3.80425646 L6.64548409,3.80425646 L6.34487028,5.49922221 L2.83344509,5.49922221 L2.1874452,9.14025974 L0,9.14025974 L1.61180172,-2.25648072e-14 L7.66885026,-2.25648072e-14 Z M12.7850368,-4.56574461e-14 L14.516038,9.14025974 L12.2251962,9.14025974 L11.999973,7.43273869 L9.0077218,7.43273869 L8.17761341,9.14025974 L5.7516377,9.14025974 L10.7129832,-4.56574461e-14 L12.7850368,-4.56574461e-14 Z M31.0040661,-2.25648072e-14 L30.7047493,1.7012434 L28.0045302,1.7012434 L26.6989998,9.14025974 L24.5146244,9.14025974 L25.8265233,1.7012434 L23.1708833,1.7012434 L23.4765685,-2.25648072e-14 L31.0040661,-2.25648072e-14 Z M19.6060463,0.000444016917 C20.4837335,0.0167244163 21.1897329,0.27313686 21.7240656,0.76968904 C22.2583983,1.26624122 22.5214974,1.93169256 22.5133706,2.76606303 L20.441064,2.76606303 C20.4532541,2.42417464 20.3811304,2.15046453 20.2246908,1.94492449 C20.0682511,1.73938445 19.811247,1.63254593 19.4536708,1.62440573 C19.1042212,1.61626553 18.79541,1.69766631 18.5272278,1.8686105 C18.2590456,2.03955469 18.1005766,2.26951189 18.0518162,2.55848897 C17.9746123,2.96549896 18.2763127,3.29924214 18.9569267,3.55972853 C19.6375406,3.82021492 20.1322481,4.04406705 20.441064,4.23129164 C21.4122086,4.81331592 21.8672989,5.5988334 21.8063484,6.58786766 C21.7738414,7.10070024 21.6092775,7.55043953 21.3126518,7.93709901 C21.016026,8.3237585 20.6046163,8.62290635 20.0784103,8.83455154 C19.5522043,9.04619673 18.9620091,9.1479477 18.3078071,9.1398075 C17.8283298,9.1316673 17.3833978,9.05637158 16.9729978,8.91391809 C16.5625977,8.7714646 16.2111218,8.56389262 15.9185594,8.29119593 C15.3253078,7.74173245 15.0408764,7.01930057 15.0652566,6.1238786 L17.1558484,6.12998372 C17.1314682,6.5858349 17.2188292,6.93077069 17.4179342,7.16480143 C17.6170392,7.39883217 17.9522619,7.51584579 18.4236124,7.51584579 C18.773062,7.51584579 19.0646042,7.43546252 19.2982478,7.27469358 C19.5318914,7.11392463 19.6751229,6.89109001 19.7279467,6.60618302 C19.8173407,6.14626174 19.5694791,5.79013335 18.9843543,5.53778716 L17.984771,5.12263905 C16.5829095,4.49177357 15.9165273,3.63299539 15.9856046,2.54627873 C16.0140481,2.04972655 16.184707,1.60710984 16.4975862,1.2184153 C16.8104655,0.829720769 17.2432075,0.527520389 17.7958254,0.311805098 C18.3484433,0.0960898062 18.9518442,-0.00769618275 19.6060463,0.000444016917 Z M11.3629131,2.58011453 L9.83139525,5.73149529 L11.7747498,5.73149529 L11.3629131,2.58011453 Z" id="Combined-Shape"></path>
                            </g>
                            <path d="M12.7633946,0.731707317 C12.5613392,0.731707317 12.397541,0.567909055 12.397541,0.365853659 C12.397541,0.163798262 12.5613392,3.71169741e-17 12.7633946,0 L18.0327869,0 L15.9041274,12 L12.9983382,12 L13.522056,9.05769231 L14.7722211,3.63461538 L10.4642198,12 L8.54673682,12 L7.938,8.212 L8.61297148,8.21251965 C8.78976995,8.21251965 8.9372778,8.08711161 8.97139229,7.92039827 L8.97882514,7.84666599 C8.97882514,7.6446106 8.81502687,7.48081234 8.61297148,7.48081234 L8.61297148,7.48081234 L7.82,7.48 L7.15297168,3.32142857 L6.872,5.489 L6.8472611,5.48668494 L5.92596295,5.48668494 C5.72390755,5.48668494 5.56010929,5.6504832 5.56010929,5.8525386 C5.56010929,6.054594 5.72390755,6.21839226 5.92596295,6.21839226 L5.92596295,6.21839226 L6.778,6.218 L6.37584202,9.33791209 L6.285,9.836 L4.81769792,9.83668615 C4.64089945,9.83668615 4.4933916,9.9620942 4.45927711,10.1288075 L4.45184426,10.2025398 C4.45184426,10.4045952 4.61564252,10.5683935 4.81769792,10.5683935 L4.81769792,10.5683935 L6.153,10.568 L5.89435951,12 L3.00546448,12 L3.519,9.107 L1.21114054,9.10776053 C1.00908515,9.10776053 0.845286885,8.94396227 0.845286885,8.74190687 C0.845286885,8.53985148 1.00908515,8.37605322 1.21114054,8.37605322 L3.648,8.376 L3.834,7.331 L2.61995202,7.33170732 C2.41789662,7.33170732 2.25409836,7.16790905 2.25409836,6.96585366 C2.25409836,6.76379826 2.41789662,6.6 2.61995202,6.6 L3.963,6.6 L4.229,5.103 L1.51168699,5.10356783 C1.3096316,5.10356783 1.14583333,4.93976957 1.14583333,4.73771417 C1.14583333,4.53565877 1.3096316,4.37186051 1.51168699,4.37186051 L4.359,4.371 L4.615,2.926 L3.76578535,2.92682927 C3.56372996,2.92682927 3.39993169,2.76303101 3.39993169,2.56097561 C3.39993169,2.35892021 3.56372996,2.19512195 3.76578535,2.19512195 L9.194,2.195 L9.347,3.282 L9.30798514,3.27889538 L8.53696022,3.27889538 C8.33490482,3.27889538 8.17110656,3.44269365 8.17110656,3.64474904 C8.17110656,3.84680444 8.33490482,4.0106027 8.53696022,4.0106027 L8.53696022,4.0106027 L9.30798514,4.0106027 C9.35703482,4.0106027 9.40383003,4.00095018 9.44657487,3.98344104 L10.0587608,8.32417582 L13.093,2.195 L11.1855258,2.19512195 C10.9834704,2.19512195 10.8196721,2.03132369 10.8196721,1.82926829 C10.8196721,1.6272129 10.9834704,1.46341463 11.1855258,1.46341463 L14.2106491,1.46341463 C14.4127045,1.46341463 14.5765027,1.29961637 14.5765027,1.09756098 C14.5765027,0.895505579 14.4127045,0.731707317 14.2106491,0.731707317 L14.2106491,0.731707317 L12.7633946,0.731707317 Z M1.86946055,9.83668615 C2.07151595,9.83668615 2.23531421,10.0004844 2.23531421,10.2025398 C2.23531421,10.4045952 2.07151595,10.5683935 1.86946055,10.5683935 L1.5492553,10.5683935 C1.3471999,10.5683935 1.18340164,10.4045952 1.18340164,10.2025398 C1.18340164,10.0004844 1.3471999,9.83668615 1.5492553,9.83668615 L1.86946055,9.83668615 Z M2.33906437,2.18181818 C2.54111977,2.18181818 2.70491803,2.34561644 2.70491803,2.54767184 C2.70491803,2.74972724 2.54111977,2.9135255 2.33906437,2.9135255 L0.365853659,2.9135255 C0.163798262,2.9135255 2.47446494e-17,2.74972724 0,2.54767184 C-2.47446494e-17,2.34561644 0.163798262,2.18181818 0.365853659,2.18181818 L2.33906437,2.18181818 Z M8.63175563,0.731707317 C8.83381103,0.731707317 8.99760929,0.895505579 8.99760929,1.09756098 C8.99760929,1.29961637 8.83381103,1.46341463 8.63175563,1.46341463 L4.76134546,1.46341463 C4.55929007,1.46341463 4.3954918,1.29961637 4.3954918,1.09756098 C4.3954918,0.895505579 4.55929007,0.731707317 4.76134546,0.731707317 L8.63175563,0.731707317 Z" id="Combined-Shape" fill="#39B818"></path>
                        </g>
                    </g>
                </g>
            </g>
        </g>
    </g>
</svg>