<?xml version="1.0" encoding="UTF-8"?>
<svg width="20px" height="20px" viewBox="0 0 20 20" version="1.1" xmlns="http://www.w3.org/2000/svg" xmlns:xlink="http://www.w3.org/1999/xlink">
    <title>868DF0E6-FA2C-47D2-87F6-16F2E40C1F92</title>
    <defs>
        <path d="M11.4515,0 C11.727625,0 11.9515,0.230729434 11.9515,0.515149813 L11.9515,0.515149813 L11.9515,3.39772267 L17.625,3.39772267 C18.934625,3.39772267 20,4.49510379 20,5.84407269 L20,5.84407269 L20,15.8869833 C20,17.2358235 18.934625,18.3333333 17.625,18.3333333 L17.625,18.3333333 L2.375,18.3333333 C1.065375,18.3333333 0,17.2358235 0,15.8869833 L0,15.8869833 L0,5.84407269 C0,4.49510379 1.065375,3.39772267 2.375,3.39772267 L2.375,3.39772267 L7.9515,3.39772267 L7.9515,0.515149813 C7.9515,0.230729434 8.175375,0 8.4515,0 L8.4515,0 Z M7.9515,4.42776479 L2.375,4.42776479 C1.616875,4.42776479 1,5.06304326 1,5.84407269 L1,5.84407269 L1,15.8869833 C1,16.667884 1.616875,17.3032912 2.375,17.3032912 L2.375,17.3032912 L17.625,17.3032912 C18.383125,17.3032912 19,16.667884 19,15.8869833 L19,15.8869833 L19,5.84407269 C19,5.06304326 18.383125,4.42776479 17.625,4.42776479 L17.625,4.42776479 L11.9515,4.42776479 L11.9515,5.66536039 C11.9515,5.94978076 11.727625,6.18025269 11.4515,6.18025269 L11.4515,6.18025269 L8.4515,6.18025269 C8.175375,6.18025269 7.9515,5.94978076 7.9515,5.66536039 L7.9515,5.66536039 L7.9515,4.42776479 Z M6.542125,7.42905 C7.7095,7.42905 8.65925,8.40746125 8.65925,9.60990666 C8.65925,10.1408934 8.473875,10.6279745 8.166625,11.006515 C8.245625,11.0389613 8.32575,11.0752703 8.406375,11.1168583 C9.067,11.4571584 9.854625,12.1796042 9.854625,13.6897747 L9.854625,13.6897747 L9.854625,15.1543659 C9.854625,15.438915 9.63075,15.6693869 9.354625,15.6693869 C9.0785,15.6693869 8.854625,15.438915 8.854625,15.1543659 L8.854625,15.1543659 L8.854625,13.6897747 C8.854625,11.8617075 7.1975,11.7925659 7.0085,11.7907633 L7.0085,11.7907633 L6.073375,11.7907633 C5.88675,11.7925659 4.229625,11.8617075 4.229625,13.6897747 L4.229625,13.6897747 L4.229625,15.1543659 C4.229625,15.438915 4.00575,15.6693869 3.729625,15.6693869 C3.4535,15.6693869 3.229625,15.438915 3.229625,15.1543659 L3.229625,15.1543659 L3.229625,13.6897747 C3.229625,12.1796042 4.01725,11.4570297 4.677875,11.1168583 C4.758375,11.0752703 4.838625,11.0389613 4.917625,11.006515 C4.610375,10.6279745 4.424875,10.1408934 4.424875,9.60990666 C4.424875,8.40746125 5.37475,7.42905 6.542125,7.42905 Z M17.04175,13.6093027 C17.317875,13.6093027 17.54175,13.8399034 17.54175,14.1243237 C17.54175,14.4088729 17.317875,14.6394736 17.04175,14.6394736 L17.04175,14.6394736 L11.66675,14.6394736 C11.390625,14.6394736 11.16675,14.4088729 11.16675,14.1243237 C11.16675,13.8399034 11.390625,13.6093027 11.66675,13.6093027 L11.66675,13.6093027 Z M17.04175,11.0341974 C17.317875,11.0341974 17.54175,11.2649268 17.54175,11.5493472 C17.54175,11.8337676 17.317875,12.0642395 17.04175,12.0642395 L17.04175,12.0642395 L11.66675,12.0642395 C11.390625,12.0642395 11.16675,11.8337676 11.16675,11.5493472 C11.16675,11.2649268 11.390625,11.0341974 11.66675,11.0341974 L11.66675,11.0341974 Z M6.542125,8.45922087 C5.926,8.45922087 5.424875,8.97540072 5.424875,9.60990666 C5.424875,10.2444126 5.926,10.7605925 6.542125,10.7605925 C7.15825,10.7605925 7.65925,10.2444126 7.65925,9.60990666 C7.65925,8.97540072 7.15825,8.45922087 6.542125,8.45922087 Z M17.04175,8.45922087 C17.317875,8.45922087 17.54175,8.68969279 17.54175,8.97411317 C17.54175,9.2586623 17.317875,9.48913423 17.04175,9.48913423 L17.04175,9.48913423 L11.66675,9.48913423 C11.390625,9.48913423 11.16675,9.2586623 11.16675,8.97411317 C11.16675,8.68969279 11.390625,8.45922087 11.66675,8.45922087 L11.66675,8.45922087 Z M10.9515,1.03017087 L8.9515,1.03017087 L8.9515,5.15033933 L10.9515,5.15033933 L10.9515,1.03017087 Z" id="path-1"></path>
    </defs>
    <g id="Tiếp-cận-KH" stroke="none" stroke-width="1" fill="none" fill-rule="evenodd">
        <g id="New-KH-Tiềm-năng-1.2" transform="translate(-16.000000, -134.000000)">
            <g id="Group-26" transform="translate(0.000000, 85.000000)">
                <g id="Group-14" transform="translate(0.000000, 16.000000)">
                    <g id="Group-4" transform="translate(16.000000, 10.000000)">
                        <g id="coler/-xanh-đậm" transform="translate(0.000000, 23.000000)">
                            <mask id="mask-2" fill="white">
                                <use xlink:href="#path-1"></use>
                            </mask>
                            <use id="Mask" fill="#424D6C" xlink:href="#path-1"></use>
                        </g>
                    </g>
                </g>
            </g>
        </g>
    </g>
</svg>