<?xml version="1.0" encoding="UTF-8"?>
<svg width="24px" height="24px" viewBox="0 0 24 24" version="1.1" xmlns="http://www.w3.org/2000/svg" xmlns:xlink="http://www.w3.org/1999/xlink">
    <title>49079D09-5BF0-440A-BD5C-2CAF7A052F38</title>
    <g id="Tiếp-cận-KH" stroke="none" stroke-width="1" fill="none" fill-rule="evenodd">
        <g id="New-KH-Tiềm-năng-1.1" transform="translate(-339.000000, -319.000000)" fill="#39B818">
            <g id="Group-12" transform="translate(0.000000, 138.000000)">
                <g id="Group-11" transform="translate(0.000000, 181.000000)">
                    <g id="Group-10" transform="translate(16.000000, 0.000000)">
                        <g id="Group-18" transform="translate(258.000000, 0.000000)">
                            <g id="Iconly/Light-outline/Info-Circle" transform="translate(65.000000, 0.000000)">
                                <g id="Info-Circle" transform="translate(2.000000, 2.000000)">
                                    <path d="M9.9999,0.0002 C15.5227807,0.0002 19.9999,4.47765359 19.9999,10.0002 C19.9999,15.5227464 15.5227807,20.0002 9.9999,20.0002 C4.47768644,20.0002 -0.0001,15.5224136 -0.0001,10.0002 C-0.0001,4.47798644 4.47768644,0.0002 9.9999,0.0002 Z M9.9999,1.5002 C5.30611356,1.5002 1.4999,5.30641356 1.4999,10.0002 C1.4999,14.6939864 5.30611356,18.5002 9.9999,18.5002 C14.6943285,18.5002 18.4999,14.6943444 18.4999,10.0002 C18.4999,5.30605564 14.6943285,1.5002 9.9999,1.5002 Z M10.005,13.0461 C10.4192136,13.0461 10.755,13.3818864 10.755,13.7961 C10.755,14.1757958 10.4728461,14.489591 10.1067706,14.5392534 L9.995,14.5461 C9.58078644,14.5461 9.245,14.2103136 9.245,13.7961 C9.245,13.4164042 9.52715388,13.102609 9.89322944,13.0529466 L10.005,13.0461 Z M9.995,5.4543 C10.3746958,5.4543 10.688491,5.73645388 10.7381534,6.10252944 L10.745,6.2043 L10.745,10.6233 C10.745,11.0375136 10.4092136,11.3733 9.995,11.3733 C9.61530423,11.3733 9.30150904,11.0911461 9.25184662,10.7250706 L9.245,10.6233 L9.245,6.2043 C9.245,5.79008644 9.58078644,5.4543 9.995,5.4543 Z"></path>
                                </g>
                            </g>
                        </g>
                    </g>
                </g>
            </g>
        </g>
    </g>
</svg>