<?xml version="1.0" encoding="UTF-8"?>
<svg width="16px" height="16px" viewBox="0 0 16 16" version="1.1" xmlns="http://www.w3.org/2000/svg" xmlns:xlink="http://www.w3.org/1999/xlink">
    <title>28C6199A-0280-4C83-9B2C-2950B5C38BBC</title>
    <defs>
        <rect id="path-1" x="0" y="0" width="14.6666667" height="14.6666667"></rect>
    </defs>
    <g id="Tiếp-cận-KH" stroke="none" stroke-width="1" fill="none" fill-rule="evenodd">
        <g id="New-KH-Tiềm-năng-1.1" transform="translate(-88.000000, -391.000000)">
            <g id="Group-12" transform="translate(0.000000, 138.000000)">
                <g id="Group-11" transform="translate(0.000000, 181.000000)">
                    <g id="Group-5" transform="translate(0.000000, 34.000000)">
                        <g id="Group-2" transform="translate(42.000000, 38.000000)">
                            <g id="icon/-Waitting" transform="translate(46.000000, 0.000000)">
                                <g id="Group-2-Copy-16" transform="translate(0.666667, 0.666667)">
                                    <mask id="mask-2" fill="white">
                                        <use xlink:href="#path-1"></use>
                                    </mask>
                                    <g id="Rectangle-Copy-2"></g>
                                    <path d="M7.33333333,0.666666667 C11.0092982,0.666666667 14,3.65736842 14,7.33333333 C14,11.0092982 11.0092982,14 7.33333333,14 C3.65736842,14 0.666666667,11.0092982 0.666666667,7.33333333 C0.666666667,3.65736842 3.65736842,0.666666667 7.33333333,0.666666667 Z M7.06242157,4.48705163 C6.87832666,4.48705163 6.72908824,4.63629005 6.72908824,4.82038497 L6.72908824,4.82038497 L6.72908824,8.1537183 C6.72908824,8.33781322 6.87832666,8.48705163 7.06242157,8.48705163 L7.06242157,8.48705163 L11.0624216,8.48705163 C11.2465165,8.48705163 11.3957549,8.33781322 11.3957549,8.1537183 C11.3957549,7.96962338 11.2465165,7.82038497 11.0624216,7.82038497 L11.0624216,7.82038497 L7.39508824,7.82005163 L7.39575491,4.82038497 C7.39575491,4.63629005 7.24651649,4.48705163 7.06242157,4.48705163 Z" id="Combined-Shape" fill="#D66100" fill-rule="nonzero" mask="url(#mask-2)"></path>
                                </g>
                            </g>
                        </g>
                    </g>
                </g>
            </g>
        </g>
    </g>
</svg>