<?xml version="1.0" encoding="UTF-8"?>
<svg width="16px" height="16px" viewBox="0 0 16 16" version="1.1" xmlns="http://www.w3.org/2000/svg" xmlns:xlink="http://www.w3.org/1999/xlink">
    <title>FF367820-6883-4D85-BFD0-BAC13056D706</title>
    <defs>
        <path d="M15.5935269,7.59521133 L14.2886467,7.59521133 C14.0877474,4.44276777 11.5588751,1.91323235 8.40647308,1.71162554 L8.40647308,0.406465339 C8.40647308,0.181994856 8.22447476,0 8,0 C7.77552524,0 7.59352692,0.181994856 7.59352692,0.406465339 L7.59352692,1.71162554 C4.44112491,1.91323235 1.91225262,4.44276777 1.71145492,7.59521133 L0.406473084,7.59521133 C0.181998323,7.59521133 0,7.77720619 0,8.00167667 C0,8.22614715 0.181998323,8.40814201 0.406473084,8.40814201 L1.71155654,8.40814201 C1.91398013,11.5590613 4.44234433,14.0869709 7.59352692,14.2885777 L7.59352692,15.5935347 C7.59352692,15.8180051 7.77552524,16 8,16 C8.22447476,16 8.40647308,15.8180051 8.40647308,15.5935347 L8.40647308,14.2885777 C11.5577573,14.0869709 14.0860199,11.5590613 14.2884435,8.40814201 L15.5935269,8.40814201 C15.8181033,8.40814201 16,8.22614715 16,8.00167667 C16,7.77720619 15.8181033,7.59521133 15.5935269,7.59521133 Z M12.0925742,8.40814201 L13.4738714,8.40814201 C13.2743947,11.11073 11.1093159,13.2752596 8.40647308,13.4739195 L8.40647308,12.0923438 C8.40647308,11.8678734 8.22447476,11.6858785 8,11.6858785 C7.77552524,11.6858785 7.59352692,11.8678734 7.59352692,12.0923438 L7.59352692,13.4739195 C4.89078576,13.2752596 2.72570688,11.11073 2.5261286,8.40814201 L3.90742576,8.40814201 C4.13200213,8.40814201 4.31389884,8.22614715 4.31389884,8.00167667 C4.31389884,7.77720619 4.13200213,7.59521133 3.90742576,7.59521133 L2.52592536,7.59521133 C2.72387775,4.89109904 4.88966796,2.72504525 7.59352692,2.52618208 L7.59352692,3.90765616 C7.59352692,4.13212664 7.77552524,4.3141215 8,4.3141215 C8.22447476,4.3141215 8.40647308,4.13212664 8.40647308,3.90765616 L8.40647308,2.52618208 C11.1104337,2.72504525 13.2760206,4.89109904 13.4740746,7.59521133 L12.0925742,7.59521133 C11.8680995,7.59521133 11.6861012,7.77720619 11.6861012,8.00167667 C11.6861012,8.22614715 11.8680995,8.40814201 12.0925742,8.40814201 Z M7.61395219,7.47164587 C7.32240937,7.64012575 7.22262023,8.01285447 7.39090008,8.30439173 C7.55917994,8.595929 7.93211899,8.69591947 8.2235602,8.52764282 C8.51530625,8.35916294 8.61509539,7.98643422 8.44681554,7.69489695 C8.27843406,7.40315646 7.90559663,7.3032676 7.61395219,7.47164587 L7.61395219,7.47164587 Z" id="path-1"></path>
    </defs>
    <g id="Tiếp-cận-KH" stroke="none" stroke-width="1" fill="none" fill-rule="evenodd">
        <g id="New-KH-Tiềm-năng-1.1" transform="translate(-77.000000, -98.000000)">
            <g id="Group-16" transform="translate(0.000000, 88.000000)">
                <g id="Group-15" transform="translate(16.000000, 10.000000)">
                    <g id="coler/-xanh-đậm" transform="translate(61.000000, 0.000000)">
                        <mask id="mask-2" fill="white">
                            <use xlink:href="#path-1"></use>
                        </mask>
                        <use id="Mask" fill="#424D6C" fill-rule="nonzero" xlink:href="#path-1"></use>
                    </g>
                </g>
            </g>
        </g>
    </g>
</svg>