<?xml version="1.0" encoding="UTF-8"?>
<svg width="29px" height="29px" viewBox="0 0 29 29" version="1.1" xmlns="http://www.w3.org/2000/svg" xmlns:xlink="http://www.w3.org/1999/xlink">
    <title>86867603-4892-4AB3-81AD-C51EBC09D643</title>
    <defs>
        <linearGradient x1="50%" y1="0%" x2="50%" y2="100%" id="linearGradient-1">
            <stop stop-color="#ED8900" offset="0%"></stop>
            <stop stop-color="#D65100" offset="100%"></stop>
        </linearGradient>
    </defs>
    <g id="Tiếp-cận-KH" stroke="none" stroke-width="1" fill="none" fill-rule="evenodd">
        <g id="New-KH-Tiềm-năng-1.2" transform="translate(-32.000000, -656.000000)" fill-rule="nonzero">
            <g id="Group-26" transform="translate(0.000000, 85.000000)">
                <g id="Group-11" transform="translate(0.000000, 214.000000)">
                    <g id="Group-8" transform="translate(16.000000, 54.000000)">
                        <g id="Group-7-Copy-3" transform="translate(0.000000, 202.000000)">
                            <g id="insurance/-protection/-accident" transform="translate(16.000000, 101.000000)">
                                <path d="M19.0698784,10.6630824 L21.0248444,14.7155758 L27.1764706,14.7155758 C26.3162856,15.9768863 25.2475708,17.131112 24.1528768,18.2045544 C22.5628378,19.7612651 20.7121367,21.3714735 18.5485541,23.223316 C17.4016408,24.2431713 16.1766157,25.3167926 14.873305,26.4708394 L14.873305,26.4708394 L14.0130331,27.2222222 L13.1527612,26.4708394 C11.8494506,25.3167926 10.6244254,24.2431713 9.47751207,23.223316 C5.75004364,20.0027203 2.72627606,17.399495 0.823529412,14.7156653 L0.823529412,14.7156653 L7.00122185,14.7156653 L8.95618782,10.6630824 L14.0130331,18.4731163 L19.0698784,10.6630824 Z M20.4147157,1.55555556 C24.6755853,1.55555556 28,5.23198069 28,9.79394292 C28,11.111 27.7190635,12.2868039 27.2275028,13.3919811 L27.2275028,13.3919811 L21.7491639,13.3919811 L18.8227425,7.53647788 L14,14.8028674 L9.17725753,7.53647788 L6.25083612,13.3919811 L0.74916388,13.3919811 C0.257525084,12.2632094 0,11.0874056 0,9.79394292 C0,5.23198069 3.32441472,1.55555556 7.58528428,1.55555556 C10.909699,1.55555556 12.8997436,3.6720809 14,5.48266208 C15.1002564,3.6720809 17.090301,1.55555556 20.4147157,1.55555556 Z" id="Combined-Shape" fill="#D66100" opacity="0.100000001"></path>
                                <path d="M14.4651904,5.86371528 L14.0728959,11.0545179 L13.8773492,11.0545179 C12.7189634,11.0545179 11.7799069,11.982354 11.7799069,13.1268989 C11.7799069,14.2714437 12.7189634,15.1992798 13.8792711,15.1992798 C13.9316411,15.3288778 14.0065926,15.4496934 14.1041257,15.5536567 C14.3227344,15.7862684 14.6321497,15.9196642 14.9533364,15.9196642 L14.9533364,15.9196642 L16.7670678,15.9196642 L16.7670678,15.9196642 L16.7676035,16.2579225 C16.7676833,16.3061003 16.7677695,16.3576271 16.7678618,16.4123206 L16.7684855,16.7770241 C16.768831,16.9769182 16.769225,17.2020322 16.769658,17.4474458 L16.7705737,17.963881 C16.7744228,20.126222 16.7803804,23.3777863 16.7836902,25.1992562 L16.7844598,25.6233721 C16.7845779,25.6886065 16.7846908,25.7509937 16.784798,25.8103512 L16.7856018,26.2578516 C16.7856722,26.2973919 16.7857359,26.3333558 16.7857926,26.3655613 L16.7860459,26.5122342 C16.7860459,27.3337334 16.1117222,28 15.2800483,28 C14.4486146,28 13.7742909,27.3337334 13.7742909,26.5122342 L13.7742909,26.5122342 L13.7742909,17.7746243 L13.1376831,17.7746243 L13.1376831,26.5122342 C13.1376831,27.3337334 12.4633594,28 11.6319257,28 C10.8002518,28 10.1083913,27.3337334 10.1083913,26.5122342 L10.1083913,26.5122342 L10.1083913,8.47964815 C9.89746993,8.47964815 9.65964292,8.64935981 9.65868201,8.85776099 L9.65868201,8.85776099 L9.65868201,17.3172336 C9.65868201,18.0397542 9.05474544,18.6253187 8.32348737,18.6253187 C7.59246951,18.6253187 7.01087432,18.0397542 7.01087432,17.3172336 C7.00855487,15.274719 7.00338008,14.2339009 7.00110696,13.2188647 L7.00112681,11.3219637 C7.00258826,10.6698452 7.00559755,9.88475581 7.01087432,8.84470623 C7.01928236,7.20099552 8.39075158,5.86371528 10.0543397,5.86371528 L10.0543397,5.86371528 L14.4651904,5.86371528 Z M16.3666056,5.39469401 C16.5854544,5.39469401 16.767308,5.56155736 16.7836437,5.77707928 L16.7836437,5.77707928 L17.4615708,14.7442627 C17.479588,14.9839952 17.2876448,15.1883613 17.0442925,15.1883613 L17.0442925,15.1883613 L14.9533364,15.1883613 C14.7102243,15.1883613 14.5180409,14.9839952 14.5362983,14.7442627 L14.5362983,14.7442627 L15.2139852,5.77707928 C15.2303208,5.56155736 15.4121744,5.39469401 15.6312635,5.39469401 L15.6312635,5.39469401 Z M17.5439695,6.01515031 C18.1517496,6.1960178 18.7042771,6.53520371 19.1501427,7.00968424 C19.792516,7.69351534 20.1444519,8.58432349 20.1411126,9.51833088 C20.1390554,10.2543594 20.1375787,10.7694911 20.1364904,11.132947 L20.1357439,11.3781813 C20.1356306,11.4146743 20.1355227,11.4490679 20.1354196,11.481497 L20.1348578,11.6535815 C20.1347731,11.6786941 20.1346925,11.7021127 20.1346158,11.7239726 L20.1337038,11.9518645 C20.1336559,11.9615168 20.1336098,11.9702864 20.1335654,11.9783084 L20.1327325,12.0832513 C20.1326916,12.0874321 20.1326495,12.0918117 20.132606,12.0965253 L20.131799,12.2091802 C20.1317317,12.2206139 20.1316612,12.2330576 20.1315869,12.2466465 L20.1308087,12.4035171 C20.1307089,12.425194 20.1306043,12.4484217 20.1304945,12.4733353 L20.1297704,12.6441306 C20.1292421,12.7729241 20.1286187,12.9330197 20.1278761,13.1330702 C20.1245129,13.8529799 19.532828,14.434984 18.8042125,14.434984 L18.8042125,14.434984 L18.1803369,14.434984 Z M14.0150006,11.8188137 L13.8175321,14.4318983 C13.1143809,14.4008043 12.5534454,13.829244 12.5534454,13.1268989 C12.5534454,12.4043783 13.1463314,11.8188137 13.8773492,11.8188137 L13.8773492,11.8188137 L14.0150006,11.8188137 Z M13.3997733,0 C14.8308194,0 15.9908868,1.14620631 15.9908868,2.56015351 C15.9908868,3.97410076 14.8308194,5.12030707 13.3997733,5.12030707 C11.9687272,5.12030707 10.8086598,3.97410076 10.8086598,2.56015351 C10.8086598,1.14620631 11.9687272,0 13.3997733,0 Z" id="Combined-Shape" fill="url(#linearGradient-1)"></path>
                            </g>
                        </g>
                    </g>
                </g>
            </g>
        </g>
    </g>
</svg>