<?xml version="1.0" encoding="UTF-8"?>
<svg width="16px" height="16px" viewBox="0 0 16 16" version="1.1" xmlns="http://www.w3.org/2000/svg" xmlns:xlink="http://www.w3.org/1999/xlink">
    <title>E1337EB6-2D83-4AF8-A5F8-C42CCB679FE2</title>
    <g id="Tiếp-cận-KH" stroke="none" stroke-width="1" fill="none" fill-rule="evenodd">
        <g id="New-KH-Tiềm-năng-4.7" transform="translate(-30.000000, -323.000000)" fill="#424D6C">
            <g id="Group-26" transform="translate(0.000000, 9.000000)">
                <g id="Group-7" transform="translate(16.000000, 158.000000)">
                    <g id="Group-30" transform="translate(1.000000, 50.000000)">
                        <g id="Group-24" transform="translate(13.000000, 64.000000)">
                            <g id="Group-28" transform="translate(0.000000, 42.000000)">
                                <g id="Info-Circle" transform="translate(1.333333, 1.333333)">
                                    <path d="M6.6666,0.000133333333 C10.3485205,0.000133333333 13.3332667,2.9851024 13.3332667,6.6668 C13.3332667,10.3484976 10.3485205,13.3334667 6.6666,13.3334667 C2.98512429,13.3334667 -6.66666667e-05,10.3482757 -6.66666667e-05,6.6668 C-6.66666667e-05,2.98532429 2.98512429,0.000133333333 6.6666,0.000133333333 Z M6.6666,1.00013333 C3.53740904,1.00013333 0.999933333,3.53760904 0.999933333,6.6668 C0.999933333,9.79599096 3.53740904,12.3334667 6.6666,12.3334667 C9.79621903,12.3334667 12.3332667,9.79622957 12.3332667,6.6668 C12.3332667,3.53737043 9.79621903,1.00013333 6.6666,1.00013333 Z M6.67,8.6974 C6.94614237,8.6974 7.17,8.92125763 7.17,9.1974 C7.17,9.45053051 6.98189741,9.65972731 6.73784704,9.69283559 L6.66333333,9.6974 C6.38719096,9.6974 6.16333333,9.47354237 6.16333333,9.1974 C6.16333333,8.94426949 6.35143592,8.73507269 6.5954863,8.70196441 L6.67,8.6974 Z M6.66333333,3.6362 C6.91646384,3.6362 7.12566064,3.82430259 7.15876892,4.06835296 L7.16333333,4.1362 L7.16333333,7.0822 C7.16333333,7.35834237 6.93947571,7.5822 6.66333333,7.5822 C6.41020282,7.5822 6.20100603,7.39409741 6.16789774,7.15004704 L6.16333333,7.0822 L6.16333333,4.1362 C6.16333333,3.86005763 6.38719096,3.6362 6.66333333,3.6362 Z"></path>
                                </g>
                            </g>
                        </g>
                    </g>
                </g>
            </g>
        </g>
    </g>
</svg>