<?xml version="1.0" encoding="UTF-8"?>
<svg width="121px" height="79px" viewBox="0 0 121 79" version="1.1" xmlns="http://www.w3.org/2000/svg" xmlns:xlink="http://www.w3.org/1999/xlink">
    <title>665E968A-40A5-4D2E-A3C2-F9CDD3A99C5D</title>
    <defs>
        <polygon id="path-1" points="0.067 0.19 119.297 0.19 119.297 14.89 0.067 14.89"></polygon>
        <polygon id="path-3" points="0.067 0.19 119.297 0.19 119.297 14.89 0.067 14.89"></polygon>
    </defs>
    <g id="Tiếp-cận-KH" stroke="none" stroke-width="1" fill="none" fill-rule="evenodd">
        <g id="New-KH-Tiềm-năng-2.5" transform="translate(-127.000000, -255.000000)">
            <g id="Group-3" transform="translate(16.000000, 180.000000)">
                <g id="icons/-null" transform="translate(111.000000, 75.000000)">
                    <polyline id="Path" fill="#D66100" fill-rule="nonzero" points="117.907 18.541 116.031 27.628 114.824 26.451 112.768 27.916 111.198 25.967 107.676 28.527 104.667 23.494 101.31 25.46 99.979 23.624 95.715 26.026 94.433 23.281 97.421 8.808 113.441 12.115 117.907 18.541"></polyline>
                    <polyline id="Path" fill="#FFFFFE" fill-rule="nonzero" points="113.441 12.116 117.908 18.541 112.352 17.394 113.441 12.116"></polyline>
                    <path d="M115.632,29.445 L112.88,42.777 L91.303,38.323 L94.034,25.097 L95.316,27.843 L99.579,25.441 L100.91,27.276 L104.268,25.31 L107.276,30.344 L110.799,27.783 L112.369,29.732 L114.425,28.267 L115.632,29.445 M84.748,27.882 L62.757,29.243 L61.01,1.014 L77.338,0.004 L83.334,5.032 L84.748,27.882" id="Shape" fill="#D66100" fill-rule="nonzero"></path>
                    <path d="M77.338,0.004 L83.334,5.032 L77.671,5.383 L77.338,0.004 M70.894,22.47 C70.844,21.56 71.422,20.886 72.283,20.838 C73.143,20.79 73.77,21.396 73.821,22.306 C73.869,23.166 73.341,23.863 72.431,23.914 C71.57,23.962 70.943,23.331 70.894,22.47 L70.894,22.47 Z M71.242,18.997 L71.157,18.36 C70.935,17.04 71.297,15.564 72.444,14.02 C73.477,12.655 74.039,11.661 73.977,10.554 C73.907,9.3 73.073,8.508 71.522,8.57 C70.636,8.62 69.669,8.97 69.081,9.472 L68.403,7.955 C69.183,7.32 70.562,6.847 71.865,6.775 C74.694,6.616 76.07,8.291 76.175,10.16 C76.269,11.832 75.402,13.09 74.3,14.557 C73.289,15.897 72.956,17.001 73.1,18.251 L73.16,18.889 L71.242,18.997 L71.242,18.997 Z" id="Shape" fill="#FFFFFE" fill-rule="nonzero"></path>
                    <path d="M14.992,16.433 C15.632,17.327 15.427,18.569 14.534,19.209 C13.64,19.849 12.396,19.645 11.756,18.752 C11.116,17.858 11.321,16.613 12.215,15.973 C13.108,15.333 14.352,15.54 14.992,16.433 Z M16.247,14.196 L14.034,13.193 L13.727,13.87 C13.637,14.07 13.442,14.197 13.223,14.206 C13.103,14.212 12.982,14.223 12.861,14.242 C12.646,14.275 12.43,14.188 12.303,14.01 L11.869,13.406 L9.894,14.822 L10.327,15.426 C10.454,15.604 10.467,15.836 10.367,16.029 C10.31,16.137 10.26,16.248 10.217,16.361 C10.137,16.565 9.954,16.709 9.736,16.731 L8.996,16.803 L9.234,19.221 L9.977,19.147 C10.195,19.125 10.401,19.234 10.519,19.417 C10.551,19.467 10.585,19.517 10.619,19.566 C10.655,19.615 10.69,19.662 10.727,19.709 C10.863,19.879 10.9,20.108 10.81,20.306 L10.5,20.989 L12.714,21.992 L13.022,21.313 C13.112,21.114 13.308,20.987 13.527,20.978 C13.647,20.973 13.767,20.961 13.887,20.943 C14.102,20.91 14.318,20.997 14.445,21.174 L14.878,21.779 L16.854,20.364 L16.421,19.759 C16.294,19.582 16.281,19.349 16.381,19.156 C16.437,19.048 16.487,18.938 16.531,18.826 C16.609,18.622 16.793,18.477 17.011,18.456 L17.753,18.382 L17.513,15.964 L16.772,16.037 C16.554,16.059 16.349,15.951 16.232,15.767 C16.199,15.717 16.165,15.667 16.13,15.618 C16.095,15.569 16.059,15.522 16.022,15.475 C15.885,15.304 15.849,15.074 15.939,14.875 L16.247,14.196 L16.247,14.196 Z M116.99,47.902 C117.76,47.902 118.384,48.526 118.384,49.296 C118.384,50.066 117.76,50.691 116.99,50.691 C116.22,50.691 115.595,50.066 115.595,49.296 C115.595,48.526 116.22,47.902 116.99,47.902 Z M116.228,46.274 L114.754,47.125 L115.014,47.576 C115.091,47.709 115.084,47.872 115,48.001 C114.954,48.071 114.911,48.145 114.873,48.221 C114.803,48.357 114.666,48.445 114.513,48.445 L113.992,48.445 L113.992,50.148 L114.513,50.148 C114.666,50.148 114.803,50.235 114.873,50.372 C114.911,50.447 114.953,50.522 115,50.592 C115.084,50.721 115.091,50.884 115.015,51.016 L114.754,51.468 L116.228,52.318 L116.489,51.865 C116.566,51.732 116.712,51.659 116.865,51.667 C116.906,51.669 116.948,51.67 116.99,51.67 C117.032,51.67 117.074,51.669 117.115,51.667 C117.268,51.659 117.413,51.732 117.489,51.864 L117.752,52.318 L119.226,51.468 L118.966,51.015 C118.889,50.882 118.896,50.719 118.98,50.591 C119.026,50.52 119.069,50.447 119.107,50.371 C119.177,50.235 119.314,50.148 119.467,50.148 L119.988,50.148 L119.988,48.445 L119.467,48.445 C119.314,48.445 119.177,48.357 119.107,48.222 C119.069,48.146 119.027,48.072 118.98,48.002 C118.896,47.874 118.889,47.71 118.965,47.578 L119.226,47.125 L117.752,46.275 L117.491,46.727 C117.414,46.859 117.269,46.932 117.116,46.925 C117.075,46.923 117.033,46.921 116.99,46.921 C116.948,46.921 116.906,46.923 116.865,46.925 C116.712,46.933 116.565,46.859 116.489,46.726 L116.229,46.274 L116.228,46.274 Z M21.688,8.466 C22.451,8.367 23.15,8.906 23.25,9.669 C23.349,10.432 22.811,11.133 22.048,11.232 C21.284,11.332 20.584,10.792 20.484,10.029 C20.384,9.265 20.924,8.566 21.688,8.466 L21.688,8.466 Z M20.722,6.951 L19.37,7.985 L19.687,8.399 C19.78,8.52 19.794,8.683 19.727,8.821 C19.69,8.898 19.657,8.976 19.629,9.056 C19.579,9.2 19.453,9.305 19.301,9.325 L18.785,9.392 L19.005,11.08 L19.521,11.013 C19.673,10.993 19.821,11.063 19.907,11.189 C19.955,11.259 20.007,11.327 20.062,11.391 C20.162,11.507 20.19,11.668 20.131,11.81 L19.931,12.291 L21.502,12.944 L21.702,12.461 C21.762,12.319 21.896,12.228 22.049,12.216 C22.091,12.213 22.132,12.208 22.174,12.203 C22.215,12.198 22.257,12.191 22.298,12.183 C22.448,12.156 22.601,12.21 22.694,12.331 L23.014,12.748 L24.365,11.714 L24.048,11.299 C23.955,11.177 23.942,11.014 24.008,10.876 C24.045,10.8 24.078,10.722 24.106,10.642 C24.157,10.498 24.282,10.394 24.434,10.374 L24.951,10.306 L24.731,8.618 L24.214,8.685 C24.063,8.705 23.914,8.636 23.828,8.51 C23.781,8.44 23.729,8.373 23.674,8.309 C23.574,8.192 23.546,8.031 23.604,7.89 L23.804,7.407 L22.234,6.754 L22.033,7.237 C21.973,7.378 21.839,7.469 21.687,7.481 C21.645,7.484 21.603,7.489 21.561,7.494 C21.52,7.5 21.478,7.506 21.437,7.514 C21.287,7.541 21.132,7.487 21.039,7.365 L20.722,6.951 L20.722,6.951 Z M10.627,51.19 C10.705,49.293 10.674,47.392 10.549,45.497 C10.293,41.589 9.649,37.711 8.766,33.898 C8.268,31.752 7.656,29.642 7.018,27.534 C6.998,27.47 6.898,27.488 6.915,27.554 C8.888,34.984 10.507,42.654 10.395,50.377 C10.365,52.539 10.115,54.662 9.909,56.81 C9.903,56.868 9.998,56.89 10.011,56.832 C10.418,54.994 10.551,53.067 10.627,51.19" id="Shape" fill="#E4E4DE" fill-rule="nonzero"></path>
                    <path d="M6.915,27.555 C6.915,27.555 3.925,35.142 4.595,36.925 C5.264,38.709 6.644,39.09 6.644,39.09 C6.644,39.09 4.814,41.701 6.093,44.15 C7.371,46.6 10.211,46.484 10.399,49.261 C10.399,49.261 10.558,37.649 6.915,27.555" id="Path" fill="#39B818" fill-rule="nonzero"></path>
                    <path d="M10.075,44.466 L10.072,44.426 C9.652,39.267 8.736,34.124 7.172,29.162 L7.147,29.167 C7.739,31.387 8.267,33.619 8.717,35.862 C8.329,35.462 7.821,35.232 7.29,35.067 L7.285,35.082 C7.837,35.321 8.367,35.598 8.758,36.066 C8.845,36.506 8.931,36.946 9.012,37.386 C8.344,36.64 7.417,36.27 6.49,35.918 L6.483,35.938 C7.449,36.331 8.41,36.838 9.064,37.669 C9.293,38.929 9.492,40.192 9.664,41.459 C9.176,40.949 8.574,40.607 7.882,40.439 C7.862,40.433 7.85,40.464 7.871,40.47 C8.581,40.675 9.192,41.072 9.679,41.628 L9.689,41.636 C9.749,42.082 9.806,42.529 9.859,42.976 C9.483,42.656 9.067,42.411 8.609,42.222 L8.603,42.242 C9.068,42.439 9.486,42.724 9.854,43.069 L9.87,43.076 C9.92,43.501 9.97,43.926 10.013,44.352 C9.327,43.526 8.48,42.928 7.477,42.542 C7.457,42.534 7.447,42.564 7.467,42.572 C8.441,42.996 9.301,43.667 9.965,44.495 C9.983,44.517 10.007,44.521 10.028,44.515 C10.093,45.167 10.151,45.821 10.198,46.476 L10.213,46.477 C10.175,45.807 10.129,45.137 10.075,44.467" id="Path" fill="#FFFFFE" fill-rule="nonzero"></path>
                    <path d="M7.673,34.313 C7.154,33.956 6.495,33.804 5.876,33.753 L5.875,33.775 C6.519,33.871 7.059,34.105 7.651,34.355 C7.676,34.366 7.695,34.328 7.673,34.313 M8.035,42.346 C7.625,42.1 7.157,41.961 6.687,41.885 L6.685,41.911 C7.163,41.997 7.585,42.167 8.019,42.378 C8.038,42.388 8.053,42.357 8.035,42.346" id="Shape" fill="#FFFFFE" fill-rule="nonzero"></path>
                    <path d="M18.486,37.05 C17.239,37.926 16.043,38.937 15.026,40.074 C13.942,41.286 13.151,42.662 12.599,44.189 C11.469,47.318 10.848,50.707 10.792,54.032 C10.76,55.896 10.926,57.745 11.324,59.567 C11.339,59.633 11.438,59.614 11.428,59.547 C10.94,56.342 10.958,53.071 11.482,49.872 C11.996,46.733 12.802,43.318 14.798,40.767 C15.884,39.377 17.238,38.285 18.578,37.156 C18.648,37.096 18.558,36.999 18.486,37.05" id="Path" fill="#E4E4DE" fill-rule="nonzero"></path>
                    <path d="M11.232,51.772 C11.232,51.772 12.258,50.042 13.754,48.548 C15.249,47.053 16.509,45.99 16.704,45.001 C16.898,44.012 15.205,43.284 15.205,43.284 C15.205,43.284 17.275,43.655 17.841,42.787 C18.407,41.918 18.681,36.888 18.681,36.888 C18.681,36.888 14.915,39.576 13.161,43.344 C11.407,47.112 11.231,51.772 11.231,51.772" id="Path" fill="#39B818" fill-rule="nonzero"></path>
                    <path d="M17.378,38.178 C15.794,39.734 14.199,41.392 13.266,43.436 C12.946,44.136 12.675,44.863 12.435,45.604 L12.434,45.607 C12.386,45.756 12.337,45.904 12.292,46.054 L12.284,46.078 C11.823,47.605 11.497,49.184 11.214,50.726 L11.23,50.731 C11.392,49.946 11.571,49.154 11.771,48.363 L11.793,48.359 C12.113,48.224 12.436,48.14 12.781,48.108 C12.804,48.106 12.802,48.067 12.779,48.068 C12.446,48.084 12.119,48.142 11.802,48.246 C11.985,47.534 12.182,46.823 12.405,46.123 C13.132,45.945 13.891,45.849 14.638,45.831 L14.64,45.819 C13.886,45.784 13.178,45.849 12.444,46.005 L12.564,45.645 C13.054,45.535 13.547,45.44 14.049,45.395 L14.049,45.378 C13.557,45.391 13.072,45.443 12.594,45.555 C12.798,44.949 13.02,44.351 13.265,43.769 C13.468,43.288 13.71,42.83 13.976,42.389 C14.379,42.298 14.769,42.211 15.181,42.174 L15.181,42.154 C14.806,42.13 14.416,42.158 14.054,42.265 C14.252,41.945 14.46,41.632 14.682,41.329 C15.527,41.142 16.382,40.969 17.246,41.13 L17.252,41.104 C16.429,40.888 15.614,41.013 14.795,41.174 C14.885,41.056 14.975,40.938 15.068,40.822 C15.586,40.662 16.102,40.584 16.646,40.574 L16.647,40.557 C16.151,40.509 15.656,40.557 15.177,40.687 C15.874,39.82 16.645,39.006 17.407,38.2 C17.443,38.163 17.415,38.14 17.377,38.178" id="Path" fill="#FFFFFE" fill-rule="nonzero"></path>
                    <path d="M17.336,41.607 C17.088,41.58 16.836,41.553 16.586,41.581 C16.556,41.584 16.559,41.633 16.59,41.634 C16.838,41.641 17.085,41.623 17.333,41.636 C17.353,41.637 17.355,41.609 17.336,41.606 M14.626,46.487 C14.23,46.482 13.836,46.588 13.466,46.72 L13.471,46.736 C13.854,46.645 14.241,46.608 14.629,46.544 C14.661,46.539 14.659,46.487 14.626,46.487 M13.814,44.8 C13.654,44.792 13.479,44.82 13.321,44.845 L13.323,44.875 C13.483,44.877 13.659,44.882 13.816,44.852 C13.844,44.846 13.843,44.802 13.814,44.801" id="Shape" fill="#FFFFFE" fill-rule="nonzero"></path>
                    <path d="M0.195,42.388 C1.406,42.809 2.608,43.351 3.694,44.036 C4.851,44.766 5.809,45.697 6.609,46.806 C8.247,49.076 9.533,51.676 10.347,54.353 C10.803,55.854 11.097,57.389 11.195,58.956 C11.199,59.013 11.115,59.02 11.107,58.964 C10.76,56.257 9.99,53.614 8.827,51.146 C7.685,48.725 6.243,46.147 4.039,44.544 C2.839,43.671 1.489,43.1 0.145,42.495 C0.075,42.464 0.125,42.364 0.195,42.388" id="Path" fill="#E4E4DE" fill-rule="nonzero"></path>
                    <path d="M9.468,52.626 C9.468,52.626 8.238,51.464 6.682,50.599 C5.126,49.735 3.862,49.166 3.475,48.411 C3.09,47.656 4.291,46.675 4.291,46.675 C4.291,46.675 2.702,47.455 2.043,46.882 C1.383,46.31 0,42.302 0,42.302 C0,42.302 3.668,43.607 5.959,46.252 C8.249,48.895 9.469,52.626 9.469,52.626" id="Path" fill="#39B818" fill-rule="nonzero"></path>
                    <path d="M9.277,51.799 C7.443,48.355 4.995,45.24 1.64,43.184 L1.639,43.186 C2.522,43.748 3.335,44.398 4.094,45.107 C3.414,45.088 2.724,45.197 2.122,45.524 L2.132,45.544 C2.802,45.317 3.447,45.168 4.161,45.201 L4.184,45.193 C4.303,45.305 4.42,45.42 4.537,45.536 C4.184,45.551 3.827,45.601 3.483,45.676 L3.486,45.691 C3.858,45.618 4.221,45.593 4.599,45.599 C5.214,46.216 5.786,46.877 6.329,47.563 C6.084,47.528 5.827,47.548 5.592,47.617 C5.575,47.622 5.579,47.647 5.597,47.644 C5.865,47.611 6.119,47.615 6.384,47.634 C6.484,47.762 6.586,47.889 6.684,48.018 C5.93,47.973 5.191,48.045 4.458,48.235 L4.461,48.252 C5.217,48.103 5.98,48.056 6.748,48.103 C6.842,48.227 6.93,48.355 7.022,48.48 C6.572,48.467 6.135,48.523 5.697,48.632 L5.702,48.659 C6.153,48.556 6.612,48.529 7.074,48.552 C7.468,49.096 7.846,49.652 8.21,50.214 C8.017,50.174 7.815,50.196 7.628,50.249 L7.631,50.265 C7.847,50.24 8.048,50.267 8.261,50.295 C8.587,50.803 8.903,51.317 9.206,51.834 C9.231,51.877 9.302,51.844 9.277,51.799" id="Path" fill="#FFFFFE" fill-rule="nonzero"></path>
                    <path d="M6.424,48.943 C6.064,48.912 5.7,48.968 5.358,49.073 L5.361,49.089 C5.714,49.024 6.063,48.999 6.421,48.98 C6.444,48.979 6.449,48.945 6.424,48.943 M3.224,44.746 C3.062,44.727 2.892,44.749 2.732,44.774 C2.713,44.777 2.719,44.805 2.738,44.804 C2.899,44.786 3.058,44.792 3.221,44.787 C3.247,44.787 3.251,44.749 3.224,44.746" id="Shape" fill="#FFFFFE" fill-rule="nonzero"></path>
                    <polyline id="Path" fill="#39B818" fill-rule="nonzero" points="14.2 64.013 5.92 64.013 7.402 53.147 12.717 53.147 14.2 64.013"></polyline>
                    <polyline id="Path" fill="#B9BAB6" fill-rule="nonzero" points="13.019 55.365 7.1 55.365 7.402 53.147 12.717 53.147 13.019 55.365"></polyline>
                    <polygon id="Path" fill="#CFD0CA" fill-rule="nonzero" points="6.642 54.256 13.477 54.256 13.477 52.378 6.642 52.378"></polygon>
                    <g id="Group" transform="translate(0.588000, 63.725000)">
                        <g id="Clipped">
                            <mask id="mask-2" fill="white">
                                <use xlink:href="#path-1"></use>
                            </mask>
                            <g id="9n1et2xmta"></g>
                            <polyline id="Path" fill="#132529" fill-rule="nonzero" mask="url(#mask-2)" points="0.067 0.288 14.971 0.24 29.875 0.223 59.682 0.19 89.49 0.222 104.394 0.24 119.297 0.288 104.394 0.335 89.49 0.353 59.682 0.385 29.875 0.353 14.971 0.335 0.067 0.288"></polyline>
                        </g>
                        <g id="Clipped">
                            <mask id="mask-4" fill="white">
                                <use xlink:href="#path-3"></use>
                            </mask>
                            <g id="9n1et2xmta"></g>
                            <path d="M116.298,8.741 C116.298,12.144 91.126,14.902 60.075,14.902 C29.023,14.902 3.851,12.144 3.851,8.742 C3.851,5.339 29.023,2.581 60.075,2.581 C91.126,2.581 116.298,5.339 116.298,8.741" id="Path" fill="#E4E4DE" fill-rule="nonzero" mask="url(#mask-4)"></path>
                        </g>
                    </g>
                    <path d="M47.575,71.446 C47.118,71.601 34.017,71.646 33.516,71.333 C33.326,71.215 33.208,69.307 33.131,66.998 C33.114,66.499 33.1,65.984 33.088,65.461 L32.026,58.474 L40.784,58.418 L41.61,65.406 L41.577,66.944 C41.577,66.944 46.601,69.17 47.113,69.573 C47.623,69.976 48.032,71.291 47.575,71.446" id="Path" fill="#E98A79" fill-rule="nonzero"></path>
                    <path d="M47.575,71.446 C47.118,71.601 34.017,71.646 33.516,71.333 C33.285,71.188 33.158,68.402 33.088,65.461 L41.61,65.406 L41.577,66.944 C41.577,66.944 46.601,69.17 47.113,69.573 C47.623,69.976 48.032,71.291 47.575,71.446" id="Path" fill="#FFFFFE" fill-rule="nonzero"></path>
                    <path d="M47.575,71.446 C47.118,71.601 34.017,71.646 33.516,71.333 C33.326,71.215 33.208,69.307 33.131,66.998 L41.577,66.944 C41.577,66.944 46.601,69.17 47.113,69.573 C47.623,69.976 48.032,71.291 47.575,71.446" id="Path" fill="#959894" fill-rule="nonzero"></path>
                    <path d="M47.385,70.922 C45.189,70.876 36.326,70.897 34.152,71.018 C34.134,71.019 34.134,71.031 34.152,71.032 C36.327,71.125 45.19,71.032 47.385,70.958 C47.432,70.957 47.431,70.923 47.385,70.922 M46.268,69.105 C45.748,69.085 45.239,69.335 44.957,69.645 C44.685,69.945 44.453,70.365 44.47,70.82 L44.496,70.82 C44.619,69.96 45.398,69.202 46.269,69.132 C46.286,69.131 46.286,69.105 46.269,69.105 M42.43,67.16 C41.55,67.15 40.532,67.464 39.989,68.185 C39.968,68.213 40.008,68.242 40.034,68.229 C40.827,67.816 41.581,67.509 42.444,67.267 C42.506,67.25 42.492,67.16 42.429,67.159 M43.109,67.421 C42.229,67.412 41.212,67.726 40.669,68.447 C40.647,68.475 40.687,68.504 40.713,68.491 C41.506,68.078 42.261,67.771 43.125,67.529 C43.185,67.513 43.172,67.422 43.109,67.421 M43.788,67.684 C42.909,67.674 41.891,67.988 41.348,68.709 C41.327,68.737 41.367,68.766 41.393,68.753 C42.186,68.34 42.94,68.033 43.803,67.792 C43.865,67.775 43.851,67.684 43.788,67.684 M44.468,67.945 C43.588,67.937 42.571,68.25 42.028,68.971 C42.006,68.999 42.046,69.029 42.072,69.015 C42.865,68.603 43.62,68.295 44.483,68.054 C44.544,68.037 44.531,67.946 44.468,67.945 M34.704,68.93 C33.717,68.937 33.726,70.47 34.714,70.463 C35.7,70.457 35.692,68.924 34.704,68.931" id="Shape" fill="#132529" fill-rule="nonzero"></path>
                    <path d="M42.3,66.682 C41.997,66.904 41.687,67.109 41.393,67.342 C41.548,66.902 41.684,66.46 41.883,66.037 C41.979,65.836 42.081,65.63 42.203,65.443 C42.393,65.153 43.253,64.415 43.343,65.371 C43.393,65.898 42.659,66.418 42.299,66.682 M43.371,64.81 C42.925,64.443 42.366,64.805 42.093,65.19 C41.651,65.812 41.348,66.682 41.302,67.44 C41.301,67.459 41.315,67.466 41.329,67.465 C41.349,67.528 41.423,67.581 41.488,67.535 C42.112,67.1 42.833,66.713 43.305,66.099 C43.581,65.741 43.793,65.158 43.371,64.81" id="Shape" fill="#132529" fill-rule="nonzero"></path>
                    <path d="M38.587,67.275 C37.989,66.523 39.121,66.459 39.459,66.537 C39.677,66.587 39.893,66.664 40.101,66.744 C40.538,66.91 40.943,67.134 41.359,67.344 C40.986,67.379 40.619,67.447 40.249,67.496 C39.806,67.556 38.916,67.69 38.587,67.276 M39.119,67.774 C39.885,67.889 40.674,67.668 41.425,67.548 C41.503,67.536 41.52,67.447 41.49,67.388 L41.493,67.351 C40.933,66.837 40.113,66.419 39.363,66.277 C38.9,66.19 38.245,66.317 38.178,66.891 C38.115,67.434 38.672,67.706 39.119,67.774" id="Shape" fill="#132529" fill-rule="nonzero"></path>
                    <path d="M19.156,26.174 C19.156,26.174 29.327,43.476 29.6,44.691 C30.019,46.557 32.237,64.992 32.237,64.992 L42.82,64.802 C42.82,64.802 40.996,48.548 39.268,43.194 C38.024,39.337 29.048,26.544 29.048,26.544 L19.158,26.174" id="Path" fill="#424D6C" fill-rule="nonzero"></path>
                    <path d="M41.856,63.179 C40.336,63.168 34.951,63.107 32.928,63.296 L32.928,63.326 C33.625,63.426 40.338,63.27 41.857,63.221 C41.885,63.22 41.885,63.179 41.857,63.179 M20.893,27.762 C21.559,28.807 22.263,29.831 22.943,30.867 C23.625,31.904 24.305,32.942 24.975,33.986 C26.315,36.072 27.62,38.18 28.901,40.302 C29.501,41.297 30.074,42.301 30.486,43.386 C30.895,44.461 31.173,45.579 31.379,46.706 C31.586,47.843 31.723,48.989 31.852,50.136 L32.261,53.798 L33.097,61.291 C33.131,61.598 33.165,61.904 33.195,62.211 C33.2,62.256 33.12,62.265 33.114,62.22 C32.803,59.738 32.544,57.248 32.261,54.763 L31.839,51.051 C31.708,49.901 31.583,48.749 31.405,47.605 C31.229,46.48 31.001,45.361 30.659,44.273 C30.302,43.136 29.796,42.068 29.196,41.035 C27.97,38.92 26.672,36.841 25.374,34.767 C24.064,32.676 22.744,30.59 21.374,28.535 C21.205,28.282 21.034,28.029 20.86,27.78 C20.846,27.76 20.88,27.742 20.893,27.762" id="Shape" fill="#132529" fill-rule="nonzero"></path>
                    <path d="M22.49,72.466 C22.008,72.436 9.55,67.389 9.203,66.911 C9.191,66.895 9.185,66.863 9.183,66.819 C9.186,66.39 10.049,64.891 10.77,62.923 C10.815,62.798 11.137,62.213 11.583,61.426 C12.81,59.264 14.98,55.559 14.98,55.559 L23.123,58.795 L19.226,64.629 L18.619,66.041 C18.619,66.041 22.441,69.991 22.763,70.556 C23.084,71.121 22.971,72.494 22.491,72.466" id="Path" fill="#E98A79" fill-rule="nonzero"></path>
                    <path d="M22.49,72.466 C22.008,72.436 9.55,67.389 9.203,66.911 C9.191,66.895 9.185,66.863 9.183,66.819 C9.186,66.39 10.049,64.891 10.77,62.923 C10.815,62.798 11.137,62.213 11.583,61.426 L19.226,64.629 L18.619,66.041 C18.619,66.041 22.441,69.991 22.763,70.556 C23.084,71.121 22.971,72.494 22.491,72.466" id="Path" fill="#FFFFFE" fill-rule="nonzero"></path>
                    <path d="M22.49,72.465 C22.008,72.437 9.55,67.389 9.203,66.91 C9.071,66.73 9.628,65.028 10.769,62.924 L18.619,66.042 C18.619,66.042 22.441,69.99 22.764,70.556 C23.085,71.121 22.971,72.494 22.49,72.466" id="Path" fill="#959894" fill-rule="nonzero"></path>
                    <path d="M22.51,71.909 C20.492,71.042 12.268,67.737 10.207,67.034 L10.202,67.046 C12.184,67.949 20.434,71.188 22.497,71.942 C22.54,71.958 22.553,71.927 22.51,71.909 M22.157,69.805 C21.682,69.592 21.117,69.632 20.738,69.815 C20.374,69.989 20.002,70.292 19.846,70.72 L19.871,70.73 C20.307,69.979 21.314,69.569 22.147,69.83 L22.157,69.805 M19.328,66.562 C18.517,66.223 17.455,66.132 16.681,66.597 C16.651,66.615 16.677,66.657 16.706,66.654 C17.596,66.569 18.411,66.567 19.302,66.668 C19.365,66.675 19.386,66.586 19.328,66.562 M19.86,67.06 C19.048,66.721 17.987,66.63 17.213,67.095 C17.183,67.113 17.209,67.155 17.238,67.152 C18.128,67.067 18.942,67.065 19.834,67.165 C19.896,67.173 19.918,67.084 19.86,67.06 M20.391,67.557 C19.58,67.219 18.518,67.128 17.744,67.593 C17.714,67.61 17.74,67.653 17.769,67.65 C18.659,67.565 19.474,67.563 20.365,67.664 C20.428,67.671 20.449,67.582 20.391,67.557 M20.923,68.055 C20.111,67.717 19.05,67.626 18.276,68.09 C18.246,68.108 18.272,68.15 18.301,68.148 C19.191,68.063 20.005,68.061 20.897,68.161 C20.959,68.168 20.981,68.08 20.923,68.055 M11.502,65.305 C10.586,64.941 10.018,66.365 10.936,66.73 C11.853,67.094 12.42,65.67 11.502,65.305" id="Shape" fill="#132529" fill-rule="nonzero"></path>
                    <path d="M19.386,66.07 C19.024,66.163 18.658,66.236 18.299,66.342 C18.608,65.994 18.899,65.634 19.243,65.317 C19.407,65.166 19.578,65.014 19.762,64.887 C20.047,64.687 21.122,64.327 20.847,65.247 C20.695,65.754 19.819,65.961 19.387,66.071 L19.386,66.07 Z M21.082,64.738 C20.806,64.23 20.152,64.356 19.755,64.61 C19.112,65.02 18.505,65.714 18.178,66.399 L18.194,66.433 C18.188,66.498 18.237,66.575 18.314,66.557 C19.056,66.388 19.87,66.299 20.538,65.907 C20.928,65.679 21.343,65.217 21.082,64.737 L21.082,64.738 Z" id="Shape" fill="#132529" fill-rule="nonzero"></path>
                    <path d="M15.723,65.227 C15.451,64.307 16.523,64.671 16.809,64.87 C16.992,64.998 17.162,65.151 17.326,65.303 C17.668,65.621 17.959,65.981 18.267,66.33 C17.907,66.224 17.543,66.149 17.18,66.056 C16.748,65.945 15.872,65.736 15.723,65.227 L15.723,65.227 Z M16.029,65.889 C16.696,66.283 17.509,66.374 18.251,66.546 C18.328,66.564 18.378,66.486 18.372,66.421 L18.388,66.388 C18.063,65.702 17.458,65.006 16.816,64.594 C16.42,64.339 15.766,64.211 15.489,64.718 C15.226,65.198 15.64,65.659 16.029,65.889 Z" id="Shape" fill="#132529" fill-rule="nonzero"></path>
                    <path d="M19.854,64.303 L10.739,60.623 C10.739,60.623 22.04,44.004 22.124,42.768 C22.198,41.672 17.234,32.138 17.039,29.36 C16.827,26.362 18.271,24.041 19.858,22.6 L29.26,26.6 C29.26,26.6 28.267,28.187 26.704,29.071 C26.704,29.071 31.526,40.091 31.253,43.479 C30.978,46.886 19.853,64.304 19.853,64.304" id="Path" fill="#424D6C" fill-rule="nonzero"></path>
                    <path d="M20.259,62.57 C18.941,62.003 19.327,62.146 18.003,61.595 C17.355,61.325 13.094,59.553 12.445,59.408 L12.435,59.435 C13.002,59.782 17.292,61.478 17.945,61.735 C19.28,62.262 18.903,62.096 20.243,62.608 C20.268,62.618 20.283,62.58 20.259,62.569 M28.253,28.868 C27.273,29.079 26.313,29.425 25.389,29.798 C25.353,29.812 25.37,29.865 25.409,29.854 C26.37,29.574 27.348,29.311 28.291,28.98 C28.365,28.954 28.328,28.852 28.253,28.868" id="Shape" fill="#132529" fill-rule="nonzero"></path>
                    <path d="M27.138,28.481 C27.045,28.643 26.966,28.813 26.896,28.985 C26.842,29.119 26.772,29.262 26.773,29.407 C26.773,29.436 26.811,29.443 26.828,29.425 C26.938,29.318 26.996,29.161 27.065,29.027 C27.145,28.872 27.228,28.718 27.304,28.561 C27.354,28.456 27.194,28.381 27.138,28.481" id="Path" fill="#132529" fill-rule="nonzero"></path>
                    <path d="M27.252,27.597 C27.309,27.453 27.367,27.308 27.428,27.165 C27.491,27.016 27.565,26.87 27.616,26.717 C27.624,26.693 27.662,26.71 27.652,26.734 C27.595,26.879 27.557,27.034 27.512,27.182 C27.465,27.332 27.416,27.481 27.367,27.629 C27.275,27.906 27.162,28.181 27.043,28.447 C27.197,28.445 27.355,28.439 27.495,28.369 C27.646,28.293 27.738,28.132 27.813,27.986 C27.896,27.825 27.973,27.659 28.058,27.499 C28.152,27.321 28.256,27.145 28.318,26.953 C28.326,26.929 28.364,26.945 28.355,26.969 C28.214,27.366 28.075,27.763 27.855,28.129 C27.767,28.273 27.697,28.422 27.538,28.479 C27.367,28.539 27.179,28.527 27.001,28.514 C26.979,28.52 26.951,28.506 26.958,28.479 C27.043,28.183 27.138,27.883 27.252,27.597 M26.852,29.429 C27.186,30.137 27.48,30.843 27.792,31.549 C28.098,32.239 28.383,32.937 28.661,33.638 C29.221,35.055 29.724,36.498 30.165,37.957 C30.383,38.679 30.584,39.406 30.765,40.137 C30.947,40.872 31.125,41.613 31.2,42.367 C31.276,43.123 31.222,43.87 31.012,44.602 C30.798,45.343 30.516,45.992 30.182,46.685 C29.977,47.109 29.907,47.052 30.006,46.838 C30.286,46.23 31.021,44.39 30.968,42.842 C30.942,42.095 30.789,41.36 30.621,40.635 C30.448,39.895 30.254,39.159 30.042,38.428 C29.624,36.99 29.128,35.58 28.618,34.172 C28.332,33.382 28.025,32.602 27.735,31.815 C27.443,31.022 27.141,30.309 26.817,29.443 C26.808,29.42 26.842,29.407 26.852,29.429 M19.931,27.089 C20.095,27.029 20.321,27.129 20.488,27.156 C20.701,27.192 20.918,27.214 21.134,27.222 C21.347,27.229 21.562,27.22 21.774,27.199 C21.986,27.179 22.204,27.153 22.388,27.037 C22.698,26.843 22.959,26.501 23.17,26.207 C23.401,25.883 23.642,25.511 23.78,25.136 C23.788,25.113 23.821,25.129 23.814,25.151 C23.745,25.37 23.694,25.591 23.607,25.804 C23.525,26.004 23.419,26.197 23.307,26.382 C23.097,26.728 22.855,27.097 22.495,27.302 C22.116,27.519 21.629,27.506 21.207,27.482 C20.963,27.467 20.72,27.435 20.481,27.385 C20.309,27.348 20.018,27.321 19.908,27.169 C19.888,27.142 19.899,27.101 19.931,27.089" id="Shape" fill="#132529" fill-rule="nonzero"></path>
                    <path d="M13.341,58.885 C14.839,56.618 16.31,54.332 17.754,52.029 C19.201,49.721 20.622,47.396 22.024,45.059 C22.358,44.499 22.746,43.942 22.962,43.322 C23.196,42.649 23.062,41.998 22.85,41.339 C22.46,40.131 21.975,38.956 21.451,37.801 C20.925,36.643 20.359,35.503 19.803,34.36 C19.251,33.225 18.663,32.087 18.243,30.895 C17.843,29.757 17.692,28.575 17.999,27.395 C18.303,26.223 18.962,25.171 19.651,24.189 C19.832,23.93 20.017,23.673 20.199,23.415 C20.213,23.395 20.243,23.419 20.229,23.438 C19.47,24.462 18.731,25.546 18.286,26.748 C18.066,27.341 17.924,27.967 17.91,28.601 C17.895,29.245 18.016,29.884 18.206,30.497 C18.575,31.689 19.156,32.817 19.699,33.937 C20.254,35.083 20.823,36.221 21.358,37.375 C21.896,38.537 22.399,39.716 22.813,40.928 C22.997,41.468 23.203,42.032 23.19,42.611 C23.177,43.244 22.874,43.814 22.561,44.348 C21.198,46.673 19.783,48.968 18.351,51.251 C16.913,53.541 15.446,55.815 13.957,58.073 C13.769,58.358 13.581,58.643 13.392,58.926 C13.369,58.962 13.318,58.92 13.342,58.886" id="Path" fill="#132529" fill-rule="nonzero"></path>
                    <path d="M29.783,16.03 C30.632,17.893 34.919,20.46 36.927,20.736 C38.371,20.935 42.758,21.003 44.262,20.773 C46.024,20.504 44.678,15.748 43.636,15.869 C40.774,16.204 38.343,16.577 37.579,16.577 C36.646,16.577 31.596,14.956 30.988,14.727 C29.498,14.17 29.302,14.974 29.783,16.03" id="Path" fill="#E98A79" fill-rule="nonzero"></path>
                    <path d="M29.81,16.524 C30.884,18.114 34.456,20.713 34.456,20.713 L34.951,19.614 L36.591,15.984 C36.591,15.984 33.311,14.949 31.153,14.488 C30.861,14.425 30.605,14.388 30.381,14.378 C29.003,14.304 28.883,15.156 29.809,16.524" id="Path" fill="#F5BB3D" fill-rule="nonzero"></path>
                    <path d="M29.81,16.524 C30.884,18.114 34.456,20.713 34.456,20.713 L34.951,19.614 C33.619,18.068 31.563,15.724 30.381,14.378 C29.003,14.304 28.883,15.156 29.809,16.524" id="Path" fill="#132529" fill-rule="nonzero"></path>
                    <path d="M33.812,19.979 C34.084,19.312 35.297,16.619 35.598,16.055 C35.618,16.015 35.648,16.018 35.632,16.062 C34.864,18.08 34.138,19.346 33.838,19.988 L33.812,19.978" id="Path" fill="#132529" fill-rule="nonzero"></path>
                    <path d="M43.111,15.922 C44.853,15.693 47.009,15.302 48.834,16.077 C49.192,16.229 49.321,16.496 49.321,16.496 C50.145,16.829 50.236,17.318 50.236,17.318 C50.908,17.863 50.932,18.375 50.932,18.375 C50.932,18.375 51.895,18.777 51.75,19.399 C51.588,20.098 50.267,19.397 49.305,19.457 C47.101,19.593 44.005,20.403 43.374,20.505 L43.111,15.922" id="Path" fill="#E98A79" fill-rule="nonzero"></path>
                    <path d="M46.895,17.976 C47.545,17.949 48.182,17.906 48.831,17.966 C49.544,18.033 50.219,18.217 50.911,18.387 C50.932,18.393 50.942,18.363 50.921,18.355 C49.718,17.848 48.175,17.715 46.893,17.946 C46.863,17.952 46.863,17.977 46.895,17.976 M46.62,16.657 C47.253,16.667 48.366,16.689 50.229,17.337 L50.234,17.327 C49.081,16.745 47.898,16.537 46.62,16.627 C46.58,16.63 46.577,16.657 46.62,16.657 M46.485,15.946 C47.561,16.002 48.233,16.174 49.315,16.499 L49.32,16.488 C48.128,15.988 47.64,15.943 46.481,15.908 C46.441,15.908 46.443,15.944 46.485,15.946" id="Shape" fill="#132529" fill-rule="nonzero"></path>
                    <path d="M46.66,19.789 C46.38,19.92 46.446,20.068 46.982,20.192 C47.524,20.319 49.743,20.352 49.665,21.128 C49.588,21.906 46.447,21.807 45.571,21.532 C44.694,21.259 43.374,20.505 43.374,20.505 C43.989,20.401 45.456,20.008 46.659,19.789" id="Path" fill="#E98A79" fill-rule="nonzero"></path>
                    <path d="M32.114,19 C32.101,19.335 32.068,19.676 32.021,20.014 L32.035,19.978 C32.1,19.801 32.165,19.62 32.243,19.45 L32.261,19.454 C32.227,19.639 32.161,19.825 32.091,20 C32.058,20.083 32.023,20.166 31.987,20.249 C31.963,20.399 31.936,20.549 31.905,20.696 C31.847,20.976 31.583,22.17 31.522,22.371 C31.51,22.414 31.459,22.404 31.462,22.357 C31.477,22.137 31.699,20.895 31.744,20.614 C31.83,20.074 31.949,19.523 32.094,18.995 L32.114,19" id="Path" fill="#132529" fill-rule="nonzero"></path>
                    <path d="M30.07,27.914 C29.547,28.184 28.873,28.601 25.834,28.003 C25.644,27.965 25.453,27.918 25.261,27.861 C22.411,27.005 18.993,23.653 18.801,23.417 C18.801,23.417 23.327,16.077 29.117,13.771 C29.833,13.485 31.017,14.035 31.674,14.72 C31.908,14.964 32.416,16.765 32.221,18.224 C32.024,19.682 30.597,27.647 30.07,27.914" id="Path" fill="#F5BB3D" fill-rule="nonzero"></path>
                    <path d="M29.666,18.157 C29.682,18.315 29.67,18.469 29.651,18.621 C29.628,18.774 29.598,18.925 29.538,19.071 C29.522,18.914 29.534,18.761 29.554,18.608 C29.577,18.456 29.607,18.305 29.666,18.158 M27.692,23.155 C27.709,23.313 27.696,23.467 27.677,23.619 C27.654,23.771 27.624,23.923 27.565,24.069 C27.548,23.912 27.56,23.759 27.58,23.606 C27.603,23.454 27.633,23.303 27.692,23.156 M24.336,19.378 C24.353,19.536 24.341,19.689 24.321,19.842 C24.298,19.994 24.269,20.145 24.209,20.292 C24.192,20.135 24.205,19.982 24.224,19.829 C24.248,19.676 24.277,19.525 24.336,19.379 M30.959,22.902 C30.975,23.06 30.963,23.213 30.944,23.366 C30.921,23.518 30.891,23.669 30.832,23.816 C30.815,23.658 30.827,23.505 30.847,23.352 C30.87,23.2 30.9,23.049 30.959,22.902 M26.65,18.73 C26.808,18.713 26.961,18.726 27.114,18.745 C27.266,18.768 27.417,18.798 27.564,18.857 C27.407,18.874 27.254,18.862 27.101,18.842 C26.949,18.819 26.797,18.789 26.651,18.73 M22.842,22.341 C23,22.325 23.154,22.337 23.306,22.356 C23.458,22.379 23.609,22.409 23.756,22.468 C23.599,22.485 23.446,22.473 23.293,22.453 C23.141,22.43 22.989,22.4 22.843,22.341 M27.322,26.25 C27.48,26.233 27.633,26.245 27.786,26.264 C27.938,26.287 28.089,26.317 28.236,26.376 C28.079,26.393 27.925,26.381 27.772,26.361 C27.62,26.338 27.469,26.308 27.322,26.249 M21.668,24.83 C21.826,24.813 21.98,24.825 22.132,24.845 C22.284,24.867 22.435,24.897 22.582,24.957 C22.425,24.974 22.272,24.961 22.119,24.942 C21.967,24.918 21.815,24.888 21.669,24.829 M29.637,14.645 C29.795,14.628 29.948,14.641 30.101,14.66 C30.253,14.683 30.404,14.713 30.551,14.772 C30.394,14.789 30.24,14.776 30.087,14.757 C29.935,14.734 29.784,14.704 29.637,14.645 M28.53,15.895 C28.43,16.019 28.313,16.118 28.192,16.213 C28.068,16.304 27.94,16.39 27.794,16.452 C27.894,16.328 28.011,16.229 28.133,16.135 C28.256,16.043 28.385,15.958 28.53,15.895 M22.492,19.45 C22.392,19.573 22.275,19.673 22.153,19.767 C22.03,19.858 21.902,19.944 21.756,20.007 C21.856,19.883 21.973,19.783 22.094,19.689 C22.218,19.598 22.346,19.512 22.492,19.449 M30.03,21.055 C29.93,21.178 29.813,21.278 29.692,21.372 C29.568,21.464 29.44,21.549 29.294,21.612 C29.394,21.488 29.511,21.388 29.633,21.294 C29.757,21.203 29.885,21.117 30.03,21.055 M25.148,24.13 C25.048,24.252 24.931,24.352 24.81,24.446 C24.686,24.538 24.558,24.624 24.412,24.686 C24.512,24.562 24.629,24.462 24.751,24.368 C24.875,24.278 25.003,24.191 25.148,24.129 M31.901,16.854 C31.801,16.977 31.684,17.077 31.563,17.171 C31.439,17.263 31.311,17.348 31.165,17.411 C31.265,17.287 31.382,17.187 31.504,17.093 C31.627,17.002 31.755,16.916 31.901,16.853 M31.799,20.417 C31.676,20.317 31.576,20.2 31.482,20.079 C31.39,19.955 31.305,19.827 31.242,19.681 C31.366,19.781 31.466,19.898 31.56,20.02 C31.651,20.144 31.737,20.272 31.799,20.417 M20.918,22.871 C20.795,22.771 20.695,22.654 20.601,22.533 C20.509,22.409 20.424,22.281 20.361,22.135 C20.485,22.235 20.585,22.352 20.679,22.474 C20.77,22.597 20.856,22.725 20.918,22.871 M30.476,25.792 C30.353,25.692 30.254,25.575 30.159,25.454 C30.068,25.33 29.982,25.202 29.92,25.056 C30.044,25.156 30.143,25.273 30.237,25.395 C30.328,25.519 30.414,25.647 30.477,25.792 M25.686,17.468 C25.563,17.368 25.463,17.251 25.369,17.13 C25.278,17.006 25.192,16.878 25.129,16.732 C25.253,16.832 25.353,16.949 25.447,17.071 C25.538,17.195 25.624,17.323 25.687,17.468 M25.77,27.455 C25.647,27.355 25.548,27.237 25.454,27.115 C25.362,26.992 25.276,26.864 25.214,26.718 C25.338,26.818 25.437,26.935 25.532,27.057 C25.622,27.181 25.708,27.309 25.771,27.455 M26.585,21.564 C26.462,21.464 26.362,21.347 26.268,21.225 C26.176,21.101 26.091,20.973 26.028,20.827 C26.152,20.927 26.252,21.044 26.346,21.166 C26.437,21.29 26.523,21.418 26.586,21.564" id="Shape" fill="#FFFFFE" fill-rule="nonzero"></path>
                    <path d="M30.609,16.674 C29.871,16.536 29.176,15.009 29.089,13.982 C29.083,13.911 29.434,13.352 29.829,12.652 C30.066,12.226 30.321,11.746 30.521,11.292 C30.562,11.198 30.804,11.51 30.804,11.51 L31.329,11.912 L33.065,13.244 C33.065,13.244 32.365,14.072 32.019,14.867 C31.991,14.933 31.971,14.997 31.956,15.062 L31.947,15.095 C31.848,15.475 31.322,16.805 30.609,16.674" id="Path" fill="#E98A79" fill-rule="nonzero"></path>
                    <path d="M31.956,15.062 L31.947,15.095 C31.852,15.068 31.753,15.03 31.647,14.981 C29.747,14.09 30.585,11.544 30.585,11.544 L31.329,11.912 L33.065,13.244 C33.065,13.244 32.365,14.072 32.019,14.867 C31.991,14.933 31.971,14.997 31.956,15.062 M35.058,7.817 C35.058,7.817 35.926,8.368 35.932,9.349 C35.938,10.329 35.547,11.288 35.457,11.322 C35.367,11.356 35.058,7.817 35.058,7.817" id="Shape" fill="#132529" fill-rule="nonzero"></path>
                    <path d="M30.75,8.326 C30.228,9.356 30.254,12.601 30.906,13.436 C31.851,14.649 33.671,15.066 34.77,13.868 C35.835,12.706 35.726,8.478 34.972,7.691 C33.862,6.531 31.521,6.804 30.75,8.326" id="Path" fill="#E98A79" fill-rule="nonzero"></path>
                    <polyline id="Path" fill="#EC9891" fill-rule="nonzero" points="30.833 13.392 30.833 13.391 30.833 13.392"></polyline>
                    <path d="M33.518,10.925 L33.501,10.945 C33.514,11.165 33.491,11.421 33.292,11.499 L33.294,11.511 C33.537,11.471 33.564,11.132 33.518,10.925" id="Path" fill="#132529" fill-rule="nonzero"></path>
                    <path d="M33.315,10.699 C32.959,10.68 32.948,11.394 33.278,11.411 C33.603,11.428 33.614,10.715 33.315,10.699 M34.728,10.917 L34.745,10.937 C34.735,11.157 34.759,11.413 34.958,11.489 L34.956,11.502 C34.713,11.463 34.682,11.125 34.728,10.917" id="Shape" fill="#132529" fill-rule="nonzero"></path>
                    <path d="M34.929,10.689 C35.285,10.668 35.302,11.382 34.972,11.401 C34.647,11.421 34.63,10.707 34.929,10.689 M33.092,10.155 C33.189,10.132 33.275,10.095 33.37,10.062 C33.476,10.025 33.564,10.007 33.635,9.914 C33.673,9.864 33.659,9.772 33.614,9.73 C33.508,9.634 33.367,9.647 33.237,9.686 C33.097,9.728 32.998,9.797 32.917,9.919 C32.837,10.036 32.963,10.185 33.092,10.155 M35.176,10.472 C35.078,10.454 34.99,10.422 34.894,10.394 C34.786,10.363 34.696,10.349 34.621,10.259 C34.581,10.211 34.589,10.119 34.633,10.075 C34.733,9.973 34.875,9.978 35.006,10.011 C35.149,10.045 35.25,10.109 35.339,10.226 C35.425,10.34 35.307,10.496 35.176,10.472 M33.015,13.02 C33.067,13.073 33.118,13.145 33.198,13.153 C33.275,13.161 33.366,13.127 33.438,13.101 L33.446,13.113 C33.388,13.197 33.266,13.248 33.164,13.228 C33.064,13.209 33.016,13.122 32.994,13.03 L33.014,13.02 M34.299,12.075 C34.299,12.075 34.308,12.405 34.291,12.56 C34.29,12.574 33.856,12.489 33.389,12.592 C33.319,12.607 33.325,12.55 33.406,12.513 C33.568,12.439 33.774,12.368 34.174,12.411 C34.189,12.37 34.15,11.902 34.174,11.903 C34.259,11.905 34.419,11.98 34.514,12.02 C34.515,11.33 34.405,10.646 34.416,9.959 C34.416,9.934 34.452,9.931 34.457,9.953 C34.624,10.663 34.64,11.456 34.658,12.169 C34.661,12.258 34.358,12.108 34.298,12.075" id="Shape" fill="#132529" fill-rule="nonzero"></path>
                    <path d="M33.858,12.442 C33.858,12.442 33.704,12.83 33.446,12.934 C33.149,13.054 33.048,12.786 33.35,12.548 C33.509,12.424 33.858,12.442 33.858,12.442" id="Path" fill="#132529" fill-rule="nonzero"></path>
                    <path d="M33.549,12.874 C33.515,12.899 33.482,12.921 33.445,12.934 C33.172,13.044 33.065,12.826 33.285,12.607 C33.433,12.619 33.595,12.674 33.549,12.874" id="Path" fill="#E88BA9" fill-rule="nonzero"></path>
                    <path d="M30.6,11.101 C30.958,11.211 31.37,10.133 31.487,9.719 C31.59,9.353 31.708,8.195 31.727,8.115 C31.744,8.036 33.289,9.141 34.193,8.877 C35.097,8.613 35.701,7.802 35.713,7.423 C35.725,7.045 34.603,6.083 33.633,6.035 C32.661,5.985 31.347,7.219 31.347,7.219 C31.347,7.219 31.794,6.686 31.778,6.643 C31.763,6.599 31.136,6.85 31.021,7.296 C31.021,7.296 31.145,6.736 31.097,6.725 C31.05,6.715 30.562,7.195 30.672,7.559 C30.672,7.559 30.108,8.047 30.056,8.583 C30.004,9.118 30.178,10.973 30.6,11.101" id="Path" fill="#132529" fill-rule="nonzero"></path>
                    <path d="M34.835,8.688 C34.56,8.815 34.285,8.954 33.981,8.994 C33.653,9.037 33.313,8.954 33.007,8.837 C32.695,8.717 32.41,8.544 32.153,8.332 C31.926,8.145 31.726,7.921 31.485,7.755 C31.425,7.714 31.355,7.801 31.392,7.856 C31.758,8.406 32.406,8.866 33.032,9.063 C33.689,9.272 34.307,9.125 34.838,8.695 L34.835,8.688" id="Path" fill="#132529" fill-rule="nonzero"></path>
                    <path d="M30.975,11.005 C30.975,11.005 30.418,9.875 29.916,10.059 C29.414,10.242 29.723,11.803 30.236,12.089 C30.748,12.375 31.022,11.906 31.022,11.906 L30.975,11.006" id="Path" fill="#E98A79" fill-rule="nonzero"></path>
                    <path d="M30.016,10.504 L30.011,10.518 C30.368,10.731 30.515,11.115 30.599,11.503 C30.507,11.345 30.365,11.243 30.155,11.35 L30.162,11.372 C30.323,11.362 30.432,11.406 30.518,11.548 C30.579,11.648 30.613,11.768 30.651,11.878 C30.663,11.915 30.727,11.906 30.721,11.865 L30.719,11.855 C30.803,11.371 30.53,10.633 30.016,10.505" id="Path" fill="#132529" fill-rule="nonzero"></path>
                    <path d="M27.298,16.048 C26.915,18.269 29.313,25.754 30.857,27.152 C33.153,29.231 37.399,30.598 38.937,31.042 C39.607,31.236 41.463,26.518 40.784,26.207 C39.332,25.542 34.818,24.134 34.393,23.773 C33.968,23.411 31.374,19.679 30.221,17.527 C28.674,14.639 27.491,14.924 27.298,16.047" id="Path" fill="#E98A79" fill-rule="nonzero"></path>
                    <path d="M39.642,25.792 C39.642,25.792 41.644,26.302 42.938,26.698 C43.66,26.918 44.863,27.407 45.319,27.811 C46.001,28.416 48.469,31.382 47.762,31.996 C47.122,32.551 45.327,29.734 45.327,29.734 C45.327,29.734 47.39,32.417 46.497,32.944 C45.605,33.471 43.999,30.018 43.999,30.018 C43.999,30.018 46.057,32.822 45.051,33.22 C44.29,33.521 42.659,30.475 42.659,30.475 C42.659,30.475 44.412,32.898 43.643,33.241 C42.793,33.62 41.112,30.903 41.112,30.903 C39.01,31.446 37.787,30.845 36.968,30.313 C36.77,30.185 39.642,25.793 39.642,25.793" id="Path" fill="#E98A79" fill-rule="nonzero"></path>
                    <path d="M44.673,28.76 C44.926,29.067 45.185,29.375 45.411,29.703 C45.637,30.031 45.851,30.367 46.045,30.714 C46.522,31.566 46.686,32.174 46.672,32.138 C46.335,31.276 45.545,30.09 45.319,29.762 C45.094,29.435 44.885,29.096 44.66,28.769 L44.673,28.76 M43.474,29.554 C43.909,29.898 44.821,31.182 45.174,32.042 C45.188,32.078 45.168,32.075 45.147,32.042 C44.872,31.618 43.758,29.97 43.464,29.56 L43.474,29.554 M42.323,30.05 C42.826,30.548 43.249,31.229 43.582,32.015 C43.596,32.051 43.568,32.045 43.547,32.011 C43.141,31.351 42.827,30.829 42.302,30.067 L42.322,30.05" id="Shape" fill="#132529" fill-rule="nonzero"></path>
                    <path d="M29.48,16.211 C27.69,13.679 26.62,14.618 26.979,17.366 C27.315,19.936 28.216,22.999 28.216,22.999 L32.734,20.811 L29.48,16.211" id="Path" fill="#F5BB3D" fill-rule="nonzero"></path>
                    <path d="M30.574,17.207 C30.638,17.352 30.674,17.502 30.702,17.653 C30.726,17.805 30.744,17.958 30.732,18.116 C30.668,17.971 30.633,17.821 30.605,17.67 C30.581,17.518 30.563,17.365 30.575,17.207 M27.901,18.746 C28.046,18.682 28.196,18.647 28.347,18.619 C28.499,18.595 28.652,18.577 28.811,18.589 C28.665,18.653 28.515,18.688 28.364,18.716 C28.212,18.74 28.059,18.758 27.901,18.746 M28.018,14.809 C27.96,14.956 27.878,15.087 27.792,15.214 C27.702,15.339 27.606,15.46 27.486,15.564 C27.543,15.415 27.625,15.284 27.712,15.158 C27.802,15.033 27.898,14.913 28.018,14.808 M31.83,19.929 C31.772,20.077 31.691,20.207 31.604,20.334 C31.514,20.459 31.418,20.58 31.298,20.684 C31.355,20.536 31.437,20.404 31.524,20.278 C31.614,20.153 31.71,20.033 31.83,19.928 M28.704,21.465 C28.556,21.407 28.425,21.326 28.298,21.239 C28.174,21.149 28.053,21.053 27.949,20.933 C28.097,20.99 28.228,21.072 28.355,21.159 C28.48,21.249 28.6,21.345 28.704,21.465" id="Shape" fill="#FFFFFE" fill-rule="nonzero"></path>
                    <path d="M30.08,16.973 C30.321,17.304 30.57,17.628 30.818,17.953 C30.755,17.789 30.701,17.623 30.652,17.453 L30.664,17.45 C30.714,17.58 30.77,17.708 30.818,17.839 L30.889,18.027 L30.905,18.067 C31.098,18.321 31.29,18.575 31.476,18.834 C31.698,19.142 31.912,19.456 32.127,19.77 C32.349,20.094 32.56,20.474 32.795,20.789 C32.815,20.816 32.395,20.985 32.355,21.007 C32.315,21.03 32.288,20.991 32.331,20.977 C32.371,20.966 32.703,20.761 32.707,20.757 C32.493,20.441 32.243,20.149 32.017,19.84 C31.794,19.532 31.569,19.225 31.352,18.913 C30.911,18.278 30.505,17.619 30.068,16.982 L30.081,16.973 M27.09,19.185 C27.159,19.318 27.233,19.451 27.294,19.588 L27.369,19.758 C27.265,19.269 27.165,18.779 27.064,18.289 L27.074,18.286 C27.28,19.08 27.489,19.873 27.682,20.67 C27.865,21.43 28.086,22.2 28.192,22.975 C28.254,22.955 28.605,22.809 28.616,22.832 C28.626,22.855 28.156,23.076 28.15,23.057 C27.894,22.3 27.736,21.439 27.562,20.659 C27.512,20.439 27.467,20.219 27.42,19.999 C27.37,19.866 27.307,19.739 27.247,19.609 C27.183,19.474 27.132,19.331 27.077,19.191 L27.09,19.185" id="Shape" fill="#132529" fill-rule="nonzero"></path>
                    <path d="M28.287,22.243 C28.915,21.889 31.537,20.532 32.124,20.276 C32.164,20.258 32.186,20.279 32.146,20.303 C30.291,21.408 28.936,21.95 28.302,22.267 L28.287,22.243" id="Path" fill="#132529" fill-rule="nonzero"></path>
                    <path d="M100.137,73.792 L40.396,73.792 L49.034,24.801 L108.775,24.801 L100.137,73.792 M69.48,19.728 L49.929,19.728 L49.034,24.801 L69.958,24.801 L69.48,19.728" id="Shape" fill="#F5BB3D" fill-rule="nonzero"></path>
                    <path d="M100.137,73.792 L40.396,73.792 L49.034,24.801 L108.775,24.801 L100.137,73.792 M69.958,24.801 L49.034,24.801 L49.929,19.728 L69.48,19.728 L69.958,24.801" id="Shape" fill="#233A95" fill-rule="nonzero"></path>
                    <path d="M47.819,21.797 C47.742,21.513 47.724,21.229 47.721,20.944 C47.724,20.66 47.741,20.375 47.819,20.091 C47.897,20.375 47.914,20.66 47.917,20.944 C47.914,21.229 47.897,21.513 47.819,21.797 M46.082,22.3 C45.872,22.092 45.715,21.855 45.57,21.61 C45.43,21.362 45.303,21.107 45.228,20.822 C45.438,21.029 45.595,21.267 45.74,21.512 C45.88,21.76 46.006,22.015 46.082,22.3 M44.828,23.604 C44.543,23.528 44.288,23.401 44.04,23.262 C43.795,23.117 43.558,22.96 43.35,22.75 C43.636,22.825 43.89,22.953 44.138,23.092 C44.383,23.237 44.621,23.395 44.828,23.604 M44.395,25.36 C44.11,25.437 43.825,25.454 43.542,25.457 C43.257,25.455 42.972,25.437 42.688,25.359 C42.973,25.282 43.258,25.264 43.542,25.262 C43.826,25.265 44.11,25.282 44.395,25.359 M44.897,27.097 C44.689,27.307 44.452,27.463 44.207,27.608 C43.959,27.748 43.705,27.875 43.419,27.95 C43.627,27.74 43.864,27.583 44.109,27.439 C44.357,27.299 44.612,27.172 44.897,27.097 M46.201,28.35 C46.126,28.635 45.998,28.89 45.859,29.138 C45.715,29.383 45.557,29.621 45.348,29.828 C45.423,29.543 45.55,29.288 45.689,29.04 C45.835,28.795 45.992,28.558 46.201,28.35 M47.957,28.784 C48.034,29.068 48.051,29.353 48.055,29.637 C48.052,29.921 48.035,30.206 47.957,30.49 C47.879,30.206 47.862,29.921 47.859,29.637 C47.862,29.353 47.879,29.068 47.957,28.784 M49.694,28.281 C49.904,28.489 50.061,28.727 50.205,28.971 C50.345,29.219 50.472,29.474 50.547,29.759 C50.337,29.552 50.181,29.314 50.036,29.069 C49.896,28.821 49.769,28.566 49.694,28.281 M50.947,26.978 C51.233,27.053 51.487,27.18 51.735,27.319 C51.98,27.464 52.218,27.621 52.425,27.831 C52.14,27.756 51.885,27.629 51.637,27.489 C51.393,27.344 51.155,27.187 50.947,26.978 M51.381,25.222 C51.665,25.144 51.95,25.127 52.234,25.124 C52.519,25.127 52.803,25.144 53.087,25.222 C52.803,25.299 52.519,25.317 52.234,25.32 C51.95,25.316 51.665,25.299 51.381,25.222 M50.879,23.484 C51.086,23.275 51.324,23.118 51.569,22.973 C51.816,22.833 52.071,22.706 52.356,22.631 C52.149,22.841 51.911,22.998 51.666,23.143 C51.419,23.282 51.164,23.409 50.879,23.484 M49.575,22.23 C49.65,21.946 49.777,21.691 49.916,21.443 C50.061,21.198 50.218,20.961 50.428,20.753 C50.353,21.038 50.226,21.293 50.086,21.541 C49.941,21.786 49.784,22.023 49.575,22.231" id="Shape" fill="#132529" fill-rule="nonzero"></path>
                    <polyline id="Path" fill="#4462D8" fill-rule="nonzero" points="100.049 73.792 40.179 73.792 31.679 26.58 91.549 26.58 100.049 73.792"></polyline>
                    <rect id="Rectangle" fill="#FFFFFF" fill-rule="nonzero" x="58" y="60" width="12" height="2" rx="1"></rect>
                    <path d="M54.914,50.952 C54.914,52.327 53.8,53.441 52.425,53.441 C51.051,53.441 49.937,52.327 49.937,50.952 C49.937,49.578 51.051,48.464 52.425,48.464 C53.8,48.464 54.914,49.578 54.914,50.952 M74.585,49.952 C74.585,51.327 73.471,52.441 72.097,52.441 C70.723,52.441 69.608,51.327 69.608,49.952 C69.608,48.578 70.723,47.464 72.097,47.464 C73.471,47.464 74.585,48.578 74.585,49.952" id="Shape" fill="#FFFFFF" fill-rule="nonzero"></path>
                    <path d="M96.096,52.763 C96.226,52.735 96.354,52.705 96.482,52.672 L96.433,52.482 C96.308,52.514 96.182,52.544 96.055,52.571 L96.096,52.763" id="Path" fill="#132529" fill-rule="nonzero"></path>
                    <path d="M48.763,7.766 C48.483,10.45 46.078,12.399 43.393,12.119 C42.309,12.005 41.345,11.545 40.598,10.857 L38.153,11.217 L39.377,9.102 C39.08,8.38 38.955,7.576 39.041,6.749 C39.322,4.065 41.727,2.116 44.411,2.396 C47.095,2.677 49.044,5.082 48.763,7.766" id="Path" fill="#FFFFFE" fill-rule="nonzero"></path>
                    <path d="M48.763,7.766 C48.912,6.293 48.359,4.764 47.28,3.752 C46.744,3.246 46.095,2.862 45.395,2.64 C44.694,2.42 43.944,2.368 43.221,2.477 C42.5,2.587 41.801,2.857 41.203,3.275 C40.607,3.693 40.103,4.241 39.741,4.869 C39.371,5.497 39.179,6.216 39.121,6.937 C39.075,7.661 39.193,8.394 39.465,9.067 L39.482,9.11 L39.459,9.15 L38.229,11.26 L38.141,11.13 L40.588,10.788 L40.622,10.783 L40.646,10.805 C41.293,11.413 42.111,11.837 42.986,12.011 C43.205,12.055 43.426,12.083 43.649,12.091 C43.872,12.115 44.095,12.098 44.318,12.091 C44.76,12.045 45.206,11.97 45.623,11.803 C46.041,11.646 46.446,11.441 46.802,11.168 C46.989,11.043 47.148,10.883 47.318,10.737 C47.468,10.57 47.634,10.417 47.762,10.232 C48.323,9.528 48.655,8.658 48.763,7.766 L48.763,7.766 Z M48.763,7.766 C48.661,8.658 48.335,9.533 47.777,10.243 C47.649,10.429 47.484,10.585 47.334,10.753 C47.164,10.901 47.006,11.063 46.818,11.19 C46.461,11.465 46.059,11.681 45.639,11.846 C45.222,12.022 44.772,12.106 44.324,12.16 C44.098,12.172 43.871,12.193 43.644,12.173 C43.418,12.168 43.192,12.143 42.968,12.103 C42.074,11.941 41.228,11.523 40.551,10.909 L40.608,10.927 L38.166,11.302 L37.989,11.329 L39.295,9.055 L39.289,9.138 C38.696,7.744 38.83,6.082 39.589,4.783 C39.969,4.132 40.497,3.571 41.12,3.153 C41.744,2.733 42.466,2.47 43.206,2.37 C43.946,2.272 44.709,2.34 45.416,2.574 C46.122,2.812 46.77,3.212 47.301,3.73 C48.38,4.756 48.922,6.295 48.763,7.766 Z" id="Shape" fill="#132529" fill-rule="nonzero"></path>
                    <path d="M41.716,8.377 L41.602,4.487 L42.38,4.487 L42.267,8.377 L41.716,8.377 Z M41.513,9.537 C41.513,9.245 41.716,9.034 41.991,9.034 C42.283,9.034 42.47,9.244 42.47,9.536 C42.47,9.82 42.283,10.039 41.991,10.039 C41.708,10.039 41.513,9.819 41.513,9.536 L41.513,9.537 Z M43.58,8.377 L43.467,4.487 L44.245,4.487 L44.131,8.377 L43.58,8.377 Z M43.377,9.537 C43.377,9.245 43.58,9.034 43.856,9.034 C44.147,9.034 44.334,9.244 44.334,9.536 C44.334,9.82 44.147,10.039 43.856,10.039 C43.572,10.039 43.377,9.819 43.377,9.536 L43.377,9.537 Z M45.444,8.377 L45.331,4.487 L46.109,4.487 L45.995,8.377 L45.445,8.377 L45.444,8.377 Z M45.242,9.537 C45.242,9.245 45.444,9.034 45.72,9.034 C46.012,9.034 46.198,9.244 46.198,9.536 C46.198,9.82 46.012,10.039 45.72,10.039 C45.436,10.039 45.242,9.819 45.242,9.536 L45.242,9.537 Z" id="Shape" fill="#F5BB3D" fill-rule="nonzero"></path>
                </g>
            </g>
        </g>
    </g>
</svg>