<?xml version="1.0" encoding="UTF-8"?>
<svg width="24px" height="24px" viewBox="0 0 24 24" version="1.1" xmlns="http://www.w3.org/2000/svg" xmlns:xlink="http://www.w3.org/1999/xlink">
    <title>D9335DE3-F76E-4170-95F5-1F539C914D58</title>
    <g id="MFast-new" stroke="none" stroke-width="1" fill="none" fill-rule="evenodd">
        <g id="Update-CTV-1.1" transform="translate(-335.000000, -96.000000)" fill="#FFFFFF" fill-rule="nonzero">
            <g id="Group-2" transform="translate(69.000000, 96.000000)">
                <g id="icon/-info/-2" transform="translate(266.000000, 0.000000)">
                    <path d="M12,0 C18.65,0 24,5.35 24,12 C24,18.65 18.65,24 12,24 C5.35,24 0,18.65 0,12 C0,5.35 5.35,0 12,0 Z M13.078125,8.78125 L11.390625,8.78125 L11.390625,17 L13.078125,17 L13.078125,8.78125 Z M12.234375,5.6484375 C11.6953125,5.6484375 11.2578125,6.078125 11.2578125,6.6171875 C11.2578125,7.1484375 11.6953125,7.578125 12.234375,7.578125 C12.78125,7.578125 13.21875,7.1484375 13.21875,6.6171875 C13.21875,6.078125 12.78125,5.6484375 12.234375,5.6484375 Z" id="Combined-Shape"></path>
                </g>
            </g>
        </g>
    </g>
</svg>