<?xml version="1.0" encoding="UTF-8"?>
<svg width="52px" height="52px" viewBox="0 0 52 52" version="1.1" xmlns="http://www.w3.org/2000/svg" xmlns:xlink="http://www.w3.org/1999/xlink">
    <title>44DD2553-7BF2-4D42-AAAE-9A1DFE67F621</title>
    <defs>
        <linearGradient x1="50%" y1="0%" x2="50%" y2="100%" id="linearGradient-1">
            <stop stop-color="#6B8AFE" offset="0%"></stop>
            <stop stop-color="#233A96" offset="100%"></stop>
        </linearGradient>
        <circle id="path-2" cx="26" cy="26" r="26"></circle>
        <linearGradient x1="50%" y1="0%" x2="50%" y2="100%" id="linearGradient-4">
            <stop stop-color="#6C8AFF" offset="0%"></stop>
            <stop stop-color="#233A95" offset="100%"></stop>
        </linearGradient>
    </defs>
    <g id="MFast-new" stroke="none" stroke-width="1" fill="none" fill-rule="evenodd">
        <g id="Update-CTV-1" transform="translate(-307.000000, -824.000000)">
            <g id="Group-32" transform="translate(0.000000, 824.000000)">
                <g id="Group-5" transform="translate(157.000000, 0.000000)">
                    <g id="tiện-ích" transform="translate(150.000000, 0.000000)">
                        <mask id="mask-3" fill="white">
                            <use xlink:href="#path-2"></use>
                        </mask>
                        <circle stroke="url(#linearGradient-1)" cx="26" cy="26" r="25.5"></circle>
                        <g id="icon/-user/-add" mask="url(#mask-3)" fill="url(#linearGradient-4)">
                            <g transform="translate(14.000000, 11.000000)">
                                <path d="M11.011236,16.3333333 C16.9849244,16.3333333 21.8628349,20.8518159 22.0186328,26.4619647 L22.0224719,26.7387387 L22.0224719,28 L1.74919908e-13,28 L1.74919908e-13,26.7387387 C1.74919908e-13,21.0011772 4.9396182,16.3333333 11.011236,16.3333333 Z M23.2808989,6.16666667 C23.7695778,6.16666667 24.1657303,6.54942841 24.1657303,7.02158895 L24.1647978,10.2286667 L27.1931071,10.2291667 C27.6387417,10.2291667 28,10.6488997 28,11.1666667 C28,11.6844336 27.6387417,12.1041667 27.1931071,12.1041667 L24.1647978,12.1036667 L24.1657303,15.3117444 C24.1657303,15.7839049 23.7695778,16.1666667 23.2808989,16.1666667 C22.79222,16.1666667 22.3960674,15.7839049 22.3960674,15.3117444 L22.3957978,12.1036667 L19.3686907,12.1041667 C18.923056,12.1041667 18.5617978,11.6844336 18.5617978,11.1666667 C18.5617978,10.6488997 18.923056,10.2291667 19.3686907,10.2291667 L22.3957978,10.2286667 L22.3960674,7.02158895 C22.3960674,6.54942841 22.79222,6.16666667 23.2808989,6.16666667 Z M11.011236,0 C14.6541933,0 17.6179775,3.1402 17.6179775,7 C17.6179775,10.8598 14.6541933,14 11.011236,14 C7.36827865,14 4.40449438,10.8598 4.40449438,7 C4.40449438,3.1402 7.36827865,0 11.011236,0 Z"></path>
                            </g>
                        </g>
                    </g>
                </g>
            </g>
        </g>
    </g>
</svg>