<?xml version="1.0" encoding="UTF-8"?>
<svg width="24px" height="24px" viewBox="0 0 24 24" version="1.1" xmlns="http://www.w3.org/2000/svg" xmlns:xlink="http://www.w3.org/1999/xlink">
    <title>5BE03F68-2CB6-4FA2-A33B-F6FA878C10BA</title>
    <g id="MFast-new" stroke="none" stroke-width="1" fill="none" fill-rule="evenodd">
        <g id="Update-CTV-4" transform="translate(-175.000000, -446.000000)" fill="#424D6C" fill-rule="nonzero">
            <g id="Group-3" transform="translate(0.000000, 302.000000)">
                <g id="Components/-Customer/-RSA-2" transform="translate(0.000000, 29.000000)">
                    <g id="Group-12" transform="translate(0.000000, 12.000000)">
                        <g id="Group-3" transform="translate(16.000000, 73.000000)">
                            <g id="Group-4-Copy-2" transform="translate(64.000000, 30.000000)">
                                <g id="icon/-delete/-11" transform="translate(95.000000, 0.000000)">
                                    <path d="M12,0 C5.38304895,0 0,5.38330932 0,12.0001678 C0,18.6168585 5.38304895,24 12,24 C18.6167832,24 24,18.6168585 24,12.0001678 C24,5.38330932 18.6167832,0 12,0 Z M1.34265734,12.0001678 C1.34265734,6.12360666 6.12369231,1.34263856 12,1.34263856 C14.694042,1.34263856 17.1574825,2.34793919 19.0358601,4.00223773 L4.00229371,19.0355939 C2.34797203,17.1570747 1.34265734,14.6940043 1.34265734,12.0001678 Z M12,22.6573614 C9.29958042,22.6573614 6.8311049,21.6471937 4.95104895,19.9858464 L19.985958,4.95131537 C21.6474965,6.83117719 22.6573427,9.29995385 22.6573427,12.0001678 C22.6573427,17.8765612 17.8763077,22.6573614 12,22.6573614 L12,22.6573614 Z" id="Mask"></path>
                                </g>
                            </g>
                        </g>
                    </g>
                </g>
            </g>
        </g>
    </g>
</svg>