<?xml version="1.0" encoding="UTF-8"?>
<svg width="24px" height="24px" viewBox="0 0 24 24" version="1.1" xmlns="http://www.w3.org/2000/svg" xmlns:xlink="http://www.w3.org/1999/xlink">
    <title>6B38FEA5-5AC8-4DEA-BD03-7B780EE12050</title>
    <g id="MFast-new" stroke="none" stroke-width="1" fill="none" fill-rule="evenodd">
        <g id="Update-CTV-1" transform="translate(-335.000000, -98.000000)" fill="#39B818" fill-rule="nonzero">
            <g id="Group-18" transform="translate(0.000000, 44.000000)">
                <g id="Group-30" transform="translate(16.000000, 54.000000)">
                    <g id="Group-12" transform="translate(264.000000, 0.000000)">
                        <g id="icon/-info/-2" transform="translate(55.000000, 0.000000)">
                            <path d="M12,1 C18.0958333,1 23,5.90416667 23,12 C23,18.0958333 18.0958333,23 12,23 C5.90416667,23 1,18.0958333 1,12 C1,5.90416667 5.90416667,1 12,1 Z M12,1.91666667 C6.41215278,1.91666667 1.91666667,6.41215278 1.91666667,12 C1.91666667,17.5878472 6.41215278,22.0833333 12,22.0833333 C17.5878472,22.0833333 22.0833333,17.5878472 22.0833333,12 C22.0833333,6.41215278 17.5878472,1.91666667 12,1.91666667 Z M12.9882812,9.04947917 L12.9882812,16.5833333 L11.4414062,16.5833333 L11.4414062,9.04947917 L12.9882812,9.04947917 Z M12.2148437,6.17773437 C12.7161458,6.17773437 13.1171875,6.57161458 13.1171875,7.06575521 C13.1171875,7.55273437 12.7161458,7.94661458 12.2148437,7.94661458 C11.7207031,7.94661458 11.3196615,7.55273437 11.3196615,7.06575521 C11.3196615,6.57161458 11.7207031,6.17773437 12.2148437,6.17773437 Z" id="Combined-Shape"></path>
                        </g>
                    </g>
                </g>
            </g>
        </g>
    </g>
</svg>