<?xml version="1.0" encoding="UTF-8"?>
<svg width="82px" height="40px" viewBox="0 0 82 40" version="1.1" xmlns="http://www.w3.org/2000/svg" xmlns:xlink="http://www.w3.org/1999/xlink">
    <title>978623AF-DAB9-444F-939D-8A04D3A30255</title>
    <defs>
        <rect id="path-1" x="0" y="0" width="93.6819176" height="39.814815"></rect>
        <linearGradient x1="99.9796002%" y1="50.020555%" x2="-0.0203998368%" y2="50.020555%" id="linearGradient-3">
            <stop stop-color="#EC7D23" offset="25%"></stop>
            <stop stop-color="#E7262B" offset="85%"></stop>
        </linearGradient>
    </defs>
    <g id="MFast-new" stroke="none" stroke-width="1" fill="none" fill-rule="evenodd">
        <g id="Update-CTV-2" transform="translate(-26.000000, -521.000000)">
            <g id="Group-3" transform="translate(0.000000, 308.000000)">
                <g id="Components/-Customer/-RSA-2" transform="translate(0.000000, 29.000000)">
                    <g id="Group-12" transform="translate(0.000000, 12.000000)">
                        <g id="Group-3-Copy" transform="translate(16.000000, 144.000000)">
                            <g id="Logo-Partner/-FE/-lớn" transform="translate(10.000000, 28.000000)">
                                <mask id="mask-2" fill="white">
                                    <use xlink:href="#path-1"></use>
                                </mask>
                                <use id="Mask" fill-opacity="0.01" fill="#FFFFFF" fill-rule="nonzero" xlink:href="#path-1"></use>
                                <g id="logo" mask="url(#mask-2)" fill-rule="nonzero">
                                    <path d="M0.505384351,36.114527 L0.505384351,34.2018792 L0,34.2018792 L0,33.6356503 L0.505384351,33.6356503 L0.505384351,31.7218203 L2.18125793,31.7218203 C2.77985403,31.7058951 3.36092202,31.923164 3.79991819,32.3270587 C4.23235837,32.7451213 4.47623816,33.3186614 4.47623816,33.9175826 C4.47623816,34.5165038 4.23235837,35.0900439 3.79991819,35.5081065 C3.36385453,35.9128592 2.78422601,36.1303908 2.18721765,36.1133449 L0.505384351,36.114527 Z M1.12519535,35.5482981 L2.12404461,35.5482981 C2.63419674,35.5482981 3.04303361,35.4088096 3.35055522,35.1298325 C3.67476404,34.8335179 3.83686846,34.4300257 3.83686846,33.9193558 C3.83686846,33.3952887 3.67039358,32.987462 3.33744383,32.6958758 C3.01959204,32.4255676 2.60042498,32.2904134 2.07994267,32.2904134 L1.12638729,32.2904134 L1.12638729,33.6368324 L2.34574623,33.6368324 L2.34574623,34.2030613 L1.12519535,34.2030613 L1.12519535,35.5482981 Z" id="_Compound_Path_" fill="#373737"></path>
                                    <rect id="_Path_" fill="#373737" x="6.88466984" y="31.7218203" width="1" height="4.39152459"></rect>
                                    <path d="M12.5487888,31.7218203 L12.5487888,32.2880492 L10.727498,32.2880492 L10.727498,33.6143724 L12.4915755,33.6143724 L12.4915755,34.1806012 L10.727498,34.1806012 L10.727498,35.5459339 L12.6119618,35.5459339 L12.6119618,36.1121628 L10.108879,36.1121628 L10.108879,31.7218203 L12.5487888,31.7218203 Z M11.3353896,30.9711829 L10.620223,31.4440254 L10.620223,31.0196492 L11.3353896,30.67211 L12.0505561,31.0196492 L12.0505561,31.4440254 L11.3353896,30.9711829 Z M12.1983572,30.9038028 L12.2317316,30.5113436 C12.4748883,30.4932179 12.5964666,30.4041659 12.5964666,30.2441875 C12.5964666,30.1165201 12.5189902,30.0522923 12.3640374,30.0515042 C12.2370973,30.0538222 12.1133013,30.0910637 12.0064542,30.1590759 L12.0398286,29.915562 C12.1591987,29.8641654 12.2875641,29.8364553 12.4176749,29.8339967 C12.5356235,29.8284022 12.6521262,29.8616514 12.7490354,29.9285652 C12.8508371,29.9989246 12.9085827,30.1165943 12.9016043,30.2394591 C12.9016043,30.4065301 12.7975078,30.5282871 12.5893149,30.6047299 L12.1983572,30.9038028 Z" id="_Compound_Path_2" fill="#373737"></path>
                                    <polygon id="_Path_2" fill="#373737" points="18.9161548 31.7218203 18.9161548 36.1133449 18.2963438 36.1133449 18.2963438 32.6946937 16.9554066 34.3945625 16.8552833 34.3945625 15.514346 32.6946937 15.514346 32.6946937 15.514346 36.1133449 14.894535 36.1133449 14.894535 31.7218203 15.4535569 31.7218203 16.9005772 33.5280786 18.357133 31.7218203"></polygon>
                                    <polygon id="_Path_3" fill="#373737" points="28.1263079 31.7218203 28.1263079 32.2880492 26.6351856 32.2880492 26.6351856 36.1133449 26.0153746 36.1133449 26.0153746 32.2880492 24.5230605 32.2880492 24.5230605 31.7218203"></polygon>
                                    <path d="M33.9704104,31.7206382 L33.3553672,31.7206382 L33.3553672,34.2810803 C33.3553672,34.7357971 33.2647794,35.0557539 33.0836039,35.2409505 C32.8515721,35.4773718 32.5142519,35.5955824 32.0716432,35.5955824 C31.722565,35.6062413 31.3850924,35.4706501 31.1419268,35.2220368 C30.9686975,35.046297 30.8824802,34.745648 30.8832749,34.3200898 L30.8832749,31.7194561 L30.2634639,31.7194561 L30.2634639,34.4501215 C30.2634639,34.9828573 30.4343092,35.4056573 30.7759999,35.7185214 C31.1002087,36.0211406 31.5293086,36.1724502 32.0632996,36.1724502 C32.6537093,36.1724502 33.1153891,36.0266571 33.4483388,35.7350709 C33.8019489,35.4261472 33.9791513,34.9773408 33.979946,34.3886519 L33.979946,32.9594855 L33.979946,32.9594855 L33.9704104,31.7206382 Z" id="_Path_4" fill="#373737"></path>
                                    <path d="M32.0632996,36.7008509 C31.9728504,36.7006529 31.8864295,36.7379357 31.8249108,36.8036949 C31.6909409,36.9411491 31.6909409,37.1591791 31.8249108,37.2966332 C31.9593384,37.4294908 32.1767965,37.4294908 32.311224,37.2966332 C32.4413272,37.1567421 32.4413272,36.9412219 32.311224,36.8013307 C32.2490004,36.7369988 32.1627162,36.7010585 32.0728352,36.7020338" id="_Path_5" fill="#373737"></path>
                                    <path d="M34.1253631,31.128403 C34.0031417,31.1251152 33.894849,31.2060322 33.8643274,31.3234505 C33.8247143,31.4269749 33.8628571,31.5438977 33.9561071,31.6047918 C33.936266,31.6557985 33.9102499,31.7042256 33.8786307,31.7490088 L33.850024,31.7300951 L33.850024,32.0622669 C34.2219106,31.9645461 34.4082512,31.7620119 34.4090459,31.4546643 C34.4090459,31.2387329 34.3148823,31.1307672 34.1265551,31.1307672" id="_Path_6" fill="#373737"></path>
                                    <path d="M38.2864404,31.6899034 L40.2150062,36.114527 L39.5725483,36.114527 L39.001607,34.8201207 L37.1660129,34.8201207 L36.6236782,36.114527 L35.9967156,36.114527 L37.8489969,31.6899034 L38.2864404,31.6899034 Z M38.0575871,32.6556842 L37.4091695,34.2527097 L38.7596423,34.2527097 L38.0575871,32.6556842 Z" id="_Compound_Path_3" fill="#373737"></path>
                                    <polygon id="_Path_7" fill="#373737" points="47.057958 33.7975988 49.4001284 36.114527 48.5466963 36.114527 46.3535189 33.94418 46.3535189 36.114527 45.733708 36.114527 45.733708 31.7218203 46.3535189 31.7218203 46.3535189 33.7314009 48.1676581 31.7218203 48.9316943 31.7218203"></polygon>
                                    <polygon id="_Path_8" fill="#373737" points="55.178674 31.7218203 55.178674 36.1133449 54.5600549 36.1133449 54.5600549 34.2006971 52.143984 34.2006971 52.143984 36.1133449 51.5253649 36.1133449 51.5253649 31.7218203 52.143984 31.7218203 52.143984 33.6344682 54.5600549 33.6344682 54.5600549 31.7218203"></polygon>
                                    <rect id="_Path_9" fill="#373737" x="57.7830721" y="31.7218203" width="1" height="4.39152459"></rect>
                                    <path d="M68.0755105,32.0244395 L68.0755105,32.7006043 C67.631316,32.4167081 67.1173719,32.2585247 66.589156,32.2431292 C66.134186,32.2323855 65.6938018,32.4026582 65.3662213,32.7159716 C65.0347181,33.0310589 64.8543617,33.4713488 64.8703725,33.9264484 C64.8703725,34.4371183 65.0348608,34.8429748 65.3638374,35.1440178 C65.7062827,35.4495213 66.1550744,35.6110245 66.6153788,35.5944003 C67.1555653,35.5817844 67.6795324,35.4088448 68.1196124,35.0979157 L68.1196124,35.7870836 C67.6398294,36.0430553 67.1029578,36.1755558 66.5581655,36.1724502 C65.8159816,36.1724502 65.2259692,35.9234198 64.7881283,35.4253591 C64.4285299,35.0298141 64.230122,34.5157674 64.2314904,33.9831895 C64.2085876,33.3521866 64.4568359,32.7411998 64.9144744,32.3022345 C65.3656455,31.8738241 65.9720396,31.6440943 66.5963077,31.6650792 C67.0174613,31.6650792 67.5105289,31.78526 68.0755105,32.0256216" id="_Path_10" fill="#373737"></path>
                                    <path d="M72.3367111,31.6899034 L74.2652769,36.114527 L73.6287786,36.114527 L73.0578374,34.8201207 L71.2222432,34.8201207 L70.6822925,36.114527 L70.0493701,36.114527 L71.9016515,31.6899034 L72.3367111,31.6899034 Z M71.3223666,30.7193942 C71.3009116,30.7454006 71.2333681,30.7154539 71.119736,30.6295542 L70.6822925,30.293836 C70.5935159,30.2259147 70.5109519,30.1503613 70.4355601,30.0680537 C70.3940005,30.0342031 70.366775,29.9861079 70.3592756,29.9332936 C70.3592756,29.8347848 70.4669479,29.7953812 70.6822925,29.815083 C70.7630645,29.8923844 70.8372201,29.9762083 70.9039941,30.0656895 L71.2329707,30.516072 C71.3172015,30.627978 71.3466028,30.69457 71.3211746,30.7158479 L71.3223666,30.7193942 Z M72.1007061,30.9676366 L71.3855396,31.440479 L71.3855396,31.0161029 L72.1007061,30.6685637 L72.8158727,31.0161029 L72.8158727,31.4440254 L72.1007061,30.9676366 Z M72.1007061,32.6521379 L71.4522885,34.2491634 L72.8027613,34.2491634 L72.1007061,32.6521379 Z" id="_Compound_Path_4" fill="#373737"></path>
                                    <polygon id="_Path_11" fill="#373737" points="80.3727991 31.7218203 80.3727991 36.1133449 79.8411919 36.1133449 76.9578789 32.7325211 76.9578789 36.1133449 76.3762101 36.1133449 76.3762101 31.7218203 76.8672911 31.7218203 79.7911303 35.1215578 79.7911303 31.7218203"></polygon>
                                    <polygon id="_Path_12" fill="#1C4694" points="3.60443933 10.2311293 0.547102399 26.1954738 9.07307944 26.1954738 9.22326441 25.886944 10.5022206 23.2815819 4.53534777 23.2815819 5.27673708 19.420823 9.74414404 19.420823 11.1291832 16.5553976 5.82622337 16.5553976 6.49490408 13.143839 13.4606261 13.143839 14.8695042 10.2311293"></polygon>
                                    <path d="M31.0489551,16.7256209 C29.6877548,15.9808939 28.7079766,15.425304 28.7079766,14.512718 C28.7079766,13.6509626 29.5423376,12.8577693 31.1443106,12.8577693 C32.1650619,12.847975 33.1738809,13.0759302 34.0896048,13.5232951 C33.5017748,12.2793989 32.7957322,11.0939019 31.9810555,9.982887 C31.8058397,9.97579436 31.6234722,9.96988383 31.435145,9.96988383 C27.9248693,9.96988383 25.0832743,11.9026275 25.0832743,15.0706722 C25.0832743,17.1204443 26.7067023,18.3321032 28.4266778,19.2399608 C29.9070725,19.9846877 30.5995921,20.5674661 30.5995921,21.4528636 C30.5995921,22.6869825 29.3814251,23.293403 28.0440637,23.293403 C26.7272732,23.2921504 25.4329898,22.9546607 24.2858636,22.3134369 L24.6970843,25.7699155 C25.6762169,26.0408332 26.6890823,26.1729631 27.7055516,26.1623748 C31.2873439,26.1623748 34.2493253,24.3691197 34.2493253,20.8748137 C34.2493253,19.0118143 33.0073195,17.7304111 31.0489551,16.7291672" id="_Path_13" fill="#1C4694"></path>
                                    <path d="M16.4297592,19.4444652 L18.0293483,16.0104466 C18.4596402,15.0872216 18.912579,13.855467 19.319032,12.8837757 L19.3667098,12.8837757 C19.4382264,13.855467 19.533582,15.1297775 19.6050986,16.0104466 L19.9150041,19.4444652 L16.4297592,19.4444652 Z M23.7196901,23.7851592 L22.1141412,10.2311293 L17.695604,10.2311293 L10.7537208,24.3785765 L9.86214651,26.1954738 L13.5166475,26.1954738 L15.4237583,22.0498273 L20.0604213,22.0498273 L20.3941657,26.1954738 L24.0009889,26.1954738 L23.9509272,25.7675513 L23.7196901,23.7851592 Z" id="_Compound_Path_5" fill="#1C4694"></path>
                                    <path d="M37.6058403,20.7495104 C37.3900984,20.9859317 37.270904,21.1135991 37.269712,21.1159633 L36.9633823,21.4611384 L35.9812203,26.1966559 L39.7584916,26.1966559 L41.6906331,16.8710199 C40.2583085,18.0893682 38.8942747,19.3845282 37.6046483,20.7506925" id="_Path_14" fill="#1C4694"></path>
                                    <path d="M56.3789618,0 L54.2739883,9.15541265 L54.2632608,9.15541265 C54.0415592,9.14832001 53.8186656,9.14359158 53.5933882,9.1459558 C45.9434901,9.18141898 39.3830291,13.9393965 36.735721,20.6194787 C36.5318985,17.5199962 35.5199379,14.7089477 34.5187047,12.7170987 C34.0464768,11.7943948 33.5070845,10.9070419 32.9048123,10.0620881 C32.6882787,9.76500634 32.4567462,9.47896594 32.2111007,9.20506111 L36.7953182,7.56547978 C37.3698353,8.31375302 38.4640401,10.1590208 38.9956472,11.652021 C39.3443994,12.6346057 39.6278941,13.6387865 39.8443115,14.6581171 C40.5952252,13.479519 41.4084726,12.3411366 42.2806455,11.2477406 C48.2618217,3.5758713 56.3789618,0 56.3789618,0" id="_Path_15" fill="#EC1E27"></path>
                                    <path d="M54.2632608,9.15659475 C51.1868528,9.76183313 48.1497789,11.3163028 45.4881674,13.0941906 C44.1984838,13.955946 42.998196,14.8673499 41.9242542,15.7515653 C40.2779131,17.1052087 38.7152291,18.5559126 37.2446812,20.0958057 C37.1874679,20.1560931 37.1326384,20.2140163 37.0849607,20.2683932 C36.8584913,20.5048144 36.7381049,20.6466672 36.7381049,20.6466672 C36.7381049,20.6466672 36.7381049,20.6277535 36.7381049,20.6182966 C39.386605,13.9382144 45.947066,9.18141898 53.596964,9.14477369 C53.8222415,9.14477369 54.045135,9.14477369 54.2668367,9.15423054" id="_Path_16" fill="url(#linearGradient-3)"></path>
                                    <path d="M48.8041563,17.4856835 C49.2719387,17.486433 49.7374626,17.5500584 50.1880035,17.6748521 C50.5938912,17.7764025 50.9776457,17.9506714 51.3203505,18.1890684 L50.2309135,19.7328991 C49.8963664,19.612336 49.5548635,19.5116781 49.2082254,19.431462 C48.9381893,19.3785764 48.6634064,19.3532262 48.3881677,19.3558072 C47.9892669,19.3649566 47.5997183,19.4774334 47.2582046,19.6820685 C46.8538064,19.9150418 46.5014,20.2271364 46.2224051,20.5993829 C45.9173084,20.9971369 45.7015087,21.4549995 45.5894827,21.9422556 C45.4666641,22.3815936 45.4666641,22.8457902 45.5894827,23.2851282 C45.6944027,23.6448443 45.9213426,23.9575994 46.2319406,24.1705258 C46.5365519,24.3755046 46.8972774,24.4827879 47.2653563,24.4778734 C47.9076565,24.4681877 48.5387481,24.3094904 49.1081021,24.0144878 L49.6301736,25.7226313 C49.1920261,25.9297583 48.7301469,26.0833735 48.25467,26.1801064 C47.7640085,26.2896921 47.2629088,26.3467597 46.7599719,26.3503297 C45.7937025,26.3503297 44.9970864,26.1639509 44.3701238,25.7911934 C43.7666589,25.4476265 43.3121384,24.895424 43.0935515,24.2402701 C42.8702606,23.5790787 42.8603277,22.8174082 43.0637529,21.9552588 C43.262926,21.1064399 43.6592448,20.3154871 44.2211307,19.6454232 C44.7767512,18.9733413 45.4751738,18.4312435 46.266507,18.0578546 C47.0592893,17.6784678 47.9286768,17.482823 48.8089241,17.4856835" id="_Path_17" fill="#EC1E27"></path>
                                    <path d="M54.7257352,22.1183894 C54.3363402,22.2330042 53.9636913,22.3975239 53.6172271,22.6077814 L52.7709467,26.1860169 L50.3298449,26.1860169 L51.7661377,20.1088088 L52.9866886,20.1088088 L53.4014851,20.8499894 C53.784294,20.639491 54.1851641,20.4630608 54.5993891,20.3227701 C54.9731248,20.1841371 55.3674305,20.1078442 55.7663025,20.0969878 L55.8294755,21.9304345 C55.4538607,21.9389778 55.0815595,22.0023082 54.7245432,22.1183894" id="_Path_18" fill="#EC1E27"></path>
                                    <path d="M59.7164056,21.7164733 C59.2165306,21.7552746 58.7956849,22.102532 58.6663028,22.5829572 L60.3564797,22.5829572 C60.4074854,22.3835966 60.380664,22.1724853 60.2813872,21.991904 C60.1820585,21.8082836 59.9937313,21.7160793 59.7164056,21.7152912 M60.2170222,19.8818093 C60.8876895,19.8818093 61.4216805,20.0240912 61.8189953,20.3085848 C62.2102995,20.5836733 62.4883656,20.9895646 62.6021026,21.4516815 C62.7257337,21.978823 62.7171391,22.5279888 62.5770718,23.0510712 L62.4197352,23.716597 L58.4624803,23.716597 C58.4827683,23.9626952 58.6142159,24.1864844 58.8200636,24.3253817 C59.031435,24.4719629 59.338162,24.5452535 59.7402445,24.5452535 C60.3905052,24.5370916 61.0319082,24.394571 61.6235164,24.1267879 L61.9429575,25.6706186 C61.5453837,25.8870389 61.1175624,26.0436079 60.6735369,26.1351863 C60.1514991,26.259056 59.6166779,26.3221336 59.0799074,26.3231412 C58.319447,26.3231412 57.6750025,26.2017783 57.1465739,25.9590525 C56.6499202,25.7480683 56.2507201,25.3605955 56.0273383,24.8726969 C55.8104044,24.3919737 55.7810031,23.816682 55.9391344,23.1468218 C56.0837174,22.5088546 56.3804666,21.9145796 56.8044859,21.4138541 C57.2183927,20.9250742 57.7394136,20.5365231 58.3277906,20.27785 C58.9203597,20.0143166 59.5628376,19.8793048 60.2122544,19.8818093" id="_Compound_Path_6" fill="#EC1E27"></path>
                                    <path d="M66.4735375,24.5665314 C66.6981519,24.5585314 66.9169215,24.4934015 67.1088437,24.3773944 L67.7167353,21.8039492 C67.5118926,21.7018864 67.2867676,21.6461706 67.0575901,21.6408185 C66.7234065,21.6501223 66.4078322,21.7954907 66.185087,22.0427346 C65.8968141,22.3469629 65.700621,22.7254601 65.6189134,23.1350008 C65.5100492,23.5952341 65.5291203,23.949866 65.6761268,24.1988964 C65.8231332,24.4479267 66.0889368,24.5716538 66.4735375,24.5700926 L66.4735375,24.5665314 Z M69.1220375,26.1895632 L67.8883753,26.1895632 L67.6297234,25.7498197 C67.3244041,25.9239094 67.0011248,26.0649941 66.6654405,26.1706495 C66.3481679,26.2728944 66.0168752,26.3259263 65.6832784,26.3278697 C64.6812507,26.3278697 63.9374775,26.0599256 63.4519588,25.5240374 C62.9664402,24.9881493 62.8472458,24.1973202 63.0943756,23.1515502 C63.3462731,22.0884427 63.848479,21.2787 64.6009931,20.722322 C65.3535072,20.165944 66.2577956,19.887755 67.3138581,19.887755 C67.5970405,19.8836408 67.8789609,19.9259792 68.1482191,20.0130582 L68.7501509,17.4644372 L71.2246271,17.3261308 L69.1220375,26.1895632 Z" id="_Compound_Path_7" fill="#EC1E27"></path>
                                    <path d="M75.0722231,18.1358736 C74.9835079,18.485675 74.7722686,18.7927958 74.476251,19.0023574 C74.1832968,19.2354692 73.8196123,19.363749 73.4440273,19.3664461 C73.1239417,19.3804092 72.815537,19.2458312 72.6096663,19.0023574 C72.4070898,18.7617455 72.3378942,18.4372182 72.424915,18.1358736 C72.513341,17.7808271 72.7241643,17.4676203 73.0208871,17.250476 C73.3056463,17.015106 73.6633783,16.8840463 74.0340397,16.8792947 C74.3629021,16.8630749 74.680467,17.0004254 74.8922395,17.250476 C75.0977573,17.4970895 75.1673348,17.8283935 75.0781828,18.1358736 L75.0722231,18.1358736 Z M74.4822107,20.1951026 L73.043534,26.2841317 L70.5988564,26.2841317 L72.038725,20.1951026 L74.4822107,20.1951026 Z" id="_Compound_Path_8" fill="#EC1E27"></path>
                                    <path d="M78.6683188,20.3475943 L80.3716071,20.3475943 L80.1749363,22.1432136 L78.2475625,22.1432136 L77.8899792,23.649217 C77.830382,23.8998235 77.851837,24.0995994 77.9567281,24.2402701 C78.0763428,24.394259 78.2668623,24.4771461 78.4621125,24.4601418 C78.8074217,24.4553344 79.1473517,24.374586 79.4573859,24.2237206 L79.7875544,25.7805545 C79.5121712,25.9461532 79.2137928,26.0708122 78.9019399,26.1505537 C78.5652553,26.2552389 78.2153283,26.3121501 77.8625645,26.3195949 C77.3691764,26.3280329 76.8794841,26.2338022 76.4250798,26.0429821 C76.029242,25.881557 75.7019856,25.5891648 75.4989391,25.2155077 C75.3026656,24.851419 75.2661127,24.4097053 75.3892803,23.8903666 L75.8076527,22.1432136 L74.8016518,22.1432136 L75.2259839,20.3475943 L76.2319848,20.3475943 L76.6217506,18.7032846 L79.1367529,18.3888443 L78.6683188,20.3475943 Z" id="_Path_19" fill="#EC1E27"></path>
                                </g>
                            </g>
                        </g>
                    </g>
                </g>
            </g>
        </g>
    </g>
</svg>