<?xml version="1.0" encoding="UTF-8"?>
<svg width="20px" height="18px" viewBox="0 0 20 18" version="1.1" xmlns="http://www.w3.org/2000/svg" xmlns:xlink="http://www.w3.org/1999/xlink">
    <title>DA90C8A6-4CEC-48AB-B38F-DECD48B45D7D</title>
    <defs>
        <path d="M15.6582346,0 L2.6752193,0 C1.19998904,0 0,1.12710149 0,2.51261272 L0,10.5435479 C0,11.928606 1.19998904,13.0553676 2.6752193,13.0553676 L3.63446272,13.0553676 L3.63446272,16.0468483 C3.63446272,16.2165536 3.73553728,16.3722112 3.89631579,16.4498135 C3.96578947,16.4833467 4.04153509,16.5 4.11679825,16.5 C4.21570175,16.5 4.31424342,16.4714514 4.39770833,16.4152606 L9.39595395,13.0553676 L15.6582346,13.0553676 C17.1332237,13.0553676 18.3333333,11.928606 18.3333333,10.5435479 L18.3333333,2.51261272 C18.3333333,1.12710149 17.1332237,0 15.6582346,0 Z M15.8173417,0.818181818 C16.783414,0.818181818 17.5694444,1.54985414 17.5694444,2.4491175 L17.5694444,10.5801783 C17.5694444,11.4789816 16.783414,12.2103088 15.8173417,12.2103088 L9.24290952,12.2103088 C9.13960478,12.2103088 9.03914216,12.2402152 8.95523795,12.2962323 L4.48743158,15.2727273 L4.48743158,12.6704077 C4.48743158,12.4163181 4.26611724,12.2103088 3.99315053,12.2103088 L2.5161152,12.2103088 C1.54991932,12.2103088 0.763888889,11.4789816 0.763888889,10.5801783 L0.763888889,2.4491175 C0.763888889,1.54985414 1.54991932,0.818181818 2.5161152,0.818181818 L15.8173417,0.818181818 Z M5.20833333,5.25 C4.63298611,5.25 4.16666667,5.66953125 4.16666667,6.1875 C4.16666667,6.70515625 4.63298611,7.125 5.20833333,7.125 C5.78368056,7.125 6.25,6.70515625 6.25,6.1875 C6.25,5.66953125 5.78368056,5.25 5.20833333,5.25 Z M9.375,5.25 C8.79965278,5.25 8.33333333,5.66953125 8.33333333,6.1875 C8.33333333,6.70515625 8.79965278,7.125 9.375,7.125 C9.95034722,7.125 10.4166667,6.70515625 10.4166667,6.1875 C10.4166667,5.66953125 9.95034722,5.25 9.375,5.25 Z M13.5416667,5.25 C12.9663194,5.25 12.5,5.66953125 12.5,6.1875 C12.5,6.70515625 12.9663194,7.125 13.5416667,7.125 C14.1170139,7.125 14.5833333,6.70515625 14.5833333,6.1875 C14.5833333,5.66953125 14.1170139,5.25 13.5416667,5.25 Z" id="path-1"></path>
    </defs>
    <g id="MFast-new" stroke="none" stroke-width="1" fill="none" fill-rule="evenodd">
        <g id="Update-CTV-1" transform="translate(-341.000000, -364.000000)">
            <g id="Group-4" transform="translate(0.000000, 353.000000)">
                <g id="Group-9" transform="translate(309.000000, 11.000000)">
                    <g id="icon/-chat/-8" transform="translate(32.000000, 0.000000)">
                        <g id="coler/-xanh-đậm" transform="translate(0.833333, 0.750000)">
                            <mask id="mask-2" fill="white">
                                <use xlink:href="#path-1"></use>
                            </mask>
                            <use id="Mask" fill="#39B818" fill-rule="nonzero" xlink:href="#path-1"></use>
                        </g>
                    </g>
                </g>
            </g>
        </g>
    </g>
</svg>