<?xml version="1.0" encoding="UTF-8"?>
<svg width="24px" height="24px" viewBox="0 0 24 24" version="1.1" xmlns="http://www.w3.org/2000/svg" xmlns:xlink="http://www.w3.org/1999/xlink">
    <title>AA4981F9-40E0-410C-8433-C6F6A355C36F</title>
    <defs>
        <rect id="path-1" x="0" y="0" width="24" height="24"></rect>
        <linearGradient x1="50%" y1="0%" x2="50%" y2="100%" id="linearGradient-3">
            <stop stop-color="#FFB84A" offset="0%"></stop>
            <stop stop-color="#DF590D" offset="100%"></stop>
        </linearGradient>
    </defs>
    <g id="MFast-new" stroke="none" stroke-width="1" fill="none" fill-rule="evenodd">
        <g id="Update-CTV-1.1" transform="translate(-244.000000, -164.000000)">
            <g id="Group-2" transform="translate(69.000000, 96.000000)">
                <g id="ex2" transform="translate(0.000000, 28.000000)">
                    <g id="Group-31" transform="translate(14.000000, 19.000000)">
                        <g id="Group-20" transform="translate(161.000000, 0.000000)">
                            <g id="icon/-money/-tạm-tính" transform="translate(0.000000, 21.000000)">
                                <mask id="mask-2" fill="white">
                                    <use xlink:href="#path-1"></use>
                                </mask>
                                <g id="Rectangle"></g>
                                <path d="M13.2630992,5.22205517 C15.0974038,3.68831981 16.3229922,0.232950348 15.5686039,0.0818851445 C14.566559,-0.118876275 12.3902016,0.761819742 11.3382991,0.917120419 C9.84618903,1.09635152 8.22138547,-0.693277004 7.30933946,0.304388659 C6.56771699,1.11534055 7.84096441,4.06499454 9.83285586,5.35003704 C3.88966341,8.25747748 -4.46385528,22.8530586 10.1096611,23.9122092 C30.2745301,25.3774711 20.1771313,8.05509246 13.2630992,5.22205517 Z" id="Path" fill="url(#linearGradient-3)" mask="url(#mask-2)"></path>
                                <g id="Group-28" mask="url(#mask-2)">
                                    <g transform="translate(6.000000, 10.629629)">
                                        <path d="M11.1897891,2.2687191 C10.6383281,1.68941475 9.86067187,1.37037127 9,1.37037127 C8.08797725,1.37037127 7.36973575,1.78913647 6.83047621,2.30616163 C6.78422931,2.35050171 7.28952021,3.13450849 7.33268635,3.08701478 C7.74810362,2.6299503 8.30591869,2.23993649 9,2.23993649 C10.1951016,2.23993649 11.0625,3.13591475 11.0625,4.37037127 C11.0625,5.6048278 10.1951016,6.50080606 9,6.50080606 C7.29152344,6.50080606 6.45255469,4.25441475 6.44451563,4.23234953 C6.39799219,4.10950171 5.33254688,1.37037127 3,1.37037127 C2.13932812,1.37037127 1.36167187,1.68941475 0.810210938,2.2687191 C0.287742187,2.81758866 0,3.56397997 0,4.37037127 C0,5.17676258 0.287742187,5.92315388 0.810210938,6.47202345 C1.36167187,7.0513278 2.13932813,7.37037127 3,7.37037127 C3.95427715,7.37037127 4.68966619,6.93067039 5.23123778,6.39574474 C5.26818906,6.35924691 4.62680834,5.71776845 4.60326544,5.74211058 C4.5506656,5.79649605 4.4958668,5.84958231 4.4388638,5.90078555 C4.05810624,6.24280307 3.57900388,6.50080606 3,6.50080606 C1.80489844,6.50080606 0.9375,5.6048278 0.9375,4.37037127 C0.9375,3.13591475 1.80489844,2.23993649 3,2.23993649 C4.64889844,2.23993649 5.52909375,4.44134953 5.55717187,4.51300171 C5.61944531,4.68326258 6.64110937,7.37037127 9,7.37037127 C9.86067187,7.37037127 10.6383281,7.0513278 11.1897891,6.47202345 C11.7122578,5.92315388 12,5.17676258 12,4.37037127 C12,3.56397997 11.7122578,2.81758866 11.1897891,2.2687191 Z" id="Path" stroke="none" fill="#FFFFFF" fill-rule="nonzero"></path>
                                        <polyline id="Path-2" stroke="#FFFFFF" stroke-width="0.7" fill="none" transform="translate(3.852941, 6.702042) rotate(21.000000) translate(-3.852941, -6.702042) " points="2.97548915 5.70156036 4.73039258 5.86960749 4.66036301 7.702523"></polyline>
                                        <polyline id="Path-2-Copy" stroke="#FFFFFF" stroke-width="0.7" fill="none" transform="translate(8.022544, 2.000481) scale(-1, -1) rotate(7.000000) translate(-8.022544, -2.000481) " points="7.14509228 1 8.89999571 1.16804713 8.82996614 3.00096264"></polyline>
                                    </g>
                                </g>
                            </g>
                        </g>
                    </g>
                </g>
            </g>
        </g>
    </g>
</svg>