<?xml version="1.0" encoding="UTF-8"?>
<svg width="16px" height="16px" viewBox="0 0 16 16" version="1.1" xmlns="http://www.w3.org/2000/svg" xmlns:xlink="http://www.w3.org/1999/xlink">
    <title>48B93C84-2540-44E2-B820-D4C14B973B87</title>
    <g id="MFast-new" stroke="none" stroke-width="1" fill="none" fill-rule="evenodd" opacity="0.600000024">
        <g id="Update-CTV-5" transform="translate(-263.000000, -381.000000)" fill="#424D6C" fill-rule="nonzero">
            <g id="Group-4" transform="translate(14.000000, 302.000000)">
                <g id="Group-21" transform="translate(14.000000, 12.000000)">
                    <g id="icon/-clock/-2" transform="translate(235.000000, 67.000000)">
                        <path d="M8,0 C12.4111579,0 16,3.58884211 16,8 C16,12.4111579 12.4111579,16 8,16 C3.58884211,16 0,12.4111579 0,8 C0,3.58884211 3.58884211,0 8,0 Z M8,0.8 C4.02992,0.8 0.8,4.02992 0.8,8 C0.8,11.97008 4.02992,15.2 8,15.2 C11.97008,15.2 15.2,11.97008 15.2,8 C15.2,4.02992 11.97008,0.8 8,0.8 Z M7.67490589,4.58446196 C7.89581979,4.58446196 8.07490589,4.76354806 8.07490589,4.98446196 L8.07390589,8.58446196 L12.4749059,8.58446196 C12.6958198,8.58446196 12.8749059,8.76354806 12.8749059,8.98446196 C12.8749059,9.20537586 12.6958198,9.38446196 12.4749059,9.38446196 L7.67490589,9.38446196 C7.45399199,9.38446196 7.27490589,9.20537586 7.27490589,8.98446196 L7.27490589,4.98446196 C7.27490589,4.76354806 7.45399199,4.58446196 7.67490589,4.58446196 Z" id="Combined-Shape"></path>
                    </g>
                </g>
            </g>
        </g>
    </g>
</svg>