<?xml version="1.0" encoding="UTF-8"?>
<svg width="16px" height="16px" viewBox="0 0 16 16" version="1.1" xmlns="http://www.w3.org/2000/svg" xmlns:xlink="http://www.w3.org/1999/xlink">
    <title>5CFFB458-E9AC-4E60-AEC3-07D062C14779</title>
    <defs>
        <rect id="path-1" x="0" y="0" width="6.85714286" height="6.85714286"></rect>
        <path d="M5.85293754,1.00420532 C5.9645159,1.11578369 5.9645159,1.29668797 5.85293754,1.40826634 L3.83252154,3.42852154 L5.85293754,5.44887652 C5.9645159,5.56045489 5.9645159,5.74135917 5.85293754,5.85293754 C5.74135917,5.9645159 5.56045489,5.9645159 5.44887652,5.85293754 L3.42852154,3.83252154 L1.40826634,5.85293754 C1.29668797,5.9645159 1.11578369,5.9645159 1.00420532,5.85293754 C0.892626953,5.74135917 0.892626953,5.56045489 1.00420532,5.44887652 L3.02452154,3.42852154 L1.00420532,1.40826634 C0.892626953,1.29668797 0.892626953,1.11578369 1.00420532,1.00420532 C1.11578369,0.892626953 1.29668797,0.892626953 1.40826634,1.00420532 L3.42852154,3.02452154 L5.44887652,1.00420532 C5.56045489,0.892626953 5.74135917,0.892626953 5.85293754,1.00420532 Z" id="path-3"></path>
    </defs>
    <g id="MFast-new" stroke="none" stroke-width="1" fill="none" fill-rule="evenodd">
        <g id="Update-CTV-2" transform="translate(-166.000000, -448.000000)">
            <g id="Group-3" transform="translate(0.000000, 308.000000)">
                <g id="Components/-Customer/-RSA-2" transform="translate(0.000000, 29.000000)">
                    <g id="Group-12" transform="translate(0.000000, 12.000000)">
                        <g id="Group-3" transform="translate(16.000000, 73.000000)">
                            <g id="Group-5" transform="translate(10.000000, 24.000000)">
                                <g id="Group-6" transform="translate(140.000000, 0.000000)">
                                    <g id="icon/-Hồ-sơ/--TB" transform="translate(0.000000, 2.000000)">
                                        <path d="M7.37453634,0.000967105263 C7.40570927,0.000979824561 7.43533851,0.000992609649 7.46342406,0.00100546053 L7.84661654,0.00136842105 C7.8637594,0.00263157895 7.88070175,0.00463157895 7.89794486,0.00821052632 C7.91578947,0.0118947368 7.93303258,0.0171578947 7.95889724,0.0266315789 C7.97483709,0.0328421053 7.99027569,0.0397894737 8.0081203,0.0495789474 C8.0237594,0.0582105263 8.03859649,0.0683157895 8.06245614,0.0865263158 C8.07669173,0.098 8.09022556,0.109894737 8.10305764,0.123263158 C10.2418713,2.36908772 11.311345,3.49203509 11.3114787,3.49210526 C11.3239098,3.50526316 11.3353383,3.51957895 11.3533835,3.54463158 C11.363609,3.55947368 11.3730326,3.57494737 11.3831579,3.59515789 C11.3906767,3.61042105 11.3972932,3.62642105 11.4067168,3.65294737 C11.4123308,3.67042105 11.4172431,3.68842105 11.4211529,3.70915789 C11.4241604,3.726 11.4260652,3.74336842 11.4285714,3.78947368 L11.4285714,3.78947368 L11.4285714,6.85714286 C13.9533017,6.85714286 16,8.90384114 16,11.4285714 C16,13.9533017 13.9533017,16 11.4285714,16 C11.323586,16 11.2194271,15.996461 11.1162077,15.9894958 L11.1083809,15.9914494 L11.0275689,16 L0.401002506,16 C0.179548872,16 2.57571742e-14,15.8115789 2.57571742e-14,15.5789474 L2.57571742e-14,15.5789474 L2.57571742e-14,0.421052632 C2.57571742e-14,0.188526316 0.179548872,0 0.401002506,0 L0.401002506,0 Z M7.41854637,0.842105263 L0.802005013,0.842105263 L0.802005013,15.1578947 L8.78506934,15.1586142 C7.61839504,14.3302866 6.85714286,12.968329 6.85714286,11.4285714 C6.85714286,9.17767458 8.48394611,7.30673799 10.6259428,6.92737148 L10.6265664,4.21052632 L7.81954887,4.21052632 C7.59809524,4.21052632 7.41854637,4.022 7.41854637,3.78947368 L7.41854637,3.78947368 L7.41854637,0.842105263 Z M6.22222222,8.88888889 L6.22222222,9.77777778 L1.77777778,9.77777778 L1.77777778,8.88888889 L6.22222222,8.88888889 Z M8,6.22222222 L8,7.11111111 L1.77777778,7.11111111 L1.77777778,6.22222222 L8,6.22222222 Z M8.22055138,1.43757895 L8.22055138,3.36842105 L10.0595489,3.36842105 L8.22055138,1.43757895 Z" id="Combined-Shape" fill="#BC0F23" fill-rule="nonzero"></path>
                                        <g id="Group-2-Copy-3" transform="translate(8.000000, 8.000000)">
                                            <mask id="mask-2" fill="white">
                                                <use xlink:href="#path-1"></use>
                                            </mask>
                                            <g id="Rectangle-Copy-2"></g>
                                            <mask id="mask-4" fill="white">
                                                <use xlink:href="#path-3"></use>
                                            </mask>
                                            <use id="Combined-Shape" fill="#FFFFFF" fill-rule="nonzero" xlink:href="#path-3"></use>
                                        </g>
                                    </g>
                                </g>
                            </g>
                        </g>
                    </g>
                </g>
            </g>
        </g>
    </g>
</svg>