<?xml version="1.0" encoding="UTF-8"?>
<svg width="16px" height="16px" viewBox="0 0 16 16" version="1.1" xmlns="http://www.w3.org/2000/svg" xmlns:xlink="http://www.w3.org/1999/xlink">
    <title>74BB25C5-E152-456B-A20C-FFBC9AF705F1</title>
    <defs>
        <rect id="path-1" x="0" y="0" width="6.85714286" height="6.85714286"></rect>
        <path d="M6.13545752,1.07139773 C6.1378976,1.07375244 6.14029556,1.07615041 6.14265028,1.07859049 L6.22400718,1.16289686 C6.33083306,1.27359555 6.33083306,1.44900241 6.22400718,1.55970109 L2.53143164,5.38842585 C2.51952286,5.40428905 2.50577806,5.41913779 2.49022435,5.43266206 L2.46593298,5.45327804 L2.42847149,5.49283808 C2.35995537,5.56383814 2.26356115,5.59170149 2.17318157,5.57582471 C2.16654539,5.57403482 2.16018109,5.57284825 2.15385822,5.57144611 C2.14382631,5.56925599 2.13377103,5.56617484 2.12387468,5.56252622 C2.07770499,5.54743561 2.03476543,5.51961237 2.00033323,5.48001328 C1.99814199,5.47749323 1.9959951,5.47493495 1.99389356,5.47233962 L1.97093298,5.44527804 L1.93592483,5.40853171 C1.91707321,5.38899665 1.90154834,5.36744645 1.88935023,5.34459235 L0.215607226,3.2762293 C0.118759412,3.15662624 0.134044861,2.98180364 0.250179249,2.88082248 L0.336989885,2.8053389 C0.456066021,2.70179983 0.636531301,2.71439511 0.74007037,2.83347125 C0.742261609,2.83599131 0.744408497,2.83854959 0.746510045,2.84114491 L2.24393298,4.69127804 L5.73146052,1.07859049 C5.84103499,0.965043575 6.0219106,0.961823265 6.13545752,1.07139773 Z" id="path-3"></path>
    </defs>
    <g id="MFast-new" stroke="none" stroke-width="1" fill="none" fill-rule="evenodd">
        <g id="Update-CTV-2" transform="translate(-96.000000, -448.000000)">
            <g id="Group-3" transform="translate(0.000000, 308.000000)">
                <g id="Components/-Customer/-RSA-2" transform="translate(0.000000, 29.000000)">
                    <g id="Group-12" transform="translate(0.000000, 12.000000)">
                        <g id="Group-3" transform="translate(16.000000, 73.000000)">
                            <g id="Group-5" transform="translate(10.000000, 24.000000)">
                                <g id="icon/-Hồ-sơ/--Tc" transform="translate(70.000000, 2.000000)">
                                    <path d="M0.489308813,0.727815956 L7.7400365,0.727815956 L10.7633305,4.33074689 L10.7633305,14.2216345 C10.7633305,14.7855969 10.3061487,15.2427787 9.74218635,15.2427787 L9.6118522,15.2427787 L9.6118522,15.2427787 L0.378968224,15.099976 L0.489308813,0.727815956 Z" id="Rectangle-4" fill-rule="nonzero"></path>
                                    <path d="M7.14413114,0.000987243038 C7.17406792,0.00100070467 7.20235839,0.0010142392 7.22900253,0.00102784662 L7.55236842,0.00136842105 C7.56886842,0.00263157895 7.58517544,0.00463157895 7.60177193,0.00821052632 C7.61894737,0.0118947368 7.63554386,0.0171578947 7.6604386,0.0266315789 C7.6757807,0.0328421053 7.69064035,0.0397894737 7.70781579,0.0495789474 C7.72286842,0.0582105263 7.73714912,0.0683157895 7.76011404,0.0865263158 C7.77381579,0.098 7.78684211,0.109894737 7.79919298,0.123263158 C9.85780117,2.36908772 10.8871696,3.49203509 10.8872982,3.49210526 C10.8992632,3.50526316 10.9102632,3.51957895 10.9276316,3.54463158 C10.9374737,3.55947368 10.9465439,3.57494737 10.9562895,3.59515789 C10.9635263,3.61042105 10.9698947,3.62642105 10.9789649,3.65294737 C10.9843684,3.67042105 10.9890965,3.68842105 10.9928596,3.70915789 C10.9957544,3.726 10.9975877,3.74336842 11,3.78947368 L11,3.78947368 L11.000736,6.87689945 C11.1415917,6.86382595 11.2843011,6.85714286 11.4285714,6.85714286 C13.9533017,6.85714286 16,8.90384114 16,11.4285714 C16,13.9533017 13.9533017,16 11.4285714,16 C11.210065,16 10.9951391,15.9846696 10.7848107,15.9550258 C10.7336496,15.9843215 10.6755204,16 10.6140351,16 L10.6140351,16 L0.385964912,16 C0.172815789,16 0,15.8115789 0,15.5789474 L0,15.5789474 L0,0.421052632 C0,0.188526316 0.172815789,0 0.385964912,0 L0.385964912,0 Z M7.14035088,0.842105263 L0.771929825,0.842105263 L0.771929825,15.1578947 L8.78506934,15.1586142 C7.61839504,14.3302866 6.85714286,12.968329 6.85714286,11.4285714 C6.85714286,9.31933961 8.2856173,7.54374588 10.2279086,7.0164478 L10.2280702,4.21052632 L7.52631579,4.21052632 C7.31316667,4.21052632 7.14035088,4.022 7.14035088,3.78947368 L7.14035088,3.78947368 L7.14035088,0.842105263 Z M6.22222222,8.88888889 L6.22222222,9.77777778 L1.77777778,9.77777778 L1.77777778,8.88888889 L6.22222222,8.88888889 Z M8,6.22222222 L8,7.11111111 L1.77777778,7.11111111 L1.77777778,6.22222222 L8,6.22222222 Z M7.9122807,1.43757895 L7.9122807,3.36842105 L9.68231579,3.36842105 L7.9122807,1.43757895 Z" id="Combined-Shape" fill="#00863D" fill-rule="nonzero"></path>
                                    <g id="Group-2-Copy-9" transform="translate(8.000000, 8.000000)">
                                        <mask id="mask-2" fill="white">
                                            <use xlink:href="#path-1"></use>
                                        </mask>
                                        <g id="Rectangle-Copy-2"></g>
                                        <g id="Group" mask="url(#mask-2)">
                                            <g transform="translate(0.285714, 0.142857)">
                                                <mask id="mask-4" fill="white">
                                                    <use xlink:href="#path-3"></use>
                                                </mask>
                                                <use id="Combined-Shape" stroke="none" fill="#FFFFFF" fill-rule="nonzero" xlink:href="#path-3"></use>
                                            </g>
                                        </g>
                                    </g>
                                </g>
                            </g>
                        </g>
                    </g>
                </g>
            </g>
        </g>
    </g>
</svg>