<?xml version="1.0" encoding="UTF-8"?>
<svg width="24px" height="24px" viewBox="0 0 24 24" version="1.1" xmlns="http://www.w3.org/2000/svg" xmlns:xlink="http://www.w3.org/1999/xlink">
    <title>4DD5F038-CD7C-4BA6-BB77-5D007C4AEFC0</title>
    <defs>
        <rect id="path-1" x="0" y="0" width="24" height="24"></rect>
        <linearGradient x1="50%" y1="0%" x2="50%" y2="100%" id="linearGradient-3">
            <stop stop-color="#6C8AFF" offset="0%"></stop>
            <stop stop-color="#233A95" offset="100%"></stop>
        </linearGradient>
    </defs>
    <g id="MFast-new" stroke="none" stroke-width="1" fill="none" fill-rule="evenodd">
        <g id="Update-CTV-1.1" transform="translate(-83.000000, -164.000000)">
            <g id="Group-2" transform="translate(69.000000, 96.000000)">
                <g id="ex2" transform="translate(0.000000, 28.000000)">
                    <g id="Group-31" transform="translate(14.000000, 19.000000)">
                        <g id="icon-money-copy" transform="translate(0.000000, 21.000000)">
                            <mask id="mask-2" fill="white">
                                <use xlink:href="#path-1"></use>
                            </mask>
                            <g id="Rectangle"></g>
                            <path d="M7.30933946,0.304388659 C8.22138547,-0.693277004 9.84618903,1.09635152 11.3382991,0.917120419 C12.3902016,0.761819742 14.566559,-0.118876275 15.5686039,0.0818851445 C16.3229922,0.232950348 15.0974038,3.68831981 13.2630992,5.22205517 C20.1771313,8.05509246 30.2745301,25.3774711 10.1096611,23.9122092 C-4.46385528,22.8530586 3.88966341,8.25747748 9.83285586,5.35003704 C7.84096441,4.06499454 6.56771699,1.11534055 7.30933946,0.304388659 Z M12.1580058,9.59073379 C11.9466608,9.49395323 11.6912028,9.53171953 11.5175169,9.68476129 C11.3909226,9.79615423 11.3169519,9.95886698 11.3169519,10.1270153 L11.3169519,10.1270153 L11.3169519,10.7797016 C10.734902,10.861658 10.154767,11.0850087 9.71789267,11.4851197 C9.51342699,11.6723276 9.34697505,11.8981489 9.23116081,12.1496654 C9.10761617,12.4181944 9.0513757,12.710795 9.05357425,13.0055839 C9.05548912,13.2959256 9.10867998,13.5882438 9.23669266,13.8507019 C9.35803875,14.0994654 9.54335572,14.3092625 9.76165102,14.4786108 C10.2110074,14.8263431 10.7728448,15.0071978 11.3169519,15.1475332 L11.3169519,15.1475332 L11.3169519,17.4833965 C11.0387991,17.4056756 10.771781,17.2749407 10.5622799,17.0741792 C10.4606499,16.9766222 10.3722821,16.8640998 10.3019283,16.7421888 C10.2661841,16.6804214 10.235688,16.6153363 10.210511,16.5486276 C10.1852631,16.4813542 10.170015,16.4116101 10.1473202,16.3434896 C10.0739168,16.1226096 9.87001854,15.9618734 9.63704256,15.9411902 C9.4004496,15.9202246 9.16882112,16.0465123 9.05882242,16.2558153 C9.00534787,16.3578196 8.9826531,16.4741539 8.99428417,16.5886529 C9.00123444,16.6567028 9.02144697,16.7229173 9.04109213,16.7882848 C9.06272308,16.8604996 9.08740364,16.9319379 9.11506289,17.0019644 C9.22087725,17.2702816 9.37435062,17.5186921 9.56222075,17.7376661 C9.93952127,18.1769552 10.4561819,18.4736501 11.0130547,18.6261271 C11.1133372,18.6534459 11.2147545,18.6765999 11.3169519,18.6958713 L11.3169519,18.6958713 L11.3169519,19.3830062 C11.3169519,19.6110864 11.4538297,19.8239895 11.6624088,19.9193582 C11.8732574,20.0161388 12.1289281,19.9783725 12.3028977,19.8253307 C12.4292792,19.7139378 12.50325,19.551225 12.50325,19.3830062 L12.50325,19.3830062 L12.50325,18.7543208 C13.0991295,18.706107 13.6989096,18.5345703 14.17706,18.16559 C14.6297497,17.8162341 14.9327958,17.3016947 14.9948518,16.7328707 C15.0417307,16.3037467 14.9710932,15.8521041 14.7557766,15.4742999 L14.7557766,15.4742999 L14.764,15.489 L14.7541454,15.4710527 L14.7541454,15.4710527 C14.4820919,14.9980916 14.0122393,14.6997731 13.5163586,14.5050825 C13.1883483,14.3763241 12.8456573,14.287238 12.50325,14.2056346 L12.50325,14.2056346 L12.50325,11.9704343 C12.7913317,12.0214011 13.0794843,12.1123932 13.3174248,12.2869653 C13.4271398,12.3677922 13.5232379,12.4653493 13.5974924,12.5795659 C13.6357189,12.6382978 13.6686972,12.7003475 13.6945125,12.765362 C13.7196895,12.8298823 13.7321717,12.8980029 13.757065,12.9625232 C13.8404683,13.1793089 14.0516005,13.3303741 14.2845765,13.3406098 C14.5219496,13.3507749 14.7471952,13.2146045 14.8477614,13.0005719 C14.8971225,12.8960969 14.9145691,12.7780684 14.8973352,12.6642048 C14.8865552,12.5924841 14.8638605,12.5221752 14.8413785,12.45349 C14.8173362,12.3801457 14.789606,12.3082133 14.7577624,12.237622 C14.6435794,11.985329 14.4815245,11.7536487 14.2837254,11.5595228 C13.8657162,11.1492467 13.3066448,10.9143191 12.7350912,10.8114677 C12.6580708,10.7976318 12.5807668,10.7857725 12.50325,10.7761721 L12.50325,10.7761721 L12.50325,10.1270153 C12.50325,9.89872326 12.3663721,9.68610252 12.1580058,9.59073379 Z M12.50325,15.4230507 C12.7816155,15.4958302 13.0620377,15.5766572 13.3182758,15.7097922 C13.4360049,15.7710654 13.5498334,15.8444097 13.6399032,15.9425314 C13.7238739,16.0340883 13.7756463,16.1449165 13.8006106,16.2659804 C13.8465675,16.4890486 13.8241564,16.7356238 13.7108244,16.9360322 C13.4736641,17.35605 12.9550886,17.5192569 12.50325,17.5700119 L12.50325,17.5700119 Z M11.3169519,11.9781287 L11.3169519,13.920799 C11.1798613,13.8788678 11.052416,13.8355954 10.9393677,13.7900641 C10.8044756,13.7362736 10.6717112,13.6726003 10.5514999,13.5909968 C10.4439834,13.5181467 10.3401549,13.4277194 10.29051,13.3050318 C10.2381702,13.1765558 10.2307235,13.0245729 10.2442695,12.8881201 C10.2576026,12.7515967 10.3063255,12.623403 10.3839132,12.5105983 C10.5914285,12.208962 10.9703602,12.0517554 11.3169519,11.9781287 L11.3169519,11.9781287 Z" id="money-copy" fill="url(#linearGradient-3)" mask="url(#mask-2)"></path>
                        </g>
                    </g>
                </g>
            </g>
        </g>
    </g>
</svg>