<?xml version="1.0" encoding="UTF-8"?>
<svg width="16px" height="16px" viewBox="0 0 16 16" version="1.1" xmlns="http://www.w3.org/2000/svg" xmlns:xlink="http://www.w3.org/1999/xlink">
    <title>ABF4BFD3-2087-43EA-AE7A-BC9D201F3C6F</title>
    <defs>
        <rect id="path-1" x="0" y="0" width="6.85714286" height="6.85714286"></rect>
        <path d="M3.5526114,0.955543508 L4.71480421,2.12213608 L1.77297326,5.07513147 L0.611439373,3.9085389 L3.5526114,0.955543508 Z M5.59668377,0.674188127 L5.07839049,0.153927894 C4.87808804,-0.0471347249 4.55283824,-0.0471347249 4.35185525,0.153927894 L3.85538212,0.652285172 L5.01757494,1.81888859 L5.59668377,1.237582 C5.75203889,1.08162646 5.75203889,0.830132827 5.59668377,0.674188127 Z M0.00324061572,5.54827867 C-0.0179098029,5.6438276 0.068031326,5.72944429 0.163229814,5.70620764 L1.45829868,5.39101111 L0.296764785,4.22441854 L0.00324061572,5.54827867 Z" id="path-3"></path>
    </defs>
    <g id="MFast-new" stroke="none" stroke-width="1" fill="none" fill-rule="evenodd">
        <g id="Update-CTV-2" transform="translate(-26.000000, -448.000000)">
            <g id="Group-3" transform="translate(0.000000, 308.000000)">
                <g id="Components/-Customer/-RSA-2" transform="translate(0.000000, 29.000000)">
                    <g id="Group-12" transform="translate(0.000000, 12.000000)">
                        <g id="Group-3" transform="translate(16.000000, 73.000000)">
                            <g id="Group-5" transform="translate(10.000000, 24.000000)">
                                <g id="icon/-Hồ-sơ/--XL" transform="translate(0.000000, 2.000000)">
                                    <polygon id="Rectangle-4" fill-rule="nonzero" points="0.601795284 0.543860777 7.02007563 0.455500385 10.875817 4.14679171 10.875817 15.3671257 9.72433867 15.3671257 0.491454695 15.3671257"></polygon>
                                    <path d="M7.14413114,0.000987243038 C7.17406792,0.00100070467 7.20235839,0.0010142392 7.22900253,0.00102784662 L7.55236842,0.00136842105 C7.56886842,0.00263157895 7.58517544,0.00463157895 7.60177193,0.00821052632 C7.61894737,0.0118947368 7.63554386,0.0171578947 7.6604386,0.0266315789 C7.6757807,0.0328421053 7.69064035,0.0397894737 7.70781579,0.0495789474 C7.72286842,0.0582105263 7.73714912,0.0683157895 7.76011404,0.0865263158 C7.77381579,0.098 7.78684211,0.109894737 7.79919298,0.123263158 C9.85780117,2.36908772 10.8871696,3.49203509 10.8872982,3.49210526 C10.8992632,3.50526316 10.9102632,3.51957895 10.9276316,3.54463158 C10.9374737,3.55947368 10.9465439,3.57494737 10.9562895,3.59515789 C10.9635263,3.61042105 10.9698947,3.62642105 10.9789649,3.65294737 C10.9843684,3.67042105 10.9890965,3.68842105 10.9928596,3.70915789 C10.9957544,3.726 10.9975877,3.74336842 11,3.78947368 L11,3.78947368 L11.000736,6.87689945 C11.1415917,6.86382595 11.2843011,6.85714286 11.4285714,6.85714286 C13.9533017,6.85714286 16,8.90384114 16,11.4285714 C16,13.9533017 13.9533017,16 11.4285714,16 C11.210065,16 10.9951391,15.9846696 10.7848107,15.9550258 C10.7336496,15.9843215 10.6755204,16 10.6140351,16 L10.6140351,16 L0.385964912,16 C0.172815789,16 0,15.8115789 0,15.5789474 L0,15.5789474 L0,0.421052632 C0,0.188526316 0.172815789,0 0.385964912,0 L0.385964912,0 Z M7.14035088,0.842105263 L0.771929825,0.842105263 L0.771929825,15.1578947 L8.78506934,15.1586142 C7.61839504,14.3302866 6.85714286,12.968329 6.85714286,11.4285714 C6.85714286,9.31933961 8.2856173,7.54374588 10.2279086,7.0164478 L10.2280702,4.21052632 L7.52631579,4.21052632 C7.31316667,4.21052632 7.14035088,4.022 7.14035088,3.78947368 L7.14035088,3.78947368 L7.14035088,0.842105263 Z M6.22222222,8.88888889 L6.22222222,9.77777778 L1.77777778,9.77777778 L1.77777778,8.88888889 L6.22222222,8.88888889 Z M8,6.22222222 L8,7.11111111 L1.77777778,7.11111111 L1.77777778,6.22222222 L8,6.22222222 Z M7.9122807,1.43757895 L7.9122807,3.36842105 L9.68231579,3.36842105 L7.9122807,1.43757895 Z" id="Combined-Shape" fill="#D66100" fill-rule="nonzero"></path>
                                    <g id="icon/-edit/-5" transform="translate(8.000000, 8.000000)">
                                        <mask id="mask-2" fill="white">
                                            <use xlink:href="#path-1"></use>
                                        </mask>
                                        <g id="Rectangle-Copy-2"></g>
                                        <g id="Group-3" mask="url(#mask-2)">
                                            <g transform="translate(0.571429, 0.571429)">
                                                <mask id="mask-4" fill="white">
                                                    <use xlink:href="#path-3"></use>
                                                </mask>
                                                <use id="Shape" stroke="none" fill="#FFFFFF" fill-rule="nonzero" xlink:href="#path-3"></use>
                                            </g>
                                        </g>
                                    </g>
                                </g>
                            </g>
                        </g>
                    </g>
                </g>
            </g>
        </g>
    </g>
</svg>