<?xml version="1.0" encoding="UTF-8"?>
<svg width="16px" height="16px" viewBox="0 0 16 16" version="1.1" xmlns="http://www.w3.org/2000/svg" xmlns:xlink="http://www.w3.org/1999/xlink">
    <title>A7C38718-B69A-4CBB-999C-33B8F736F627</title>
    <g id="MFast-new" stroke="none" stroke-width="1" fill="none" fill-rule="evenodd">
        <g id="Update-CTV-5" transform="translate(-91.000000, -433.000000)">
            <g id="Group-4-Copy" transform="translate(14.000000, 421.000000)">
                <g id="Group-21" transform="translate(14.000000, 12.000000)">
                    <g id="KH-tự-tiếp-Copy" transform="translate(63.000000, 0.000000)">
                        <rect id="Rectangle" x="0" y="0" width="16" height="16"></rect>
                        <g id="icon-Hồ-sơ-từ-RSA" fill="#E78800" fill-rule="nonzero">
                            <path d="M7.85578108,0.00101393281 L8.23894737,0.00136842105 C8.25694737,0.00263157895 8.27473684,0.00463157895 8.29284211,0.00821052632 C8.31157895,0.0118947368 8.32968421,0.0171578947 8.35684211,0.0266315789 C8.37357895,0.0328421053 8.38978947,0.0397894737 8.40852632,0.0495789474 C8.42494737,0.0582105263 8.44052632,0.0683157895 8.46557895,0.0865263158 L8.48744737,0.104184211 L8.48744737,0.104184211 L8.50821053,0.123263158 L9.53752047,1.15260234 C9.66228616,1.27737115 9.7820616,1.3971494 9.89684678,1.51193708 L10.1116523,1.72674701 L10.2861426,1.68469183 L11.6933888,1.68496723 C11.7555462,1.68498324 11.815033,1.68499936 11.8718494,1.68501561 L12.7784077,1.68557002 C12.7948287,1.68682495 12.8110577,1.6888119 12.8275748,1.69236751 C12.844668,1.6960277 12.8611851,1.70125654 12.8859608,1.71066844 C12.9012295,1.71683847 12.916018,1.72374054 12.9331113,1.73346618 C12.9480919,1.74204147 12.9623042,1.75208084 12.9851593,1.77017261 C12.9987955,1.78157148 13.0117595,1.79338865 13.0240512,1.8066699 C14.933114,3.64691814 15.8877094,4.56707712 15.8878375,4.56714684 C15.8997452,4.58021893 15.9106925,4.59444137 15.9279778,4.61933064 C15.9377729,4.63407596 15.9467996,4.64944874 15.9564986,4.66952748 C15.9637008,4.68469111 15.9700388,4.70058677 15.9790656,4.72694011 C15.9844432,4.74429985 15.9891487,4.76218248 15.9928938,4.7827841 C15.9948144,4.79393895 15.9962655,4.8053262 15.9977309,4.82525 L16,4.86257616 L16,15.581693 C16,15.7839183 15.868321,15.9525156 15.6932912,15.9915052 L15.6158818,16 L0.421052632,16 C0.214362573,16 0.0424379467,15.8511241 0.00678420331,15.654656 L0,15.5789474 L0,0.421052632 C0,0.214362573 0.148959064,0.0424379467 0.345371742,0.00678420331 L0.421052632,0 L7.76692382,0.000976423808 C7.79808568,0.000988864189 7.82770477,0.00100136719 7.85578108,0.00101393281 Z M12.3683615,2.52082452 L10.9759314,2.59103655 L11.2443556,2.85945988 C11.3092382,2.92434191 11.3691306,2.98423337 11.4240327,3.03913427 L11.8770526,3.49210526 C11.8901053,3.50526316 11.9021053,3.51957895 11.9210526,3.54463158 C11.9317895,3.55947368 11.9416842,3.57494737 11.9523158,3.59515789 C11.9602105,3.61042105 11.9671579,3.62642105 11.9770526,3.65294737 C11.9829474,3.67042105 11.9881053,3.68842105 11.9922105,3.70915789 C11.9943158,3.72038596 11.9959064,3.73184795 11.9975127,3.75190253 L12,3.78947368 L12,15.163 L15.2317636,15.163386 L15.2317636,5.28088316 L12.3683615,2.52082452 Z M7.78947368,0.842105263 L0.842105263,0.842105263 L0.842105263,15.1578947 L11.1578947,15.1578947 L11.1578947,4.21052632 L8.21052632,4.21052632 C8.00383626,4.21052632 7.83191163,4.06156725 7.79625789,3.86515457 L7.78947368,3.78947368 L7.78947368,0.842105263 Z M6,9.4 C7.59293917,9.4 8.8998885,10.5130379 8.99451446,11.9129243 L9,12.0756757 L9,12.4 L3,12.4 L3,12.0756757 C3,10.6003027 4.34579394,9.4 6,9.4 Z M6,5.2 C6.99252,5.2 7.8,6.00748 7.8,7 C7.8,7.99252 6.99252,8.8 6,8.8 C5.00748,8.8 4.2,7.99252 4.2,7 C4.2,6.00748 5.00748,5.2 6,5.2 Z M8.63157895,1.43757895 L8.63157895,3.36842105 L10.544,3.368 L10.39,3.2 L10.558,3.368 L10.5625263,3.36842105 L10.339,3.145 L10.385,3.195 L10.3650746,3.17535138 C10.2057559,3.0150468 10.0451022,2.85296062 9.88311377,2.68909284 L8.63157895,1.43757895 Z" id="Combined-Shape"></path>
                        </g>
                    </g>
                </g>
            </g>
        </g>
    </g>
</svg>