<?xml version="1.0" encoding="UTF-8"?>
<svg width="34px" height="36px" viewBox="0 0 34 36" version="1.1" xmlns="http://www.w3.org/2000/svg" xmlns:xlink="http://www.w3.org/1999/xlink">
    <title>77115916-397B-4F87-BD03-066973387241</title>
    <defs>
        <linearGradient x1="50%" y1="0%" x2="50%" y2="100%" id="linearGradient-1">
            <stop stop-color="#ED8900" offset="0%"></stop>
            <stop stop-color="#D65100" offset="100%"></stop>
        </linearGradient>
    </defs>
    <g id="MFast-new" stroke="none" stroke-width="1" fill="none" fill-rule="evenodd">
        <g id="Update-CTV-2" transform="translate(-26.000000, -794.000000)" fill="url(#linearGradient-1)" fill-rule="nonzero">
            <g id="Group-3" transform="translate(0.000000, 308.000000)">
                <g id="Group-2" transform="translate(0.000000, 311.000000)">
                    <g id="Components/-Customer/-RSA-2-Copy" transform="translate(0.000000, 29.000000)">
                        <g id="Group-3" transform="translate(0.000000, 12.000000)">
                            <g id="Group-4-Copy-2" transform="translate(16.000000, 51.000000)">
                                <g id="Combined-Shape" transform="translate(10.000000, 83.000000)">
                                    <path d="M9.67708941,7.5390625 L9.17271072,14.2129516 L8.9212936,14.2129516 C7.43194045,14.2129516 6.2245821,15.4058837 6.2245821,16.8774414 C6.2245821,18.3489991 7.43194045,19.5419312 8.92376453,19.5419312 C8.99109742,19.7085571 9.0874637,19.8638916 9.21286337,19.9975586 C9.45879811,20.2592468 9.79412071,20.4232693 10.1507557,20.460186 L10.3047057,20.4681397 L12.6366461,20.4681397 L12.6369756,20.6826498 L12.6370822,20.7489268 L12.6370822,20.7489268 L12.6377503,21.1508858 C12.6378537,21.211967 12.6379626,21.2759246 12.6380768,21.3426166 L12.6388226,21.7744459 C12.6409679,23.0074356 12.6443189,24.8677572 12.6477779,26.773975 L12.6490779,27.4898224 C12.6529804,29.6370051 12.6568458,31.7502904 12.6591112,33.0018137 L12.659805,33.3859354 C12.65991,33.4442576 12.6600096,33.4996362 12.6601034,33.5519291 L12.6609364,34.02225 L12.6610465,34.0871582 C12.6610465,35.1433716 11.7940588,36 10.7247638,36 C9.70668176,36 8.87181829,35.2230128 8.79461606,34.2366172 L8.78878999,34.0871582 L8.78878999,22.8530884 L7.97029431,22.8530884 L7.97029431,34.0871582 C7.97029431,35.1433716 7.10330673,36 6.03432047,36 C5.01594427,36 4.1606158,35.2230128 4.08146519,34.2366172 L4.07549057,34.0871582 L4.07549057,10.9024048 C3.8314244,10.9024048 3.55933795,11.0791473 3.50646067,11.3098273 L3.4972929,11.3885498 L3.4972929,22.2650147 C3.4972929,23.1939697 2.72080303,23.9468384 1.78061408,23.9468384 C0.840733972,23.9468384 0.0929687302,23.1939697 0.0929687302,22.2650147 L0.0920039562,21.5359658 C0.0884876089,19.2193671 0.0821921686,18.0002259 0.0798750052,16.7330477 L0.079802806,14.8751677 C0.0813594357,13.9750255 0.0853032254,12.882635 0.0929687302,11.3717652 C0.103441247,9.32446476 1.75860072,7.64690727 3.80661618,7.54405924 L4.0059956,7.5390625 L9.67708941,7.5390625 Z M12.121766,6.93603516 C12.371879,6.93603516 12.5844095,7.10554713 12.6433018,7.33783237 L12.6579579,7.42767336 L13.5295785,18.9569092 C13.550427,19.234314 13.3526166,19.4748871 13.0847555,19.5202276 L12.9930778,19.527893 L10.3047057,19.527893 C10.0233903,19.527893 9.79511339,19.3150604 9.7693836,19.047796 L9.76851383,18.9569092 L10.6398256,7.42767336 C10.6584948,7.1813626 10.8453093,6.98448276 11.0844303,6.94377256 L11.1763263,6.93603516 L12.121766,6.93603516 Z M13.6355196,7.73376469 C14.4169513,7.96630859 15.1273437,8.40240477 15.7005995,9.01245117 C16.526508,9.89166258 16.9789971,11.0369873 16.9747037,12.237854 C16.9721859,13.1386801 16.9703444,13.7821482 16.9689661,14.2450277 L16.9681135,14.5277027 L16.9679202,14.5906032 L16.9679202,14.5906032 L16.9670613,14.8624455 L16.9669095,14.9088348 L16.9669095,14.9088348 L16.9660077,15.1686702 L16.9658991,15.1974674 L16.9658991,15.1974674 L16.9650943,15.383158 C16.9650439,15.3928037 16.9649952,15.4016943 16.9649478,15.409935 L16.9640487,15.523579 L16.9639835,15.5301115 L16.9631337,15.6331988 C16.9630716,15.6423399 16.963007,15.6522001 16.9629397,15.6628848 L16.962251,15.7841499 C16.9621645,15.800729 16.9620743,15.8184484 16.9619802,15.8374135 L16.9610191,16.0445759 C16.9601768,16.2362842 16.959099,16.5045107 16.9576853,16.8853759 C16.9535888,17.7622584 16.2706058,18.4800065 15.4021989,18.5531299 L15.2558321,18.5592652 L14.4537064,18.5592652 L13.6355196,7.73376469 Z M9.09827396,15.1956177 L8.84438592,18.5552978 C7.9403343,18.5153198 7.21913152,17.7804566 7.21913152,16.8774414 C7.21913152,15.9973787 7.90328487,15.2753548 8.77445261,15.2017901 L8.9212936,15.1956177 L9.09827396,15.1956177 Z M28.18125,7.3609375 L29.2359375,9.48432813 L32.5546875,9.48432813 C32.090625,10.1452188 31.5140625,10.75 30.9234844,11.3124531 C30.0656719,12.128125 29.0672344,12.9718281 27.9,13.9421406 C27.28125,14.4765156 26.6203594,15.0390625 25.9172344,15.64375 L25.9172344,15.64375 L25.453125,16.0374531 L24.9890156,15.64375 C24.2858906,15.0390625 23.625,14.4765156 23.00625,13.9421406 C20.9953125,12.2546406 19.3640156,10.890625 18.3375,9.484375 L18.3375,9.484375 L21.6703125,9.484375 L22.725,7.3609375 L25.453125,11.4531719 L28.18125,7.3609375 Z M29.30625,1 C31.865625,1 33.8625,3.19848438 33.8625,5.92651563 C33.8625,6.71410938 33.69375,7.41723438 33.3984844,8.078125 L33.3984844,8.078125 L30.1078125,8.078125 L28.35,4.5765625 L25.453125,8.92182813 L22.55625,4.5765625 L20.7984375,8.078125 L17.49375,8.078125 C17.1984375,7.403125 17.04375,6.7 17.04375,5.92651563 C17.04375,3.19848438 19.040625,1 21.6,1 C23.596875,1 24.7922344,2.26567188 25.453125,3.34839063 C26.1140156,2.26567188 27.309375,1 29.30625,1 Z M8.30726744,0 C10.1471838,0 11.6386991,1.47369383 11.6386991,3.29162594 C11.6386991,5.10955813 10.1471838,6.58325195 8.30726744,6.58325195 C6.46735104,6.58325195 4.9758358,5.10955813 4.9758358,3.29162594 C4.9758358,1.47369383 6.46735104,0 8.30726744,0 Z"></path>
                                </g>
                            </g>
                        </g>
                    </g>
                </g>
            </g>
        </g>
    </g>
</svg>