<?xml version="1.0" encoding="UTF-8"?>
<svg width="180px" height="180px" viewBox="0 0 180 180" version="1.1" xmlns="http://www.w3.org/2000/svg" xmlns:xlink="http://www.w3.org/1999/xlink">
    <title>51BA9077-A6C9-4CC4-A43D-556F637A6380</title>
    <defs>
        <linearGradient x1="49.9993707%" y1="53.2546008%" x2="50%" y2="45.3802133%" id="linearGradient-1">
            <stop stop-color="#6B8DFF" offset="0%"></stop>
            <stop stop-color="#D6FFD4" offset="100%"></stop>
        </linearGradient>
        <linearGradient x1="50%" y1="99.8407168%" x2="50%" y2="-37.7600796%" id="linearGradient-2">
            <stop stop-color="#6B8DFF" offset="0%"></stop>
            <stop stop-color="#D6FFD4" offset="100%"></stop>
        </linearGradient>
        <linearGradient x1="49.9991914%" y1="51.2599962%" x2="50%" y2="48.514887%" id="linearGradient-3">
            <stop stop-color="#88A3FB" offset="0%"></stop>
            <stop stop-color="#B0FFAC" offset="100%"></stop>
        </linearGradient>
        <linearGradient x1="50%" y1="99.8407168%" x2="50%" y2="5.42624781%" id="linearGradient-4">
            <stop stop-color="#6B8DFF" offset="0%"></stop>
            <stop stop-color="#B2FFAE" offset="100%"></stop>
        </linearGradient>
        <linearGradient x1="49.4910904%" y1="4.36265888%" x2="51.5679684%" y2="101.222374%" id="linearGradient-5">
            <stop stop-color="#D6FFD4" offset="0%"></stop>
            <stop stop-color="#6B8DFF" offset="100%"></stop>
        </linearGradient>
        <linearGradient x1="50.628424%" y1="4.39386954%" x2="48.5963887%" y2="101.257592%" id="linearGradient-6">
            <stop stop-color="#D6FFD4" offset="0%"></stop>
            <stop stop-color="#6B8DFF" offset="100%"></stop>
        </linearGradient>
        <linearGradient x1="50%" y1="-14.8571886%" x2="50%" y2="88.6271682%" id="linearGradient-7">
            <stop stop-color="#DEFFFC" offset="0%"></stop>
            <stop stop-color="#BBF8B8" offset="51%"></stop>
            <stop stop-color="#ADB2BB" offset="100%"></stop>
        </linearGradient>
        <linearGradient x1="43.0871097%" y1="41.8664635%" x2="75.9324505%" y2="80.5191174%" id="linearGradient-8">
            <stop stop-color="#D6FFD4" offset="0%"></stop>
            <stop stop-color="#B4C3BF" offset="100%"></stop>
        </linearGradient>
        <linearGradient x1="-0.00607459604%" y1="50%" x2="100%" y2="50%" id="linearGradient-9">
            <stop stop-color="#DEFFFC" offset="2%"></stop>
            <stop stop-color="#D6FFD4" offset="51%"></stop>
            <stop stop-color="#ADB2BB" offset="100%"></stop>
        </linearGradient>
        <linearGradient x1="56.9068157%" y1="41.8664635%" x2="24.0614749%" y2="80.5191174%" id="linearGradient-10">
            <stop stop-color="#D6FFD4" offset="0%"></stop>
            <stop stop-color="#B4C3BF" offset="100%"></stop>
        </linearGradient>
        <linearGradient x1="50.4009233%" y1="36.2957719%" x2="49.3864658%" y2="74.5149582%" id="linearGradient-11">
            <stop stop-color="#DEFFFC" offset="2%"></stop>
            <stop stop-color="#D6FFD4" offset="51%"></stop>
            <stop stop-color="#ADB2BB" offset="100%"></stop>
        </linearGradient>
        <linearGradient x1="50%" y1="-5.92065073%" x2="50%" y2="100%" id="linearGradient-12">
            <stop stop-color="#D6FFD4" offset="0%"></stop>
            <stop stop-color="#6B8DFF" offset="100%"></stop>
        </linearGradient>
        <linearGradient x1="60.3805574%" y1="97.2869383%" x2="35.7864339%" y2="2.71306171%" id="linearGradient-13">
            <stop stop-color="#3B70FF" offset="0%"></stop>
            <stop stop-color="#A6FFA8" offset="100%"></stop>
        </linearGradient>
        <linearGradient x1="71.65248%" y1="69.4449218%" x2="9.89037134%" y2="-53.6518302%" id="linearGradient-14">
            <stop stop-color="#D6FFD4" offset="0%"></stop>
            <stop stop-color="#A2B2E7" offset="100%"></stop>
        </linearGradient>
        <linearGradient x1="28.3591397%" y1="69.4449218%" x2="90.1084902%" y2="-53.6518302%" id="linearGradient-15">
            <stop stop-color="#C1FFBE" offset="0%"></stop>
            <stop stop-color="#A2B2E7" offset="100%"></stop>
        </linearGradient>
        <radialGradient cx="54.3505545%" cy="49.9970076%" fx="54.3505545%" fy="49.9970076%" r="48.3111784%" gradientTransform="translate(0.543506,0.499970),scale(0.931087,1.000000),rotate(29.007661),scale(1.000000,1.671540),translate(-0.543506,-0.499970)" id="radialGradient-16">
            <stop stop-color="#FFFFFF" offset="0%"></stop>
            <stop stop-color="#FFFFFF" stop-opacity="0" offset="100%"></stop>
        </radialGradient>
        <radialGradient cx="50%" cy="45.172481%" fx="50%" fy="45.172481%" r="83.2388571%" gradientTransform="translate(0.500000,0.451725),scale(1.000000,0.839114),rotate(81.438230),translate(-0.500000,-0.451725)" id="radialGradient-17">
            <stop stop-color="#FFFFFF" offset="0%"></stop>
            <stop stop-color="#FFFFFF" stop-opacity="0.87847642" offset="30.4274375%"></stop>
            <stop stop-color="#FFFFFF" stop-opacity="0" offset="100%"></stop>
        </radialGradient>
        <linearGradient x1="43.0924747%" y1="41.8674285%" x2="75.935979%" y2="80.51914%" id="linearGradient-18">
            <stop stop-color="#95E3FF" offset="0%"></stop>
            <stop stop-color="#B4C3BF" offset="100%"></stop>
        </linearGradient>
        <linearGradient x1="0%" y1="50%" x2="100%" y2="50%" id="linearGradient-19">
            <stop stop-color="#DEFFFC" offset="2%"></stop>
            <stop stop-color="#D6FFD4" offset="51%"></stop>
            <stop stop-color="#ADB2BB" offset="100%"></stop>
        </linearGradient>
        <linearGradient x1="56.9115583%" y1="41.8689507%" x2="24.0711277%" y2="80.5134278%" id="linearGradient-20">
            <stop stop-color="#95E3FF" offset="0%"></stop>
            <stop stop-color="#B4C3BF" offset="100%"></stop>
        </linearGradient>
        <linearGradient x1="50.3867103%" y1="37.0601481%" x2="49.3869911%" y2="74.5051817%" id="linearGradient-21">
            <stop stop-color="#DEFFFC" offset="0%"></stop>
            <stop stop-color="#D6FFD4" offset="51%"></stop>
            <stop stop-color="#ADB2BB" offset="100%"></stop>
        </linearGradient>
        <linearGradient x1="56.9115583%" y1="58.1310493%" x2="24.0711277%" y2="19.4865722%" id="linearGradient-22">
            <stop stop-color="#D6FFD4" offset="0%"></stop>
            <stop stop-color="#B4C3BF" offset="100%"></stop>
        </linearGradient>
        <linearGradient x1="76.77106%" y1="71.1816117%" x2="45.2129153%" y2="43.8222231%" id="linearGradient-23">
            <stop stop-color="#95E3FF" offset="0%"></stop>
            <stop stop-color="#B4C3BF" offset="100%"></stop>
        </linearGradient>
        <linearGradient x1="43.0924747%" y1="58.1325715%" x2="75.935979%" y2="19.48086%" id="linearGradient-24">
            <stop stop-color="#D6FFD4" offset="0%"></stop>
            <stop stop-color="#B4C3BF" offset="100%"></stop>
        </linearGradient>
        <linearGradient x1="17.3186099%" y1="75.1941026%" x2="49.6256084%" y2="49.2824464%" id="linearGradient-25">
            <stop stop-color="#95E3FF" offset="0%"></stop>
            <stop stop-color="#B4C3BF" offset="100%"></stop>
        </linearGradient>
        <linearGradient x1="49.5411805%" y1="35.6147863%" x2="51.8296137%" y2="107.777771%" id="linearGradient-26">
            <stop stop-color="#D6FFD4" offset="0%"></stop>
            <stop stop-color="#A2B2E7" offset="100%"></stop>
        </linearGradient>
        <linearGradient x1="82.9665135%" y1="97.1815051%" x2="26.7472217%" y2="2.81849487%" id="linearGradient-27">
            <stop stop-color="#599DF6" offset="0%"></stop>
            <stop stop-color="#A6FFA8" offset="100%"></stop>
        </linearGradient>
    </defs>
    <g id="Master-mfast" stroke="none" stroke-width="1" fill="none" fill-rule="evenodd">
        <g id="Master-Mfast-1.2" transform="translate(-98.000000, -268.000000)" fill-rule="nonzero">
            <g id="Group-10" transform="translate(98.000000, 268.000000)">
                <g id="Master/-medal/-SuperMaster-Copy" transform="translate(0.000000, 3.000000)">
                    <path d="M163.000755,83.0339623 L16.9018868,83.0339623 C15.3079245,83.0339623 0,99.9516981 0,106.019623 C0,112.087547 15.3079245,129.007547 16.9018868,129.007547 L163.000755,129.007547 C164.58566,129.007547 179.902642,112.089811 179.902642,106.019623 C179.902642,99.949434 164.603774,83.0339623 163.000755,83.0339623 Z" id="Path" fill="url(#linearGradient-1)"></path>
                    <g id="Group-3" transform="translate(19.947170, 132.879245)">
                        <path d="M90.3396226,-3.55271368e-14 L2.13162821e-13,-3.55271368e-14 C2.13162821e-13,6.28981132 15.3079245,22.7433962 16.8996226,22.7433962 L123.106415,22.7433962 C124.691321,22.7433962 140.006038,6.28981132 140.006038,-3.55271368e-14 L90.3396226,-3.55271368e-14 Z" id="Path" fill="url(#linearGradient-2)"></path>
                        <path d="M20.6966038,22.7433962 L16.9018868,22.7433962 C15.3169811,22.7433962 0.00226415094,6.28981132 0.00226415094,-3.55271368e-14 L3.79698113,-3.55271368e-14 C3.79698113,6.28981132 19.1049057,22.7433962 20.6966038,22.7433962 Z" id="Path" fill="#7293FF"></path>
                        <path d="M119.311698,22.7433962 L123.106415,22.7433962 C124.691321,22.7433962 140.006038,6.28981132 140.006038,-3.55271368e-14 L136.211321,-3.55271368e-14 C136.211321,6.28981132 120.903396,22.7433962 119.311698,22.7433962 Z" id="Path" fill="#7293FF"></path>
                    </g>
                    <path d="M123.568302,78.68 L159.953208,78.68 C159.953208,72.8724528 144.645283,56.4188679 143.053585,56.4188679 L36.8490566,56.4188679 C35.2641509,56.4188679 19.949434,72.8724528 19.949434,78.68 L123.568302,78.68 Z" id="Path" fill="url(#linearGradient-3)"></path>
                    <path d="M3.79471698,106.019623 C3.79471698,112.089811 19.1026415,129.007547 20.6966038,129.007547 L16.9018868,129.007547 C15.3169811,129.007547 0,112.089811 0,106.019623 C0,99.949434 15.3079245,83.0339623 16.9018868,83.0339623 L20.6966038,83.0339623 C19.1026415,83.0339623 3.79471698,99.9516981 3.79471698,106.019623 Z" id="Path" fill="#7293FF"></path>
                    <path d="M23.7441509,78.68 L19.949434,78.68 C19.949434,72.8724528 35.2573585,56.4188679 36.8490566,56.4188679 L40.6437736,56.4188679 C39.0520755,56.4188679 23.7441509,72.8724528 23.7441509,78.68 Z" id="Path" fill="#7293FF"></path>
                    <path d="M176.107925,106.019623 C176.107925,112.089811 160.797736,129.007547 159.206038,129.007547 L163.000755,129.007547 C164.58566,129.007547 179.902642,112.089811 179.902642,106.019623 C179.902642,99.949434 164.603774,83.0339623 163.000755,83.0339623 L159.206038,83.0339623 C160.797736,83.0339623 176.107925,99.9516981 176.107925,106.019623 Z" id="Path" fill="#7293FF"></path>
                    <path d="M156.158491,78.68 L159.953208,78.68 C159.953208,72.8724528 144.645283,56.4188679 143.053585,56.4188679 L139.258868,56.4188679 C140.850566,56.4188679 156.158491,72.8724528 156.158491,78.68 Z" id="Path" fill="#7293FF"></path>
                    <g id="Group-2" transform="translate(41.857801, 0.000000)">
                        <path d="M85.5121213,24.4851813 C84.9798973,25.7465318 85.2580824,27.2036219 86.2177216,28.1810053 C83.2879984,29.2301252 69.670654,32.8863973 64.7837084,31.8072464 C61.5257447,31.0878125 55.9613472,23.8145409 48.0905157,9.98743158 C50.3775306,9.03283167 51.6724055,6.59967967 51.1848627,4.17295748 C50.6973199,1.74623528 48.5627814,0 46.0839817,0 C43.605182,0 41.4706435,1.74623528 40.9831007,4.17295748 C40.4955579,6.59967967 41.7904328,9.03283167 44.0774477,9.98743158 C35.6506805,23.5463174 30.0531447,30.819589 27.2848405,31.8072464 C23.0590517,33.3148956 8.93096994,29.2525336 5.98084473,28.2013765 C7.1177995,27.0451369 7.28022718,25.2486711 6.36904842,23.9078063 C5.45786966,22.5669415 3.72600172,22.0538635 2.22986761,22.681545 C0.733733501,23.3092265 -0.111382597,24.9034411 0.210032123,26.4917329 C0.531446842,28.0800247 1.93017681,29.2215292 3.55301002,29.2199396 C3.67326039,29.2139813 3.79311596,29.2017418 3.91208474,29.1832713 L8.33931274,53.9037972 L8.33931274,56 C8.33931274,56 12.1218384,55.757582 44.7853962,55.757582 L47.3682859,55.757582 C80.0298034,55.757582 83.8143693,56 83.8143693,56 L83.8143693,53.8976858 L88.2415973,29.1710486 C88.3765155,29.1942865 88.5128269,29.2085777 88.6496367,29.2138282 C89.8871314,29.2440624 91.043805,28.6021444 91.6714587,27.5368106 C92.2991124,26.4714768 92.2991124,25.1501412 91.6714587,24.0848074 C91.043805,23.0194736 89.8871314,22.3775555 88.6496367,22.4077897 C87.2829293,22.4048127 86.0443454,23.2238308 85.5121213,24.4851813 Z" id="Path" fill="url(#linearGradient-4)"></path>
                        <g id="Group-8" transform="translate(0.236092, 0.201638)" fill="#FFFFFF">
                            <path d="M42.188994,7.64418399 C42.1875069,5.53551211 43.4513923,3.63272915 45.3932453,2.82017486 C47.3350982,2.00762057 49.5740669,2.44465963 51.0695655,3.92817321 C50.5233966,1.79063105 48.6957987,0.227489165 46.5033231,0.0226725365 C44.3108474,-0.182144092 42.2263918,1.0155417 41.2953232,3.01508333 C40.3642546,5.01462496 40.7873964,7.38473877 42.3525404,8.93679855 C42.2438902,8.51455321 42.1889392,8.08023948 42.188994,7.64418399 L42.188994,7.64418399 Z" id="Path" opacity="0.900000036"></path>
                            <path d="M87.3413358,26.0857334 C88.458275,25.0707487 90.596237,24.6876999 92.026923,25.7436309 C91.8388766,23.9343088 90.2713901,22.5883924 88.458275,22.6794246 C86.64516,22.7704568 85.2197857,24.2666377 85.2131328,26.0857334 C85.2119048,26.9782752 85.591217,27.5319337 86.2171731,28.1669178 C86.2219887,27.4561179 86.5967096,26.7623898 87.3413358,26.0857334 Z" id="Path" opacity="0.600000024"></path>
                            <path d="M44.0104924,10.0532406 C44.546107,10.6964751 44.558045,10.9827111 43.273495,12.9562566 C40.8927231,17.1238613 38.9712318,20.1813309 37.5090209,22.1286652 C35.7388183,24.4861747 32.9610188,27.8860211 29.1756226,32.3282043 L29.1756226,32.3282043 C28.519348,32.7439963 27.81039,33.0478759 27.0487485,33.239843 C25.9062863,33.5277938 22.6391074,33.5774469 17.2274575,32.3282043 C13.6196909,31.4953759 10.3275292,30.6070788 7.35097245,29.6633131 L7.01777337,28.7295748 C10.6524444,29.7515276 13.9485556,30.6304463 16.906107,31.3663308 C19.5610179,32.0269137 22.3916336,32.3232615 25.397954,32.2553743 L26.0948393,32.233242 C26.3203291,32.2240299 26.5426335,32.1767202 26.7523343,32.093317 C27.8806286,31.6445668 28.5733956,31.2725877 28.8306353,30.9773796 L29.2373119,30.5283961 C32.859529,26.5185484 35.4591844,23.3458004 37.036278,21.0101519 C38.6717825,18.587998 40.9965207,14.9356942 44.0104924,10.0532406 Z" id="Combined-Shape" opacity="0.5"></path>
                            <path d="M83.9679177,9.97160232 C84.5035322,10.6148368 84.5154703,10.9010729 83.2309202,12.8746183 C82.5618344,13.8758205 81.9282364,14.8246938 81.3301263,15.7212384 L80.7438454,16.60034 C78.8290069,19.4725357 77.3084778,21.7633003 76.1822581,23.4726338 C74.8451114,25.5021044 72.4158594,28.4267485 68.8945021,32.246566 L69.1374806,31.9829565 C69.1360134,31.9848641 69.1345358,31.9867626 69.1330478,31.988652 C69.1066108,32.022219 69.0757067,32.0555998 69.0407018,32.0887547 L68.8945021,32.246566 L68.8942484,32.209526 C68.3499306,32.6075471 67.2592995,32.964534 66.2926915,33.2081617 C65.1502293,33.4961124 62.003372,33.2081617 57.1848827,32.246566 C53.9725565,31.6055022 50.6803948,30.7172052 47.3083977,29.5816748 L46.9751986,28.6479366 C50.6595988,29.7338582 54.0628269,30.5974435 57.1848827,31.2386925 C59.9581718,31.8083072 62.7112225,32.069193 65.4440349,32.0213501 L66.1888449,32.0006289 C66.3802309,31.9933374 66.5695772,31.9585928 66.7510834,31.8974595 C67.8495334,31.5274892 68.5285258,31.1935831 68.7880605,30.8957413 C68.8183357,30.8609976 68.8480167,30.8343924 68.8768904,30.8151153 C70.0693764,29.7571705 70.9578496,28.9039224 71.5436153,28.2560147 C73.6877919,25.8843695 75.6014694,23.1897699 76.9937033,20.9285136 C78.9707509,17.7174071 81.2954891,14.0651033 83.9679177,9.97160232 Z" id="Combined-Shape-Copy" opacity="0.5" transform="translate(65.642536, 21.643132) scale(-1, 1) translate(-65.642536, -21.643132) "></path>
                            <path d="M9.38722028,56.1325086 L5.16137826,31.5774121 C5.04280709,31.5774121 4.88130498,31.6142854 4.75251216,31.6142854 C4.60634287,31.6135199 4.46080877,31.594947 4.31911411,31.5589754 L8.24035089,54.0696514 L8.24035089,56.177576 C8.24035089,56.177576 8.33847875,56.1591393 9.38722028,56.1325086 Z" id="Path" opacity="0.800000012"></path>
                            <path d="M1.38211359,28.3854239 C1.38165911,27.0958916 2.10531325,25.915803 3.2535705,25.3335723 C4.40182775,24.7513416 5.77932476,24.866029 6.81594396,25.6301678 C6.66191299,24.0646926 5.46294014,22.8059291 3.90953625,22.5788227 C2.35613236,22.3517164 0.848223377,23.214736 0.254242225,24.6708525 C-0.339738927,26.126969 0.133129008,27.8013032 1.40051256,28.7295748 C1.38815837,28.6152769 1.38201631,28.5003903 1.38211359,28.3854239 Z" id="Path" opacity="0.800000012"></path>
                        </g>
                    </g>
                    <path d="M76.0098113,152.606792 C76.0098113,152.606792 66.3826415,157.266415 49.6143396,150.641509 C32.8460377,144.016604 27.5162264,135.270189 27.5162264,135.270189 L36.4437736,130.062642 C36.4437736,130.062642 27.1403774,122.77434 23.4135849,109.318491 C19.6867925,95.8626415 20.114717,94.16 20.114717,94.16 L28.394717,94.16 C28.394717,94.16 25.9041509,91.2935849 30.4664151,76.5969811 C35.0286792,61.9003774 39.3667925,59.0158491 39.3667925,59.0158491 L45.5796226,65.4415094 C45.5796226,65.4415094 48.269434,58.8211321 55.1003774,53.0249057 C61.9313208,47.2286792 68.970566,44.7449057 68.970566,44.7449057 L77.2460377,56.5683019 L76.0098113,152.606792 Z" id="Path" fill="url(#linearGradient-5)"></path>
                    <g id="Group" opacity="0.6" style="mix-blend-mode: overlay;" transform="translate(19.924528, 44.679245)" fill="#FFFFFF">
                        <path d="M5.00377358,66.9871698 C1.27924528,53.5335849 1.70490566,51.9056604 1.70490566,51.9056604 L9.98490566,51.9056604 C9.98490566,51.9056604 7.49433962,48.9622642 12.0566038,34.2679245 C16.6188679,19.5735849 20.9569811,16.650566 20.9569811,16.650566 L27.1698113,23.0558491 C27.1698113,23.0558491 29.8618868,16.4264151 36.6928302,10.6301887 C40.7365915,7.21899066 45.2939058,4.4680967 50.1962264,2.47924528 L49.0483019,0.0679245283 C49.0483019,0.0679245283 42.0090566,2.55849057 35.1781132,8.34792453 C28.3471698,14.1373585 25.6573585,20.7667925 25.6573585,20.7667925 L19.4422642,14.354717 C19.4422642,14.354717 15.0973585,17.2233962 10.5418868,31.9245283 C5.98641509,46.6256604 8.47018868,49.4875472 8.47018868,49.4875472 L0.190188679,49.4875472 C0.190188679,49.4875472 -0.235471698,51.1879245 3.4890566,64.6460377 C4.84512214,69.4928504 7.0356407,74.0661996 9.96226415,78.1607547 C7.77948762,74.6947052 6.1093765,70.9312356 5.00377358,66.9871698 L5.00377358,66.9871698 Z" id="Path"></path>
                        <path d="M19.245283,85.1320755 C19.245283,85.1320755 19.0188679,84.7675472 15.9350943,85.7366038 L7.59622642,90.5954717 C8.10272604,91.3612707 8.66902129,92.0857955 9.28981132,92.7622642 L19.245283,85.1320755 Z" id="Path"></path>
                    </g>
                    <g id="Group-7" transform="translate(19.591698, 44.746415)" fill="#FFFFFF">
                        <path d="M57.6543396,11.8286792 L49.3788679,0.00528301887 C49.3788679,0.00528301887 42.3396226,2.49584906 35.5086792,8.28528302 C28.6777358,14.074717 25.9879245,20.7064151 25.9879245,20.7064151 L19.7750943,14.2875472 C19.7750943,14.2875472 15.4301887,17.1562264 10.874717,31.8573585 C6.31924528,46.5584906 8.80301887,49.4203774 8.80301887,49.4203774 L0.523018868,49.4203774 C0.523018868,49.4203774 0.0973584906,51.1207547 3.82188679,64.5788679 C7.54641509,78.0369811 16.8611321,85.309434 16.8611321,85.309434 L7.93358491,90.5169811 C7.93358491,90.5169811 9.69509434,93.4037736 14.3660377,97.1124528 C28.5709835,100.341489 43.4686265,98.1908978 56.1803774,91.0762264 L57.6543396,11.8286792 Z" id="Path" opacity="0.23" style="mix-blend-mode: overlay;"></path>
                        <path d="M55.8566038,69.7162264 L57.6543396,11.8286792 L49.3788679,0.00528301887 C49.3788679,0.00528301887 42.3396226,2.49584906 35.5086792,8.28528302 C28.6777358,14.074717 25.9879245,20.7064151 25.9879245,20.7064151 L19.7750943,14.2875472 C19.7750943,14.2875472 15.4301887,17.1562264 10.874717,31.8573585 C6.31924528,46.5584906 8.80301887,49.4203774 8.80301887,49.4203774 L0.523018868,49.4203774 C0.523018868,49.4203774 0.0973584906,51.1207547 3.82188679,64.5788679 C4.00075472,65.2173585 4.19320755,65.8513208 4.39471698,66.4649057 C19.1885935,78.183165 39.7046913,79.4802583 55.8566038,69.7184906 L55.8566038,69.7162264 Z" id="Path" opacity="0.35" style="mix-blend-mode: overlay;"></path>
                        <path d="M55.5441509,48.4445283 L57.6543396,11.8286792 L49.3788679,0.00528301887 C49.3788679,0.00528301887 42.3396226,2.49584906 35.5086792,8.28528302 C28.6777358,14.074717 25.9879245,20.7064151 25.9879245,20.7064151 L19.7750943,14.2875472 C19.7750943,14.2875472 15.5501887,17.1086792 11.069434,31.2686792 C18.9896261,47.886656 38.5096206,55.4261459 55.5441509,48.4467925 L55.5441509,48.4445283 Z" id="Path" opacity="0.35" style="mix-blend-mode: overlay;"></path>
                        <g id="Group" opacity="0.49" style="mix-blend-mode: overlay;" transform="translate(0.332830, 45.215849)">
                            <path d="M8.47018868,2.7509434 C8.47018868,2.7509434 7.94490566,2.13283019 7.82264151,0.0339622642 C7.77220808,0.940128266 7.79719982,1.84891868 7.89735849,2.7509434 L8.47018868,2.7509434 Z" id="Path"></path>
                            <path d="M16.4626415,40.1049057 L19.2407547,39.6520755 C19.2407547,39.6520755 7.18867925,30.9192453 3.46188679,17.4633962 C1.39471698,9.99169811 0.636226415,6.14264151 0.344150943,4.19773585 L0.190188679,4.19773585 C0.190188679,4.19773585 -0.262641509,5.89811321 3.46188679,19.3562264 C6.33962264,29.7283019 12.9939623,37.32 16.4626415,40.1049057 Z" id="Path"></path>
                        </g>
                        <path d="M30.0226415,104 C17.2143396,98.9418868 11.0830189,92.6475472 8.90037736,89.9622642 L7.9245283,90.5328302 C7.9245283,90.5328302 13.2543396,99.2792453 30.0226415,105.904151 C46.7909434,112.529057 56.4181132,107.869434 56.4181132,107.869434 L56.3909434,105.990189 C55.8181132,106.243774 46.2769811,110.423396 30.0226415,104 Z" id="Path" opacity="0.800000012"></path>
                    </g>
                    <path d="M50.1962264,58.0671698 C54.6323665,67.2073717 65.0448087,71.778641 74.7758491,68.8581132 L77.2460377,56.5750943 L68.970566,44.7516981 C68.970566,44.7516981 61.9313208,47.2422642 55.1003774,53.0316981 C53.311725,54.5530653 51.669808,56.2389486 50.1962264,58.0671698 L50.1962264,58.0671698 Z" id="Path" fill="#FFFFFF" opacity="0.2" style="mix-blend-mode: overlay;"></path>
                    <path d="M100.754717,152.606792 C100.754717,152.606792 110.379623,157.266415 127.147925,150.641509 C143.916226,144.016604 149.246038,135.270189 149.246038,135.270189 L140.318491,130.062642 C140.318491,130.062642 149.621887,122.77434 153.348679,109.318491 C157.075472,95.8626415 156.647547,94.16 156.647547,94.16 L148.358491,94.16 C148.358491,94.16 150.849057,91.2935849 146.289057,76.5969811 C141.729057,61.9003774 137.386415,59.0158491 137.386415,59.0158491 L131.175849,65.4415094 C131.175849,65.4415094 128.483774,58.8211321 121.65283,53.0249057 C114.821887,47.2286792 107.773585,44.749434 107.773585,44.749434 L101.393208,54.68 L100.754717,152.606792 Z" id="Path" fill="url(#linearGradient-6)"></path>
                    <g id="Group" opacity="0.6" style="mix-blend-mode: overlay;" transform="translate(106.641509, 44.679245)" fill="#FFFFFF">
                        <path d="M45.1833962,66.9871698 C48.9079245,53.5335849 48.4822642,51.9056604 48.4822642,51.9056604 L40.2022642,51.9056604 C40.2022642,51.9056604 42.6928302,48.9622642 38.130566,34.2679245 C33.5683019,19.5735849 29.2301887,16.650566 29.2301887,16.650566 L23.0196226,23.0558491 C23.0196226,23.0558491 20.3275472,16.4264151 13.4966038,10.6415094 C9.45488915,7.23095271 4.89991428,4.48008716 -1.2870208e-14,2.49056604 L1.13207547,0.0747169811 C1.13207547,0.0747169811 8.17132075,2.56528302 15.0022642,8.35471698 C21.8332075,14.1441509 24.525283,20.7735849 24.525283,20.7735849 L30.7358491,14.354717 C30.7358491,14.354717 35.0943396,17.2233962 39.6475472,31.9245283 C44.2007547,46.6256604 41.7169811,49.4875472 41.7169811,49.4875472 L49.9969811,49.4875472 C49.9969811,49.4875472 50.4249057,51.1879245 46.6981132,64.6460377 C45.3448124,69.4925243 43.1582137,74.0664538 40.2362264,78.1630189 C42.4152778,74.6956301 44.0815706,70.9314099 45.1833962,66.9871698 L45.1833962,66.9871698 Z" id="Path"></path>
                        <path d="M30.9486792,85.1320755 C30.9486792,85.1320755 31.1750943,84.7675472 34.2588679,85.7366038 L42.5954717,90.5954717 C42.0903797,91.361681 41.5248021,92.0862563 40.9041509,92.7622642 L30.9486792,85.1320755 Z" id="Path"></path>
                    </g>
                    <path d="M101.402264,54.6822642 L107.773585,44.7516981 C107.773585,44.7516981 114.81283,47.2422642 121.643774,53.0316981 C128.474717,58.8211321 131.166792,65.4528302 131.166792,65.4528302 L137.377358,59.0339623 C137.377358,59.0339623 141.735849,61.9026415 146.289057,76.6037736 C150.842264,91.3049057 148.358491,94.1667925 148.358491,94.1667925 L156.638491,94.1667925 C156.638491,94.1667925 157.066415,95.8671698 153.339623,109.325283 C149.61283,122.783396 140.309434,130.058113 140.309434,130.058113 L149.236981,135.26566 C149.236981,135.26566 147.475472,138.152453 142.804528,141.861132 C128.600317,145.090024 113.703431,142.939426 100.992453,135.824906 L101.402264,54.6822642 Z" id="Path" fill="#FFFFFF" opacity="0.23" style="mix-blend-mode: overlay;"></path>
                    <path d="M101.30717,114.462642 L101.402264,54.6890566 L107.773585,44.7516981 C107.773585,44.7516981 114.81283,47.2422642 121.643774,53.0316981 C128.474717,58.8211321 131.166792,65.4528302 131.166792,65.4528302 L137.377358,59.0339623 C137.377358,59.0339623 141.735849,61.9026415 146.289057,76.6037736 C150.842264,91.3049057 148.358491,94.1667925 148.358491,94.1667925 L156.638491,94.1667925 C156.638491,94.1667925 157.066415,95.8671698 153.339623,109.325283 C153.163019,109.963774 152.968302,110.597736 152.766792,111.211321 C137.973874,122.92983 117.458218,124.226952 101.30717,114.464906 L101.30717,114.462642 Z" id="Path" fill="#FFFFFF" opacity="0.35" style="mix-blend-mode: overlay;"></path>
                    <path d="M101.619623,93.1909434 L101.393208,54.6822642 L107.773585,44.7516981 C107.773585,44.7516981 114.81283,47.2422642 121.643774,53.0316981 C128.474717,58.8211321 131.166792,65.4528302 131.166792,65.4528302 L137.377358,59.0339623 C137.377358,59.0339623 141.602264,61.8550943 146.085283,76.0150943 C138.165091,92.6330711 118.645096,100.172561 101.610566,93.1932075 L101.619623,93.1909434 Z" id="Path" fill="#FFFFFF" opacity="0.35" style="mix-blend-mode: overlay;"></path>
                    <path d="M126.566038,58.0671698 C122.129263,67.2116461 111.711182,71.7837063 101.977358,68.8581132 L101.402264,54.6822642 L107.773585,44.7516981 C107.773585,44.7516981 114.81283,47.2422642 121.643774,53.0316981 C123.439281,54.5516069 125.087342,56.2375722 126.566038,58.0671698 L126.566038,58.0671698 Z" id="Path" fill="#FFFFFF" opacity="0.2" style="mix-blend-mode: overlay;"></path>
                    <g id="Group" style="mix-blend-mode: overlay;" transform="translate(100.754717, 89.962264)" fill="#FFFFFF">
                        <path d="M47.6037736,2.7509434 C47.6037736,2.7509434 48.1290566,2.13283019 48.2535849,0.0339622642 C48.3022045,0.940204723 48.2764579,1.84890769 48.1766038,2.7509434 L47.6037736,2.7509434 Z" id="Path"></path>
                        <path d="M26.3841509,58.7841509 C39.1924528,53.7260377 45.3237736,47.4316981 47.5064151,44.7464151 L48.4822642,45.3169811 C48.4822642,45.3169811 43.1524528,54.0633962 26.3841509,60.6883019 C9.61584906,67.3132075 0,62.6445283 0,62.6445283 L0.0271698113,60.765283 C0.588679245,61.0279245 10.1320755,65.2075472 26.3841509,58.7841509 Z" id="Path" opacity="0.800000012"></path>
                        <path d="M39.6226415,40.1049057 L36.8467925,39.6520755 C36.8467925,39.6520755 48.8966038,30.9192453 52.6233962,17.4633962 C54.690566,9.99169811 55.4513208,6.14264151 55.7433962,4.19773585 L55.8950943,4.19773585 C55.8950943,4.19773585 56.3479245,5.89811321 52.6233962,19.3562264 C49.7411321,29.7283019 43.0822642,37.32 39.6226415,40.1049057 Z" id="Path" opacity="0.800000012"></path>
                    </g>
                    <polygon id="Path" fill="url(#linearGradient-7)" points="88.5124528 16.5358491 68.5267925 44.7969811 88.5124528 73.0558491 108.498113 44.7969811"></polygon>
                    <polygon id="Path" fill="#FFFFFF" opacity="0.49" style="mix-blend-mode: overlay;" points="88.5124528 19.2211321 107.54717 46.1396226 108.498113 44.7969811 88.5124528 16.5358491 68.5267925 44.7969811 69.4754717 46.1396226"></polygon>
                    <polygon id="Path" fill="#9C84B2" opacity="0.25" points="108.221887 44.7969811 88.6550943 16.8432599 88.3630189 72.8769811"></polygon>
                    <polygon id="Path" fill="#FFFFFF" opacity="0.49" style="mix-blend-mode: overlay;" points="88.6550943 16.7396226 88.5124528 16.5358491 69.1426415 43.9275472 86.3648731 31.0818895 88.3630189 50.9651611"></polygon>
                    <polygon id="Path" fill="#FFFFFF" points="87.3124528 38.9328302 88.5124528 52.1901037 89.9072493 38.9328302 88.6550943 16.8432599"></polygon>
                    <polygon id="Path" fill="url(#linearGradient-8)" points="126.02717 41.2875472 88.754717 66.3154717 119.22566 61.7033962"></polygon>
                    <polygon id="Path" fill="url(#linearGradient-9)" points="126.02717 41.2875472 88.754717 66.3154717 104.553962 39.8566038"></polygon>
                    <polygon id="Path" fill="#FFFFFF" opacity="0.61" style="mix-blend-mode: overlay;" points="126.02717 41.2875472 104.685283 39.8633962 119.266415 61.5811321"></polygon>
                    <polygon id="Path" fill="#FFFFFF" opacity="0.97" style="mix-blend-mode: overlay;" points="110.850566 49.9728302 104.685283 39.8633962 126.02717 41.2875472 88.754717 66.3154717"></polygon>
                    <polygon id="Path" fill="url(#linearGradient-10)" points="51.7607547 41.2875472 89.0332075 66.3154717 58.56 61.7033962"></polygon>
                    <polygon id="Path" fill="url(#linearGradient-11)" points="51.7607547 41.2875472 89.0332075 66.3154717 73.2339623 39.8566038"></polygon>
                    <polygon id="Path" fill="#FFFFFF" opacity="0.61" style="mix-blend-mode: overlay;" points="51.7607547 41.2875472 73.1026415 39.8633962 58.5192453 61.5811321"></polygon>
                    <polygon id="Path" fill="#FFFFFF" opacity="0.97" style="mix-blend-mode: overlay;" points="66.9373585 49.9728302 73.1026415 39.8633962 51.7607547 41.2875472 89.0332075 66.3154717"></polygon>
                    <path d="M89.0332075,53.269434 C60.2603774,53.269434 36.9396226,75.9449057 36.9396226,103.913962 C36.9396226,131.883019 60.2603774,154.565283 89.0332075,154.565283 C117.806038,154.565283 141.124528,131.887547 141.124528,103.913962 C141.124528,75.9403774 117.799245,53.269434 89.0332075,53.269434 Z" id="Path" fill="url(#linearGradient-12)"></path>
                    <path d="M88.8769811,152.29434 C60.4958491,152.29434 37.4196226,130.22566 36.8015094,102.777358 C36.8015094,103.155472 36.7856604,103.533585 36.7856604,103.909434 C36.7856604,131.883019 60.1064151,154.560755 88.8815094,154.560755 C117.656604,154.560755 140.968302,131.887547 140.968302,103.913962 C140.968302,103.533585 140.968302,103.155472 140.952453,102.781887 C140.332075,130.22566 117.253585,152.29434 88.8769811,152.29434 Z" id="Path" fill="#FFFFFF"></path>
                    <path d="M89.0332075,53.269434 C60.2603774,53.269434 36.9396226,75.9449057 36.9396226,103.913962 C36.9396226,104.532075 36.9667925,105.136604 36.9916981,105.750189 C50.2596226,117.32 68.5290566,124.474717 88.6958491,124.474717 C109.215849,124.474717 127.770566,117.066415 141.090566,105.13434 C141.101887,104.724528 141.124528,104.326038 141.124528,103.913962 C141.124528,75.9449057 117.799245,53.269434 89.0332075,53.269434 Z" id="Path" fill="#FFFFFF" opacity="0.35" style="mix-blend-mode: overlay;"></path>
                    <path d="M130.603019,73.2641509 C121.093585,61.1169811 106.061887,53.269434 89.1418868,53.269434 C72.0950943,53.269434 56.9615094,61.234717 47.4588679,73.5403774 C59.234717,80.6090566 73.4716981,84.754717 88.8067925,84.754717 C104.343396,84.754717 118.741132,80.5026415 130.603019,73.2641509 Z" id="Path" fill="#FFFFFF" opacity="0.49" style="mix-blend-mode: overlay;"></path>
                    <path d="M89.0332075,56.165283 C117.298868,56.165283 140.293585,78.0686792 141.083774,105.363019 C141.101887,104.883019 141.124528,104.400755 141.124528,103.913962 C141.124528,75.9449057 117.803774,53.269434 89.0332075,53.269434 C60.2626415,53.269434 36.9418868,75.9449057 36.9418868,103.913962 C36.9418868,104.400755 36.9667925,104.883019 36.9803774,105.363019 C37.7728302,78.0686792 60.7630189,56.165283 89.0332075,56.165283 Z" id="Path" fill="#FFFFFF" opacity="0.49" style="mix-blend-mode: overlay;"></path>
                    <path d="M82.0369811,56.5977358 C84.4618868,56.4120755 86.9615094,57.3358491 85.7501887,58.3886792 C84.5388679,59.4415094 76.3381132,64.1713208 72.7630189,61.2483019 C69.1879245,58.325283 79.1864151,56.8173585 82.0369811,56.5977358 Z" id="Path" fill="#FFFFFF"></path>
                    <path d="M53.8528302,69.4762264 C46.2611321,75.8611321 40.1298113,87.6596226 40.2837736,94.5539623 C40.4377358,101.448302 44.1328302,90.6301887 46.0211321,86.7064151 C47.909434,82.7826415 57.4324528,70.8211321 64.3222642,67.2007547 C71.2120755,63.5803774 65.7192453,59.4913208 53.8528302,69.4762264 Z" id="Path" fill="#FFFFFF"></path>
                    <path d="M89.0354717,66.2045283 C67.6437736,66.2045283 50.3026415,83.0679245 50.3026415,103.861887 C50.3026415,124.655849 67.6437736,141.523774 89.0354717,141.523774 C110.42717,141.523774 127.752453,124.662642 127.752453,103.861887 C127.752453,83.0611321 110.42717,66.2045283 89.0354717,66.2045283 Z" id="Path" fill="url(#linearGradient-13)"></path>
                    <g id="Logo_-CHplay-notifi" transform="translate(60.226415, 84.528302)" fill="#FFFFFF">
                        <path d="M36.6928302,2.5909434 C36.1076168,2.5909434 35.6332075,2.11653418 35.6332075,1.53132075 C35.6332075,0.946107329 36.1076168,0.471698113 36.6928302,0.471698113 L51.765283,0.471698113 L45.6701887,35.2128302 L37.3584906,35.2128302 L38.6309434,26.2422642 L42.2037736,10.5335849 L30.0996226,35.2128302 L24.6113208,35.2128302 L22.8679245,24.2498113 L24.7879245,24.2498113 C25.3286608,24.2506037 25.7828606,23.843289 25.8407547,23.3056604 L25.8407547,23.1901887 C25.8395094,22.6054919 25.3658289,22.1318114 24.7811321,22.130566 L22.5169811,22.130566 L20.6196226,10.0807547 L19.8181132,16.3524528 L19.7343396,16.3524528 L17.1192453,16.3524528 C16.5340319,16.3524528 16.0596226,16.826862 16.0596226,17.4120755 C16.0596226,17.9972889 16.5340319,18.4716981 17.1192453,18.4716981 L19.5486792,18.4716981 L18.3962264,27.514717 L18.1381132,28.9592453 L13.9471698,28.9592453 C13.4072258,28.9605215 12.9542041,29.3667796 12.8943396,29.9033962 L12.8943396,30.0188679 C12.895585,30.6035647 13.3692655,31.0772452 13.9539623,31.0784906 L17.7645283,31.0784906 L17.0173585,35.2128302 L8.74867925,35.2128302 L10.2158491,26.8354717 L3.62264151,26.8354717 C3.03742808,26.8354717 2.56301887,26.3610625 2.56301887,25.7758491 C2.56301887,25.1906356 3.03742808,24.7162264 3.62264151,24.7162264 L10.5871698,24.7162264 L11.1169811,21.6935849 L7.65735849,21.6935849 C7.07214507,21.6935849 6.59773585,21.2191757 6.59773585,20.6339623 C6.59773585,20.0487488 7.07214507,19.5743396 7.65735849,19.5743396 L11.490566,19.5743396 L12.2513208,15.2407547 L4.48528302,15.2407547 C4.09544168,15.2587896 3.72724161,15.0610796 3.52692777,14.7261529 C3.32661393,14.3912262 3.32661393,13.9733021 3.52692777,13.6383754 C3.72724161,13.3034487 4.09544168,13.1057387 4.48528302,13.1237736 L12.6226415,13.1237736 L13.3584906,8.94867925 L10.9358491,8.94867925 C10.3506356,8.94867925 9.87622642,8.47427003 9.87622642,7.8890566 C9.87622642,7.30384318 10.3506356,6.82943396 10.9358491,6.82943396 L26.4656604,6.82943396 L26.9049057,9.97433962 L26.8935849,9.97433962 L26.7781132,9.97433962 L24.5954717,9.97433962 C24.0102583,9.97433962 23.5358491,10.4487488 23.5358491,11.0339623 C23.5358491,11.6191757 24.0102583,12.0935849 24.5954717,12.0935849 L26.7781132,12.0935849 C26.9180228,12.093705 27.0565592,12.0659977 27.1856604,12.0120755 L28.9381132,24.5713208 L37.6256604,6.82490566 L32.1758491,6.82490566 C31.7860077,6.84294054 31.4178077,6.64523053 31.2174938,6.31030383 C31.01718,5.97537713 31.01718,5.55745306 31.2174938,5.22252636 C31.4178077,4.88759966 31.7860077,4.68988965 32.1758491,4.70792453 L40.8113208,4.70792453 C41.3965342,4.70792453 41.8709434,4.23351531 41.8709434,3.64830189 C41.8709434,3.06308846 41.3965342,2.58867925 40.8113208,2.58867925 L36.6928302,2.58867925 L36.6928302,2.5909434 Z M5.48377358,28.9524528 C6.06898701,28.9524528 6.54339623,29.426862 6.54339623,30.0120755 C6.54339623,30.5972889 6.06898701,31.0716981 5.48377358,31.0716981 L4.59169811,31.0716981 C4.00648469,31.0716981 3.53207547,30.5972889 3.53207547,30.0120755 C3.53207547,29.426862 4.00648469,28.9524528 4.59169811,28.9524528 L5.48377358,28.9524528 Z M6.82867925,6.78867925 C7.41389267,6.78867925 7.88830189,7.26308846 7.88830189,7.84830189 C7.88830189,8.43351531 7.41389267,8.90792453 6.82867925,8.90792453 L1.2045283,8.90792453 C0.619314876,8.90792453 0.14490566,8.43351531 0.14490566,7.84830189 C0.14490566,7.26308846 0.619314876,6.78867925 1.2045283,6.78867925 L6.82867925,6.78867925 Z M24.8422642,2.5909434 C25.4274776,2.5909434 25.9018868,3.06535261 25.9018868,3.65056604 C25.9018868,4.23577946 25.4274776,4.71018868 24.8422642,4.71018868 L13.7864151,4.71018868 C13.2012017,4.71018868 12.7267925,4.23577946 12.7267925,3.65056604 C12.7267925,3.06535261 13.2012017,2.5909434 13.7864151,2.5909434 L24.8422642,2.5909434 Z" id="Combined-Shape"></path>
                    </g>
                    <g id="Group" opacity="0.35" style="mix-blend-mode: overlay;" transform="translate(48.000000, 64.377358)" fill="#FFFFFF">
                        <path d="M40.9811321,79.6550943 C18.4301887,79.6550943 0.081509434,61.7909434 0.081509434,39.8377358 C0.081509434,17.8845283 18.4211321,0.0203773585 40.9811321,0.0203773585 C63.5411321,0.0203773585 81.869434,17.8867925 81.869434,39.8490566 C81.869434,61.8113208 63.5230189,79.6550943 40.9811321,79.6550943 Z M40.9811321,3.63396226 C20.4226415,3.63396226 3.69283019,19.874717 3.69283019,39.8377358 C3.69283019,59.8007547 20.4135849,76.0415094 40.9811321,76.0415094 C61.5486792,76.0415094 78.2558491,59.8007547 78.2558491,39.8490566 C78.2558491,19.8973585 61.530566,3.63396226 40.9811321,3.63396226 Z" id="Shape"></path>
                    </g>
                    <path d="M89.0354717,66.2042341 C78.1845601,66.1624838 67.8036515,70.6292513 60.3735849,78.5373585 C67.6048453,72.0260835 76.9998551,68.4378854 86.730566,68.4709434 C108.117736,68.4709434 125.447547,85.3275472 125.447547,106.128302 C125.443195,115.547967 121.840667,124.610172 115.376604,131.461887 C122.995472,124.581132 127.754721,114.766038 127.754721,103.861887 C127.763774,83.0679245 110.42717,66.2042341 89.0354717,66.2042341 Z" id="Path" fill="#9097A5"></path>
                    <path d="M64.9109434,126.138868 C64.9109434,101.835472 82.2520755,88.4815094 103.639245,88.4815094 C112.006894,88.4566838 120.163552,91.1062887 126.919245,96.0437736 C123.219623,78.9992453 107.673962,66.2045283 89.0286792,66.2045283 C67.6392453,66.2045283 50.2981132,83.0679245 50.2981132,103.861887 C50.2981132,116.172075 56.3683019,127.092075 65.7486792,133.975094 C65.1935464,131.399923 64.9127347,128.773195 64.9109434,126.138868 Z" id="Path" fill="#9C84B2" opacity="0.25"></path>
                    <path d="M89.0354717,139.467925 C68.0196226,139.467925 50.925283,123.184151 50.3366038,102.888302 C50.3207547,103.248302 50.3026415,103.608302 50.3026415,103.970566 C50.3026415,124.773585 67.6437736,141.630189 89.0354717,141.630189 C110.42717,141.630189 127.752453,124.773585 127.752453,103.970566 C127.752453,103.608302 127.738868,103.248302 127.727547,102.888302 C127.14566,123.184151 110.053585,139.467925 89.0354717,139.467925 Z" id="Path" fill="#FFFFFF"></path>
                    <path d="M42.7924528,127.54717 C42.7924528,127.54717 44.7350943,130.764528 46.8249057,133.793962 L57.6611321,126.867925 L42.7924528,127.54717 Z" id="Path" fill="#ADB2BB"></path>
                    <path d="M52.3675472,140.043019 L57.7811321,126.867925 L57.6611321,126.867925 L46.8203774,133.782642 C47.0332075,134.084528 47.2460377,134.386415 47.4588679,134.688302 C48.8683877,136.668501 50.5170956,138.467022 52.3675472,140.043019 L52.3675472,140.043019 Z" id="Path" fill="url(#linearGradient-14)"></path>
                    <polygon id="Path" fill="#FFFFFF" points="57.9215094 126.876981 53.9818868 141.523774 52.3675472 140.043019"></polygon>
                    <polygon id="Path" fill="#FFFFFF" points="42.4935849 126.399245 42.7879245 127.54717 57.9215094 126.876981"></polygon>
                    <path d="M134.490566,127.54717 C134.490566,127.54717 132.54566,130.764528 130.455849,133.793962 L119.615094,126.867925 L134.490566,127.54717 Z" id="Path" fill="#ADB2BB"></path>
                    <path d="M124.908679,140.043019 L119.495094,126.867925 L119.615094,126.867925 L130.453585,133.782642 C130.243774,134.084528 130.031698,134.386415 129.817358,134.688302 C128.407839,136.668501 126.759131,138.467022 124.908679,140.043019 Z" id="Path" fill="url(#linearGradient-15)"></path>
                    <polygon id="Path" fill="#FFFFFF" points="119.354717 126.876981 123.29434 141.523774 124.908679 140.043019"></polygon>
                    <polygon id="Path" fill="#FFFFFF" points="134.782642 126.399245 134.488302 127.54717 119.354717 126.876981"></polygon>
                    <g id="Group-4" transform="translate(59.000000, 41.000000)">
                        <path d="M16.4234857,5.578929 C7.35890345,5.578929 0.00731315556,12.4201905 0.00731315556,20.8673818 C0.00731315556,29.3145732 7.35890345,36.1486972 16.4234857,36.1486972 C25.4880679,36.1486972 32.8396582,29.3002983 32.8396582,20.8673818 C32.8396582,12.4344654 25.4809304,5.578929 16.4234857,5.578929 Z" id="Path" fill="url(#radialGradient-16)" style="mix-blend-mode: overlay;"></path>
                        <path d="M1.43123768,40.9878993 C5.83862313,36.0452039 18.7895557,20.8745193 18.7895557,20.8745193 C18.7895557,20.8745193 29.6063859,0.571996383 29.8707462,0.00099907891 C29.9418468,-0.159593913 16.0451999,19.0937215 16.0451999,19.0937215 L1.43123768,40.9878993 Z" id="Path" fill="#FFFFFF" opacity="0.7"></path>
                        <path d="M19.9922188,17.2415489 C16.0023752,14.1189074 16.726828,5.34339261 16.6947094,2.85955433 L16.6947094,5.23989935 C16.6947094,4.86161363 16.6661595,4.45120932 16.6661595,4.35842226 L16.6661595,2.85955433 C16.6514353,3.91101086 16.5763684,4.96075538 16.4413293,6.00360824 C16.4413293,6.00360824 15.2707849,14.8076729 13.1616636,16.6312956 C8.408111,20.7995759 -3.55785126,19.9966109 1.02797084,20.1036729 C16.5234102,20.4355651 16.5234102,35.5598562 16.6625908,40.5203953 L16.6625908,38.0222821 C16.6625908,38.2007188 16.6911406,38.3506055 16.6911406,38.4398239 L16.6911406,40.5168266 C17.0194641,28.7756945 16.980208,21.3455921 30.4985692,20.3534843 C34.9808981,20.0108859 24.6601218,20.8745193 19.9922188,17.2415489 Z" id="Path" fill="url(#radialGradient-17)"></path>
                    </g>
                    <polygon id="Path" fill="url(#linearGradient-18)" points="112.700377 136.375094 88.5101887 152.618113 108.287547 149.624906"></polygon>
                    <polygon id="Path" fill="url(#linearGradient-19)" points="112.700377 136.375094 88.5101887 152.618113 98.7645283 135.446792"></polygon>
                    <polygon id="Path" fill="#FFFFFF" opacity="0.61" style="mix-blend-mode: overlay;" points="112.700377 136.375094 98.8483019 135.451321 108.312453 149.54566"></polygon>
                    <polygon id="Path" fill="#FFFFFF" opacity="0.97" style="mix-blend-mode: overlay;" points="102.851321 142.010566 98.8483019 135.451321 112.700377 136.375094 88.5101887 152.618113"></polygon>
                    <polygon id="Path" fill="url(#linearGradient-20)" points="64.3426415 136.375094 88.5350943 152.618113 68.7577358 149.624906"></polygon>
                    <polygon id="Path" fill="url(#linearGradient-21)" points="64.3426415 136.375094 88.5350943 152.618113 78.2807547 135.446792"></polygon>
                    <polygon id="Path" fill="#FFFFFF" opacity="0.61" style="mix-blend-mode: overlay;" points="64.3426415 136.375094 78.194717 135.451321 68.730566 149.54566"></polygon>
                    <polygon id="Path" fill="#FFFFFF" opacity="0.97" style="mix-blend-mode: overlay;" points="74.1939623 142.010566 78.194717 135.451321 64.3426415 136.375094 88.5350943 152.618113"></polygon>
                    <polygon id="Path" fill="url(#linearGradient-22)" points="64.3426415 168.000755 88.5350943 151.757736 68.7577358 154.750943"></polygon>
                    <polygon id="Path" fill="url(#linearGradient-23)" points="64.3426415 168.000755 88.5350943 151.757736 78.2807547 168.929057"></polygon>
                    <polygon id="Path" fill="#FFFFFF" opacity="0.61" style="mix-blend-mode: overlay;" points="64.3426415 168.000755 78.194717 168.924528 68.730566 154.830189"></polygon>
                    <polygon id="Path" fill="#ADB2BB" points="74.7690566 163.823396 78.194717 168.924528 64.3426415 168.000755 73.4626415 161.878491"></polygon>
                    <polygon id="Path" fill="url(#linearGradient-24)" points="112.700377 168.000755 88.5101887 151.757736 108.287547 154.750943"></polygon>
                    <polygon id="Path" fill="url(#linearGradient-25)" points="112.700377 168.000755 88.5101887 151.757736 98.7645283 168.929057"></polygon>
                    <polygon id="Path" fill="#FFFFFF" opacity="0.61" style="mix-blend-mode: overlay;" points="112.700377 168.000755 98.850566 168.924528 108.312453 154.830189"></polygon>
                    <polygon id="Path" fill="#ADB2BB" points="102.629434 163.295849 98.850566 168.924528 112.700377 168.000755 103.582642 161.878491"></polygon>
                    <polygon id="Path" fill="url(#linearGradient-26)" points="88.5124528 138.779623 68.5267925 151.162264 88.5124528 163.54717 108.498113 151.162264"></polygon>
                    <polygon id="Path" fill="#FFFFFF" opacity="0.49" style="mix-blend-mode: overlay;" points="88.5124528 139.954717 107.54717 151.750943 108.498113 151.162264 88.5124528 138.779623 68.5267925 151.162264 69.4754717 151.750943"></polygon>
                    <polygon id="Path" fill="#9C84B2" opacity="0.25" points="88.3630189 163.467925 108.221887 151.162264 88.3630189 138.856604"></polygon>
                    <polygon id="Path" fill="#FFFFFF" opacity="0.49" style="mix-blend-mode: overlay;" points="88.5260377 163.295849 88.1479245 148.327547 88.5124528 138.779623 69.1426415 150.781887 81.9486792 154.198491"></polygon>
                    <polygon id="Path" fill="#FFFFFF" opacity="0.41" style="mix-blend-mode: overlay;" points="88.5124528 139.01283 68.5267925 151.162264 88.5124528 150.378868 108.498113 151.162264"></polygon>
                    <path d="M88.5283019,143.93283 C84.5298113,143.93283 81.2830189,147.084528 81.2830189,150.969811 C81.2830189,154.855094 84.525283,158.009057 88.5283019,158.009057 C92.5313208,158.009057 95.7735849,154.859623 95.7735849,150.969811 C95.7735849,147.08 92.5222642,143.93283 88.5283019,143.93283 Z" id="Path" fill="url(#linearGradient-27)"></path>
                    <g id="Group" opacity="0.35" style="mix-blend-mode: overlay;" transform="translate(80.830189, 143.396226)" fill="#FFFFFF">
                        <path d="M7.68226415,15.0815094 C3.46641509,15.0815094 0.038490566,11.7441509 0.038490566,7.64150943 C0.038490566,3.53886792 3.46641509,0.199245283 7.68226415,0.199245283 C11.8981132,0.199245283 15.3260377,3.53660377 15.3260377,7.64150943 C15.3260377,11.7464151 11.8958491,15.0815094 7.68226415,15.0815094 Z M7.68226415,0.876226415 C3.83320755,0.876226415 0.713207547,3.91018868 0.713207547,7.64150943 C0.713207547,11.3728302 3.84,14.4067925 7.68226415,14.4067925 C11.5245283,14.4067925 14.6490566,11.370566 14.6490566,7.64150943 C14.6490566,3.91245283 11.5245283,0.876226415 7.68226415,0.876226415 Z" id="Shape"></path>
                    </g>
                    <path d="M88.5283019,143.932781 C86.5003529,143.925401 84.5603141,144.760126 83.1713208,146.237736 C84.5234549,145.02133 86.2793552,144.350763 88.0981132,144.356226 C92.0943396,144.356226 95.3433962,147.507925 95.3433962,151.395472 C95.3429911,153.155793 94.669914,154.84942 93.4618868,156.129811 C94.9309313,154.816632 95.7715686,152.940224 95.7735849,150.969811 C95.7735849,147.084528 92.5222642,143.932781 88.5283019,143.932781 Z" id="Path" fill="#9097A5"></path>
                    <path d="M84.0135849,155.133585 C84.0135849,150.591698 87.2558491,148.096604 91.2588679,148.096604 C92.8206879,148.092717 94.3429353,148.587705 95.6037736,149.509434 C94.9132075,146.323774 92.0037736,143.93283 88.5215094,143.93283 C84.525283,143.93283 81.2762264,147.084528 81.2762264,150.969811 C81.2830109,153.199636 82.3570877,155.291392 84.165283,156.596226 C84.0628383,156.115463 84.0119844,155.62514 84.0135849,155.133585 L84.0135849,155.133585 Z" id="Path" fill="#9C84B2" opacity="0.25"></path>
                </g>
            </g>
        </g>
    </g>
</svg>