<?xml version="1.0" encoding="UTF-8"?>
<svg width="375px" height="784px" viewBox="0 0 375 784" version="1.1" xmlns="http://www.w3.org/2000/svg" xmlns:xlink="http://www.w3.org/1999/xlink">
    <title>B04D9F17-356D-487D-991A-FFEF0437BE9C</title>
    <defs>
        <linearGradient x1="38.5606746%" y1="100%" x2="61.4393254%" y2="0%" id="linearGradient-1">
            <stop stop-color="#0B0041" offset="0%"></stop>
            <stop stop-color="#0A0049" offset="100%"></stop>
            <stop stop-color="#2400FF" offset="100%"></stop>
        </linearGradient>
        <rect id="path-2" x="0" y="0" width="375" height="784"></rect>
        <linearGradient x1="50%" y1="0%" x2="50%" y2="100%" id="linearGradient-4">
            <stop stop-color="#0B2382" offset="0%"></stop>
            <stop stop-color="#000C39" offset="100%"></stop>
        </linearGradient>
        <rect id="path-5" x="0" y="0" width="375" height="784"></rect>
        <radialGradient cx="91.8571929%" cy="61.3711794%" fx="91.8571929%" fy="61.3711794%" r="69.7136646%" gradientTransform="translate(0.918572,0.613712),scale(1.000000,0.855268),translate(-0.918572,-0.613712)" id="radialGradient-6">
            <stop stop-color="#D7DFFF" offset="0%"></stop>
            <stop stop-color="#C7CDE5" stop-opacity="0.2" offset="7.47881499%"></stop>
            <stop stop-color="#D7DFFF" stop-opacity="0" offset="100%"></stop>
        </radialGradient>
        <radialGradient cx="93.5957649%" cy="73.4525979%" fx="93.5957649%" fy="73.4525979%" r="84.3971125%" gradientTransform="translate(0.935958,0.734526),scale(1.000000,0.855268),translate(-0.935958,-0.734526)" id="radialGradient-7">
            <stop stop-color="#D7DFFF" offset="0%"></stop>
            <stop stop-color="#C7CDE5" stop-opacity="0.2" offset="7.87559787%"></stop>
            <stop stop-color="#D7DFFF" stop-opacity="0" offset="100%"></stop>
        </radialGradient>
        <linearGradient x1="24.1491962%" y1="0%" x2="87.122078%" y2="64.8847348%" id="linearGradient-8">
            <stop stop-color="#0B227E" offset="0%"></stop>
            <stop stop-color="#B18CFF" offset="100%"></stop>
        </linearGradient>
        <linearGradient x1="25.3550908%" y1="14.4585745%" x2="87.122078%" y2="50%" id="linearGradient-9">
            <stop stop-color="#010D3F" offset="0%"></stop>
            <stop stop-color="#B18CFF" offset="100%"></stop>
        </linearGradient>
        <radialGradient cx="50%" cy="45.172481%" fx="50%" fy="45.172481%" r="55.6490073%" gradientTransform="translate(0.500000,0.451725),scale(0.950188,1.000000),rotate(99.857012),translate(-0.500000,-0.451725)" id="radialGradient-10">
            <stop stop-color="#FFFFFF" offset="0%"></stop>
            <stop stop-color="#FFFFFF" stop-opacity="0" offset="100%"></stop>
        </radialGradient>
        <radialGradient cx="50%" cy="54.7042678%" fx="50%" fy="54.7042678%" r="147.066226%" gradientTransform="translate(0.500000,0.547043),scale(1.000000,0.679966),rotate(90.000000),translate(-0.500000,-0.547043)" id="radialGradient-11">
            <stop stop-color="#FFFFFF" offset="0%"></stop>
            <stop stop-color="#FFFFFF" stop-opacity="0" offset="100%"></stop>
        </radialGradient>
        <radialGradient cx="50%" cy="45.172481%" fx="50%" fy="45.172481%" r="84.9080166%" gradientTransform="translate(0.500000,0.451725),scale(1.000000,0.822256),rotate(81.607767),translate(-0.500000,-0.451725)" id="radialGradient-12">
            <stop stop-color="#FFFFFF" offset="0%"></stop>
            <stop stop-color="#FFFFFF" stop-opacity="0.87847642" offset="30.4274375%"></stop>
            <stop stop-color="#FFFFFF" stop-opacity="0" offset="100%"></stop>
        </radialGradient>
    </defs>
    <g id="Master-mfast" stroke="none" stroke-width="1" fill="none" fill-rule="evenodd">
        <g id="Master/-BG">
            <mask id="mask-3" fill="white">
                <use xlink:href="#path-2"></use>
            </mask>
            <use id="Mask" fill="url(#linearGradient-1)" fill-rule="nonzero" xlink:href="#path-2"></use>
            <g id="Rectangle" mask="url(#mask-3)">
                <use fill="url(#linearGradient-4)" xlink:href="#path-5"></use>
                <use fill="#00033F" xlink:href="#path-5"></use>
            </g>
            <path d="M374.59,-48 C374.59,-48 332.26,2.13 269.16,76.92 L263.27,83.92 C260.296667,87.4533333 257.296667,91.0266667 254.27,94.64 L248.11,101.94 L244.99,105.64 C242.89,108.12 240.78,110.616667 238.66,113.13 C234.413333,118.17 230.1,123.28 225.72,128.46 C219.14,136.226667 212.44,144.156667 205.62,152.25 C199.933333,158.99 194.163333,165.823333 188.31,172.75 L159.7,206.61 C17.6,374.73 -156.88,581 -238.25,676.44 L-245,676.44 L-245,-48 L374.59,-48 Z" id="Path" fill="url(#radialGradient-6)" fill-rule="nonzero" opacity="0.800000012" mask="url(#mask-3)"></path>
            <path d="M591.59,138 C591.59,138 549.26,188.13 486.16,262.92 L480.27,269.92 C477.296667,273.453333 474.296667,277.026667 471.27,280.64 L465.11,287.94 L461.99,291.64 C459.89,294.12 457.78,296.616667 455.66,299.13 C451.413333,304.17 447.1,309.28 442.72,314.46 C436.14,322.226667 429.44,330.156667 422.62,338.25 C416.933333,344.99 411.163333,351.823333 405.31,358.75 L376.7,392.61 C234.6,560.73 60.12,767 -21.25,862.44 L-28,862.44 L-28,138 L591.59,138 Z" id="Path-Copy" fill="url(#radialGradient-7)" fill-rule="nonzero" opacity="0.900000036" mask="url(#mask-3)" transform="translate(281.795000, 500.220000) scale(-1, -1) translate(-281.795000, -500.220000) "></path>
            <path d="M352,56 L352,56.339 L352.291497,56 L355,56 L0,468 L0,465.998038 L350.572,58 L0,58 L0,56 L352,56 Z" id="Combined-Shape" fill="url(#linearGradient-8)" opacity="0.100000001" mask="url(#mask-3)"></path>
            <path d="M372,318 L372,318.339 L372.291497,318 L375,318 L20,730 L20,727.998038 L370.572,320 L20,320 L20,318 L372,318 Z" id="Combined-Shape-Copy" fill="url(#linearGradient-9)" opacity="0.200000003" mask="url(#mask-3)" transform="translate(197.500000, 524.000000) scale(-1, -1) translate(-197.500000, -524.000000) "></path>
            <g id="Group" opacity="0.08" mask="url(#mask-3)" fill="#FFFFFF" fill-rule="nonzero">
                <g transform="translate(-462.000000, -203.000000)" id="Rectangle">
                    <rect transform="translate(323.409824, 374.686798) rotate(-49.200000) translate(-323.409824, -374.686798) " x="-170.150176" y="373.686798" width="987.12" height="2"></rect>
                    <rect transform="translate(338.400115, 387.624705) rotate(-49.200000) translate(-338.400115, -387.624705) " x="-155.159885" y="386.624705" width="987.12" height="2"></rect>
                    <rect transform="translate(353.390406, 400.562611) rotate(-49.200000) translate(-353.390406, -400.562611) " x="-140.169594" y="399.562611" width="987.12" height="2"></rect>
                    <rect transform="translate(368.366593, 413.491554) rotate(-49.200000) translate(-368.366593, -413.491554) " x="-125.193407" y="412.491554" width="987.12" height="2"></rect>
                    <rect transform="translate(383.356884, 426.429461) rotate(-49.200000) translate(-383.356884, -426.429461) " x="-110.203116" y="425.429461" width="987.12" height="2"></rect>
                    <rect transform="translate(398.347174, 439.367367) rotate(-49.200000) translate(-398.347174, -439.367367) " x="-95.2128256" y="438.367367" width="987.12" height="2"></rect>
                </g>
            </g>
            <g id="Group-Copy" opacity="0.100000001" mask="url(#mask-3)" fill="#FFFFFF" fill-rule="nonzero">
                <g transform="translate(-78.000000, 387.000000)" id="Rectangle">
                    <rect transform="translate(323.531949, 375.245996) rotate(-49.200000) translate(-323.531949, -375.245996) " x="-170.028051" y="374.245996" width="987.12" height="2"></rect>
                    <rect transform="translate(338.515705, 388.191473) rotate(-49.200000) translate(-338.515705, -388.191473) " x="-155.044295" y="387.191473" width="987.12" height="2"></rect>
                    <rect transform="translate(353.505996, 401.129379) rotate(-49.200000) translate(-353.505996, -401.129379) " x="-140.054004" y="400.129379" width="987.12" height="2"></rect>
                    <rect transform="translate(368.488717, 414.060752) rotate(-49.200000) translate(-368.488717, -414.060752) " x="-125.071283" y="413.060752" width="987.12" height="2"></rect>
                    <rect transform="translate(383.479008, 426.998658) rotate(-49.200000) translate(-383.479008, -426.998658) " x="-110.080992" y="425.998658" width="987.12" height="2"></rect>
                    <rect transform="translate(398.462765, 439.934135) rotate(-49.200000) translate(-398.462765, -439.934135) " x="-95.0972352" y="438.934135" width="987.12" height="2"></rect>
                </g>
            </g>
            <g id="Master/-icons/-light-star" opacity="0.600000024" mask="url(#mask-3)">
                <g transform="translate(77.000000, 41.000000)">
                    <path d="M12.8160677,4.44702029 C5.74073378,4.44702029 0.00220098115,9.89727515 0.00220098115,16.6255711 C0.00220098115,23.353867 5.74073378,28.7968354 12.8160677,28.7968354 C19.8914015,28.7968354 25.6285061,23.3422087 25.6285061,16.6255711 C25.6285061,9.90893345 19.8885451,4.44702029 12.8160677,4.44702029 Z" id="Path" fill="url(#radialGradient-10)" fill-rule="nonzero"></path>
                    <path d="M1.11477367,32.6469887 C4.55246616,28.7123127 14.6641666,16.6255711 14.6641666,16.6255711 C14.6641666,16.6255711 23.1091503,0.449680969 23.3133837,0.000836451539 C23.370512,-0.130319414 12.520429,15.2061731 12.520429,15.2061731 L1.11477367,32.6469887 Z" id="Path" fill="url(#radialGradient-11)" fill-rule="nonzero" opacity="0.7"></path>
                    <path d="M15.6024981,13.7313983 C12.4875802,11.2438087 13.0545781,4.25903022 13.0317268,2.27566208 L13.0317268,4.17013569 C13.0317268,3.8684772 13.0074473,3.54058753 13.0074473,3.46918045 L13.0074473,2.27420479 C12.9979966,3.11147997 12.9402927,3.9474633 12.8346343,4.77782453 C12.8346343,4.77782453 11.9205823,11.7932061 10.2738605,13.243207 C6.56052418,16.564365 -2.77851663,15.9246158 0.8034247,16.0120531 C12.9003318,16.2772794 12.9003318,28.323217 13.0074473,32.2753804 L13.0074473,30.2861831 C13.0174447,30.4319118 13.0317268,30.5484948 13.0317268,30.6184446 L13.0317268,32.2753804 C13.2873757,22.9210526 13.2573834,17.0030085 23.8103995,16.2131587 C27.3023639,15.9391887 19.2472805,16.6255711 15.6024981,13.7313983 Z" id="Path" fill="url(#radialGradient-12)" fill-rule="nonzero"></path>
                </g>
            </g>
            <g id="Master/-icons/-light-star-Copy-3" opacity="0.300000012" mask="url(#mask-3)">
                <g transform="translate(210.000000, 712.000000)" id="Master/-icons/-light-star">
                    <path d="M12.8160677,4.44702029 C5.74073378,4.44702029 0.00220098115,9.89727515 0.00220098115,16.6255711 C0.00220098115,23.353867 5.74073378,28.7968354 12.8160677,28.7968354 C19.8914015,28.7968354 25.6285061,23.3422087 25.6285061,16.6255711 C25.6285061,9.90893345 19.8885451,4.44702029 12.8160677,4.44702029 Z" id="Path" fill="url(#radialGradient-10)" fill-rule="nonzero"></path>
                    <path d="M1.11477367,32.6469887 C4.55246616,28.7123127 14.6641666,16.6255711 14.6641666,16.6255711 C14.6641666,16.6255711 23.1091503,0.449680969 23.3133837,0.000836451539 C23.370512,-0.130319414 12.520429,15.2061731 12.520429,15.2061731 L1.11477367,32.6469887 Z" id="Path" fill="url(#radialGradient-11)" fill-rule="nonzero" opacity="0.7"></path>
                    <path d="M15.6024981,13.7313983 C12.4875802,11.2438087 13.0545781,4.25903022 13.0317268,2.27566208 L13.0317268,4.17013569 C13.0317268,3.8684772 13.0074473,3.54058753 13.0074473,3.46918045 L13.0074473,2.27420479 C12.9979966,3.11147997 12.9402927,3.9474633 12.8346343,4.77782453 C12.8346343,4.77782453 11.9205823,11.7932061 10.2738605,13.243207 C6.56052418,16.564365 -2.77851663,15.9246158 0.8034247,16.0120531 C12.9003318,16.2772794 12.9003318,28.323217 13.0074473,32.2753804 L13.0074473,30.2861831 C13.0174447,30.4319118 13.0317268,30.5484948 13.0317268,30.6184446 L13.0317268,32.2753804 C13.2873757,22.9210526 13.2573834,17.0030085 23.8103995,16.2131587 C27.3023639,15.9391887 19.2472805,16.6255711 15.6024981,13.7313983 Z" id="Path" fill="url(#radialGradient-12)" fill-rule="nonzero"></path>
                </g>
            </g>
            <g id="Master/-icons/-light-star-Copy-4" opacity="0.600000024" mask="url(#mask-3)">
                <g transform="translate(324.000000, 670.000000)" id="Master/-icons/-light-star">
                    <path d="M12.8160677,4.44702029 C5.74073378,4.44702029 0.00220098115,9.89727515 0.00220098115,16.6255711 C0.00220098115,23.353867 5.74073378,28.7968354 12.8160677,28.7968354 C19.8914015,28.7968354 25.6285061,23.3422087 25.6285061,16.6255711 C25.6285061,9.90893345 19.8885451,4.44702029 12.8160677,4.44702029 Z" id="Path" fill="url(#radialGradient-10)" fill-rule="nonzero"></path>
                    <path d="M1.11477367,32.6469887 C4.55246616,28.7123127 14.6641666,16.6255711 14.6641666,16.6255711 C14.6641666,16.6255711 23.1091503,0.449680969 23.3133837,0.000836451539 C23.370512,-0.130319414 12.520429,15.2061731 12.520429,15.2061731 L1.11477367,32.6469887 Z" id="Path" fill="url(#radialGradient-11)" fill-rule="nonzero" opacity="0.7"></path>
                    <path d="M15.6024981,13.7313983 C12.4875802,11.2438087 13.0545781,4.25903022 13.0317268,2.27566208 L13.0317268,4.17013569 C13.0317268,3.8684772 13.0074473,3.54058753 13.0074473,3.46918045 L13.0074473,2.27420479 C12.9979966,3.11147997 12.9402927,3.9474633 12.8346343,4.77782453 C12.8346343,4.77782453 11.9205823,11.7932061 10.2738605,13.243207 C6.56052418,16.564365 -2.77851663,15.9246158 0.8034247,16.0120531 C12.9003318,16.2772794 12.9003318,28.323217 13.0074473,32.2753804 L13.0074473,30.2861831 C13.0174447,30.4319118 13.0317268,30.5484948 13.0317268,30.6184446 L13.0317268,32.2753804 C13.2873757,22.9210526 13.2573834,17.0030085 23.8103995,16.2131587 C27.3023639,15.9391887 19.2472805,16.6255711 15.6024981,13.7313983 Z" id="Path" fill="url(#radialGradient-12)" fill-rule="nonzero"></path>
                </g>
            </g>
            <g id="Master/-icons/-light-star-Copy" opacity="0.600000024" mask="url(#mask-3)">
                <g transform="translate(286.000000, 103.000000)" id="Master/-icons/-light-star">
                    <path d="M12.8160677,4.44702029 C5.74073378,4.44702029 0.00220098115,9.89727515 0.00220098115,16.6255711 C0.00220098115,23.353867 5.74073378,28.7968354 12.8160677,28.7968354 C19.8914015,28.7968354 25.6285061,23.3422087 25.6285061,16.6255711 C25.6285061,9.90893345 19.8885451,4.44702029 12.8160677,4.44702029 Z" id="Path" fill="url(#radialGradient-10)" fill-rule="nonzero"></path>
                    <path d="M1.11477367,32.6469887 C4.55246616,28.7123127 14.6641666,16.6255711 14.6641666,16.6255711 C14.6641666,16.6255711 23.1091503,0.449680969 23.3133837,0.000836451539 C23.370512,-0.130319414 12.520429,15.2061731 12.520429,15.2061731 L1.11477367,32.6469887 Z" id="Path" fill="url(#radialGradient-11)" fill-rule="nonzero" opacity="0.7"></path>
                    <path d="M15.6024981,13.7313983 C12.4875802,11.2438087 13.0545781,4.25903022 13.0317268,2.27566208 L13.0317268,4.17013569 C13.0317268,3.8684772 13.0074473,3.54058753 13.0074473,3.46918045 L13.0074473,2.27420479 C12.9979966,3.11147997 12.9402927,3.9474633 12.8346343,4.77782453 C12.8346343,4.77782453 11.9205823,11.7932061 10.2738605,13.243207 C6.56052418,16.564365 -2.77851663,15.9246158 0.8034247,16.0120531 C12.9003318,16.2772794 12.9003318,28.323217 13.0074473,32.2753804 L13.0074473,30.2861831 C13.0174447,30.4319118 13.0317268,30.5484948 13.0317268,30.6184446 L13.0317268,32.2753804 C13.2873757,22.9210526 13.2573834,17.0030085 23.8103995,16.2131587 C27.3023639,15.9391887 19.2472805,16.6255711 15.6024981,13.7313983 Z" id="Path" fill="url(#radialGradient-12)" fill-rule="nonzero"></path>
                </g>
            </g>
            <g id="Master/-icons/-light-star-Copy-2" opacity="0.600000024" mask="url(#mask-3)">
                <g transform="translate(75.000000, 637.000000)" id="Master/-icons/-light-star">
                    <path d="M12.8160677,4.44702029 C5.74073378,4.44702029 0.00220098115,9.89727515 0.00220098115,16.6255711 C0.00220098115,23.353867 5.74073378,28.7968354 12.8160677,28.7968354 C19.8914015,28.7968354 25.6285061,23.3422087 25.6285061,16.6255711 C25.6285061,9.90893345 19.8885451,4.44702029 12.8160677,4.44702029 Z" id="Path" fill="url(#radialGradient-10)" fill-rule="nonzero"></path>
                    <path d="M1.11477367,32.6469887 C4.55246616,28.7123127 14.6641666,16.6255711 14.6641666,16.6255711 C14.6641666,16.6255711 23.1091503,0.449680969 23.3133837,0.000836451539 C23.370512,-0.130319414 12.520429,15.2061731 12.520429,15.2061731 L1.11477367,32.6469887 Z" id="Path" fill="url(#radialGradient-11)" fill-rule="nonzero" opacity="0.7"></path>
                    <path d="M15.6024981,13.7313983 C12.4875802,11.2438087 13.0545781,4.25903022 13.0317268,2.27566208 L13.0317268,4.17013569 C13.0317268,3.8684772 13.0074473,3.54058753 13.0074473,3.46918045 L13.0074473,2.27420479 C12.9979966,3.11147997 12.9402927,3.9474633 12.8346343,4.77782453 C12.8346343,4.77782453 11.9205823,11.7932061 10.2738605,13.243207 C6.56052418,16.564365 -2.77851663,15.9246158 0.8034247,16.0120531 C12.9003318,16.2772794 12.9003318,28.323217 13.0074473,32.2753804 L13.0074473,30.2861831 C13.0174447,30.4319118 13.0317268,30.5484948 13.0317268,30.6184446 L13.0317268,32.2753804 C13.2873757,22.9210526 13.2573834,17.0030085 23.8103995,16.2131587 C27.3023639,15.9391887 19.2472805,16.6255711 15.6024981,13.7313983 Z" id="Path" fill="url(#radialGradient-12)" fill-rule="nonzero"></path>
                </g>
            </g>
        </g>
    </g>
</svg>