<?xml version="1.0" encoding="UTF-8"?>
<svg width="92px" height="86px" viewBox="0 0 92 86" version="1.1" xmlns="http://www.w3.org/2000/svg" xmlns:xlink="http://www.w3.org/1999/xlink">
    <title>888752AC-2577-4D18-B261-EF6CB87B4FF3</title>
    <defs>
        <linearGradient x1="49.4671962%" y1="4.36055651%" x2="51.6444012%" y2="101.219521%" id="linearGradient-1">
            <stop stop-color="#F7E436" offset="0%"></stop>
            <stop stop-color="#CE7C1D" offset="100%"></stop>
        </linearGradient>
        <linearGradient x1="50.6626925%" y1="4.39365371%" x2="48.5340018%" y2="101.252619%" id="linearGradient-2">
            <stop stop-color="#F7E436" offset="0%"></stop>
            <stop stop-color="#CE7C1D" offset="100%"></stop>
        </linearGradient>
        <linearGradient x1="47.7942455%" y1="-1.07748847%" x2="51.9732267%" y2="95.6153733%" id="linearGradient-3">
            <stop stop-color="#F7E436" offset="0%"></stop>
            <stop stop-color="#CE7C1D" offset="100%"></stop>
        </linearGradient>
        <linearGradient x1="58.5800719%" y1="90.4732656%" x2="45.140736%" y2="27.0720006%" id="linearGradient-4">
            <stop stop-color="#F7E436" offset="0%"></stop>
            <stop stop-color="#D58D21" offset="100%"></stop>
        </linearGradient>
        <linearGradient x1="72.1334818%" y1="69.4172254%" x2="8.93675918%" y2="-53.7218498%" id="linearGradient-5">
            <stop stop-color="#F7E436" offset="0%"></stop>
            <stop stop-color="#CE7C1D" offset="100%"></stop>
        </linearGradient>
        <linearGradient x1="27.7841938%" y1="69.4172254%" x2="91.0070415%" y2="-53.7218498%" id="linearGradient-6">
            <stop stop-color="#F7E436" offset="0%"></stop>
            <stop stop-color="#CE7C1D" offset="100%"></stop>
        </linearGradient>
        <radialGradient cx="50%" cy="45.172481%" fx="50%" fy="45.172481%" r="70.3674281%" gradientTransform="translate(0.500000,0.451725),scale(0.920812,1.000000),rotate(78.974112),translate(-0.500000,-0.451725)" id="radialGradient-7">
            <stop stop-color="#FFFFFF" offset="0%"></stop>
            <stop stop-color="#FFFFFF" stop-opacity="0.87847642" offset="30.4274375%"></stop>
            <stop stop-color="#FFFFFF" stop-opacity="0" offset="100%"></stop>
        </radialGradient>
        <radialGradient cx="50%" cy="54.7042678%" fx="50%" fy="54.7042678%" r="142.482824%" gradientTransform="translate(0.500000,0.547043),scale(1.000000,0.701839),rotate(90.000000),translate(-0.500000,-0.547043)" id="radialGradient-8">
            <stop stop-color="#FFFFFF" offset="0%"></stop>
            <stop stop-color="#FFFFFF" stop-opacity="0" offset="100%"></stop>
        </radialGradient>
        <radialGradient cx="50%" cy="45.172481%" fx="50%" fy="45.172481%" r="82.2888288%" gradientTransform="translate(0.500000,0.451725),scale(1.000000,0.849025),rotate(81.338628),translate(-0.500000,-0.451725)" id="radialGradient-9">
            <stop stop-color="#FFFFFF" offset="0%"></stop>
            <stop stop-color="#FFFFFF" stop-opacity="0.87847642" offset="30.4274375%"></stop>
            <stop stop-color="#FFFFFF" stop-opacity="0" offset="100%"></stop>
        </radialGradient>
    </defs>
    <g id="Master-mfast" stroke="none" stroke-width="1" fill="none" fill-rule="evenodd">
        <g id="Master-Mfast-1.1" transform="translate(-143.000000, -52.000000)" fill-rule="nonzero">
            <g id="Group-9" transform="translate(16.000000, 52.000000)">
                <g id="Master/-avatar" transform="translate(127.000000, 0.000000)">
                    <g id="Group-31" transform="translate(0.163353, 0.667249)">
                        <path d="M43.6457317,82.0521517 C43.6457317,82.0521517 36.1610407,85.5905432 23.1213744,80.5573232 C10.081708,75.5241031 5.93528426,68.8756426 5.93528426,68.8756426 L12.8794436,64.9192496 C12.8794436,64.9192496 5.6447705,59.3854598 2.7466756,49.1624842 C-0.151419296,38.9395085 0.176068949,37.6476602 0.176068949,37.6476602 L6.62019247,37.6476602 C6.62019247,37.6476602 4.68343404,35.4682037 8.23122336,24.3025744 C11.7790127,13.1369451 15.1524937,10.9471676 15.1524937,10.9471676 L19.982065,15.8255722 C19.982065,15.8255722 22.0755248,10.7957925 27.387525,6.39215505 C32.6995252,1.98851755 38.1735088,0.103210254 38.1735088,0.103210254 L44.6088289,9.08594267 L43.6457317,82.0521517 Z" id="Path" fill="url(#linearGradient-1)"></path>
                        <g id="Group" opacity="0.6" style="mix-blend-mode: overlay;" fill="#FFFFFF">
                            <path d="M3.92457687,50.9445812 C1.02824266,40.7216056 1.35925228,39.4848027 1.35925228,39.4848027 L7.79809374,39.4848027 C7.79809374,39.4848027 5.86133531,37.2485806 9.40912462,26.0846715 C12.9569139,14.9207623 16.330395,12.7000217 16.330395,12.7000217 L21.1599663,17.5681053 C21.1599663,17.5681053 23.2534261,12.531445 28.5654263,8.12780748 C31.7103008,5.53657555 35.2541732,3.44664541 39.0661784,1.93519226 L38.1735088,0.103210254 C38.1735088,0.103210254 32.6995252,1.99539824 27.387525,6.39387522 C22.0755248,10.7923522 19.982065,15.8307327 19.982065,15.8307327 L15.1524937,10.9523281 C15.1524937,10.9523281 11.7719699,13.1317846 8.23122336,24.2991341 C4.6904768,35.4664835 6.62019247,37.6442199 6.62019247,37.6442199 L0.176068949,37.6442199 C0.176068949,37.6442199 -0.154940675,38.9360682 2.74139353,49.1590438 C3.7939869,52.84189 5.49498583,56.3175222 7.76816202,59.4301842 C6.07464191,56.7976314 4.78002724,53.9394702 3.92457687,50.9445812 Z" id="Path"></path>
                            <path d="M14.9957924,64.7265904 C14.9957924,64.7265904 14.8197234,64.4496429 12.4199036,65.1858761 L5.93528426,68.8756426 C6.32939819,69.4589035 6.76974818,70.0110527 7.25228,70.5270067 L14.9957924,64.7265904 Z" id="Path"></path>
                        </g>
                        <path d="M44.6088289,9.08766284 L38.1735088,0.104930425 C38.1735088,0.104930425 32.6995252,1.99711841 27.387525,6.39731556 C22.0755248,10.7975127 19.982065,15.8255722 19.982065,15.8255722 L15.1524937,10.9488877 C15.1524937,10.9488877 11.7719699,13.1283443 8.23122336,24.2956937 C4.6904768,35.4630432 6.62019247,37.6407795 6.62019247,37.6407795 L0.176068949,37.6407795 C0.176068949,37.6407795 -0.154940675,38.9326279 2.74139353,49.1556035 C5.63772774,59.3785791 12.8741615,64.9089285 12.8741615,64.9089285 L5.9300022,68.8653216 C5.9300022,68.8653216 7.30157931,71.0585395 10.932121,73.8761794 C21.9793853,76.3337987 33.56701,74.7016339 43.4538166,69.2953643 L44.6088289,9.08766284 Z" id="Path" fill="#FFFFFF" opacity="0.23" style="mix-blend-mode: overlay;"></path>
                        <path d="M43.2090807,53.0689923 L44.6088289,9.08766284 L38.1735088,0.104930425 C38.1735088,0.104930425 32.6995252,1.99711841 27.387525,6.39731556 C22.0755248,10.7975127 19.982065,15.8255722 19.982065,15.8255722 L15.1524937,10.9488877 C15.1524937,10.9488877 11.7719699,13.1283443 8.23122336,24.2956937 C4.6904768,35.4630432 6.62019247,37.6407795 6.62019247,37.6407795 L0.176068949,37.6407795 C0.176068949,37.6407795 -0.154940675,38.9326279 2.74139353,49.1556035 C2.880488,49.6424119 3.03014661,50.1240597 3.18508728,50.5885058 C14.6886044,59.4928807 30.643354,60.4790634 43.2037987,53.0621116 L43.2090807,53.0689923 Z" id="Path" fill="#FFFFFF" opacity="0.35" style="mix-blend-mode: overlay;"></path>
                        <path d="M42.9608235,36.9079867 L44.6035468,9.08766284 L38.1682267,0.104930425 C38.1682267,0.104930425 32.6942431,1.99711841 27.3822429,6.39731556 C22.0702427,10.7975127 19.982065,15.8255722 19.982065,15.8255722 L15.1524937,10.9488877 C15.1524937,10.9488877 11.8670471,13.0922207 8.38088196,23.8501695 C14.5397945,36.4727125 29.7136948,42.2025665 42.9608235,36.9079867 Z" id="Path" fill="#FFFFFF" opacity="0.35" style="mix-blend-mode: overlay;"></path>
                        <path d="M23.5738716,10.2212555 C27.0251542,17.1639136 35.1204361,20.6368443 42.6879166,18.4213101 L44.6088289,9.08766284 L38.1735088,0.104930425 C38.1735088,0.104930425 32.6995252,1.99711841 27.387525,6.39731556 C25.9966408,7.55257407 24.7198226,8.83283626 23.5738716,10.2212555 L23.5738716,10.2212555 Z" id="Path" fill="#FFFFFF" opacity="0.2" style="mix-blend-mode: overlay;"></path>
                        <g id="Group" opacity="0.49" style="mix-blend-mode: overlay;" transform="translate(0.000000, 34.403418)" fill="#FFFFFF">
                            <path d="M6.62019247,2.13989259 C6.62019247,2.13989259 6.21171251,1.67200611 6.11663528,0.0756875194 C6.07738379,0.764139574 6.09681838,1.45458859 6.17473803,2.13989259 L6.62019247,2.13989259 Z" id="Path"></path>
                            <path d="M23.1213744,44.7124021 C13.1611539,40.8678201 8.39320679,36.085745 6.69590212,34.0473425 L5.93528426,34.4791054 C5.93528426,34.4791054 10.081708,41.1241256 23.1213744,46.1573456 C36.1610407,51.1905657 43.6457317,47.6487338 43.6457317,47.6487338 L43.6246034,46.2192718 C43.1809097,46.4153713 35.7596035,49.5908067 23.1213744,44.7124021 Z" id="Path"></path>
                            <path d="M12.8354264,30.5209922 L14.9957924,30.176958 C14.9957924,30.176958 5.62364222,23.5422589 2.72554733,13.3192832 C1.11803782,7.64271929 0.526446157,4.71842876 0.299317213,3.24252214 L0.176068949,3.24252214 C0.176068949,3.24252214 -0.176068949,4.53437048 2.72026526,14.7573461 C4.9581016,22.6357288 10.1362894,28.405182 12.8354264,30.5209922 Z" id="Path"></path>
                        </g>
                    </g>
                    <g id="Group-30" transform="translate(47.833499, 0.667249)">
                        <path d="M0.0246496528,82.0521517 C0.0246496528,82.0521517 7.51110136,85.5905432 20.549007,80.5573232 C33.5869127,75.5241031 37.7350971,68.879083 37.7350971,68.879083 L30.7926985,64.9226899 C30.7926985,64.9226899 38.0273716,59.3837396 40.9254665,49.160764 C43.8235614,38.9377884 43.4890304,37.6476602 43.4890304,37.6476602 L37.0519496,37.6476602 C37.0519496,37.6476602 38.988708,35.4682037 35.4409187,24.3025744 C31.8931294,13.1369451 28.5231697,10.9471676 28.5231697,10.9471676 L23.6900771,15.8255722 C23.6900771,15.8255722 21.5966173,10.7957925 16.2846171,6.39215505 C10.9726169,1.98851755 5.49863327,0.103210254 5.49863327,0.103210254 L0.528206846,7.64959997 L0.0246496528,82.0521517 Z" id="Path" fill="url(#linearGradient-2)"></path>
                        <g id="Group" opacity="0.6" style="mix-blend-mode: overlay;" transform="translate(4.577793, 0.000000)" fill="#FFFFFF">
                            <path d="M35.1697725,50.9445812 C38.0661067,40.7216056 37.7350971,39.4848027 37.7350971,39.4848027 L31.2962556,39.4848027 C31.2962556,39.4848027 33.2330141,37.2485806 29.6852248,26.0846715 C26.1374354,14.9207623 22.7639544,12.7000217 22.7639544,12.7000217 L17.9343831,17.5681053 C17.9343831,17.5681053 15.8462054,12.531445 10.5289231,8.12780748 C7.38435851,5.53615309 3.84041437,3.44618066 0.0281710318,1.93519226 L0.920840602,0.103210254 C0.920840602,0.103210254 6.39482422,1.99539824 11.7068244,6.39387522 C17.0188246,10.7923522 19.1122844,15.8307327 19.1122844,15.8307327 L23.945377,10.9557684 C23.945377,10.9557684 27.3259009,13.135225 30.8666474,24.3025744 C34.407394,35.4699239 32.4776783,37.6476602 32.4776783,37.6476602 L38.9112377,37.6476602 C38.9112377,37.6476602 39.2422473,38.9395085 36.3459131,49.1624842 C35.2931195,52.8449434 33.5927788,56.3204479 31.3209053,59.4336246 C33.015116,56.7995399 34.3114284,53.9403994 35.1697725,50.9445812 L35.1697725,50.9445812 Z" id="Path"></path>
                            <path d="M24.1003177,64.7265904 C24.1003177,64.7265904 24.2763867,64.4496429 26.6726851,65.1858761 L33.1573044,68.8756426 C32.7638028,69.4582533 32.3234106,70.009305 31.8403087,70.5235663 L24.1003177,64.7265904 Z" id="Path"></path>
                        </g>
                        <path d="M0.528206846,7.64959997 L5.49159051,0.104930425 C5.49159051,0.104930425 10.9655741,1.99711841 16.2775743,6.39731556 C21.5895745,10.7975127 23.6900771,15.8255722 23.6900771,15.8255722 L28.5231697,10.9557684 C28.5231697,10.9557684 31.9036935,13.135225 35.4444401,24.3025744 C38.9851866,35.4699239 37.055471,37.6476602 37.055471,37.6476602 L43.4890304,37.6476602 C43.4890304,37.6476602 43.82004,38.9395085 40.9237058,49.1624842 C38.0273716,59.3854598 30.7909378,64.9158092 30.7909378,64.9158092 L37.7333364,68.8722023 C37.7333364,68.8722023 36.36352,71.0654202 32.7312176,73.8830601 C21.684759,76.3372705 10.099222,74.7026832 0.214804118,69.2953643 L0.528206846,7.64959997 Z" id="Path" fill="#FFFFFF" opacity="0.23" style="mix-blend-mode: overlay;"></path>
                        <path d="M0.463061335,53.0689923 L0.535249604,7.65648065 L5.49863327,0.111811108 C5.49863327,0.111811108 10.9726169,2.00399909 16.2846171,6.40419624 C21.5966173,10.8043934 23.6900771,15.8255722 23.6900771,15.8255722 L28.5231697,10.9557684 C28.5231697,10.9557684 31.9036935,13.135225 35.4444401,24.3025744 C38.9851866,35.4699239 37.055471,37.6476602 37.055471,37.6476602 L43.4890304,37.6476602 C43.4890304,37.6476602 43.82004,38.9395085 40.9237058,49.1624842 C40.786372,49.6492925 40.6349527,50.1309404 40.4782513,50.5953865 C28.9754792,59.499951 13.0210728,60.4861559 0.461300646,53.0689923 L0.463061335,53.0689923 Z" id="Path" fill="#FFFFFF" opacity="0.35" style="mix-blend-mode: overlay;"></path>
                        <path d="M0.704275795,36.9079867 L0.528206846,7.64959997 L5.49159051,0.104930425 C5.49159051,0.104930425 10.9655741,1.99711841 16.2775743,6.39731556 C21.5895745,10.7975127 23.6900771,15.8255722 23.6900771,15.8255722 L28.5231697,10.9557684 C28.5231697,10.9557684 31.8068556,13.0991014 35.2930208,23.8570501 C29.1325766,36.4829026 13.9519656,42.2108118 0.704275795,36.9079867 L0.704275795,36.9079867 Z" id="Path" fill="#FFFFFF" opacity="0.35" style="mix-blend-mode: overlay;"></path>
                        <path d="M20.0982705,10.2212555 C16.6469879,17.1639136 8.55170596,20.6368443 0.984225424,18.4213101 L0.528206846,7.64959997 L5.49159051,0.104930425 C5.49159051,0.104930425 10.9655741,1.99711841 16.2775743,6.39731556 C17.6704756,7.55269952 18.9496205,8.83293049 20.0982705,10.2212555 Z" id="Path" fill="#FFFFFF" opacity="0.2" style="mix-blend-mode: overlay;"></path>
                        <g id="Group" opacity="0.49" style="mix-blend-mode: overlay;" transform="translate(0.000000, 34.403418)" fill="#FFFFFF">
                            <path d="M37.0519496,2.13989259 C37.0519496,2.13989259 37.4604295,1.67200611 37.5555068,0.0756875194 C37.5947583,0.764139574 37.5753237,1.45458859 37.497404,2.13989259 L37.0519496,2.13989259 Z" id="Path"></path>
                            <path d="M20.549007,44.7124021 C30.5109881,40.8678201 35.2789353,36.085745 36.9762399,34.0473425 L37.7350971,34.4791054 C37.7350971,34.4791054 33.5904341,41.1120844 20.549007,46.1504649 C7.50757998,51.1888455 0.0246496528,47.6487338 0.0246496528,47.6487338 L0.0475386162,46.2192718 C0.491232367,46.4153713 7.91253856,49.5908067 20.549007,44.7124021 Z" id="Path"></path>
                            <path d="M30.8367157,30.5209922 L28.6781104,30.176958 C28.6781104,30.176958 38.0484998,23.5422589 40.9465947,13.3192832 C42.5541042,7.64271929 43.1456959,4.71842876 43.3728248,3.24252214 L43.4890304,3.24252214 C43.4890304,3.24252214 43.8411683,4.53437048 40.944834,14.7573461 C38.7140405,22.6357288 33.5358527,28.405182 30.8367157,30.5209922 Z" id="Path"></path>
                        </g>
                    </g>
                    <path d="M45.8984361,7.32175041 C23.5235941,7.32175041 5.38673167,24.7543513 5.38673167,46.2583306 C5.38673167,67.7623098 23.5218334,85.198392 45.8984361,85.198392 C68.2750388,85.198392 86.4066192,67.7623098 86.4066192,46.2583306 C86.4066192,24.7543513 68.267996,7.32175041 45.8984361,7.32175041 Z" id="Path" fill="url(#linearGradient-3)"></path>
                    <path d="M45.7769485,83.452521 C23.7049451,83.452521 5.75999784,66.486414 5.2810903,45.3845247 C5.2810903,45.6752131 5.27052617,45.9659015 5.27052617,46.2548493 C5.27052617,67.7588285 23.4056279,85.1949107 45.7822306,85.1949107 C68.1588333,85.1949107 86.2851316,67.7623098 86.2851316,46.2583306 C86.2851316,45.9659015 86.2851316,45.6752131 86.2728068,45.388006 C85.7921385,66.486414 67.8436699,83.452521 45.7769485,83.452521 Z" id="Path" fill="#FFF064"></path>
                    <path d="M45.8984361,7.32175041 C23.5235941,7.32175041 5.38673167,24.7543513 5.38673167,46.2583306 C5.38673167,46.7335278 5.40785995,47.1982811 5.42722753,47.669997 C15.7466286,56.564714 29.9536321,62.0651652 45.6343327,62.0651652 C61.5932222,62.0651652 76.0220726,56.3680207 86.3802088,47.1947998 C86.3802088,46.881483 86.4066192,46.5733881 86.4066192,46.2583306 C86.4066192,24.7543513 68.267996,7.32175041 45.8984361,7.32175041 Z" id="Path" fill="#FFFFFF" opacity="0.35" style="mix-blend-mode: overlay;"></path>
                    <path d="M78.2211737,22.6934228 C70.8262779,13.3565809 59.1370604,7.32175041 45.9794278,7.32175041 C32.7231967,7.32175041 20.9547481,13.4470947 13.5651343,22.905782 C22.7207197,28.3418292 33.7936959,31.5254764 45.7188458,31.5254764 C57.7971757,31.5254764 68.9986822,28.2600187 78.2211737,22.6934228 Z" id="Path" fill="#FFFFFF" opacity="0.49" style="mix-blend-mode: overlay;"></path>
                    <path d="M45.8984361,9.54455934 C67.8788837,9.54455934 85.7604461,26.3835989 86.3749267,47.3671241 C86.3890123,46.9981065 86.4066192,46.6273482 86.4066192,46.2531086 C86.4066192,24.7491294 68.2715174,7.31652847 45.8984361,7.31652847 C23.5253548,7.31652847 5.39025305,24.7543513 5.39025305,46.2583306 C5.39025305,46.6325701 5.40785995,47.0033284 5.41842408,47.372346 C6.03290471,26.3888209 23.9144672,9.54455934 45.8984361,9.54455934 Z" id="Path" fill="#FFFFFF" opacity="0.49" style="mix-blend-mode: overlay;"></path>
                    <path d="M40.4579056,9.88224527 C42.343604,9.73777139 44.2874052,10.4479562 43.3436757,11.2590987 C42.3999461,12.0702412 36.0262501,15.7047166 33.2461214,13.4575386 C30.4659927,11.2103605 38.2411975,10.0493476 40.4579056,9.88224527 Z" id="Path" fill="#FFFFFF"></path>
                    <path d="M18.5338001,19.7813168 C12.6302082,24.691688 7.86226109,33.7604699 7.98198798,39.0607465 C8.10171486,44.361023 10.964596,36.0459422 12.4435751,33.0293973 C13.9225543,30.0128523 21.3174502,20.8152624 26.6752283,18.0337051 C32.0330064,15.2521478 27.7686164,12.1050542 18.5338001,19.7813168 Z" id="Path" fill="#FFFFFF"></path>
                    <path d="M45.9001968,17.2660788 C29.2652025,17.2660788 15.778321,30.2304335 15.778321,46.2182956 C15.778321,62.2061578 29.274006,75.1670312 45.9001968,75.1670312 C62.5263876,75.1670312 76.0167905,62.2044172 76.0167905,46.2148143 C76.0167905,30.2252115 62.5351911,17.2660788 45.9001968,17.2660788 Z" id="Path" fill="url(#linearGradient-4)"></path>
                    <g id="Group" opacity="0.35" style="mix-blend-mode: overlay;" transform="translate(13.956007, 15.810896)" fill="#FFFFFF">
                        <path d="M31.8948901,61.2882555 C14.3584228,61.2882555 0.0880344744,47.5562746 0.0880344744,30.6772001 C0.0880344744,13.7981256 14.3584228,0.0661446666 31.8948901,0.0661446666 C49.4313574,0.0661446666 63.6982243,13.7981256 63.6982243,30.6772001 C63.6982243,47.5562746 49.4313574,61.2882555 31.8948901,61.2882555 Z M31.8948901,2.84596131 C15.9078295,2.84596131 2.8980949,15.3298968 2.8980949,30.6772001 C2.8980949,46.0245034 15.9078295,58.5101795 31.8948901,58.5101795 C47.8819506,58.5101795 60.8881639,46.0245034 60.8881639,30.6772001 C60.8881639,15.3298968 47.8907541,2.84596131 31.8948901,2.84596131 Z" id="Shape"></path>
                    </g>
                    <path d="M45.9001968,17.2658618 C37.4618949,17.2344167 29.3893483,20.6690211 23.6116286,26.7491352 C29.234757,21.7428665 36.5406426,18.9836983 44.1078149,19.0084686 C60.7392878,19.0084686 74.2156051,31.969342 74.2156051,47.9589448 C74.2120425,55.2006244 71.4106056,62.1674639 66.3840583,67.4350678 C72.3070177,62.1469757 76.0097505,54.6012618 76.0097505,46.2182956 C76.0167905,30.2304335 62.5351911,17.2658618 45.9001968,17.2658618 Z" id="Path" fill="#B06518"></path>
                    <path d="M27.1400503,63.3445423 C27.1400503,44.6604147 40.6251711,34.3940662 57.256644,34.3940662 C63.763331,34.375206 70.1060139,36.4114991 75.3600533,40.2060936 C72.4830867,27.102487 60.3853892,17.2660788 45.893154,17.2660788 C29.2599204,17.2660788 15.7853638,30.2304335 15.7853638,46.2182956 C15.7853638,55.6804643 20.5057723,64.0773556 27.8003089,69.3689289 C27.3646471,67.389646 27.1433142,65.3701424 27.1400503,63.3445423 Z" id="Path" fill="#B55F09" opacity="0.25"></path>
                    <path d="M45.9001968,73.600447 C29.557477,73.600447 16.2625106,61.0677733 15.8064921,45.4698165 C15.7941672,45.7465797 15.778321,46.0216023 15.778321,46.3018468 C15.778321,62.2862277 29.274006,75.2540636 45.9001968,75.2540636 C62.5263876,75.2540636 76.0167905,62.2862277 76.0167905,46.3018468 C76.0167905,46.0216023 76.0062263,45.7465797 75.9974229,45.4698165 C75.5343616,61.0677733 62.2446773,73.600447 45.9001968,73.600447 Z" id="Path" fill="#FFF064"></path>
                    <path d="M9.93635331,64.4254854 C9.93635331,64.4254854 11.4470249,66.8989478 13.0721413,69.2261957 L21.5023226,63.9119939 L9.93635331,64.4254854 Z" id="Path" fill="#CE7C1D"></path>
                    <path d="M17.3858305,74.0338686 L21.5938784,63.9085127 L21.5023226,63.9085127 L13.0756627,69.2261957 C13.2411675,69.4582823 13.4066723,69.6903688 13.5721771,69.9224554 C14.6675237,71.4427669 15.9484169,72.8236688 17.3858305,74.0338686 L17.3858305,74.0338686 Z" id="Path" fill="url(#linearGradient-5)"></path>
                    <polygon id="Path" fill="#FFF064" points="21.7048018 63.9119939 18.6394414 75.1705125 17.3858305 74.0338686"></polygon>
                    <polygon id="Path" fill="#FFF064" points="9.70746368 63.544717 9.93635331 64.4254854 21.7048018 63.9119939"></polygon>
                    <path d="M81.2442776,64.4254854 C81.2442776,64.4254854 79.733606,66.8989478 78.1084896,69.2261957 L69.680069,63.9119939 L81.2442776,64.4254854 Z" id="Path" fill="#CE7C1D"></path>
                    <path d="M73.7948003,74.0338686 L69.5937952,63.9085127 L69.6871118,63.9085127 L78.1155324,69.2227144 C77.9512013,69.454801 77.7862834,69.6868875 77.6207786,69.9189741 C76.5220758,71.4414172 75.2369794,72.8235568 73.7948003,74.0338686 Z" id="Path" fill="url(#linearGradient-6)"></path>
                    <polygon id="Path" fill="#FFF064" points="69.4775897 63.9119939 72.5411894 75.1705125 73.796561 74.0338686"></polygon>
                    <polygon id="Path" fill="#FFF064" points="81.4749279 63.544717 81.2442776 64.4254854 69.4775897 63.9119939"></polygon>
                    <path d="M35.4364192,6.11722122 C30.9660286,6.11722122 27.3372475,9.45578624 27.3372475,13.5759027 C27.3372475,17.6960192 30.9572251,21.0328435 35.4364192,21.0328435 C39.9156132,21.0328435 43.5355908,17.6925379 43.5355908,13.5811246 C43.5355908,9.46971143 39.8980063,6.11722122 35.4364192,6.11722122 Z" id="Path" fill="url(#radialGradient-7)"></path>
                    <path d="M28.0415233,23.3862011 C30.2142141,20.9754021 36.605517,13.5759027 36.605517,13.5759027 C36.605517,13.5759027 41.9421668,3.67334986 42.072593,3.394846 C42.1076716,3.31477614 35.2497861,12.7055781 35.2497861,12.7055781 L28.0415233,23.3862011 Z" id="Path" fill="url(#radialGradient-8)" opacity="0.7"></path>
                    <path d="M37.1971087,11.8074032 C35.2268971,10.2843352 35.5860778,6.00581968 35.5702316,4.79432789 L35.5702316,5.95534086 C35.5702316,5.7690914 35.5543854,5.56891675 35.5543854,5.52540052 L35.5543854,4.79432789 C35.5487136,5.30660495 35.5122618,5.81809646 35.4452226,6.32609912 C35.4452226,6.32609912 34.8677165,10.6220211 33.827149,11.5097522 C31.4748678,13.5480523 25.576558,13.1459624 27.8355226,13.1999225 C35.4804364,13.3618029 35.4804364,20.7386738 35.5473426,23.1581761 L35.5473426,21.9397217 C35.5473426,22.0267542 35.5631888,22.0998614 35.5631888,22.1433777 L35.5631888,23.1581761 C35.7251722,17.4296999 35.7058047,13.8056684 42.3752964,13.3217679 C44.5920045,13.1546656 39.486005,13.5759027 37.1971087,11.8074032 Z" id="Path" fill="url(#radialGradient-9)"></path>
                </g>
            </g>
        </g>
    </g>
</svg>