<?xml version="1.0" encoding="UTF-8"?>
<svg width="60px" height="60px" viewBox="0 0 60 60" version="1.1" xmlns="http://www.w3.org/2000/svg" xmlns:xlink="http://www.w3.org/1999/xlink">
    <title>164501CA-51E0-4032-BAB2-771C56BA998C</title>
    <defs>
        <radialGradient cx="50%" cy="39.4782016%" fx="50%" fy="39.4782016%" r="56.4766183%" gradientTransform="translate(0.500000,0.394782),scale(0.983607,1.000000),rotate(59.921905),translate(-0.500000,-0.394782)" id="radialGradient-1">
            <stop stop-color="#6C8AFF" offset="0%"></stop>
            <stop stop-color="#233A95" offset="100%"></stop>
        </radialGradient>
        <path d="M12.3043125,11.8468086 L12.3043125,25.97725 L3.39127344,25.97725 C2.45476563,25.97725 1.69563672,25.2181211 1.69563672,24.2816133 L1.69563672,24.2816133 L1.69563672,11.8468086 L12.3043125,11.8468086 Z M24.3043125,11.8468086 L24.3043125,24.2816133 C24.3043125,25.2181211 23.5451836,25.97725 22.6086758,25.97725 L22.6086758,25.97725 L13.6956367,25.97725 L13.6956367,11.8468086 L24.3043125,11.8468086 Z M17.2667422,0.901265625 C18.2663711,-0.0053828125 19.6545781,-0.229226563 20.8898828,0.318347656 C22.2338086,0.9140625 23.0232031,2.25773437 22.8731445,3.75664453 C22.8261719,4.22566016 22.6614375,4.66913281 22.4117969,5.06421094 L22.4117969,5.06421094 L24.3043633,5.06421094 C25.2408711,5.06421094 26.0000508,5.82339062 26.0000508,6.75984766 L26.0000508,6.75984766 L26.0000508,9.30332812 C26.0000508,9.77158203 25.6204102,10.1511719 25.152207,10.1511719 L25.152207,10.1511719 L0.84784375,10.1511719 C0.379589844,10.1511719 -3.55271368e-15,9.77153125 -3.55271368e-15,9.30332812 L-3.55271368e-15,9.30332812 L-3.55271368e-15,6.75984766 C-3.55271368e-15,5.82339062 0.759128906,5.06421094 1.69563672,5.06421094 L1.69563672,5.06421094 L3.58276953,5.06421094 C3.33317969,4.66933594 3.16854687,4.22606641 3.12147266,3.75740625 C2.97095703,2.25854687 3.76050391,0.914417969 5.10407422,0.318652344 C6.33882031,-0.228617188 7.72646875,-0.00563671875 8.72772266,0.901011719 L8.72772266,0.901011719 L11.1205352,3.06967578 C11.5860469,2.55907031 12.2561562,2.23813281 13,2.23813281 C13.7425234,2.23813281 14.4115664,2.55805469 14.8769766,3.06708594 L14.8769766,3.06708594 Z M7.58966406,2.15754297 C7.06941016,1.68664844 6.38325391,1.59473437 5.76382422,1.88103906 C5.31273437,2.08954687 4.96396875,2.50143359 4.84803516,2.98461719 C4.58483594,4.08179687 5.41419531,5.06421094 6.46800781,5.06421094 L6.46800781,5.06421094 L10.4565195,5.06421094 L10.4568179,4.76912109 L10.4568179,4.76912109 L10.4572305,4.75662891 Z M19.9699297,1.78298047 C19.4080859,1.61540234 18.8002852,1.79917969 18.3659023,2.19288672 C18.0719375,2.45935156 17.68257,2.81227224 17.2777133,3.17922998 L16.7895649,3.62168228 C16.3042106,4.06160276 15.842582,4.48002344 15.5427695,4.75180469 C15.5428711,4.76180859 15.5434805,4.77171094 15.5434805,4.78171484 L15.5434805,5.0643125 L19.4481016,5.0643125 C20.331543,5.0643125 21.1275391,4.41273828 21.1907109,3.53153125 C21.249668,2.70912891 20.7761836,2.02348047 19.9699297,1.78298047 Z" id="path-2"></path>
        <filter x="-3.8%" y="-3.9%" width="111.5%" height="115.4%" filterUnits="objectBoundingBox" id="filter-3">
            <feOffset dx="1" dy="2" in="SourceAlpha" result="shadowOffsetOuter1"></feOffset>
            <feColorMatrix values="0 0 0 0 0.137254902   0 0 0 0 0.22745098   0 0 0 0 0.584313725  0 0 0 1 0" type="matrix" in="shadowOffsetOuter1"></feColorMatrix>
        </filter>
        <filter x="-0.0%" y="-0.0%" width="103.8%" height="107.7%" filterUnits="objectBoundingBox" id="filter-4">
            <feOffset dx="0" dy="0" in="SourceAlpha" result="shadowOffsetInner1"></feOffset>
            <feComposite in="shadowOffsetInner1" in2="SourceAlpha" operator="arithmetic" k2="-1" k3="1" result="shadowInnerInner1"></feComposite>
            <feColorMatrix values="0 0 0 0 0.301960784   0 0 0 0 0.407843137   0 0 0 0 0.823529412  0 0 0 1 0" type="matrix" in="shadowInnerInner1"></feColorMatrix>
        </filter>
        <radialGradient cx="49.999258%" cy="49.8324078%" fx="49.999258%" fy="49.8324078%" r="38.9051626%" gradientTransform="translate(0.499993,0.498324),scale(0.983607,1.000000),translate(-0.499993,-0.498324)" id="radialGradient-5">
            <stop stop-color="#FFFFFF" offset="0%"></stop>
            <stop stop-color="#FFFBF5" offset="13%"></stop>
            <stop stop-color="#FEF1DA" offset="36%"></stop>
            <stop stop-color="#FEE1AE" offset="65%"></stop>
            <stop stop-color="#FDCB73" offset="99%"></stop>
            <stop stop-color="#FDCA71" offset="100%"></stop>
        </radialGradient>
    </defs>
    <g id="Master-mfast" stroke="none" stroke-width="1" fill="none" fill-rule="evenodd">
        <g id="Master-Mfast-1.1" transform="translate(-279.000000, -634.000000)">
            <g id="Group-7" transform="translate(36.000000, 634.000000)">
                <g id="Group-6" transform="translate(235.000000, 0.000000)">
                    <g id="Group-5" transform="translate(8.000000, 0.000000)">
                        <ellipse id="Oval" fill="url(#radialGradient-1)" fill-rule="nonzero" cx="29.5526696" cy="29.0681996" rx="29.5526696" ry="29.0681996"></ellipse>
                        <g id="giftbox" transform="translate(16.000000, 16.000000)" fill-rule="nonzero">
                            <g id="Combined-Shape">
                                <use fill="black" fill-opacity="1" filter="url(#filter-3)" xlink:href="#path-2"></use>
                                <use fill="#D7DFFF" xlink:href="#path-2"></use>
                                <use fill="black" fill-opacity="1" filter="url(#filter-4)" xlink:href="#path-2"></use>
                            </g>
                        </g>
                        <path d="M4.2070844,18.7937712 C15.5329116,4.75474756 27.21533,0.00412590348 39.2543395,4.54190618 C47.7886611,7.75868874 56.2390056,16.2797487 57.4633853,29.0124089 C57.7985862,32.4982554 56.4946819,38.3472912 53.5516722,46.5595165 C54.9697093,37.5090736 54.6367687,29.8972998 52.5528504,23.724195 C49.4269729,14.4645379 42.5995478,9.10665218 37.5916509,7.82117282 C32.5837541,6.53569346 24.4570317,5.66726134 15.8325466,9.74058955 C13.103502,11.0295122 9.22834797,14.0472394 4.2070844,18.7937712 Z" id="Path-2" fill="#233A95"></path>
                        <path d="M29.5526696,1.36257185 C45.8741583,1.36257185 59.1053391,14.3768481 59.1053391,30.4307714 C59.1053391,46.4846947 45.8741583,59.498971 29.5526696,59.498971 C13.2311808,59.498971 0,46.4846947 0,30.4307714 C0,14.3768481 13.2311808,1.36257185 29.5526696,1.36257185 Z M29.5526696,4.08771556 C14.7613204,4.08771556 2.77056277,15.8819034 2.77056277,30.4307714 C2.77056277,44.9796394 14.7613204,56.7738273 29.5526696,56.7738273 C44.3440187,56.7738273 56.3347763,44.9796394 56.3347763,30.4307714 C56.3347763,15.8819034 44.3440187,4.08771556 29.5526696,4.08771556 Z" id="Combined-Shape" fill="#A35611" fill-rule="nonzero"></path>
                        <path d="M29.5526696,0 C45.8741583,0 59.1053391,13.0142762 59.1053391,29.0681996 C59.1053391,45.1221229 45.8741583,58.1363991 29.5526696,58.1363991 C13.2311808,58.1363991 0,45.1221229 0,29.0681996 C0,13.0142762 13.2311808,0 29.5526696,0 Z M29.5526696,2.72514371 C14.7613204,2.72514371 2.77056277,14.5193316 2.77056277,29.0681996 C2.77056277,43.6170676 14.7613204,55.4112554 29.5526696,55.4112554 C44.3440187,55.4112554 56.3347763,43.6170676 56.3347763,29.0681996 C56.3347763,14.5193316 44.3440187,2.72514371 29.5526696,2.72514371 Z" id="Combined-Shape-Copy" fill="url(#radialGradient-5)" fill-rule="nonzero"></path>
                    </g>
                </g>
            </g>
        </g>
    </g>
</svg>