<?xml version="1.0" encoding="UTF-8"?>
<svg width="32px" height="32px" viewBox="0 0 32 32" version="1.1" xmlns="http://www.w3.org/2000/svg" xmlns:xlink="http://www.w3.org/1999/xlink">
    <title>6270D691-3CDE-4A4A-B238-6AE70497091A</title>
    <defs>
        <circle id="path-1" cx="16" cy="16" r="16"></circle>
        <linearGradient x1="50%" y1="0%" x2="50%" y2="100%" id="linearGradient-3">
            <stop stop-color="#917207" stop-opacity="0" offset="0%"></stop>
            <stop stop-color="#E2B23D" stop-opacity="0.739093326" offset="50.8437157%"></stop>
            <stop stop-color="#FFC950" offset="100%"></stop>
        </linearGradient>
        <linearGradient x1="49.3814952%" y1="29.9174806%" x2="51.1984735%" y2="88.8907601%" id="linearGradient-4">
            <stop stop-color="#FFAA00" offset="0%"></stop>
            <stop stop-color="#FFC200" offset="100%"></stop>
        </linearGradient>
        <linearGradient x1="49.8180988%" y1="29.4612248%" x2="50.3520554%" y2="89.7694057%" id="linearGradient-5">
            <stop stop-color="#FFAA00" offset="0%"></stop>
            <stop stop-color="#FFFF19" offset="55%"></stop>
            <stop stop-color="#FFFF75" offset="95%"></stop>
        </linearGradient>
        <linearGradient x1="49.8216317%" y1="29.4584466%" x2="50.3456999%" y2="89.7751488%" id="linearGradient-6">
            <stop stop-color="#FFAA00" offset="0%"></stop>
            <stop stop-color="#FFFF19" offset="55%"></stop>
            <stop stop-color="#FFFF75" offset="95%"></stop>
        </linearGradient>
        <linearGradient x1="49.8125616%" y1="29.4855892%" x2="50.4112334%" y2="89.7300255%" id="linearGradient-7">
            <stop stop-color="#FFAA00" offset="0%"></stop>
            <stop stop-color="#FFFF19" offset="55%"></stop>
            <stop stop-color="#FFFF75" offset="95%"></stop>
        </linearGradient>
        <linearGradient x1="50.2292899%" y1="28.7807343%" x2="49.4508602%" y2="100.606265%" id="linearGradient-8">
            <stop stop-color="#FF5400" offset="0%"></stop>
            <stop stop-color="#FF5800" offset="23%"></stop>
            <stop stop-color="#FF6200" offset="44%"></stop>
            <stop stop-color="#FF7500" offset="64%"></stop>
            <stop stop-color="#FF8E00" offset="84%"></stop>
            <stop stop-color="#FFAA00" offset="100%"></stop>
        </linearGradient>
        <linearGradient x1="50.1822238%" y1="29.4612248%" x2="49.6483649%" y2="89.7694057%" id="linearGradient-9">
            <stop stop-color="#FFAA00" offset="0%"></stop>
            <stop stop-color="#FFFF01" offset="100%"></stop>
        </linearGradient>
        <linearGradient x1="-159.302254%" y1="29.4584466%" x2="-158.777474%" y2="89.7751488%" id="linearGradient-10">
            <stop stop-color="#FFAA00" offset="0%"></stop>
            <stop stop-color="#FFFF01" offset="100%"></stop>
        </linearGradient>
        <linearGradient x1="-171.658868%" y1="29.4830165%" x2="-171.060153%" y2="89.7296508%" id="linearGradient-11">
            <stop stop-color="#FFAA00" offset="0%"></stop>
            <stop stop-color="#FFFF01" offset="100%"></stop>
        </linearGradient>
        <linearGradient x1="105.680988%" y1="39.6152814%" x2="6.99642294%" y2="58.0202774%" id="linearGradient-12">
            <stop stop-color="#FFAA00" offset="0%"></stop>
            <stop stop-color="#FFC200" offset="100%"></stop>
        </linearGradient>
        <linearGradient x1="59.3468728%" y1="53.4437886%" x2="159.331487%" y2="90.2566122%" id="linearGradient-13">
            <stop stop-color="#FF8500" offset="19%"></stop>
            <stop stop-color="#FFDE00" offset="100%"></stop>
        </linearGradient>
        <linearGradient x1="49.9997111%" y1="100.001813%" x2="49.9997111%" y2="0.00116174251%" id="linearGradient-14">
            <stop stop-color="#FFE800" offset="0%"></stop>
            <stop stop-color="#D45900" offset="100%"></stop>
        </linearGradient>
        <linearGradient x1="50.0055948%" y1="99.9631291%" x2="50.0055948%" y2="0.00351687753%" id="linearGradient-15">
            <stop stop-color="#FFE800" offset="0%"></stop>
            <stop stop-color="#D45900" offset="100%"></stop>
        </linearGradient>
        <linearGradient x1="50.0015743%" y1="100.000442%" x2="50.0015743%" y2="0.00315238%" id="linearGradient-16">
            <stop stop-color="#FFE800" offset="0%"></stop>
            <stop stop-color="#D45900" offset="100%"></stop>
        </linearGradient>
        <linearGradient x1="50.00309%" y1="100.008007%" x2="50.00309%" y2="-0.0850476153%" id="linearGradient-17">
            <stop stop-color="#FFE800" offset="0%"></stop>
            <stop stop-color="#D45900" offset="100%"></stop>
        </linearGradient>
        <linearGradient x1="50%" y1="100%" x2="50%" y2="-0.00107510877%" id="linearGradient-18">
            <stop stop-color="#FFE800" offset="0%"></stop>
            <stop stop-color="#D45900" offset="100%"></stop>
        </linearGradient>
        <linearGradient x1="0.00640167866%" y1="49.999193%" x2="99.9988309%" y2="49.999193%" id="linearGradient-19">
            <stop stop-color="#FFE800" offset="0%"></stop>
            <stop stop-color="#D45900" offset="100%"></stop>
        </linearGradient>
        <linearGradient x1="-0.0771880833%" y1="50.0002935%" x2="99.9166938%" y2="50.0002935%" id="linearGradient-20">
            <stop stop-color="#FFE800" offset="0%"></stop>
            <stop stop-color="#D45900" offset="100%"></stop>
        </linearGradient>
        <linearGradient x1="-0.00456062104%" y1="50.0193916%" x2="100.009136%" y2="50.0193916%" id="linearGradient-21">
            <stop stop-color="#FFE800" offset="0%"></stop>
            <stop stop-color="#D45900" offset="100%"></stop>
        </linearGradient>
        <linearGradient x1="0.0464901472%" y1="49.9875077%" x2="100.01094%" y2="49.9875077%" id="linearGradient-22">
            <stop stop-color="#FFE800" offset="0%"></stop>
            <stop stop-color="#D45900" offset="100%"></stop>
        </linearGradient>
        <linearGradient x1="-0.0119743737%" y1="49.9856516%" x2="100.002006%" y2="49.9856516%" id="linearGradient-23">
            <stop stop-color="#FFE800" offset="0%"></stop>
            <stop stop-color="#D45900" offset="100%"></stop>
        </linearGradient>
        <linearGradient x1="0.00558666814%" y1="50.0340637%" x2="99.9986991%" y2="50.0340637%" id="linearGradient-24">
            <stop stop-color="#FFE800" offset="0%"></stop>
            <stop stop-color="#D45900" offset="100%"></stop>
        </linearGradient>
        <linearGradient x1="49.9926757%" y1="99.9996742%" x2="49.9926757%" y2="-0.0216085344%" id="linearGradient-25">
            <stop stop-color="#FFE800" offset="0%"></stop>
            <stop stop-color="#D45900" offset="100%"></stop>
        </linearGradient>
    </defs>
    <g id="Master-mfast" stroke="none" stroke-width="1" fill="none" fill-rule="evenodd">
        <g id="Master-Mfast-3.1" transform="translate(-136.000000, -141.000000)">
            <g id="Group-18" transform="translate(0.000000, 129.000000)">
                <g id="Group-17" transform="translate(16.000000, 12.000000)">
                    <g id="Master/-gifts" transform="translate(120.000000, 0.000000)">
                        <mask id="mask-2" fill="white">
                            <use xlink:href="#path-1"></use>
                        </mask>
                        <g id="Mask"></g>
                        <polygon id="Path-2" fill="url(#linearGradient-3)" mask="url(#mask-2)" points="15.7142857 16 10.790633 0 15.3277122 0 19.8647915 0"></polygon>
                        <polygon id="Path-2-Copy" fill="url(#linearGradient-3)" mask="url(#mask-2)" transform="translate(19.916324, 9.446784) rotate(35.000000) translate(-19.916324, -9.446784) " points="20.3028972 17.4467836 15.3792445 1.44678365 19.9163237 1.44678365 24.453403 1.44678365"></polygon>
                        <polygon id="Path-2-Copy-2" fill="url(#linearGradient-3)" mask="url(#mask-2)" transform="translate(22.845253, 13.263839) rotate(70.000000) translate(-22.845253, -13.263839) " points="23.2318267 21.2638389 18.308174 5.26383885 22.8452532 5.26383885 27.3823325 5.26383885"></polygon>
                        <polygon id="Path-2-Copy-4" fill="url(#linearGradient-3)" mask="url(#mask-2)" transform="translate(23.055119, 18.070552) rotate(-255.000000) translate(-23.055119, -18.070552) " points="23.4416923 26.0705524 18.5180396 10.0705524 23.0551189 10.0705524 27.5921981 10.0705524"></polygon>
                        <polygon id="Path-2-Copy-3" fill="url(#linearGradient-3)" mask="url(#mask-2)" transform="translate(23.055119, 18.070552) rotate(-255.000000) translate(-23.055119, -18.070552) " points="23.4416923 26.0705524 18.5180396 10.0705524 23.0551189 10.0705524 27.5921981 10.0705524"></polygon>
                        <polygon id="Path-2-Copy-5" fill="url(#linearGradient-3)" mask="url(#mask-2)" transform="translate(20.470013, 22.128356) rotate(-220.000000) translate(-20.470013, -22.128356) " points="20.8565866 30.1283555 15.9329339 14.1283555 20.4700131 14.1283555 25.0070924 14.1283555"></polygon>
                        <polygon id="Path-2-Copy-6" fill="url(#linearGradient-3)" mask="url(#mask-2)" transform="translate(16.024958, 23.969558) rotate(-185.000000) translate(-16.024958, -23.969558) " points="16.4115317 31.9695576 11.4878789 15.9695576 16.0249582 15.9695576 20.5620375 15.9695576"></polygon>
                        <polygon id="Path-2-Copy-7" fill="url(#linearGradient-3)" mask="url(#mask-2)" transform="translate(11.088358, 22.784385) rotate(-148.000000) translate(-11.088358, -22.784385) " points="11.4749316 30.7843848 6.55127887 14.7843848 11.0883581 14.7843848 15.6254374 14.7843848"></polygon>
                        <polygon id="Path-2-Copy-8" fill="url(#linearGradient-3)" mask="url(#mask-2)" transform="translate(7.859069, 18.866944) rotate(-111.000000) translate(-7.859069, -18.866944) " points="8.2456423 26.8669436 3.32198957 10.8669436 7.85906884 10.8669436 12.3961481 10.8669436"></polygon>
                        <polygon id="Path-2-Copy-9" fill="url(#linearGradient-3)" mask="url(#mask-2)" transform="translate(7.637619, 13.794901) rotate(-74.000000) translate(-7.637619, -13.794901) " points="8.02419215 21.7949012 3.10053942 5.79490115 7.63761868 5.79490115 12.1746979 5.79490115"></polygon>
                        <polygon id="Path-2-Copy-10" fill="url(#linearGradient-3)" mask="url(#mask-2)" transform="translate(10.513192, 9.610916) rotate(-37.000000) translate(-10.513192, -9.610916) " points="10.8997655 17.6109159 5.9761128 1.61091592 10.5131921 1.61091592 15.0502713 1.61091592"></polygon>
                        <g id="Asset-2" mask="url(#mask-2)">
                            <g transform="translate(4.571429, 3.428571)">
                                <polygon id="Path" stroke="none" fill="#FFAA00" fill-rule="nonzero" points="11.7230693 16.9348137 3.28448063 20.4699729 2.06780163 10.3966445 11.7230693 6.405132"></polygon>
                                <path d="M11.7246484,6.06839378 L1.89489267,10.1313595 L3.15104861,20.5343203 L11.721885,16.9438934 L19.9848014,20.5362941 L21.5544041,10.1325438 L11.7246484,6.06839378 Z M19.7309647,20.0767826 L11.7246484,16.597286 L3.41751789,20.0771774 L2.24071058,10.3334814 L11.7246484,6.41381693 L21.2034542,10.3319023 L19.7309647,20.0767826 Z" id="Shape" stroke="none" fill="#D80313" fill-rule="nonzero"></path>
                                <polygon id="Path" stroke="none" fill="#D80313" fill-rule="nonzero" points="11.7230693 16.9348137 19.8576857 20.4699729 21.378337 10.3966445 11.7230693 6.405132"></polygon>
                                <polygon id="Path" stroke="none" fill="#FFAA00" fill-rule="nonzero" points="21.378337 10.3583518 11.7230693 6.405132 2.06780163 10.3583518 11.7230693 6.72765852"></polygon>
                                <polygon id="Path" stroke="none" fill="#FFFFFF" fill-rule="nonzero" opacity="0.46" style="mix-blend-mode: overlay;" points="11.670565 11.4068591 11.7230693 6.72765852 1.96753022 10.3583518 2.15741426 11.7297804"></polygon>
                                <path d="M19.3863311,11.0097212 C14.7924007,12.9046139 12.0148038,14.0308907 11.7349124,14.1106341 C11.6918826,14.1055021 11.5233161,14.067999 10.8932642,13.8342956 L1.89252406,10.1128053 L2.60074019,20.5386627 L11.7246484,24.5976807 L20.8465828,20.5386627 L21.5544041,10.1128053 L19.3863311,11.0097212 Z M20.5414261,20.3262768 L11.7522823,24.2356773 L11.7230693,24.2487047 L2.90471256,20.3250925 L2.24426351,10.6038983 L10.7740439,14.1299778 L10.7791759,14.1323464 C11.485813,14.394868 11.6626696,14.4300025 11.742413,14.4300025 C11.7588494,14.4301064 11.7752529,14.428519 11.7913644,14.4252652 C12.0613866,14.3664446 16.1365902,12.6957809 19.5079201,11.3042191 L21.2018752,10.6038983 L20.5414261,20.3262768 Z" id="Shape" stroke="none" fill="#D80313" fill-rule="nonzero"></path>
                                <polygon id="Path" stroke="none" fill="url(#linearGradient-4)" fill-rule="nonzero" points="20.6942018 20.4316802 11.7230693 24.4231927 11.7230693 14.3498643 21.378337 10.3583518"></polygon>
                                <polygon id="Path" stroke="none" fill="url(#linearGradient-5)" fill-rule="nonzero" opacity="0.61" points="13.8812731 13.4837404 11.7230693 14.3498643 11.7230693 24.4231927 13.8812731 23.4721934"></polygon>
                                <polygon id="Path" stroke="none" fill="url(#linearGradient-6)" fill-rule="nonzero" opacity="0.61" points="17.3548483 12.0992845 15.2984949 12.9800148 15.2724402 22.8441155 17.3548483 21.9093018"></polygon>
                                <polygon id="Path" stroke="none" fill="url(#linearGradient-7)" fill-rule="nonzero" opacity="0.61" points="21.378337 10.3583518 18.9820873 11.4068591 18.9978781 21.1789785 20.6823587 20.4222058"></polygon>
                                <polygon id="Path" stroke="none" fill="url(#linearGradient-8)" fill-rule="nonzero" points="2.75233161 20.4316802 11.7230693 24.4231927 11.7230693 14.3498643 2.06780163 10.3583518"></polygon>
                                <g id="Group" opacity="0.61" stroke="none" stroke-width="1" fill="none" fill-rule="evenodd" transform="translate(2.013323, 10.303479)">
                                    <polygon id="Path" fill="url(#linearGradient-9)" fill-rule="nonzero" points="7.50180113 3.1447323 9.65961017 4.01085616 9.65961017 14.0841846 7.50180113 13.1331853"></polygon>
                                    <polygon id="Path" fill="url(#linearGradient-10)" fill-rule="nonzero" points="4.02783124 1.76027634 6.08418455 2.64100666 6.11023933 12.5051073 4.02783124 11.5706884"></polygon>
                                    <polygon id="Path" fill="url(#linearGradient-11)" fill-rule="nonzero" points="0.00434246237 0.0197384653 2.40059215 1.06785097 2.38519615 10.8399704 0.700715519 10.0831976"></polygon>
                                </g>
                                <polygon id="Path" stroke="none" fill="#FFAA00" fill-rule="nonzero" opacity="0.25" style="mix-blend-mode: multiply;" points="21.029361 14.4280286 11.8513694 18.0930669 2.33229706 14.4055268 2.06780163 10.3583518 11.7574143 14.4280286 21.1750308 10.48981"></polygon>
                                <path d="M21.0747594,13.0143597 C21.0747594,13.0143597 18.2568961,13.7596842 16.1855416,16.4978041 C14.114187,19.235924 11.7246484,24.4231927 11.7246484,24.4231927 L11.8825561,14.557513 L21.1477918,10.6066617 L21.0747594,13.0143597 Z" id="Path" stroke="none" fill="#FFFFFF" fill-rule="nonzero" opacity="0.46" style="mix-blend-mode: overlay;"></path>
                                <path d="M20.9800148,10.7937824 C20.9800148,10.7937824 12.1438934,14.2906489 12.06415,14.557513 C11.9844066,14.824377 11.8170244,24.3813472 11.8170244,24.3813472 L11.7246484,24.4231927 L11.7246484,14.7663459 L2.06780163,10.3583518 C2.06780163,10.3583518 11.369356,14.3534172 11.7574143,14.2693314 C12.1454725,14.1852455 21.378337,10.3583518 21.378337,10.3583518 L20.6942018,20.4316802 C20.6942018,20.4316802 20.8521095,18.1262275 20.9705403,15.7686652 C21.0889711,13.4111029 21.1560819,11.001431 20.9800148,10.7937824 Z" id="Path" stroke="none" fill="#FFFFFF" fill-rule="nonzero"></path>
                                <polygon id="Path" stroke="none" fill="#FFAA00" fill-rule="nonzero" opacity="0.25" style="mix-blend-mode: multiply;" points="11.7230693 22.1441895 2.46138663 16.1511966 2.06780163 10.3583518 11.7230693 12.3618061"></polygon>
                                <path d="M11.7246484,6.27683198 L1.30273871,10.0212189 L1.30273871,13.4387367 L11.6693807,17.1633851 L11.7230693,17.1831236 L22.144979,13.438342 L22.144979,10.0208241 L11.7246484,6.27683198 Z M21.8307427,13.2145078 L11.7246484,16.8440168 L1.61855416,13.214113 L1.61855416,10.2454478 L11.7246484,6.61554404 L21.8307427,10.2454478 L21.8307427,13.2145078 Z" id="Shape" stroke="none" fill="#D80313" fill-rule="nonzero"></path>
                                <polygon id="Path" stroke="none" fill="url(#linearGradient-12)" fill-rule="nonzero" points="21.9866765 13.2855662 11.7230693 16.9727116 11.7230693 13.7798174 21.9866765 10.0922773"></polygon>
                                <polygon id="Path" stroke="none" fill="url(#linearGradient-13)" fill-rule="nonzero" points="1.4598569 13.2855662 11.7230693 16.9727116 11.7230693 13.7798174 1.4598569 10.0922773"></polygon>
                                <polygon id="Path" stroke="#FFAA00" stroke-width="0.5" fill="#FFAA00" fill-rule="nonzero" points="1.4598569 10.0922773 11.7230693 13.7798174 21.9866765 10.0922773 11.7230693 6.405132"></polygon>
                                <path d="M11.7246484,6.405132 L1.46064643,10.0922773 L6.57922527,11.9315075 C7.11729583,11.7305699 11.3164569,10.1980755 14.7683198,9.95213422 C18.4637552,9.68961263 21.3791266,10.2411054 21.3791266,10.2411054 L21.9207501,10.0685912 L11.7246484,6.405132 Z" id="Path" stroke="none" fill="#FFFF19" fill-rule="nonzero" opacity="0.46"></path>
                                <path d="M21.9886504,10.5403405 C21.9886504,10.5403405 18.3472983,11.9725635 15.8093264,13.6452011 C13.2713546,15.3178386 11.7246484,16.9356033 11.7246484,16.9356033 L11.7570195,13.8244264 L21.8141623,10.1135949 L21.9886504,10.5403405 Z" id="Path" stroke="none" fill="#FFFF19" fill-rule="nonzero" opacity="0.46"></path>
                                <path d="M13.448606,7.02689366 C13.448606,7.02689366 21.1560819,9.88304959 21.0494942,10.0942512 C20.9429065,10.3054528 12.2082408,13.5011103 11.8170244,13.5326918 C11.425808,13.5642734 1.46064643,10.0922773 1.46064643,10.0922773 C1.46064643,10.0922773 11.408833,13.6902048 11.5323958,13.9748335 C11.6413521,14.2227486 11.7056995,16.3434493 11.7203059,16.8605971 C11.7222798,16.9332346 11.7230693,16.9742906 11.7230693,16.9742906 L11.9137429,16.9056008 C11.9137429,16.9056008 11.7668887,14.0632618 11.9244017,13.9748335 C12.0819146,13.8864051 21.3364915,10.36151 21.6005922,10.3599309 C21.8646928,10.3583518 21.9886504,13.2855662 21.9886504,13.2855662 L21.9886504,10.0922773 L13.448606,7.02689366 Z" id="Path" stroke="none" fill="#FFFFFF" fill-rule="nonzero"></path>
                                <path d="M22.0806316,12.2915371 C21.9622008,12.3010116 21.8331113,12.3069331 21.6988897,12.3069331 C21.3566826,12.3108545 21.0156423,12.2663306 20.6859117,12.1746854 C19.5892425,11.853738 18.4495435,11.5359487 17.5905255,11.4641007 C17.7006662,11.4443622 17.8112016,11.4218604 17.9205527,11.3962003 C19.0045892,11.1478905 19.7238589,10.7329879 19.8454478,10.2861091 L19.8963731,10.1060943 L19.8490007,10.121885 C19.8620281,9.76659265 19.6646435,9.46183074 19.2848754,9.25339255 C19.0231434,9.11009129 18.6867999,9.0212682 18.3003208,8.99205527 C18.4496463,8.87328698 18.5885811,8.74201199 18.7156181,8.59965458 C19.0247224,8.3189736 19.6681964,7.62260054 19.0709104,7.1524303 C18.6848261,6.8488527 17.9466075,6.74068591 17.3848507,6.74068591 C16.5183321,6.74068591 15.9242043,6.96530965 15.9088083,7.29928448 L15.9060449,7.35139403 L17.6430299,7.78090303 L17.7168517,7.71418702 C17.7168517,7.71418702 17.7519862,7.68300025 17.8076487,7.6411547 C17.9655564,7.82432766 18.0634592,8.07540094 17.8617321,8.36437207 C17.6418455,8.68018752 17.2490501,8.94784111 16.756378,9.14285714 C16.6036023,9.18233407 16.4642487,9.221811 16.337133,9.26681471 C16.3521342,9.24273378 16.3663459,9.21944239 16.3785838,9.19575623 C16.3909181,9.17261182 16.4018595,9.14875162 16.4113496,9.12430299 L16.4137182,9.11798668 C16.4225921,9.0954674 16.429977,9.0723895 16.4358253,9.04890205 L16.4358253,9.04298051 C16.4414421,9.01988665 16.4452696,8.99639402 16.4472736,8.97271157 C16.4516161,8.91073279 16.4563533,8.85428078 16.4610906,8.79782877 C16.4788552,8.58504811 16.4914878,8.43108808 16.4689859,8.31305206 L16.4658278,8.29647175 L16.4622749,8.28265482 C16.44588,8.20813984 16.403995,8.14168229 16.3438441,8.09474463 L16.2850234,8.04579324 L16.2629164,8.04855662 C16.0979028,7.96683938 15.8472243,7.94631137 15.529435,7.94275845 C14.4706637,7.93170491 13.7778436,7.82669627 13.4114977,7.621811 C13.224377,7.51719714 12.8982976,7.45482359 12.5430052,7.45482359 C12.4616827,7.45482359 12.3799655,7.45798174 12.2994325,7.46429805 L12.2721934,7.45995559 L12.2303479,7.46390328 C11.8951887,7.49864298 11.0942018,7.64549716 10.9003701,8.26094251 L10.8837898,8.31344683 L10.8865532,8.31344683 C10.8803994,8.33620939 10.8753927,8.35926664 10.8715519,8.38253146 C10.8676042,8.40542808 10.8640513,8.42871947 10.8601036,8.45358993 L10.8601036,8.46266963 C10.8565507,8.48635579 10.8533925,8.51043671 10.8498396,8.53491241 L10.8498396,8.54162349 C10.8312855,8.68255613 10.8178633,8.83888478 10.8079941,9.00310881 C10.703775,8.80888231 10.5987663,8.62807797 10.5083642,8.47253886 C10.4357266,8.34739699 10.3729583,8.2392302 10.3228226,8.14606464 C10.2726869,8.05289909 10.1455712,7.9396003 9.86923267,7.88670121 C9.75593388,7.67194671 9.70777202,7.48443129 9.79027881,7.37784357 C10.0906982,6.99333827 10.5774488,6.79397977 10.582186,6.79240069 L10.7657538,6.7189736 L10.5644214,6.6585739 C10.4882309,6.63607205 9.8096225,6.43631335 9.42867012,6.43631335 C9.39066954,6.43618781 9.35269784,6.4384292 9.31497656,6.44302985 C9.16417469,6.46197878 9.0019245,6.56422403 8.83256847,6.74739699 C8.58110042,7.01899827 8.25896867,7.55825315 8.51991118,7.96565507 C7.86696274,8.09237602 7.1575623,8.30713052 6.60725389,8.49188256 C5.84534912,8.74769307 5.44781643,8.91468048 5.38741673,9.11917098 C5.32938564,9.31300271 5.58480138,9.49696521 6.06602517,9.79856896 C5.7916605,9.68605971 5.23424624,9.50841352 4.44747101,9.50841352 C4.35272638,9.50841352 4.25561313,9.51078214 4.15928942,9.51630891 C3.69227733,9.54196891 3.31606218,9.6347397 3.0701209,9.78317296 L3.0701209,9.78317296 C2.71088083,10.0022699 2.6611399,10.3212435 2.92524056,10.6516654 L2.8707624,10.6465334 L3.04840859,10.8008882 C3.39817419,11.1048606 4.15810511,11.2943499 5.08028621,11.3085616 L5.11739452,11.3085616 C5.11411471,11.3326376 5.11240044,11.3569011 5.11226252,11.3811991 C4.9543548,11.393437 4.79644708,11.4005428 4.63103874,11.4005428 L4.63103874,11.4005428 C3.85413274,11.4005428 3.09143844,11.2584259 2.48428325,11.0010363 C2.02042931,10.8036516 1.85265236,10.5636319 1.80488527,10.3650629 C1.89528744,10.3867752 1.95568715,10.4045398 1.95687145,10.4045398 L2.08675056,10.4440168 L3.15262768,9.6244757 L3.09854429,9.5806563 C3.03495987,9.53098241 2.96481731,9.4903316 2.89010609,9.4598569 L1.3903775,10.0338515 L1.42985443,11.2390822 C1.63868739,11.318036 1.83567728,11.3811991 1.98253146,11.4246237 C2.49336294,11.6077967 3.50910437,11.9125586 4.61130027,11.9125586 L4.61130027,11.9125586 C4.88329632,11.9125586 5.31043671,11.4301505 5.55637799,11.3926474 C5.6059041,11.424317 5.65792162,11.4519101 5.7119171,11.4751542 C6.46197878,11.8004441 7.11650629,12.4285221 7.97710338,12.4285221 L8.12237849,12.2706144 C8.34976561,12.2706144 8.43819393,12.416679 8.67150259,12.3937824 C9.16851715,12.3452258 9.71093018,12.2658771 10.1866272,12.1731063 C9.91028868,12.4431285 9.7401431,12.7174932 9.7646188,12.8994819 C9.82541327,13.3499136 8.76743153,13.9010116 8.30397237,14.0368122 C7.81051073,14.1812978 6.8334567,14.2432766 6.82398224,14.2436714 L6.30722921,14.2760424 L4.22679497,14.3696028 L5.75928942,15.7339255 C5.81021466,15.7169504 7.49627436,15.753664 8.28028621,15.3742906 C8.8617814,15.0928201 10.8237849,13.4316309 10.8758944,13.0692327 C10.902603,12.858665 10.9488591,12.6510414 11.0140637,12.4490501 C11.0555698,12.3293023 11.124832,12.2210801 11.2161855,12.1332346 C11.3651412,12.2776232 11.5473634,12.383106 11.7467555,12.4403652 L11.7416235,12.4518135 L11.889662,12.4723415 C11.9267703,12.4774735 12.8248705,12.5990624 14.1512953,12.5990624 L14.1512953,12.5990624 C14.2590674,12.5990624 14.3676289,12.5990624 14.4750062,12.596299 C15.4086356,12.5820873 16.614261,12.4861584 17.0702196,11.8912411 C18.0867506,11.9267703 18.6887737,12.0570442 18.8648409,12.2800888 C19.1336788,12.6211695 19.8036023,12.8015791 20.8023686,12.8015791 C21.1056592,12.8018155 21.4087464,12.7858704 21.710338,12.753812 L21.7391562,12.7502591 L22.0901061,12.6298544 L22.0806316,12.2915371 Z" id="Path" stroke="none" fill="#D80313" fill-rule="nonzero" opacity="0.29"></path>
                                <path d="M18.5269183,4.2611399 C18.8360227,3.70846287 19.4794967,2.33742906 18.8822107,1.41208981 C18.4961263,0.81440908 17.7579077,0.601233654 17.196151,0.601233654 C16.3296324,0.601233654 15.7355046,1.04298051 15.7201086,1.70066617 L15.7173452,1.80330619 L17.4543301,2.64890205 L17.5277572,2.51823341 C17.5277572,2.51823341 17.5628917,2.4566494 17.6185542,2.37374784 C17.8215279,2.82321243 17.8407947,3.33420797 17.6722428,3.79768073 C17.2293116,5.04673082 16.0844806,5.92943499 14.8239822,5.99338761 C14.7343696,5.99773008 14.6451517,6.00009869 14.5579077,6.00009869 C13.4154453,6.00009869 12.8651369,5.60296077 12.8603997,5.59940785 L12.5224772,5.34438687 L12.8382926,6.87885517 L12.9405379,6.90017271 C12.9563286,6.90372564 13.337281,6.98149519 13.9732544,6.98149519 L13.9732544,6.98149519 C14.6619579,6.97913785 15.3479185,6.89458552 16.0165803,6.72963237 C17.4365655,6.38381446 18.2430792,4.8951394 18.5269183,4.2611399 Z M13.9748335,6.66252159 C13.6851278,6.66418758 13.3956762,6.64505792 13.1087096,6.60528004 L12.9902788,6.02931162 C13.2922773,6.16155934 13.8098199,6.31907229 14.5586973,6.31907229 C14.6510733,6.31907229 14.7462127,6.31670368 14.8409573,6.31157168 C16.2289662,6.24090797 17.4882803,5.27372317 17.9738465,3.9034789 C18.2612386,3.09262275 18.0291142,2.41717246 17.7839625,1.99319023 L17.6706637,1.79580558 L17.5242043,1.96871453 C17.4543527,2.05291649 17.3896254,2.1412409 17.3303726,2.23320997 L16.0473723,1.60947446 C16.1263262,1.1357513 16.6651863,0.920207254 17.1957562,0.920207254 C17.7962003,0.920207254 18.3528251,1.18114977 18.6137676,1.58539354 C19.1340735,2.39032815 18.4633605,3.72267456 18.245053,4.1119171 L18.238342,4.12494449 C17.9766099,4.71078214 17.2289169,6.10668641 15.9439428,6.42013323 C15.2995693,6.57906553 14.6385143,6.66043837 13.9748335,6.66252159 L13.9748335,6.66252159 Z" id="Shape" stroke="none" fill="#D80313" fill-rule="nonzero"></path>
                                <path d="M8.02368616,9.17641253 L7.51680237,7.70076487 L7.35455218,8.0848754 C7.35139403,8.09198125 7.03873674,8.80888231 5.86508759,9.4251172 C5.42692986,9.65555637 4.93897481,9.77510536 4.44391809,9.77330373 L4.44391809,9.77330373 C3.65861204,9.77010232 2.89921796,9.49201632 2.29755736,8.98731804 C1.91674116,8.67408378 1.67302327,8.2247422 1.61815939,7.73471503 C1.70856156,7.77735011 1.76896126,7.81366889 1.7697508,7.81366889 L1.90002467,7.88867506 L2.9659018,6.2752529 L2.91142364,6.18840365 C2.71956575,5.88206267 2.40098692,5.71467536 2.01450777,5.71467536 C1.1511473,5.71231187 0.0789538613,6.53224772 0.0394769307,7.55035776 C-0.00355292376,8.65018505 1.24707624,9.50130767 1.79462127,9.8198865 C2.30545275,10.1811004 3.32119418,10.7811774 4.42339008,10.7811774 L4.42339008,10.7811774 C4.69011489,10.7823595 4.95553769,10.7439097 5.21095485,10.6670614 C6.95978288,10.1349124 7.90565014,9.28300025 7.94512707,9.24589193 L8.02368616,9.17641253 Z M5.11976314,10.3607205 C4.89438066,10.4282403 4.66024582,10.4620302 4.42496916,10.4610151 L4.42496916,10.4610151 C3.40685912,10.4610151 2.45112263,9.89291883 1.97463607,9.55302245 L1.96239822,9.54552184 C1.57710338,9.32168764 0.322131754,8.51912164 0.359634838,7.56022699 C0.390821614,6.75055514 1.30944979,6.03128547 2.01332346,6.03128547 C2.25650136,6.03128547 2.4475697,6.11339748 2.58179127,6.27564767 L1.79383173,7.4662719 C1.69621274,7.41799261 1.59575714,7.3756747 1.49301752,7.33955095 L1.27865778,7.26375524 L1.2810264,7.49035283 C1.2861584,7.97986677 1.43064397,8.67939798 2.09109302,9.23049593 C2.75000894,9.78336086 3.58181667,10.0878681 4.44194424,10.091093 L4.44194424,10.091093 C4.98931178,10.093185 5.52882484,9.96088229 6.01312608,9.70579817 C6.81292869,9.28576363 7.24559585,8.81993585 7.46153467,8.52149025 L7.65260301,9.07969405 C7.39560819,9.28576363 6.51843079,9.93634345 5.11976314,10.3619048 L5.11976314,10.3607205 Z" id="Shape" stroke="none" fill="#D80313" fill-rule="nonzero"></path>
                                <path d="M9.17957069,4.32548729 C9.82659758,5.15805576 10.5612633,6.10194917 10.2517641,6.85201086 C10.1388601,7.12558599 10.1262275,7.33086603 10.214261,7.46192943 C10.2663905,7.53994244 10.3545438,7.58617458 10.4483592,7.58473681 L10.4483592,7.58473681 C10.6457439,7.58473681 10.8668147,7.39995065 11.0010363,7.12519122 C11.1352578,6.85043178 11.3563286,6.1106341 10.5735011,5.10673575 C10.2150506,4.39378238 9.36195411,2.4617814 9.60276339,1.85502097 C9.90318283,1.09785344 10.3899334,0.70584752 10.3946706,0.702294597 L10.5782383,0.55780903 L10.376906,0.439378238 C10.299926,0.394769307 9.62131754,-8.79236023e-06 9.23997039,-8.79236023e-06 C9.20171002,-0.000228857027 9.16355379,0.00401072425 9.12627683,0.0126326178 C8.97586973,0.0521095485 8.81361954,0.251862818 8.64386874,0.612287195 C8.37187269,1.19141377 8.01579077,2.38874907 8.40700716,3.20592154 C8.57162596,3.54305453 8.8669134,3.92321737 9.17957069,4.32548729 Z M10.4786208,7.42166297 L10.4786208,7.26375524 L10.4786208,7.26375524 L10.4786208,7.42166297 Z M8.69755736,1.38879842 C8.86770294,0.779274611 9.11759191,0.374636072 9.20838885,0.322921293 C9.21883192,0.321255525 9.22939568,0.320463243 9.23997039,0.320545872 C9.41564273,0.320545872 9.76067111,0.471354552 10.0255613,0.609918579 C9.71422587,0.9350432 9.469481,1.31791804 9.30510733,1.73698495 C8.96679003,2.59047619 10.157809,4.99304219 10.294794,5.2642487 L10.3018998,5.27806563 L10.3121638,5.29069825 C10.9951147,6.15919072 10.8202319,6.76516161 10.7132494,6.98544288 C10.6342956,7.15006168 10.5304713,7.23375278 10.4763879,7.2578337 C10.474414,7.21835677 10.4823094,7.13150753 10.5474463,6.97320503 C10.9260301,6.05378732 10.132149,5.03212435 9.43222304,4.13086603 C9.12943499,3.74122872 8.84283247,3.37409326 8.69637306,3.06735751 C8.50846287,2.6765359 8.50846287,2.06464347 8.69755736,1.38879842 Z" id="Shape" stroke="none" fill="#D80313" fill-rule="nonzero"></path>
                                <path d="M22.6656797,11.2931656 C22.3041618,11.4625496 21.910579,11.5525999 21.5113743,11.5572662 C21.1571258,11.5614409 20.8081145,11.4715317 20.4999753,11.2967185 C19.3689613,10.6457439 18.192154,10.0006908 17.3248458,9.88226005 C16.9685378,9.83396928 16.6094518,9.80904557 16.249889,9.80764866 C15.5112756,9.80764866 15.0261041,9.93081668 14.8070072,10.1735998 C14.7042076,10.2861586 14.6556247,10.4379621 14.6739699,10.5892919 C14.6917345,10.7582531 14.8831976,10.7582531 14.997286,10.7582531 C15.0975574,10.7582531 15.2373057,10.7519368 15.3987663,10.744831 C15.6415495,10.7341722 15.9439428,10.7207501 16.2672588,10.7207501 C17.6568468,10.7207501 18.4669134,10.9848507 18.6753516,11.5059462 C18.9441895,12.177054 19.6137182,12.5323473 20.6124846,12.5323473 C20.9175774,12.5325428 21.2218659,12.5010556 21.520454,12.4383913 L21.5492721,12.4316802 L22.8283247,11.5671355 L22.6656797,11.2931656 Z M21.4209721,12.1336294 C21.1547546,12.1857431 20.8841494,12.2121823 20.6128793,12.2125833 C20.0151986,12.2125833 19.2450037,12.069282 18.9722181,11.3867259 C18.7065384,10.7231187 17.8218604,10.3998026 16.2676536,10.3998026 C15.9368369,10.3998026 15.6304959,10.4132248 15.3845547,10.4242783 C15.2329632,10.4309894 15.1011103,10.4369109 15.0083395,10.4373057 C15.0178259,10.4182257 15.0299161,10.4005554 15.0442635,10.3848014 C15.1934863,10.219393 15.6328645,10.1246484 16.249889,10.1246484 C16.5950568,10.1262477 16.9397569,10.1502475 17.2818159,10.1964964 C18.0918826,10.3066371 19.2856649,10.963928 20.3408833,11.5710831 C20.697277,11.7741059 21.1012345,11.8787397 21.5113743,11.874266 C21.616903,11.8741288 21.7223408,11.8680661 21.8271897,11.8561066 L21.4209721,12.1336294 Z" id="Shape" stroke="none" fill="#D80313" fill-rule="nonzero"></path>
                                <path d="M12.1738959,9.43498643 C11.7132001,9.43498643 11.2264495,9.69632371 10.7649642,10.1901801 C10.0899087,10.9130027 9.5356526,12.0977054 9.57828769,12.7257834 C9.63908216,13.6132248 8.58110042,14.6976561 8.11764125,14.9653096 C7.62417962,15.2495435 6.64712559,15.3715273 6.63725635,15.3727116 L6.11892425,15.4354799 L7.90722921,16.3517395 L7.98618307,16.3004194 C8.03710831,16.2664693 9.24273378,15.4654824 10.0263509,14.7181841 C10.607846,14.165507 10.6366642,13.7707377 10.6887737,13.0577844 C10.7116704,12.7419689 10.7404885,12.3503578 10.8249692,11.8387367 C11.0772267,10.3133481 12.7348631,9.8996299 12.7514434,9.89568221 L13.1489761,9.80172712 L12.7936837,9.60157908 C12.605117,9.49303058 12.391473,9.43560525 12.1738959,9.43498643 Z M10.5099433,11.7866272 C10.423094,12.3128547 10.3938811,12.7131508 10.3701949,13.034493 C10.3192697,13.7300765 10.2983469,14.0178633 9.80606958,14.487244 C9.15391068,15.1090057 8.16777696,15.7899827 7.88670121,15.9826302 L7.1575623,15.6091784 C7.50456452,15.5393042 7.96368122,15.4212682 8.27554898,15.2416482 C8.87796694,14.8946459 9.96595115,13.7174439 9.89647175,12.7040711 C9.86291636,12.212978 10.3271651,11.1249938 10.9978781,10.4080928 C11.2765852,10.1096472 11.7084629,9.75396003 12.1738959,9.75396003 L12.197582,9.75396003 C11.6204293,10.0077967 10.7073279,10.5916605 10.5099433,11.7854429 L10.5099433,11.7866272 Z" id="Shape" stroke="none" fill="#D80313" fill-rule="nonzero"></path>
                                <path d="M17.379324,1.68961263 C17.379324,1.68961263 18.2643967,2.59363434 17.8238342,3.83636812 C17.3832717,5.0791019 16.2415988,6.06602517 14.8330619,6.13787318 C13.424525,6.20972119 12.7652603,5.7119171 12.7652603,5.7119171 L12.9760671,6.7292376 C12.9760671,6.7292376 14.22038,6.98939057 15.9818406,6.55988157 C17.7433013,6.13037256 18.7120651,3.74320257 18.7795707,2.82339008 C18.8470762,1.9035776 18.2462374,1.00547742 17.379324,1.68961263 Z" id="Path" stroke="none" fill="url(#linearGradient-14)" fill-rule="nonzero"></path>
                                <path d="M15.8792006,1.6900074 L17.3899827,2.42506785 C17.3899827,2.42506785 18.1558352,1.06311374 18.5063903,2.19373304 C18.8569455,3.32435233 18.2900567,4.33496176 18.2900567,4.33496176 C18.2900567,4.33496176 19.4348877,2.54547249 18.7475944,1.48393782 C18.060301,0.422403158 15.9092031,0.519121638 15.8792006,1.6900074 Z" id="Path" stroke="none" fill="#FFE424" fill-rule="nonzero"></path>
                                <path d="M1.48235875,7.02136689 C1.48235875,7.02136689 1.180755,8.25028374 2.1929435,9.09509006 C3.205132,9.93989637 4.6906489,10.20755 5.93890945,9.55144338 C7.18717,8.89533679 7.50061683,8.13224772 7.50061683,8.13224772 L7.83774981,9.11522329 C7.83774981,9.11522329 6.90056748,9.97187269 5.16595115,10.5008636 C3.43133481,11.0298544 1.38169257,9.46696274 0.855070318,8.71018998 C0.328448063,7.95341722 0.387663459,6.87451271 1.48235875,7.02136689 Z" id="Path" stroke="none" fill="url(#linearGradient-15)" fill-rule="nonzero"></path>
                                <path d="M2.77325438,6.25709351 L1.84752036,7.65852455 C1.84752036,7.65852455 0.494645941,6.87688132 0.769010609,8.02842339 C1.04337528,9.17996546 2.04608932,9.76067111 2.04608932,9.76067111 C2.04608932,9.76067111 0.150407106,8.80335554 0.199753269,7.54009376 C0.249099433,6.27683198 2.15149272,5.26464347 2.77325438,6.25709351 Z" id="Path" stroke="none" fill="#FFE424" fill-rule="nonzero"></path>
                                <path d="M10.4373057,5.17582038 C10.4373057,5.17582038 9.13140883,2.59087096 9.45354059,1.78080434 C9.77567234,0.970737725 10.2951887,0.561361954 10.2951887,0.561361954 C10.2951887,0.561361954 9.47446336,0.0765852455 9.16456945,0.152775722 C8.85467555,0.228966198 8.0592154,2.09622502 8.55267703,3.12183568 C9.04613866,4.14744634 10.8999753,5.68033555 10.3990131,6.89622502 C9.89805083,8.11211448 11.8825561,7.01386627 10.4373057,5.17582038 Z" id="Path" stroke="none" fill="url(#linearGradient-16)" fill-rule="nonzero"></path>
                                <path d="M14.8326672,10.5577103 C14.8484579,10.708907 18.2916358,10.1017518 18.8237849,11.4321244 C19.3559339,12.7624969 21.4849247,12.2682457 21.4849247,12.2682457 L22.7387121,11.4202813 C22.7387121,11.4202813 21.5224278,12.0542808 20.4198372,11.4202813 C19.3172465,10.7862818 18.1396496,10.1396496 17.3035283,10.0271404 C16.4674069,9.91463114 14.7564767,9.83567728 14.8326672,10.5577103 Z" id="Path" stroke="none" fill="url(#linearGradient-17)" fill-rule="nonzero"></path>
                                <path d="M12.7143351,9.7247471 C12.7143351,9.7247471 10.9406366,10.1455712 10.6674562,11.7968912 C10.3942758,13.4482112 10.698643,13.8406119 9.91739452,14.5867259 C9.13614606,15.3328399 7.89893906,16.1515914 7.89893906,16.1515914 L6.65541574,15.5144338 C6.65541574,15.5144338 7.66799901,15.3912657 8.19501604,15.0872934 C8.72203306,14.783321 9.80172712,13.6582285 9.73461633,12.6985443 C9.66750555,11.7388601 11.2619788,8.90836417 12.7143351,9.7247471 Z" id="Path" stroke="none" fill="url(#linearGradient-18)" fill-rule="nonzero"></path>
                                <path d="M16.2810757,3.69622502 L16.2779176,3.66464347 C16.2779176,3.65477424 16.275549,3.64569455 16.2743647,3.63700962 C16.2632148,3.50624719 16.2227348,3.37967958 16.1559339,3.26671601 L16.0971132,3.17078707 L16.0750062,3.17591907 C15.9099926,3.0148532 15.6593141,2.97419196 15.3415248,2.96787565 C14.2827535,2.94576857 13.5899334,2.73890945 13.2235875,2.33624476 C13.0364668,2.13017518 12.7103874,2.00700716 12.355095,2.00700716 C12.2733953,2.00715297 12.1918294,2.01362017 12.1111276,2.02635085 L12.0842832,2.01727116 L12.0404639,2.02516654 C11.7049099,2.09346163 10.9043178,2.38045892 10.7104861,3.59437454 L10.693511,3.6978041 L10.6966691,3.6978041 C10.6903528,3.74517641 10.6852208,3.79018011 10.6816679,3.83439428 C10.678115,3.87860844 10.6741673,3.92519122 10.6702196,3.97453738 L10.6702196,3.992302 C10.6666667,4.03888478 10.6635085,4.08625709 10.6599556,4.13481372 L10.6599556,4.14784111 C10.5387614,5.99970392 10.6204787,9.21628423 10.6899581,9.44446089 C10.7475944,9.63355539 11.1696028,9.98608438 11.7688626,9.98608438 L11.7688626,9.98608438 C12.4004935,9.98608438 13.0467308,9.62329139 13.6894152,8.90796941 C13.8323217,8.77493215 15.7891932,6.93017518 16.1894893,5.43399951 C16.2021219,5.38583765 16.2135702,5.33807057 16.2222551,5.29346163 L16.2246237,5.28082902 C16.2340982,5.23227239 16.2415988,5.18766346 16.2467308,5.14502837 L16.2467308,5.13318529 C16.2526524,5.08265482 16.2562053,5.03765112 16.2581791,4.99541081 C16.2626532,4.87250596 16.2672588,4.7574965 16.2719961,4.65038243 C16.290945,4.23192697 16.3039724,3.92913891 16.2810757,3.69622502 Z" id="Path" stroke="none" fill="#D80313" fill-rule="nonzero"></path>
                                <path d="M13.5757217,8.77374784 C13.5757217,8.77374784 16.0426351,6.48645448 16.0998766,4.96580311 C16.1571182,3.44515174 16.2518628,3.12223045 15.3395509,3.10328152 C14.4272391,3.08433259 13.5725635,2.93234641 13.106341,2.41914631 C12.6401184,1.90594621 11.0006415,1.96279299 10.8415495,3.82570935 C10.6824574,5.68862571 10.7815445,9.17878115 10.8415495,9.37537626 C10.9015544,9.57197138 12.0203306,10.5087589 13.5757217,8.77374784 Z" id="Path" stroke="none" fill="url(#linearGradient-19)" fill-rule="nonzero"></path>
                                <path d="M15.3395509,3.10328152 C14.4272391,3.08433259 13.5725635,2.93234641 13.1067358,2.41914631 C12.640908,1.90594621 11.0010363,1.96279299 10.8419442,3.82570935 C10.8091784,4.21179373 10.7870713,4.66854182 10.7736491,5.15094991 C11.0989391,4.97567234 11.5773995,4.85605724 12.2086356,5.06094251 C13.4959783,5.47900321 14.701209,5.82797927 15.4536393,6.06839378 C15.5469431,6.09439554 15.6443609,6.10230152 15.7406366,6.09168517 C15.9471009,5.70086356 16.0868492,5.3132001 16.0998766,4.96580311 C16.1567234,3.44554651 16.2518628,3.12223045 15.3395509,3.10328152 Z" id="Path" stroke="none" fill="#FFFFFF" fill-rule="nonzero" opacity="0.46" style="mix-blend-mode: overlay;"></path>
                                <path d="M16.1085616,4.73723168 C16.1397483,3.97730076 16.1658031,3.55568715 16.0225019,3.33027387 C15.816827,3.37646188 15.4571922,3.39501604 14.8452998,3.23710831 C13.7813965,2.95840118 12.6345917,2.3472983 12.0736245,2.15859857 C11.5497656,2.26479151 11.0156427,2.68245744 10.8691833,3.59634838 C11.2600049,3.84189489 12.1786331,3.74241303 13.1067358,3.84505305 C14.2515667,3.97177399 14.1990624,4.21258327 14.9088576,4.5801135 C15.2404639,4.75104861 15.6991858,4.79131508 16.1085616,4.73723168 Z" id="Path" stroke="none" fill="#FFFFFF" fill-rule="nonzero" opacity="0.46" style="mix-blend-mode: overlay;"></path>
                                <path d="M11.1048606,7.60957316 C11.081964,7.35494695 11.0452504,7.07821367 10.99472,6.78490007 L11.0140637,6.78134715 L10.9848507,6.62343943 C10.8099679,5.67836171 10.525734,4.71591414 10.3184801,4.01322477 C10.2458426,3.76649396 10.1830743,3.5537133 10.1329386,3.37054034 C10.0610906,3.10762398 9.85936343,2.79378238 9.30668641,2.79378238 C9.23646189,2.7940293 9.16632072,2.79864385 9.09666913,2.80759931 C8.29133975,2.89997533 7.19624969,3.53239576 6.41894893,4.04678016 C5.6578337,4.5505058 5.26030101,4.87895386 5.19990131,5.27727609 C5.13476437,5.70441648 5.46281767,6.10629164 6.05812978,6.83622008 C6.13708364,6.93214903 6.21919566,7.03360474 6.30683444,7.1421663 C7.56733284,8.70308414 9.978189,9.29247471 10.2797927,9.36116457 C10.3625691,9.4136981 10.4581172,9.44263552 10.5561313,9.44485566 L10.5561313,9.44485566 C10.6789943,9.44418176 10.795629,9.39068227 10.8762892,9.29800148 C11.1052554,9.04771774 11.1822354,8.47964471 11.1048606,7.60957316 Z" id="Path" stroke="none" fill="#D80313" fill-rule="nonzero"></path>
                                <path d="M10.3429558,9.18746607 C10.3429558,9.18746607 7.72997779,8.62452504 6.4347397,7.01820873 C5.1395016,5.41189243 4.83197631,5.26661732 6.51093018,4.15573649 C8.18988404,3.04485566 9.71132494,2.46770294 9.96358253,3.39067358 C10.2158401,4.31364421 10.8131261,6.06602517 10.9505058,7.59970392 C11.0878855,9.13338268 10.7081174,9.42669627 10.3429558,9.18746607 Z" id="Path" stroke="none" fill="url(#linearGradient-20)" fill-rule="nonzero"></path>
                                <path d="M10.8281273,6.62857143 C10.596003,5.37517888 10.1795213,4.12060202 9.97897853,3.38869973 C9.72672095,2.46572909 8.20488527,3.04288182 6.52632618,4.15376264 C4.84776709,5.26464347 5.15331853,5.40952381 6.4501357,7.01623489 C6.69046572,7.30825578 6.96570032,7.56970212 7.26967678,7.79471996 C7.48285221,7.43508512 7.91196644,6.88201332 8.61702443,6.6893659 C9.44209228,6.46355786 10.315322,6.71936837 10.8281273,6.62857143 Z" id="Path" stroke="none" fill="#FFFFFF" fill-rule="nonzero" opacity="0.46" style="mix-blend-mode: overlay;"></path>
                                <path d="M9.97858377,3.38869973 C9.72632618,2.46572909 8.2044905,3.04288182 6.52593141,4.15376264 C4.9144831,5.21963977 5.13200099,5.39728596 6.29933383,6.83069331 C6.41556505,6.82687806 6.53101571,6.81019597 6.64357266,6.78095238 C7.47693067,6.5594868 8.79506538,5.27490748 9.22457439,4.96738219 C9.53644214,4.74433753 10.157809,4.9748828 10.4755983,5.11857883 C10.2892672,4.43207501 10.0966198,3.81939304 9.97858377,3.38869973 Z" id="Path" stroke="none" fill="#FFFFFF" fill-rule="nonzero" opacity="0.46" style="mix-blend-mode: overlay;"></path>
                                <path d="M19.6595115,7.25704416 C19.6725389,6.55869726 19.4751542,5.95785838 19.0953861,5.54808784 C18.7712805,5.19792746 18.3311128,5.01357019 17.8226499,5.01357019 C17.5807831,5.01598902 17.3404795,5.05267253 17.108907,5.12252652 C15.5787811,5.57058969 15.0478164,6.8231927 14.9771527,7.00754996 C14.0143104,8.41845547 13.6973106,9.26089317 13.9507525,9.73816926 C14.1418209,10.1005675 14.600148,10.1471503 14.9771527,10.1471503 C15.1662472,10.1471503 15.3656057,10.1337281 15.5586479,10.1210955 C15.7437947,10.1084629 15.9182828,10.0970146 16.07698,10.0970146 C16.1271157,10.0970146 16.1717246,10.0970146 16.213965,10.1005675 C16.2562053,10.1041204 16.2929188,10.1037256 16.3323958,10.1037256 L16.3323958,10.1037256 C16.7555885,10.1037256 17.2549716,9.98174192 17.7369849,9.76106588 C18.8210215,9.27273624 19.5402911,8.45556378 19.6614853,7.575623 L19.7096472,7.22664693 L19.6595115,7.25704416 Z" id="Path" stroke="none" fill="#D80313" fill-rule="nonzero"></path>
                                <path d="M15.1196644,7.05650136 C15.1196644,7.05650136 15.5933876,5.70717987 17.1531211,5.25122132 C18.7128547,4.79526277 19.6050333,5.91680237 19.490945,7.42758451 C19.3768566,8.93836664 17.3986677,9.98253146 16.2222551,9.91463114 C15.0458426,9.84673082 12.6113003,10.7246978 15.1196644,7.05650136 Z" id="Path" stroke="none" fill="url(#linearGradient-21)" fill-rule="nonzero"></path>
                                <path d="M18.0887244,8.24396743 C17.5056501,8.37029361 16.4066124,8.9375771 15.84604,9.08956329 C15.3521836,9.22378485 14.5314582,9.51907229 14.109055,9.6142117 C14.3774981,10.1668887 15.5385147,9.86686405 16.2471256,9.90634098 C17.396299,9.97068838 19.3034296,8.97902788 19.5031828,7.52904022 C19.1940785,7.73195164 18.525734,8.1492228 18.0887244,8.24396743 Z" id="Path" stroke="none" fill="#4C0909" fill-rule="nonzero" opacity="0.25" style="mix-blend-mode: multiply;"></path>
                                <path d="M19.4925241,6.95109795 C19.439625,6.20774735 19.117888,5.60888231 18.577054,5.32504318 C18.075697,5.30096225 17.2960276,5.31083148 16.8558599,5.55519368 C16.1717246,5.93535653 15.9944732,6.13787318 16.2479151,6.9234641 C16.501357,7.70905502 17.8317296,8.11922033 19.0480138,7.30599556 C19.2071225,7.20208705 19.3559655,7.08325054 19.4925241,6.95109795 L19.4925241,6.95109795 Z" id="Path" stroke="none" fill="#FFFFFF" fill-rule="nonzero" opacity="0.46" style="mix-blend-mode: overlay;"></path>
                                <path d="M16.2700222,5.97285961 C16.2700222,5.97285961 15.8993338,6.04944486 15.3577103,6.91398964 C14.8160868,7.77853442 13.9973353,9.1665433 14.3115717,9.3955095 C14.625808,9.6244757 16.5645201,9.53802122 17.2676042,8.89178386 C17.9706884,8.24554651 16.8305946,5.77310634 16.2700222,5.97285961 Z" id="Path" stroke="none" fill="#D80313" fill-rule="nonzero"></path>
                                <path d="M6.0553664,6.77542561 C5.57616439,6.30525215 4.93129478,6.04236995 4.25995559,6.04351954 C4.16367826,6.04351954 4.06747256,6.04877326 3.97177399,6.05931409 C3.5047619,6.10944979 3.12854676,6.2906489 2.88181594,6.58475204 L2.88181594,6.58475204 C2.52257587,7.01662966 2.47283494,7.64470762 2.7369356,8.29765606 L2.68206267,8.29015544 L2.85970886,8.59412781 C3.20947446,9.19022946 3.96940538,9.56407599 4.89158648,9.59289415 C4.93106341,9.59447323 4.97054034,9.59526277 5.01001727,9.59526277 C5.41623489,9.59526277 5.79560819,9.5202566 6.07786825,9.38445596 C6.22926889,9.31718976 6.38440509,9.25866769 6.54251172,9.20917839 C7.0083395,9.05127066 7.53654083,8.87362448 7.59022946,8.4539847 C7.64470762,8.02368616 7.17098446,7.5061436 6.0553664,6.77542561 Z" id="Path" stroke="none" fill="#D80313" fill-rule="nonzero"></path>
                                <path d="M5.95193684,6.87451271 C5.95193684,6.87451271 5.22240316,6.0604984 3.98717,6.19393042 C2.75193684,6.32736245 2.45112263,7.37823834 2.97261288,8.41332346 C3.49410313,9.44840859 5.19476931,9.60592154 6.00720454,9.21509993 C6.81963977,8.82427831 8.79427585,8.73111276 5.95193684,6.87451271 Z" id="Path" stroke="none" fill="url(#linearGradient-22)" fill-rule="nonzero"></path>
                                <path d="M4.20310881,8.57952134 C4.65117197,8.49859363 5.59309154,8.57952134 6.03325931,8.52149025 C6.42092277,8.47174932 7.08650382,8.44253639 7.41495189,8.38411054 C7.3865285,8.85191216 6.4797434,8.97981742 5.99141377,9.21312608 C5.19911177,9.59407846 3.56279299,9.44998766 2.99827288,8.48596102 C3.27342709,8.54122872 3.86873921,8.64031582 4.20310881,8.57952134 Z" id="Path" stroke="none" fill="#4C0909" fill-rule="nonzero" opacity="0.25" style="mix-blend-mode: multiply;"></path>
                                <path d="M2.83444362,8.07737478 C2.65442882,7.5369356 2.70653837,7.01939304 3.0057735,6.66173205 C3.35238095,6.49829756 3.90584752,6.27762151 4.28758944,6.32183568 C4.88211202,6.39013077 5.06607451,6.4797434 5.11660498,7.11137429 C5.16713546,7.74300518 4.34798914,8.4180607 3.25132001,8.1993585 C3.10886488,8.1717714 2.96929936,8.13093263 2.83444362,8.07737478 L2.83444362,8.07737478 Z" id="Path" stroke="none" fill="#FFFFFF" fill-rule="nonzero" opacity="0.46" style="mix-blend-mode: overlay;"></path>
                                <path d="M4.82368616,6.44539847 C4.82368616,6.44539847 5.10752529,6.39092031 5.74231434,6.84332593 C6.37710338,7.29573156 7.36086849,8.03552924 7.20532939,8.28857636 C7.04979028,8.54162349 5.6566494,9.04732297 4.97132988,8.79664446 C4.28601036,8.54596595 4.36930669,6.46790032 4.82368616,6.44539847 Z" id="Path" stroke="none" fill="#D80313" fill-rule="nonzero"></path>
                                <path d="M11.2750062,10.3646681 C11.2651369,10.2186035 11.1202566,8.67229213 9.24352332,7.60720454 C8.7330866,7.3170491 8.22304466,7.17058969 7.72760918,7.17058969 C6.66173205,7.17058969 5.91601283,7.84525043 5.55637799,8.1697508 C5.53032322,8.19304219 5.50624229,8.21514927 5.48374044,8.23488774 C5.15726622,8.52504318 4.91527264,9.18233407 4.92158895,9.76185542 C4.92632618,10.2221564 5.07949667,10.590871 5.35978288,10.832075 C6.10984456,11.4719961 6.92820133,11.7964964 7.78919319,11.7964964 L7.78919319,11.7964964 C8.02214435,11.7960347 8.25452425,11.7734312 8.48319763,11.7289909 C9.12907704,11.6027816 9.75929112,11.4066091 10.3626943,11.1439428 C11.2142117,10.7633851 11.2959289,10.5178386 11.2750062,10.3646681 Z" id="Path" stroke="none" fill="#D80313" fill-rule="nonzero"></path>
                                <path d="M11.1159141,10.3575623 C11.1159141,10.3575623 11.0401184,8.78638046 9.16456945,7.72208241 C7.28902048,6.65778436 6.04589193,7.92459906 5.59151246,8.33002714 C5.13713299,8.73545522 4.7806563,10.1041204 5.46479151,10.6867999 C6.14892672,11.2694794 7.13742906,11.8036023 8.45516901,11.5485813 C9.77290896,11.2935603 11.1688132,10.6686405 11.1159141,10.3575623 Z" id="Path" stroke="none" fill="url(#linearGradient-23)" fill-rule="nonzero"></path>
                                <path d="M9.16733284,7.72208241 C7.29217863,6.65620528 6.04865532,7.92459906 5.59427585,8.33002714 C5.45926474,8.44845793 5.3337281,8.65531705 5.23898347,8.89888971 C5.40241796,9.06982482 5.72099679,9.30471256 6.31433506,9.45946213 C7.32810264,9.72395756 10.1017518,10.075697 10.6094251,10.2166297 C10.7886504,10.2663706 10.9619541,10.2415001 11.0831483,10.1313595 C10.9876141,9.65842586 10.6098199,8.54043918 9.16733284,7.72208241 Z" id="Path" stroke="none" fill="#FFFFFF" fill-rule="nonzero" opacity="0.46" style="mix-blend-mode: overlay;"></path>
                                <path d="M10.7866765,10.1293856 C10.7866765,10.1293856 9.64618801,8.93836664 8.70861091,8.60873427 C7.7710338,8.2791019 6.5543548,8.68768813 6.52908956,9.45946213 C6.50382433,10.2312361 7.4161362,10.5348137 8.65768566,10.5853442 C9.89923513,10.6358747 10.7866765,10.1293856 10.7866765,10.1293856 Z" id="Path" stroke="none" fill="#D80313" fill-rule="nonzero"></path>
                                <path d="M15.6774735,6.45171478 L15.6691833,6.44974093 C15.449286,6.40828404 15.2257686,6.38910651 15.0020232,6.39249938 C14.0297064,6.39249938 12.4079941,6.68502344 11.8043918,7.33402418 C11.6156921,7.42284727 11.4119911,7.65812978 11.133284,8.10500864 C10.3824328,9.31142364 10.6350851,10.2221564 10.6469282,10.264002 C10.9130027,11.128152 11.2047372,11.6302985 11.5568715,11.8233407 L11.5521342,11.8458426 L11.6997779,11.8853195 C11.737281,11.8955835 12.6353812,12.1348137 13.9618061,12.1348137 L13.9618061,12.1348137 C14.0691833,12.1348137 14.1781396,12.1348137 14.2855169,12.1300765 C15.3952134,12.0969159 16.8909943,11.8367629 17.052455,9.96831976 C17.1847027,8.44806316 16.6987417,6.67436467 15.6774735,6.45171478 Z" id="Path" stroke="none" fill="#D80313" fill-rule="nonzero"></path>
                                <path d="M11.7751789,11.5604244 L11.7416235,11.706489 C11.7416235,11.706489 12.7881569,11.9899334 14.2811744,11.9433506 C15.774192,11.8967678 16.7646681,11.4123859 16.8937577,9.92726376 C17.0228473,8.44214162 16.5507032,6.77226746 15.6391809,6.58080434 C14.7276585,6.38934123 12.5390575,6.71581545 11.9034789,7.43982235 C11.2679003,8.16382926 11.7751789,11.5604244 11.7751789,11.5604244 Z" id="Path" stroke="none" fill="url(#linearGradient-24)" fill-rule="nonzero"></path>
                                <path d="M16.8511226,10.2209721 C16.8680977,10.1278066 16.8819146,10.0310881 16.8905996,9.92844806 C17.0196891,8.4437207 16.5479398,6.77345176 15.6364175,6.58198865 C14.7248951,6.39052554 12.5362941,6.71699975 11.9007155,7.44100666 C11.8103005,7.55606413 11.7456774,7.68921461 11.7112263,7.83143351 C12.2398224,8.797434 12.9843573,10.0741179 13.2689859,10.3208488 C13.7316556,10.7227239 15.4185048,10.7258821 16.2905502,10.4984949 C16.4958415,10.4491584 16.6874197,10.3543137 16.8511226,10.2209721 L16.8511226,10.2209721 Z" id="Path" stroke="none" fill="#FFFFFF" fill-rule="nonzero" opacity="0.46" style="mix-blend-mode: overlay;"></path>
                                <path d="M10.7993092,10.1917592 C10.7993092,10.1917592 10.5454725,9.32326672 11.2682951,8.16580311 C11.9911177,7.0083395 12.185739,7.34428818 12.4968172,8.27436467 C12.8078954,9.20444115 13.8271897,10.2813718 13.0585739,10.9903775 C12.2899581,11.6993832 11.5162102,12.519319 10.7993092,10.1917592 Z" id="Path" stroke="none" fill="url(#linearGradient-25)" fill-rule="nonzero"></path>
                                <path d="M10.9659018,9.57828769 C10.9659018,9.57828769 11.5912164,8.22580804 12.2291636,9.00547742 C12.8671108,9.7851468 13.1939798,10.484678 12.4640513,10.939847 C11.7341229,11.395016 10.8778682,10.5403405 10.8778682,10.5403405 C10.8778682,10.5403405 10.7136442,10.1637306 10.9659018,9.57828769 Z" id="Path" stroke="none" fill="#D80313" fill-rule="nonzero"></path>
                                <path d="M12.5584012,11.4350111 C12.5584012,11.4350111 12.5985618,11.3970111 12.6584012,11.3350111 C12.5937425,11.3958111 12.5584012,11.4350111 12.5584012,11.4350111 Z" id="Path" stroke="none" fill="#FFFFFF" fill-rule="nonzero"></path>
                                <path d="M16.8838885,9.99792746 C16.8838885,9.99792746 16.4176659,10.3334814 15.4074513,10.3583518 C14.3972366,10.3832223 13.5757217,10.5557365 13.5011103,10.0851715 C13.4264989,9.61460646 12.5232667,7.87446336 12.5232667,7.65378732 C12.5232667,7.43311128 13.2184555,6.90609425 14.1070812,6.83069331 C14.9957069,6.75529238 15.8657784,6.66567974 15.8657784,6.66567974 C15.8657784,6.66567974 15.0067604,6.38934123 13.3392549,6.72765852 C11.4992351,7.10032075 11.0847274,8.4938564 11.0847274,8.4938564 C11.0847274,8.4938564 11.8114977,7.38850234 12.2295584,8.01736985 C12.647619,8.64623736 13.4371577,10.1258327 13.3349124,10.4515174 C13.2559585,10.6998273 12.8473723,11.1392055 12.6566987,11.3350111 C12.8907969,11.1088083 13.5026894,10.5742906 14.0265482,10.6066617 C14.6897607,10.6461387 16.4741179,10.749963 16.7638786,10.3583518 C17.0536393,9.96674069 16.8838885,9.99792746 16.8838885,9.99792746 Z" id="Path" stroke="none" fill="#FFFFFF" fill-rule="nonzero"></path>
                                <path d="M3.32158895,8.22528756 L3.01880089,8.14828756 C3.11903225,8.18925584 3.22014291,8.21496861 3.32158895,8.22528756 L3.32158895,8.22528756 Z" id="Path" stroke="none" fill="#FFFFFF" fill-rule="nonzero"></path>
                                <path d="M4.57932396,8.11053541 C4.385887,7.5665433 4.65827782,6.69489267 4.74552184,6.52079941 C4.83276585,6.34670614 5.50979521,6.72765852 5.50979521,6.72765852 C4.97804096,6.32854676 4.08862571,6.1852455 3.5292376,6.31591414 C2.96984949,6.44658278 2.85023439,6.90846287 2.85023439,6.90846287 C2.85023439,6.90846287 3.06577844,6.68383913 3.48818159,6.53066864 C3.91058475,6.37749815 4.27456205,6.2957809 4.41470516,6.54172218 C4.55484826,6.78766346 4.39496669,7.2617814 4.23547989,7.79669381 C4.13165556,8.1452751 3.64687886,8.18672588 3.32158895,8.17330373 C3.59319023,8.19975327 3.97098446,8.23488774 4.12257587,8.24159882 C4.37049099,8.25304713 4.45457686,8.11922033 4.60103627,8.42358747 C4.74749568,8.7279546 5.10120898,8.83533185 5.10120898,8.83533185 C5.10120898,8.83533185 4.77670861,8.65452751 4.57932396,8.11053541 Z" id="Path" stroke="none" fill="#FFFFFF" fill-rule="nonzero"></path>
                                <path d="M6.72765852,9.11917098 C6.84608932,8.74690353 7.46192943,8.52030595 8.56215149,8.73900814 C9.66237355,8.95771034 10.3780903,9.76027634 10.3780903,9.76027634 C8.80572415,7.76905996 7.17848507,8.40148038 6.79832223,8.5878115 C6.41815939,8.77414261 6.03523316,8.89336294 5.86153467,8.49227733 C5.68783617,8.09119171 7.32454972,7.31152233 7.22072539,7.35968418 C7.11690106,7.40784604 6.11537133,7.71260794 5.54019245,8.38016284 C5.12568468,8.8617814 5.10081421,9.57394523 5.10158668,9.84278312 C5.18687392,9.63868739 5.77034296,9.49657044 6.11852948,9.53999507 C6.29696521,9.56249692 6.48763879,9.70342956 6.6198865,9.8289662 C6.54882803,9.6398717 6.63528251,9.40893166 6.72765852,9.11917098 Z" id="Path" stroke="none" fill="#FFFFFF" fill-rule="nonzero"></path>
                                <path d="M6.62107081,9.82975574 C6.64398601,9.88988695 6.68046046,9.94392318 6.72765852,9.98766346 C6.85201086,10.1060943 6.77739946,9.97897853 6.62107081,9.82975574 Z" id="Path" stroke="none" fill="#FFFFFF" fill-rule="nonzero"></path>
                                <path d="M5.11732509,9.91857883 C5.15032509,9.98608438 5.13932509,9.94818653 5.13932509,9.8443622 C5.11270088,9.86760486 5.10501369,9.89353748 5.11732509,9.91857883 L5.11732509,9.91857883 Z" id="Path" stroke="none" fill="#FFFFFF" fill-rule="nonzero"></path>
                                <path d="M2.45507032,5.95864792 C0.863360474,5.55400938 0.562151493,6.79319023 0.409375771,7.65378732 C0.256600049,8.51438441 1.1716753,8.91941772 1.1716753,8.91941772 C1.03460025,8.68273618 0.914040184,8.4368675 0.810856156,8.18356773 C0.639921046,7.76313842 0.929286948,7.42166297 1.1266716,7.43350604 C1.32405625,7.44534912 1.84752036,7.65852455 1.84752036,7.65852455 C1.71149025,7.54422883 1.56624721,7.44137035 1.41327412,7.35099926 C1.21588946,7.24441155 1.15785838,7.20532939 1.36392795,6.60093758 C1.56999753,5.99654577 2.45507032,5.95864792 2.45507032,5.95864792 Z" id="Path" stroke="none" fill="#FFFFFF" fill-rule="nonzero"></path>
                                <path d="M10.2189983,13.812978 C10.0417469,14.0522082 9.55460153,14.4532939 9.53683691,14.2748581 C9.51907229,14.0964224 9.48630644,13.6752036 9.42748581,13.7798174 C9.42748581,13.7798174 8.98376511,14.4789539 8.41371823,14.9388601 C7.84367135,15.3987663 6.65541574,15.5144338 6.65541574,15.5144338 C6.65541574,15.5144338 7.41021466,15.6328645 7.93486306,15.3735011 C8.45951147,15.1141377 9.07969405,14.5748828 9.0070565,14.860301 C8.93441895,15.1457192 7.8997286,16.1531705 7.8997286,16.1531705 C7.8997286,16.1531705 9.39156181,15.2380952 9.91621021,14.5867259 C10.4408586,13.9353565 10.3792746,13.9487787 10.4586232,13.6736245 C10.5971873,13.1951641 10.565211,12.586035 10.565211,12.586035 C10.565211,12.586035 10.3962497,13.5737478 10.2189983,13.812978 Z" id="Path" stroke="none" fill="#FFFFFF" fill-rule="nonzero"></path>
                                <path d="M18.0595115,10.8164076 C17.9915992,10.7732573 17.9213045,10.7397864 17.8494942,10.7164076 C17.8494942,10.7164076 17.9375278,10.7599659 18.0595115,10.8164076 Z" id="Path" stroke="none" fill="#FFFFFF" fill-rule="nonzero"></path>
                                <path d="M21.8737725,11.6768813 C21.1391068,11.845053 20.6934123,11.5517395 20.2200839,11.3054034 C19.7467555,11.0590674 18.9252406,10.6066617 18.9252406,10.6066617 L18.3172958,10.3034789 C18.3172958,10.3034789 18.7693067,10.7827288 18.7835184,10.9023439 C18.7933876,10.9856403 18.3370343,10.862867 18.0583272,10.7811498 C18.3685989,10.9015294 18.6316819,11.1189191 18.8083888,11.4009376 C19.1668394,11.9796694 19.4340982,12.1091537 19.4340982,12.1091537 C19.4340982,12.1091537 19.1676289,11.7143844 19.1020972,11.3373797 C19.0365655,10.960375 19.3389588,11.010116 19.7056995,11.3227733 C20.0724402,11.6354305 20.6298544,11.7795213 21.0372564,11.8813718 C21.4446583,11.9832223 21.3739946,11.9524303 21.1276585,12.1340242 C20.8813225,12.3156181 20.0424377,12.3112756 20.0424377,12.3112756 C20.0424377,12.3112756 20.2441648,12.3246978 20.6034049,12.3582531 C20.962645,12.3918085 21.4833457,12.2686405 21.4833457,12.2686405 L22.7387121,11.5000247 C22.7387121,11.5000247 22.6084382,11.5087096 21.8737725,11.6768813 Z" id="Path" stroke="none" fill="#FFFFFF" fill-rule="nonzero"></path>
                                <path d="M19.1956575,7.25349124 C19.485813,6.87174932 19.5035776,7.04781643 19.4096225,6.44342462 C19.3156674,5.83903282 19.4352825,6.40118431 19.0495929,6.83069331 C18.6639033,7.26020232 17.6185542,7.57957069 17.4882803,7.30599556 C17.3580064,7.03242043 17.0512707,6.09839625 16.874414,5.96101653 C16.6975574,5.82363681 17.6138169,5.51808537 18.1589933,5.51808537 C18.7041698,5.51808537 18.8356279,5.33254379 18.577054,5.32464841 C18.3184801,5.31675302 16.9131014,4.92000987 15.774192,6.38223538 L15.8243277,6.36920799 C15.8243277,6.36920799 16.3770047,5.92232914 16.5037256,6.11892425 C16.6304466,6.31551937 16.7232174,6.10668641 17.072983,6.90056748 C17.4227486,7.69444856 17.4882803,8.24673082 17.4882803,8.24673082 C17.4882803,8.24673082 17.5119664,7.90328152 17.7188256,7.81840612 C17.9256847,7.73353072 18.9058969,7.63483839 19.1956575,7.25349124 Z" id="Path" stroke="none" fill="#FFFFFF" fill-rule="nonzero"></path>
                                <path d="M15.9971532,5.62842031 C15.9949427,5.63689278 15.9922721,5.64523849 15.9891532,5.65342031 C15.9891532,5.65342031 15.9921532,5.64642031 15.9971532,5.62842031 Z" id="Path" stroke="none" fill="#FFFFFF" fill-rule="nonzero"></path>
                                <path d="M11.1324944,3.79649642 C11.5821367,3.77281026 11.9366395,3.90584752 12.3708858,3.67530225 C12.805132,3.44475697 13.1683198,3.2501357 13.7265236,3.75425611 C14.2847274,4.25837651 15.534567,4.22797927 15.632075,4.53589933 C15.7228719,4.82408093 16.0225019,5.32188502 15.9751295,5.56703676 C16.0311868,5.38188996 16.2202813,4.68670121 16.1330373,3.97098446 C16.0296077,3.13486306 15.9613126,3.2603997 15.9613126,3.2603997 C15.9613126,3.2603997 15.9218357,3.80557612 15.8792006,3.93861337 C15.8365655,4.07165063 15.0663706,4.01756723 14.5346163,3.66227486 C14.0028621,3.30698248 12.8694794,2.6919319 12.2485073,2.70969652 C11.6275352,2.72746114 11.4068591,2.74404145 11.5130521,2.54034049 C11.619245,2.33663953 12.0199358,2.18188996 12.0199358,2.18188996 C12.0199358,2.18188996 11.1399951,2.39388108 10.9876141,3.14867999 C10.9236615,3.46449544 10.8802369,3.75228226 10.8514187,3.97769553 C10.90282,3.86857589 11.0118874,3.79826423 11.1324944,3.79649642 Z" id="Path" stroke="none" fill="#FFFFFF" fill-rule="nonzero"></path>
                                <path d="M10.8062818,4.48142117 C10.8062818,4.48142117 10.8250696,4.28719467 10.8862818,3.97769553 C10.7262818,4.18100173 10.8062818,4.48142117 10.8062818,4.48142117 Z" id="Path" stroke="none" fill="#FFFFFF" fill-rule="nonzero"></path>
                                <path d="M16.0163512,5.56624722 C16.0033512,5.61024722 15.9923512,5.64324722 15.9853512,5.66624722 C15.9993073,5.63414668 16.0097027,5.6006131 16.0163512,5.56624722 Z" id="Path" stroke="none" fill="#FFFFFF" fill-rule="nonzero"></path>
                                <path d="M6.00680977,6.47105848 C6.12941975,6.59144791 6.23849797,6.72488339 6.33209968,6.86898594 C6.33209968,6.86898594 6.25788305,5.96496422 6.43513447,5.87850975 C6.61238589,5.79205527 7.39718727,5.90732791 7.46153467,5.31359487 C7.52588206,4.71986183 7.99526277,4.35667407 8.43819393,4.32114483 C8.88112509,4.28561559 9.37774488,4.02862077 9.6347397,4.21495189 L10.4542808,5.10752529 L10.4542808,5.10752529 C10.4649396,5.07791759 10.0563533,3.5047619 9.93515914,3.30185048 C9.81396496,3.09893906 9.83765112,2.96511226 9.4302492,2.93866272 C9.02284727,2.91221318 8.59689119,3.05393536 8.59689119,3.05393536 C8.59689119,3.05393536 9.50209721,2.89602763 9.60355292,3.14749568 C9.70500864,3.39896373 9.05837651,3.3993585 8.44806316,3.77675796 C7.83774981,4.15415741 7.14019245,4.77236615 6.69528744,5.01278066 C6.25038243,5.25319516 5.75415741,5.45136936 5.75415741,5.14818653 C5.75415741,4.8450037 5.96101653,4.53668887 5.96101653,4.53668887 C5.96101653,4.53668887 5.24056255,5.00093758 5.37202073,5.41031335 C5.5034789,5.81968912 5.79087096,6.25393536 6.00680977,6.47105848 Z" id="Path" stroke="none" fill="#FFFFFF" fill-rule="nonzero"></path>
                                <path d="M16.8475697,1.2154947 C17.4144584,1.26326178 17.5652603,1.70816679 17.4227486,2.00503331 C17.2802369,2.30189983 17.4227486,2.36822107 17.4227486,2.36822107 C17.4227486,2.36822107 17.9754256,1.77962003 18.1653096,1.74764372 C18.3551937,1.71566741 18.494942,2.15622995 18.494942,2.15622995 C18.494942,2.15622995 18.6528497,1.35524303 18.4096718,1.12430299 C18.166494,0.893362941 17.6327659,0.642289662 16.9119171,0.74611399 C16.1910683,0.849938317 15.9644708,1.33826795 15.9644708,1.33826795 C15.9644708,1.33826795 16.2802862,1.16772761 16.8475697,1.2154947 Z" id="Path" stroke="none" fill="#FFFFFF" fill-rule="nonzero"></path>
                                <path d="M8.89888971,1.26523563 C9.19141377,1.40379965 9.04061189,1.38919319 9.15588453,1.2154947 C9.27115717,1.0417962 9.41287935,1.22970639 9.35090057,1.72593141 C9.31132477,2.01394354 9.3475178,2.30729759 9.4559092,2.57705403 C9.4272548,2.26720605 9.44481655,1.95481969 9.50801875,1.6501357 C9.61302739,1.15746361 10.2951887,0.560177646 10.2951887,0.560177646 C10.2951887,0.560177646 9.73185295,0.910732791 9.6552677,0.79703923 C9.57868246,0.68334567 9.43064397,0.733876141 9.32405625,0.79703923 C9.21746854,0.860202319 9.09351098,0.964026647 8.99639773,0.746508759 C8.89928448,0.528990871 9.26207747,0.145275105 9.26207747,0.145275105 C9.26207747,0.145275105 9.06469282,0.0382926227 8.84046385,0.560572415 C8.70695509,0.87248152 8.59200818,1.19201285 8.49622502,1.51749321 C8.49622502,1.51749321 8.60597089,1.12627683 8.89888971,1.26523563 Z" id="Path" stroke="none" fill="#FFFFFF" fill-rule="nonzero"></path>
                            </g>
                        </g>
                    </g>
                </g>
            </g>
        </g>
    </g>
</svg>