<?xml version="1.0" encoding="UTF-8"?>
<svg width="32px" height="28px" viewBox="0 0 32 28" version="1.1" xmlns="http://www.w3.org/2000/svg" xmlns:xlink="http://www.w3.org/1999/xlink">
    <title>7C431535-460B-417E-9D93-2753CDD98C2A</title>
    <g id="Master-mfast" stroke="none" stroke-width="1" fill="none" fill-rule="evenodd">
        <g id="Contest-sau-tết-2.2" transform="translate(-53.000000, -158.000000)" fill="#006ABD" fill-rule="nonzero">
            <g id="Group-46" transform="translate(16.000000, 112.000000)">
                <g id="Group-12" transform="translate(0.000000, 32.000000)">
                    <g id="Group-7" transform="translate(27.000000, 14.000000)">
                        <g id="card" transform="translate(10.000000, 0.000000)">
                            <path d="M19.3333333,3.55271368e-15 C20.436,3.55271368e-15 21.3333333,0.858075 21.3333333,1.9125 L21.333,2.549 L28.6666667,2.55 C30.504,2.55 32,3.98055 32,5.7375 L32,24.8125 C32,26.56945 30.504,28 28.6666667,28 L3.33333333,28 C1.496,28 0,26.56945 0,24.8125 L0,5.7375 C0,3.98055 1.496,2.55 3.33333333,2.55 L10.666,2.549 L10.6666667,1.9125 C10.6666667,0.858075 11.564,3.55271368e-15 12.6666667,3.55271368e-15 L19.3333333,3.55271368e-15 Z M21.3333333,4.4625 C21.3333333,5.516925 20.436,6.375 19.3333333,6.375 L12.6666667,6.375 C11.564,6.375 10.6666667,5.516925 10.6666667,4.4625 L10.666,3.824 L3.33333333,3.825 C2.23066667,3.825 1.33333333,4.683075 1.33333333,5.7375 L1.33333333,24.8125 C1.33333333,25.866925 2.23066667,26.725 3.33333333,26.725 L28.6666667,26.725 C29.7693333,26.725 30.6666667,25.866925 30.6666667,24.8125 L30.6666667,5.7375 C30.6666667,4.683075 29.7693333,3.825 28.6666667,3.825 L21.333,3.824 L21.3333333,4.4625 Z M12.7659836,17 C14.6033169,17 16.0993169,18.683 16.0993169,20.75 L16.0993169,22.25 C16.0993169,22.664 15.8006502,23 15.4326502,23 C15.0646502,23 14.7659836,22.664 14.7659836,22.25 L14.7659836,20.75 C14.7659836,19.5095 13.8686502,18.5 12.7659836,18.5 L7.43265023,18.5 C6.32998356,18.5 5.43265023,19.5095 5.43265023,20.75 L5.43265023,22.25 C5.43265023,22.664 5.13398356,23 4.76598356,23 C4.39798356,23 4.0993169,22.664 4.0993169,22.25 L4.0993169,20.75 C4.0993169,18.683 5.5953169,17 7.43265023,17 L12.7659836,17 Z M27.4326502,21.1098768 C27.8006502,21.1098768 28.0993169,21.3954768 28.0993169,21.7473768 C28.0993169,22.0992768 27.8006502,22.3848768 27.4326502,22.3848768 L19.4326502,22.3848768 C19.0646502,22.3848768 18.7659836,22.0992768 18.7659836,21.7473768 C18.7659836,21.3954768 19.0646502,21.1098768 19.4326502,21.1098768 L27.4326502,21.1098768 Z M27.4326502,16.0098768 C27.8006502,16.0098768 28.0993169,16.2954768 28.0993169,16.6473768 C28.0993169,16.9992768 27.8006502,17.2848768 27.4326502,17.2848768 L19.4326502,17.2848768 C19.0646502,17.2848768 18.7659836,16.9992768 18.7659836,16.6473768 C18.7659836,16.2954768 19.0646502,16.0098768 19.4326502,16.0098768 L27.4326502,16.0098768 Z M10.0159836,9 C11.8073836,9 13.2659836,10.4586 13.2659836,12.25 C13.2659836,14.0414 11.8073836,15.5 10.0159836,15.5 C8.22458356,15.5 6.76598356,14.0414 6.76598356,12.25 C6.76598356,10.4586 8.22458356,9 10.0159836,9 Z M10.0159836,10.3 C8.94088356,10.3 8.06598356,11.1749 8.06598356,12.25 C8.06598356,13.3251 8.94088356,14.2 10.0159836,14.2 C11.0910836,14.2 11.9659836,13.3251 11.9659836,12.25 C11.9659836,11.1749 11.0910836,10.3 10.0159836,10.3 Z M27.4326502,10.9098768 C27.8006502,10.9098768 28.0993169,11.1954768 28.0993169,11.5473768 C28.0993169,11.8992768 27.8006502,12.1848768 27.4326502,12.1848768 L19.4326502,12.1848768 C19.0646502,12.1848768 18.7659836,11.8992768 18.7659836,11.5473768 C18.7659836,11.1954768 19.0646502,10.9098768 19.4326502,10.9098768 L27.4326502,10.9098768 Z M19.3333333,1.275 L12.6666667,1.275 C12.2986667,1.275 12,1.5606 12,1.9125 L12,4.4625 C12,4.8144 12.2986667,5.1 12.6666667,5.1 L19.3333333,5.1 C19.7013333,5.1 20,4.8144 20,4.4625 L20,1.9125 C20,1.5606 19.7013333,1.275 19.3333333,1.275 Z" id="Combined-Shape"></path>
                        </g>
                    </g>
                </g>
            </g>
        </g>
    </g>
</svg>