<?xml version="1.0" encoding="UTF-8"?>
<svg width="28px" height="32px" viewBox="0 0 28 32" version="1.1" xmlns="http://www.w3.org/2000/svg" xmlns:xlink="http://www.w3.org/1999/xlink">
    <title>5F21C575-0875-4433-8CB9-4A1274B311BA</title>
    <defs>
        <linearGradient x1="50%" y1="0%" x2="50%" y2="100%" id="linearGradient-1">
            <stop stop-color="#009EEF" offset="0%"></stop>
            <stop stop-color="#0065DA" offset="100%"></stop>
        </linearGradient>
    </defs>
    <g id="Master-mfast" stroke="none" stroke-width="1" fill="none" fill-rule="evenodd">
        <g id="Contest-sau-tết-2.2" transform="translate(-56.000000, -528.000000)" fill="url(#linearGradient-1)">
            <g id="Group-46" transform="translate(16.000000, 112.000000)">
                <g id="Group-20-Copy-3" transform="translate(0.000000, 372.000000)">
                    <g id="Group-12" transform="translate(0.000000, 32.000000)">
                        <g id="icons/card" transform="translate(38.000000, 12.000000)">
                            <g transform="translate(2.666667, 0.000000)" id="Combined-Shape">
                                <path d="M18.1194805,0 C18.8424715,-1.83720154e-15 19.4285714,0.586099964 19.4285714,1.30909091 L19.428,6.222 L24.8888889,6.22222222 C25.8707284,6.22222222 26.6666667,7.01816044 26.6666667,8 L26.6666667,18.6666667 C26.6666667,19.6485062 25.8707284,20.4444444 24.8888889,20.4444444 L19.428,20.444 L19.4285714,30.6909091 C19.4285714,31.4139 18.8424715,32 18.1194805,32 L1.30909091,32 C0.586099964,32 -5.9393826e-12,31.4139 -5.94013727e-12,30.6909091 L-5.94013727e-12,1.30909091 C-5.94000377e-12,0.586099964 0.586099964,7.98945097e-16 1.30909091,0 L18.1194805,0 Z M18.2857143,1.14285714 L1.14285714,1.14285714 L1.14285714,30.8571429 L18.2857143,30.8571429 L18.285,20.444 L8.88888889,20.4444444 C7.90704933,20.4444444 7.11111111,19.6485062 7.11111111,18.6666667 L7.11111111,8 C7.11111111,7.01816044 7.90704933,6.22222222 8.88888889,6.22222222 L18.285,6.222 L18.2857143,1.14285714 Z M24.4841949,7.30691416 L9.36031357,7.30691416 C8.81048342,7.30691416 8.35781769,7.72292453 8.29990595,8.25735574 L8.2936469,8.37358082 L8.2936469,18.2338093 C8.2936469,18.7836395 8.70965728,19.2363052 9.24408848,19.2942169 L9.36031357,19.300476 L24.4841949,19.300476 C25.0340251,19.300476 25.4866908,18.8844656 25.5446025,18.3500344 L25.5508616,18.2338093 L25.5508616,8.37358082 C25.5508616,7.78447709 25.0732987,7.30691416 24.4841949,7.30691416 Z M13.3329432,12.8574885 C13.7372233,12.8574885 14.0628885,12.9830037 14.3099486,13.2340381 C14.5570086,13.4850724 14.699788,13.8374449 14.7382908,14.2911662 L14.0163657,14.2911662 C13.9987186,14.0289748 13.9357513,13.8388424 13.827462,13.7207633 C13.7191726,13.6026842 13.5543347,13.5436455 13.3329432,13.5436455 C13.0923003,13.5436455 12.9122219,13.6435928 12.7927026,13.8434905 C12.6731833,14.0433882 12.6118203,14.3534574 12.6086117,14.7737075 L12.6086117,15.0805257 C12.6086117,15.5193708 12.6659641,15.8401321 12.7806705,16.042819 C12.895377,16.245506 13.0762575,16.346848 13.3233176,16.346848 C13.5463133,16.346848 13.7127555,16.2878093 13.8226491,16.1697302 C13.9325427,16.0516511 13.99551,15.8689566 14.0115529,15.6216414 L14.733478,15.6216414 C14.7062051,16.058627 14.5670354,16.4026318 14.3159646,16.6536662 C14.0648939,16.9047005 13.7340148,17.0302157 13.3233176,17.0302157 C12.8741175,17.0302157 12.5207787,16.8549592 12.2632908,16.5044409 C12.0058029,16.1539227 11.8770609,15.6727808 11.8770609,15.0610009 L11.8770609,14.8127571 C11.8770609,14.4222592 11.9364186,14.0782544 12.0551358,13.7807323 C12.1738529,13.4832101 12.3435036,13.2549583 12.564093,13.0959699 C12.7846823,12.9369815 13.0409632,12.8574885 13.3329432,12.8574885 Z M16.2230502,13.9006703 C16.5439074,13.9006703 16.798584,13.9941094 16.9870876,14.1809905 C17.1755912,14.3678716 17.2698416,14.630524 17.2698416,14.9689554 L17.2698416,16.2771166 C17.2714459,16.5634816 17.3059376,16.7801117 17.3733176,16.9270133 L17.3733176,16.9744306 L16.6706438,16.9744306 C16.6385581,16.9019096 16.6152963,16.8117245 16.6008577,16.7038728 C16.4324076,16.9214358 16.2134259,17.0302157 15.9439058,17.0302157 C15.6888243,17.0302157 15.4774628,16.9446794 15.3098149,16.7736042 C15.142167,16.6025289 15.0583443,16.3868286 15.0583443,16.1264967 C15.0583443,15.8066604 15.160616,15.5612083 15.3651625,15.3901331 C15.569709,15.2190579 15.8652942,15.1325918 16.2519272,15.1307323 L16.5719807,15.1307323 L16.5719807,14.9577984 C16.5719807,14.8183349 16.5410986,14.7067657 16.4793336,14.6230876 C16.4175686,14.5394095 16.3201097,14.4975711 16.1869539,14.4975711 C16.069841,14.4975711 15.977997,14.5301121 15.9114192,14.5951951 C15.8448413,14.6602781 15.8115529,14.7495334 15.8115529,14.8629637 L15.1160983,14.8629637 C15.1160983,14.6881694 15.1626219,14.5263942 15.2556705,14.3776331 C15.3487191,14.228872 15.4802686,14.1121893 15.6503229,14.0275814 C15.8203772,13.9429736 16.0112844,13.9006703 16.2230502,13.9006703 Z M21.7939058,12.6901331 L21.7939058,16.9744306 L21.1658309,16.9744306 L21.1321411,16.6536662 C20.9588782,16.9047005 20.7358858,17.0302157 20.4631571,17.0302157 C20.1567385,17.0302157 19.9108853,16.8902895 19.7255903,16.6104327 C19.5402953,16.3305759 19.4476491,15.9414786 19.4476491,15.443129 C19.4476491,14.9726721 19.538691,14.5979857 19.7207775,14.3190587 C19.9028639,14.0401317 20.1519256,13.9006703 20.46797,13.9006703 C20.7214472,13.9006703 20.9308034,14.0103799 21.0960448,14.2298025 L21.0960448,12.6901331 L21.7939058,12.6901331 Z M19.060216,13.9006703 C19.1372217,13.9006703 19.2094135,13.9127569 19.2767935,13.9369306 L19.2671678,14.7123438 C19.172515,14.6974677 19.0890933,14.6900298 19.0169005,14.6900298 C18.7537975,14.6900298 18.5813394,14.7932312 18.4995208,14.9996372 L18.4995208,16.9744306 L17.8040662,16.9744306 L17.8040662,13.9564554 L18.4610181,13.9564554 L18.4802694,14.3162695 C18.6198423,14.039202 18.8131559,13.9006703 19.060216,13.9006703 Z M16.5719807,15.6021166 L16.3120876,15.6021166 C15.9639575,15.6021166 15.7786653,15.741578 15.7562053,16.020505 L15.7537989,16.0679224 C15.7537989,16.1683361 15.7842798,16.2510832 15.8452427,16.3161662 C15.9062056,16.3812491 15.9896272,16.4137901 16.0955101,16.4137901 C16.1981844,16.4137901 16.2928359,16.3872925 16.3794673,16.3342963 C16.4660988,16.2813002 16.5302692,16.2101749 16.5719807,16.1209182 L16.5719807,15.6021166 Z M20.6460448,14.5561455 C20.310749,14.5561455 20.1431037,14.8713283 20.1431037,15.5017033 C20.1431037,15.7843494 20.1856166,16.0009795 20.2706438,16.1516 C20.3556709,16.3022206 20.4791991,16.3775298 20.641232,16.3775298 C20.8562063,16.3775298 21.0078091,16.2724689 21.0960448,16.0623438 L21.0960448,14.8713314 C21.0094134,14.6612064 20.8594149,14.5561455 20.6460448,14.5561455 Z M24.7216086,9.83204573 C24.8421071,9.83204573 24.9397904,9.92972906 24.9397904,10.0502275 L24.9397904,10.56593 C24.9397904,10.6864285 24.8421071,10.7841118 24.7216086,10.7841118 L9.68578924,10.7841118 C9.56529075,10.7841118 9.46760742,10.6864285 9.46760742,10.56593 L9.46760742,10.0502275 C9.46760742,9.92972906 9.56529075,9.83204573 9.68578924,9.83204573 L24.7216086,9.83204573 Z"></path>
                            </g>
                        </g>
                    </g>
                </g>
            </g>
        </g>
    </g>
</svg>