<?xml version="1.0" encoding="UTF-8"?>
<svg width="36px" height="36px" viewBox="0 0 36 36" version="1.1" xmlns="http://www.w3.org/2000/svg" xmlns:xlink="http://www.w3.org/1999/xlink">
    <title>8526086B-8C27-4D75-9F9C-59075179D6A0</title>
    <defs>
        <circle id="path-1" cx="17" cy="17" r="17"></circle>
    </defs>
    <g id="Master-mfast" stroke="none" stroke-width="1" fill="none" fill-rule="evenodd">
        <g id="Contest-sau-tết-2.2" transform="translate(-324.000000, -47.000000)">
            <g id="Group" transform="translate(16.000000, 48.000000)">
                <g id="Anna" transform="translate(309.000000, 0.000000)">
                    <mask id="mask-2" fill="white">
                        <use xlink:href="#path-1"></use>
                    </mask>
                    <use id="Oval-Copy-26" stroke="#39B818" stroke-width="0.5" fill="#FFFFFF" xlink:href="#path-1"></use>
                    <g id="icon/-Bell/-1" mask="url(#mask-2)">
                        <g transform="translate(5.000000, 5.000000)" id="bell">
                            <g transform="translate(1.500000, 0.000000)">
                                <path d="M14.1590048,20.7014526 C13.7987634,22.4709963 12.2300068,23.8078712 10.3546657,23.8078712 C8.47951435,23.8078712 6.91075772,22.4709963 6.55032671,20.7014526 L6.55032671,20.7014526 Z M10.3546657,-1.08126068e-15 C10.926312,-1.08126068e-15 11.3902651,0.462815419 11.3902651,1.03540968 L11.3902651,1.03540968 L11.3902651,1.11038626 C14.8963621,1.61567225 17.6031024,4.63203061 17.6031024,8.2757778 L17.6031024,8.2757778 L17.6031024,11.1626388 C17.6031024,13.2118437 18.500862,15.1461506 20.0663954,16.4695638 C20.4785874,16.8226004 20.7095211,17.3237152 20.7095211,17.8538389 C20.7095211,18.8532244 19.8967027,19.6660429 18.8973171,19.6660429 L18.8973171,19.6660429 L1.81201436,19.6660429 C0.812818427,19.6660429 0,18.8532244 0,17.8538389 C0,17.3237152 0.230933689,16.8226004 0.633645731,16.4777167 C2.20865912,15.1461506 3.10641869,13.2118437 3.10641869,11.1626388 L3.10641869,11.1626388 L3.10641869,8.2757778 C3.10641869,4.63203061 5.81202141,1.61567225 9.31925606,1.11038626 L9.31925606,1.11038626 L9.31925606,1.03540968 C9.31925606,0.462815419 9.78320911,-1.08126068e-15 10.3546657,-1.08126068e-15 Z" id="Combined-Shape" fill="#39B818" fill-rule="nonzero"></path>
                            </g>
                        </g>
                    </g>
                </g>
            </g>
        </g>
    </g>
</svg>