<?xml version="1.0" encoding="UTF-8"?>
<svg width="32px" height="28px" viewBox="0 0 32 28" version="1.1" xmlns="http://www.w3.org/2000/svg" xmlns:xlink="http://www.w3.org/1999/xlink">
    <title>2F95C286-B2D3-4411-BBBD-A85385216CA4</title>
    <g id="Master-mfast" stroke="none" stroke-width="1" fill="none" fill-rule="evenodd">
        <g id="Contest-sau-tết-2.2" transform="translate(-172.000000, -158.000000)" fill="#1E3E97" fill-rule="nonzero">
            <g id="Group-46" transform="translate(16.000000, 112.000000)">
                <g id="Group-12" transform="translate(0.000000, 32.000000)">
                    <g id="Group-7" transform="translate(119.000000, 0.000000)">
                        <g id="suitcase" transform="translate(37.000000, 14.000000)">
                            <path d="M19.347356,-4.4408921e-16 C20.4128418,-4.4408921e-16 21.3451419,0.98 21.3451419,2.1 L21.345,4.2 L28.6703568,4.2 C30.534957,4.2 32,5.74 32,7.7 L32,24.5 C32,26.46 30.534957,28 28.6703568,28 L3.36506875,28 C1.50046858,28 0.0354255818,26.46 0.0354255818,24.5 L0.0341073463,10.6812372 C-0.00816999266,10.5375789 -0.0149279692,10.3787895 0.0354255818,10.22 L0.0354255818,7.7 C0.0354255818,5.74 1.50046858,4.2 3.36506875,4.2 L10.69,4.2 L10.6902837,2.1 C10.6902837,0.98 11.6225838,-4.4408921e-16 12.6880696,-4.4408921e-16 L19.347356,-4.4408921e-16 Z M30.668,11.361 L16.0177128,16.8775841 L1.367,11.54 L1.36728285,24.5 C1.36728285,25.62 2.29958294,26.6 3.36506875,26.6 L28.6703568,26.6 C29.7358426,26.6 30.6681427,25.62 30.6681427,24.5 L30.668,11.361 Z M28.6703568,5.6 L3.36506875,5.6 C2.29958294,5.6 1.36728285,6.58 1.36728285,7.7 L1.367,9.949 L16.0177128,15.4 L30.668,9.948 L30.6681427,7.7 C30.6681427,6.58 29.7358426,5.6 28.6703568,5.6 Z M19.347356,1.4 L12.6880696,1.4 C12.2885124,1.4 12.022141,1.68 12.022141,2.1 L12.022,4.2 L20.013,4.2 L20.0132846,2.1 C20.0132846,1.68 19.7469131,1.4 19.347356,1.4 Z" id="Combined-Shape"></path>
                        </g>
                    </g>
                </g>
            </g>
        </g>
    </g>
</svg>