<?xml version="1.0" encoding="UTF-8"?>
<svg width="36px" height="36px" viewBox="0 0 36 36" version="1.1" xmlns="http://www.w3.org/2000/svg" xmlns:xlink="http://www.w3.org/1999/xlink">
    <title>DF5929F7-51A7-4598-B85A-2854D570AC2B</title>
    <defs>
        <circle id="path-1" cx="17" cy="17" r="17"></circle>
    </defs>
    <g id="Master-mfast" stroke="none" stroke-width="1" fill="none" fill-rule="evenodd">
        <g id="Contest-sau-tết-2.2" transform="translate(-266.000000, -47.000000)">
            <g id="Group" transform="translate(16.000000, 48.000000)">
                <g id="elly" transform="translate(251.000000, 0.000000)">
                    <mask id="mask-2" fill="white">
                        <use xlink:href="#path-1"></use>
                    </mask>
                    <use id="Oval-Copy-26" stroke="#233A95" stroke-width="0.5" fill="#FFFFFF" xlink:href="#path-1"></use>
                    <g id="Logo/-3" mask="url(#mask-2)" fill="#233A95" fill-rule="nonzero">
                        <g transform="translate(3.000000, 4.000000)" id="Combined-Shape">
                            <path d="M18.4034553,5.3902439 C18.1115975,5.3902439 17.875,5.15364641 17.875,4.86178862 C17.875,4.56993082 18.1115975,4.33333333 18.4034553,4.33333333 L26,4.33333333 L22.93086,21.6666667 L18.7412404,21.6666667 L19.4963463,17.4166667 L21.298857,9.58333333 L15.0875023,21.6666667 L12.3228405,21.6666667 L11.445,16.1953333 L12.417378,16.1958617 C12.6768072,16.1958617 12.8925739,16.0089205 12.9373192,15.7623969 L12.9458333,15.6674064 C12.9458333,15.3755486 12.7092358,15.1389512 12.417378,15.1389512 L12.417378,15.1389512 L11.276,15.1383333 L10.3132846,9.13095238 L9.909,12.2613333 L9.87154472,12.2585449 L8.54512195,12.2585449 C8.25326416,12.2585449 8.01666667,12.4951424 8.01666667,12.7870002 C8.01666667,13.078858 8.25326416,13.3154555 8.54512195,13.3154555 L8.54512195,13.3154555 L9.773,13.3153333 L9.19280495,17.8214286 L9.062,18.5413333 L6.94720528,18.54188 C6.68777613,18.54188 6.47200945,18.7288212 6.42726412,18.9753448 L6.41875,19.0703353 C6.41875,19.3621931 6.65534749,19.5987906 6.94720528,19.5987906 L6.94720528,19.5987906 L8.871,19.5983333 L8.49859472,21.6666667 L4.33333333,21.6666667 L5.073,17.4883333 L1.74720528,17.4889874 C1.45534749,17.4889874 1.21875,17.2523899 1.21875,16.9605322 C1.21875,16.6686744 1.45534749,16.4320769 1.74720528,16.4320769 L5.261,16.4313333 L5.528,14.9233333 L3.77845528,14.9235772 C3.48659749,14.9235772 3.25,14.6869797 3.25,14.395122 C3.25,14.1032642 3.48659749,13.8666667 3.77845528,13.8666667 L5.715,13.8663333 L6.098,11.7043333 L2.18053862,11.7051535 C1.88868082,11.7051535 1.65208333,11.468556 1.65208333,11.1766982 C1.65208333,10.8848405 1.88868082,10.648243 2.18053862,10.648243 L6.285,10.6473333 L6.655,8.56033333 L5.43053862,8.56097561 C5.13868082,8.56097561 4.90208333,8.32437812 4.90208333,8.03252033 C4.90208333,7.74066253 5.13868082,7.50406504 5.43053862,7.50406504 L13.257,7.50333333 L13.478,9.07433333 L13.4194614,9.06951555 L12.3097053,9.06951555 C12.0178475,9.06951555 11.78125,9.30611304 11.78125,9.59797084 C11.78125,9.88982863 12.0178475,10.1264261 12.3097053,10.1264261 L12.3097053,10.1264261 L13.4194614,10.1264261 C13.4909607,10.1264261 13.5591435,10.1122267 13.6213438,10.0864939 L14.5029043,16.3571429 L18.878,7.50333333 L16.1284553,7.50406504 C15.8365975,7.50406504 15.6,7.26746755 15.6,6.97560976 C15.6,6.68375196 15.8365975,6.44715447 16.1284553,6.44715447 L20.4882114,6.44715447 C20.7800692,6.44715447 21.0166667,6.21055698 21.0166667,5.91869919 C21.0166667,5.62684139 20.7800692,5.3902439 20.4882114,5.3902439 L20.4882114,5.3902439 L18.4034553,5.3902439 Z M2.69446138,18.54188 C2.98631918,18.54188 3.22291667,18.7784775 3.22291667,19.0703353 C3.22291667,19.3621931 2.98631918,19.5987906 2.69446138,19.5987906 L2.23470528,19.5987906 C1.94284749,19.5987906 1.70625,19.3621931 1.70625,19.0703353 C1.70625,18.7784775 1.94284749,18.54188 2.23470528,18.54188 L2.69446138,18.54188 Z M3.37154472,7.48484848 C3.66340251,7.48484848 3.9,7.72144597 3.9,8.01330377 C3.9,8.30516156 3.66340251,8.54175905 3.37154472,8.54175905 L0.528455285,8.54175905 C0.23659749,8.54175905 3.57422714e-17,8.30516156 0,8.01330377 C-3.57422714e-17,7.72144597 0.23659749,7.48484848 0.528455285,7.48484848 L3.37154472,7.48484848 Z M12.4444614,5.3902439 C12.7363192,5.3902439 12.9729167,5.62684139 12.9729167,5.91869919 C12.9729167,6.21055698 12.7363192,6.44715447 12.4444614,6.44715447 L6.86595528,6.44715447 C6.57409749,6.44715447 6.3375,6.21055698 6.3375,5.91869919 C6.3375,5.62684139 6.57409749,5.3902439 6.86595528,5.3902439 L12.4444614,5.3902439 Z"></path>
                        </g>
                    </g>
                </g>
            </g>
        </g>
    </g>
</svg>