<?xml version="1.0" encoding="UTF-8"?>
<svg width="22px" height="32px" viewBox="0 0 22 32" version="1.1" xmlns="http://www.w3.org/2000/svg" xmlns:xlink="http://www.w3.org/1999/xlink">
    <title>07C5140C-ED26-419A-AED9-B9176602BF60</title>
    <g id="Master-mfast" stroke="none" stroke-width="1" fill="none" fill-rule="evenodd">
        <g id="Contest-sau-tết-2.2" transform="translate(-177.000000, -528.000000)" fill="#00863D" fill-rule="nonzero">
            <g id="Group-46" transform="translate(16.000000, 112.000000)">
                <g id="Group-20-Copy-3" transform="translate(0.000000, 372.000000)">
                    <g id="Group-12" transform="translate(0.000000, 32.000000)">
                        <g id="Group-7" transform="translate(119.000000, 0.000000)">
                            <g id="icon-topup" transform="translate(42.000000, 12.000000)">
                                <path d="M19.5181782,0 C21.2041183,0 22,0.818431604 22,2.40729122 L22,2.40729122 L22,29.8321579 C22,31.5282848 21.2041183,32 19.5181782,32 L19.5181782,32 L2.4820313,32 C0.652952149,32 0,30.9384106 0,29.8321579 L0,29.8321579 L0,2.40729122 C0,0.818431604 0.796091233,0 2.4820313,0 L2.4820313,0 Z M20.8994884,3.51272073 L1.10051163,3.51272073 L1.10051163,29.0778927 C1.10051163,29.795181 1.72045653,30.3789283 2.4820313,30.3789283 L2.4820313,30.3789283 L19.5181782,30.3789283 C20.2799625,30.3789283 20.8994884,29.795181 20.8994884,29.0778927 L20.8994884,29.0778927 L20.8994884,3.51272073 Z M10.9970668,26.1046691 C11.9228987,26.1046691 12.6731599,26.8118826 12.6731599,27.6850343 C12.6731599,28.557791 11.9228987,29.2653995 10.9970668,29.2653995 C10.072492,29.2653995 9.32097381,28.557791 9.32097381,27.6850343 C9.32097381,26.8118826 10.072492,26.1046691 10.9970668,26.1046691 Z M10.8237197,7.82298979 L11.0156452,7.82404131 C11.8996655,7.82404131 11.8996655,7.82404131 11.9025734,8.6736695 C11.9054814,9.27654099 11.9054814,9.27934505 12.5277852,9.37187881 C13.0046909,9.4447842 13.4583329,9.57937876 13.900343,9.76725034 C14.1417039,9.87100032 14.2347586,10.0336354 14.1591516,10.2803921 C14.0457411,10.6477231 13.9439625,11.0178582 13.8218281,11.3823851 C13.7055096,11.7272837 13.5920991,11.7777567 13.2489597,11.6179256 C12.5597728,11.2982635 11.8356903,11.163669 11.0738044,11.2029257 C10.876063,11.2141419 10.6812296,11.2393784 10.49512,11.3178919 C9.83792073,11.5954932 9.73032615,12.2965065 10.2915627,12.7283308 C10.576543,12.9470469 10.8993267,13.1040739 11.2366502,13.2386685 C11.8182426,13.4714049 12.4056508,13.6957292 12.9581635,13.9901548 C14.7203882,14.9295127 15.1943859,17.0633974 13.9497784,18.5215052 C13.5019523,19.0486672 12.92036,19.4019779 12.236989,19.5814374 C11.9403769,19.6599509 11.8066107,19.8113697 11.8211505,20.1085994 C11.8327824,20.400221 11.8182426,20.6946466 11.8182426,20.9862681 C11.8182426,21.2470451 11.6815684,21.3872478 11.4140359,21.3928559 C11.0883442,21.401268 10.7597445,21.401268 10.4340529,21.3956599 C10.1461647,21.3900518 10.0123984,21.2330248 10.0094905,20.9638357 L10.0094905,20.9638357 L10.0036745,20.3217075 C9.99785861,19.8506265 9.98331881,19.8309981 9.51222903,19.7580927 C8.91028099,19.665559 8.31996479,19.5337684 7.76745209,19.2757955 C7.33416581,19.0710996 7.28763843,18.9673497 7.41268078,18.5299173 C7.50573555,18.2046471 7.59879032,17.8793769 7.70347693,17.5569108 C7.82561132,17.1839717 7.93029794,17.1363028 8.28797721,17.3157622 C8.89864914,17.621404 9.54712457,17.7924513 10.2246796,17.8737688 C10.6637818,17.9270458 11.0912522,17.884985 11.4954588,17.7139378 C12.2515288,17.3942757 12.3678473,16.5502556 11.7310037,16.0427219 C11.5158146,15.8688706 11.2686378,15.7426882 11.0098292,15.6333301 C10.346814,15.3501207 9.65471915,15.1370127 9.02950741,14.7752898 C8.01462882,14.1892426 7.36906135,13.3844793 7.44466835,12.1927566 C7.52899924,10.8468109 8.31996479,10.0055949 9.59946788,9.55694633 C10.1287169,9.37187881 10.1316248,9.38029097 10.1345328,8.84752082 C10.1374408,8.66525734 10.1316248,8.48579792 10.1374408,8.3063385 C10.1490726,7.90535886 10.2188637,7.83525753 10.6317942,7.82404131 C10.7597445,7.82123726 10.8876949,7.82404131 11.0156452,7.82404131 Z M19.5181782,1.10625561 L2.4820313,1.10625561 C1.72045653,1.10625561 1.10051163,1.68960789 1.10051163,2.40729122 L1.10051163,2.40729122 L1.10051163,2.68662076 L20.8994884,2.68662076 L20.8994884,2.40729122 C20.8994884,1.68960789 20.2799625,1.10625561 19.5181782,1.10625561 L19.5181782,1.10625561 Z" id="Combined-Shape"></path>
                            </g>
                        </g>
                    </g>
                </g>
            </g>
        </g>
    </g>
</svg>