<?xml version="1.0" encoding="UTF-8"?>
<svg width="24px" height="24px" viewBox="0 0 24 24" version="1.1" xmlns="http://www.w3.org/2000/svg" xmlns:xlink="http://www.w3.org/1999/xlink">
    <title>2ED5A860-EAC1-44A9-A56A-10C3AE8B2170</title>
    <defs>
        <rect id="path-1" x="0" y="0" width="24" height="24"></rect>
    </defs>
    <g id="Master-mfast" stroke="none" stroke-width="1" fill="none" fill-rule="evenodd">
        <g id="Contest-sau-tết-2.2" transform="translate(-160.000000, -52.000000)">
            <g id="Group" transform="translate(16.000000, 48.000000)">
                <g id="Group-22" transform="translate(0.000000, 2.000000)">
                    <g id="Path-+-Path-Mask" transform="translate(144.000000, 2.000000)">
                        <mask id="mask-2" fill="white">
                            <use xlink:href="#path-1"></use>
                        </mask>
                        <g id="Mask"></g>
                        <path d="M1.16525449,0 C1.16437497,0 1.16338551,0 1.16250599,0 C0.853684414,0 0.563222827,0.121805389 0.343892446,0.343168609 C0.122143385,0.566979059 8.9832903e-14,0.864985122 8.9832903e-14,1.18223532 L8.9832903e-14,18.9096471 C8.9832903e-14,19.5597208 0.524743813,20.0898801 1.16987197,20.0915487 C3.88956869,20.0981117 8.4461436,20.6716538 11.5895492,24 L11.5895492,5.44775995 C11.5895492,5.22739787 11.5339196,5.02038433 11.4289268,4.84907812 C8.84896391,0.645179232 3.89110785,0.00645179232 1.16525449,0 Z" id="Path" fill="#233A95" fill-rule="nonzero" mask="url(#mask-2)"></path>
                        <path d="M24.0032911,18.9097583 L24.0032911,1.18223532 C24.0032911,0.864985122 23.8811477,0.566979059 23.6593986,0.343168609 C23.4400683,0.121805389 23.1493868,0 22.840895,0 C22.8399056,0 22.8389161,0 22.8380366,0 C20.1122932,0.00656303012 15.1544371,0.64529047 12.5743643,4.84918935 C12.4693715,5.02049556 12.4138518,5.22750911 12.4138518,5.44787119 L12.4138518,24 C15.5572574,20.6716538 20.1138323,20.0981117 22.8335291,20.0915487 C23.4785473,20.0898801 24.0032911,19.5597208 24.0032911,18.9097583 Z" id="Path" fill="#233A95" fill-rule="nonzero" mask="url(#mask-2)"></path>
                    </g>
                </g>
            </g>
        </g>
    </g>
</svg>