<?xml version="1.0" encoding="UTF-8"?>
<svg width="180px" height="180px" viewBox="0 0 180 180" version="1.1" xmlns="http://www.w3.org/2000/svg" xmlns:xlink="http://www.w3.org/1999/xlink">
    <title>12765FF8-C6E5-4D29-993F-33EC32B46984</title>
    <defs>
        <linearGradient x1="49.9993707%" y1="99.8374785%" x2="49.9993707%" y2="-37.7493228%" id="linearGradient-1">
            <stop stop-color="#6679DC" offset="0%"></stop>
            <stop stop-color="#BF7DDC" offset="100%"></stop>
        </linearGradient>
        <linearGradient x1="50%" y1="99.8407168%" x2="50%" y2="-37.7600796%" id="linearGradient-2">
            <stop stop-color="#6679DC" offset="0%"></stop>
            <stop stop-color="#BF7DDC" offset="100%"></stop>
        </linearGradient>
        <linearGradient x1="49.9991914%" y1="99.8372661%" x2="49.9991914%" y2="-37.7542718%" id="linearGradient-3">
            <stop stop-color="#6679DC" offset="0%"></stop>
            <stop stop-color="#BF7DDC" offset="100%"></stop>
        </linearGradient>
        <linearGradient x1="48.0761077%" y1="33.0046548%" x2="50%" y2="69.7055976%" id="linearGradient-4">
            <stop stop-color="#C1FFBE" offset="0%"></stop>
            <stop stop-color="#7552FF" offset="100%"></stop>
        </linearGradient>
        <linearGradient x1="49.4910904%" y1="4.36265888%" x2="51.5679684%" y2="101.222374%" id="linearGradient-5">
            <stop stop-color="#D6FFD4" offset="0%"></stop>
            <stop stop-color="#A2B2E7" offset="100%"></stop>
        </linearGradient>
        <linearGradient x1="50.628424%" y1="4.39386954%" x2="48.5963887%" y2="101.257592%" id="linearGradient-6">
            <stop stop-color="#D6FFD4" offset="0%"></stop>
            <stop stop-color="#A2B2E7" offset="100%"></stop>
        </linearGradient>
        <linearGradient x1="65.7572546%" y1="51.3319713%" x2="45.4728348%" y2="49.6214397%" id="linearGradient-7">
            <stop stop-color="#6679DC" offset="0%"></stop>
            <stop stop-color="#BF7DDC" offset="100%"></stop>
        </linearGradient>
        <linearGradient x1="47.8866143%" y1="62.2576094%" x2="40.9812247%" y2="20.6127797%" id="linearGradient-8">
            <stop stop-color="#6679DC" offset="0%"></stop>
            <stop stop-color="#BF7DDC" offset="100%"></stop>
        </linearGradient>
        <linearGradient x1="48.2383671%" y1="45.0317716%" x2="41.744624%" y2="26.721117%" id="linearGradient-9">
            <stop stop-color="#6679DC" offset="0%"></stop>
            <stop stop-color="#BF7DDC" offset="100%"></stop>
        </linearGradient>
        <linearGradient x1="81.940226%" y1="16.123217%" x2="2.08966104%" y2="90.7763315%" id="linearGradient-10">
            <stop stop-color="#6679DC" offset="0%"></stop>
            <stop stop-color="#BF7DDC" offset="100%"></stop>
        </linearGradient>
        <linearGradient x1="61.9122828%" y1="69.0571126%" x2="7.38670878%" y2="45.0847987%" id="linearGradient-11">
            <stop stop-color="#6679DC" offset="0%"></stop>
            <stop stop-color="#BF7DDC" offset="100%"></stop>
        </linearGradient>
        <linearGradient x1="50.4009233%" y1="36.2957719%" x2="49.3864658%" y2="74.5149582%" id="linearGradient-12">
            <stop stop-color="#6679DC" offset="0%"></stop>
            <stop stop-color="#BF7DDC" offset="100%"></stop>
        </linearGradient>
        <linearGradient x1="47.7931109%" y1="-2.26043218%" x2="51.972183%" y2="96.6717026%" id="linearGradient-13">
            <stop stop-color="#6679DC" offset="0%"></stop>
            <stop stop-color="#BF7DDC" offset="100%"></stop>
        </linearGradient>
        <linearGradient x1="58.590347%" y1="91.4219137%" x2="45.1457304%" y2="26.5285299%" id="linearGradient-14">
            <stop stop-color="#5854BB" offset="0%"></stop>
            <stop stop-color="#A3DFCF" offset="100%"></stop>
        </linearGradient>
        <linearGradient x1="71.65248%" y1="69.4449218%" x2="9.89037134%" y2="-53.6518302%" id="linearGradient-15">
            <stop stop-color="#D6FFD4" offset="0%"></stop>
            <stop stop-color="#A2B2E7" offset="100%"></stop>
        </linearGradient>
        <linearGradient x1="28.3591397%" y1="69.4449218%" x2="90.1084902%" y2="-53.6518302%" id="linearGradient-16">
            <stop stop-color="#D6FFD4" offset="0%"></stop>
            <stop stop-color="#A2B2E7" offset="100%"></stop>
        </linearGradient>
        <radialGradient cx="54.3505545%" cy="49.9970076%" fx="54.3505545%" fy="49.9970076%" r="48.3056351%" gradientTransform="translate(0.543506,0.499970),scale(0.931227,1.000000),rotate(29.011307),scale(1.000000,1.671540),translate(-0.543506,-0.499970)" id="radialGradient-17">
            <stop stop-color="#FFFFFF" offset="0%"></stop>
            <stop stop-color="#FFFFFF" stop-opacity="0" offset="100%"></stop>
        </radialGradient>
        <radialGradient cx="50%" cy="54.7042678%" fx="50%" fy="54.7042678%" r="144.131423%" gradientTransform="translate(0.500000,0.547043),scale(1.000000,0.693811),rotate(90.000000),translate(-0.500000,-0.547043)" id="radialGradient-18">
            <stop stop-color="#FFFFFF" offset="0%"></stop>
            <stop stop-color="#FFFFFF" stop-opacity="0" offset="100%"></stop>
        </radialGradient>
        <radialGradient cx="50%" cy="45.172481%" fx="50%" fy="45.172481%" r="83.2500736%" gradientTransform="translate(0.500000,0.451725),scale(1.000000,0.838998),rotate(81.439392),translate(-0.500000,-0.451725)" id="radialGradient-19">
            <stop stop-color="#FFFFFF" offset="0%"></stop>
            <stop stop-color="#FFFFFF" stop-opacity="0.878502474" offset="32.4409975%"></stop>
            <stop stop-color="#FFFFFF" stop-opacity="0" offset="100%"></stop>
        </radialGradient>
        <linearGradient x1="52.5369689%" y1="41.6668685%" x2="47.8938788%" y2="60.676896%" id="linearGradient-20">
            <stop stop-color="#6679DC" offset="0%"></stop>
            <stop stop-color="#BF7DDC" offset="100%"></stop>
        </linearGradient>
        <linearGradient x1="17.138883%" y1="47.7315019%" x2="86.0538494%" y2="61.998913%" id="linearGradient-21">
            <stop stop-color="#6679DC" offset="0%"></stop>
            <stop stop-color="#BF7DDC" offset="100%"></stop>
        </linearGradient>
        <linearGradient x1="45.6492953%" y1="41.288795%" x2="50.2923854%" y2="60.2988225%" id="linearGradient-22">
            <stop stop-color="#6679DC" offset="0%"></stop>
            <stop stop-color="#BF7DDC" offset="100%"></stop>
        </linearGradient>
        <linearGradient x1="81.0473812%" y1="47.3543978%" x2="12.1324148%" y2="61.6218089%" id="linearGradient-23">
            <stop stop-color="#6679DC" offset="0%"></stop>
            <stop stop-color="#BF7DDC" offset="100%"></stop>
        </linearGradient>
        <linearGradient x1="58.53125%" y1="91.3378894%" x2="45.109375%" y2="26.5875916%" id="linearGradient-24">
            <stop stop-color="#C1FFBE" offset="0%"></stop>
            <stop stop-color="#B4C3BF" offset="100%"></stop>
        </linearGradient>
        <linearGradient x1="43.0924747%" y1="41.8674285%" x2="75.935979%" y2="80.51914%" id="linearGradient-25">
            <stop stop-color="#D6FFD4" offset="0%"></stop>
            <stop stop-color="#B4C3BF" offset="100%"></stop>
        </linearGradient>
        <linearGradient x1="0%" y1="50%" x2="100%" y2="50%" id="linearGradient-26">
            <stop stop-color="#DEFFFC" offset="2%"></stop>
            <stop stop-color="#D6FFD4" offset="51%"></stop>
            <stop stop-color="#ADB2BB" offset="100%"></stop>
        </linearGradient>
        <linearGradient x1="56.9115583%" y1="41.8689507%" x2="24.0711277%" y2="80.5134278%" id="linearGradient-27">
            <stop stop-color="#D6FFD4" offset="0%"></stop>
            <stop stop-color="#B4C3BF" offset="100%"></stop>
        </linearGradient>
        <linearGradient x1="50.4071128%" y1="36.2959637%" x2="49.3869911%" y2="74.5051817%" id="linearGradient-28">
            <stop stop-color="#DEFFFC" offset="2%"></stop>
            <stop stop-color="#D6FFD4" offset="51%"></stop>
            <stop stop-color="#ADB2BB" offset="100%"></stop>
        </linearGradient>
        <linearGradient x1="56.9115583%" y1="58.1310493%" x2="24.0711277%" y2="19.4865722%" id="linearGradient-29">
            <stop stop-color="#D6FFD4" offset="0%"></stop>
            <stop stop-color="#B4C3BF" offset="100%"></stop>
        </linearGradient>
        <linearGradient x1="80.1684605%" y1="78.9956948%" x2="45.2129153%" y2="43.8222231%" id="linearGradient-30">
            <stop stop-color="#D6FFD4" offset="0%"></stop>
            <stop stop-color="#B4C3BF" offset="100%"></stop>
        </linearGradient>
        <linearGradient x1="43.0924747%" y1="58.1325715%" x2="75.935979%" y2="19.48086%" id="linearGradient-31">
            <stop stop-color="#D6FFD4" offset="0%"></stop>
            <stop stop-color="#B4C3BF" offset="100%"></stop>
        </linearGradient>
        <linearGradient x1="24.5788094%" y1="91.8705788%" x2="49.6256084%" y2="49.2824464%" id="linearGradient-32">
            <stop stop-color="#D6FFD4" offset="0%"></stop>
            <stop stop-color="#B4C3BF" offset="100%"></stop>
        </linearGradient>
        <linearGradient x1="49.5411805%" y1="35.6147863%" x2="51.8296137%" y2="107.777771%" id="linearGradient-33">
            <stop stop-color="#6679DC" offset="0%"></stop>
            <stop stop-color="#BF7DDC" offset="100%"></stop>
        </linearGradient>
    </defs>
    <g id="Master-mfast" stroke="none" stroke-width="1" fill="none" fill-rule="evenodd">
        <g id="Master-Mfast-1.1" transform="translate(-98.000000, -268.000000)" fill-rule="nonzero">
            <g id="Group-10" transform="translate(80.000000, 268.000000)">
                <g id="Master/-medal/-legend" transform="translate(18.000000, 0.000000)">
                    <g transform="translate(0.000000, 3.000000)">
                        <path d="M162.138325,86.5734697 L16.8124597,86.5734697 C15.226931,86.5734697 0,103.401695 0,109.437514 C0,115.473333 15.226931,132.303811 16.8124597,132.303811 L162.138325,132.303811 C163.714845,132.303811 178.950785,115.475586 178.950785,109.437514 C178.950785,103.399442 163.732863,86.5734697 162.138325,86.5734697 Z" id="Path" fill="url(#linearGradient-1)"></path>
                        <path d="M109.70327,136.155024 L19.8416303,136.155024 C19.8416303,142.411556 35.0685613,158.778086 36.6518378,158.778086 L142.296695,158.778086 C143.873215,158.778086 159.106903,142.411556 159.106903,136.155024 L109.70327,136.155024 Z" id="Path" fill="url(#linearGradient-2)"></path>
                        <path d="M122.914508,82.2425441 L159.106903,82.2425441 C159.106903,76.4657243 143.879972,60.0991946 142.296695,60.0991946 L36.65409,60.0991946 C35.07757,60.0991946 19.8438825,76.4657243 19.8438825,82.2425441 L122.914508,82.2425441 Z" id="Path" fill="url(#linearGradient-3)"></path>
                        <g id="Group" opacity="0.68" style="mix-blend-mode: multiply;" transform="translate(0.000000, 59.907760)" fill="#5B6CB2">
                            <path d="M3.77463931,49.5297541 C3.77463931,55.5678257 19.0015703,72.3960506 20.587099,72.3960506 L16.8124597,72.3960506 C15.2359397,72.3960506 0,55.5678257 0,49.5297541 C0,43.4916825 15.226931,26.6657097 16.8124597,26.6657097 L20.587099,26.6657097 C19.0015703,26.6657097 3.77463931,43.4939346 3.77463931,49.5297541 Z" id="Path"></path>
                            <path d="M40.4287293,98.8703257 L36.65409,98.8703257 C35.07757,98.8703257 19.8438825,82.5037959 19.8438825,76.2472637 L23.6185218,76.2472637 C23.6185218,82.5037959 38.8454528,98.8703257 40.4287293,98.8703257 Z" id="Path"></path>
                            <path d="M23.6185218,22.3347841 L19.8438825,22.3347841 C19.8438825,16.5579643 35.0708135,0.191434571 36.65409,0.191434571 L40.4287293,0.191434571 C38.8454528,0.191434571 23.6185218,16.5579643 23.6185218,22.3347841 Z" id="Path"></path>
                        </g>
                        <g id="Group" opacity="0.68" style="mix-blend-mode: multiply;" transform="translate(138.508543, 59.907760)" fill="#5B6CB2">
                            <path d="M36.667603,49.5297541 C36.667603,55.5678257 21.4384198,72.3960506 19.8551433,72.3960506 L23.6297826,72.3960506 C25.2063026,72.3960506 40.4422423,55.5678257 40.4422423,49.5297541 C40.4422423,43.4916825 25.22432,26.6657097 23.6297826,26.6657097 L19.8551433,26.6657097 C21.4384198,26.6657097 36.667603,43.4939346 36.667603,49.5297541 Z" id="Path"></path>
                            <path d="M0.0135130286,98.8703257 L3.78815234,98.8703257 C5.36467234,98.8703257 20.5983599,82.5037959 20.5983599,76.2472637 L16.8237206,76.2472637 C16.8237206,82.5037959 1.59678954,98.8703257 0.0135130286,98.8703257 Z" id="Path"></path>
                            <path d="M16.8237206,22.3347841 L20.5983599,22.3347841 C20.5983599,16.5579643 5.37142886,0.191434571 3.78815234,0.191434571 L0.0135130286,0.191434571 C1.59678954,0.191434571 16.8237206,16.5579643 16.8237206,22.3347841 Z" id="Path"></path>
                        </g>
                        <path d="M136.359971,25.0148681 C134.84676,25.0115768 133.479489,25.9170529 132.891967,27.3115554 C132.304446,28.7060579 132.611534,30.3169629 133.670879,31.3975219 C130.43676,32.5573902 124.709489,34.3703882 118.824565,35.0888309 C118.317826,34.3140839 118.013783,33.2870937 118.079096,31.9357909 C118.220983,28.9606724 118.211974,25.9923105 118.171435,23.8279737 C118.354593,23.8494618 118.538805,23.8607401 118.723217,23.8617563 C121.000875,23.8662591 122.966455,22.2656666 123.423437,20.0343181 C123.880418,17.8029695 122.702299,15.5585459 120.606244,14.6673099 C118.510189,13.7760739 116.076427,14.4847371 114.786478,16.3619104 C113.496529,18.2390836 113.707476,20.7651285 115.290908,22.4023492 L104.05032,29.95388 L91.582299,11.2833789 C94.1069322,10.2280085 95.5363431,7.53800548 94.9981452,4.85511106 C94.4599472,2.17221664 92.1036326,0.241643415 89.3672884,0.241643415 C86.6309442,0.241643415 84.2746295,2.17221664 83.7364316,4.85511106 C83.1982336,7.53800548 84.6276446,10.2280085 87.1522778,11.2833789 L74.7090306,29.9246018 L63.5112343,22.4158622 C65.090134,20.7828571 65.3014436,18.264126 64.0167022,16.390875 C62.7319607,14.5176239 60.306187,13.8074973 58.2140756,14.6922006 C56.1219642,15.5769039 54.9416383,17.8119629 55.3906504,20.0386236 C55.8396626,22.2652844 57.7939351,23.8682432 60.065412,23.8730171 C60.2498213,23.8719316 60.4340296,23.8606536 60.617194,23.8392346 C60.5766549,26.0013191 60.5698984,28.9696811 60.709533,31.9470517 C60.7725938,33.2983546 60.4685507,34.3230926 59.9618121,35.1000917 C54.0791403,34.3906577 48.3541206,32.5821641 45.0974807,31.4200436 C46.3525638,30.1417478 46.5318675,28.1556416 45.5260183,26.673231 C44.5201691,25.1908204 42.608362,24.6235803 40.9567813,25.3175218 C39.3052005,26.0114633 38.3722778,27.773968 38.7270872,29.5299247 C39.0818965,31.2858815 40.6259529,32.5478868 42.4173967,32.5461293 C42.5501409,32.5395421 42.6824494,32.5260105 42.8137789,32.5055902 L47.7009909,59.8356905 L47.7009909,62.1531749 C47.7009909,62.1531749 51.8765167,61.8851665 87.9337813,61.8851665 L90.7850303,61.8851665 C126.840043,61.8851665 131.017821,62.1531749 131.017821,62.1531749 L131.017821,59.828934 L135.905033,32.4920772 C136.053969,32.5177683 136.204443,32.533568 136.355467,32.5393728 C137.721536,32.5727986 138.998387,31.8631177 139.691253,30.685324 C140.384119,29.5075304 140.384119,28.0467105 139.691253,26.8689168 C138.998387,25.6911231 137.721536,24.9814423 136.355467,25.0148681 L136.359971,25.0148681 Z" id="Path" fill="url(#linearGradient-4)"></path>
                        <g id="Group" style="mix-blend-mode: overlay;" transform="translate(38.737349, 0.000000)" fill="#FFFFFF">
                            <path d="M53.0183676,11.2743702 C52.9553068,11.3013962 52.9080112,11.3847266 52.8426982,11.4117526 L67.0066043,32.5979293 L77.420645,23.2446613 C76.5895938,22.3843318 76.9071499,23.0397137 76.9071499,21.7492195 C76.9074674,19.8683409 78.0114967,18.1627241 79.7273464,17.392293 C81.4431962,16.6218618 83.4514377,16.9300426 84.8573151,18.1795278 C84.4684837,16.1759748 82.8502355,14.6404441 80.8290545,14.3571739 C78.8078736,14.0739037 76.8298523,15.1054141 75.905221,16.9248841 C74.9805898,18.7443542 75.3134227,20.950211 76.7337327,22.4158622 L65.4863886,29.95388 L53.0183676,11.2743702 Z" id="Path"></path>
                            <path d="M46.5816617,8.62581657 C46.5800234,6.30751052 47.9724043,4.21556189 50.1116796,3.32222731 C52.2509549,2.42889272 54.7175529,2.90938012 56.3650943,4.5403776 C55.7633981,2.19033113 53.7499938,0.471789078 51.3346157,0.246610551 C48.9192376,0.0214320233 46.6228616,1.33818606 45.5971341,3.53651265 C44.5714065,5.73483923 45.0375679,8.34057854 46.7618354,10.0469367 C46.6421391,9.58271377 46.5816014,9.10522263 46.5816617,8.62581657 L46.5816617,8.62581657 Z" id="Path"></path>
                            <path d="M81.0121489,35.1277024 C80.9880674,36.1003596 81.2495881,37.058747 81.7643742,37.8843603 C87.6492981,37.1659176 93.37657,35.3551717 96.6129404,34.1953035 C95.2433976,32.7966351 95.1774561,30.5807154 96.4614057,29.1030842 C97.7453554,27.625453 99.9487866,27.3814464 101.524926,28.5423532 C101.317762,26.5531568 99.5909136,25.0734358 97.5934645,25.173518 C95.5960154,25.2736002 94.0257277,26.9185243 94.0184389,28.9184658 C94.0170454,29.8997399 94.4031295,30.8418821 95.0927247,31.5399933 C91.995989,32.6503139 86.6245601,34.3529555 81.0121489,35.1277024 Z" id="Path"></path>
                            <path d="M23.6666119,34.8630548 C23.5269772,31.8901885 23.5337338,28.9195744 23.5742728,26.7552377 C23.3940991,26.7755072 22.3490916,24.1697449 22.0292832,24.1021797 C22.0292832,25.800317 22.0563093,30.293399 22.1463962,32.2099969 C22.209457,33.5612997 21.9054138,34.5860377 21.3986752,35.3630369 C16.8200107,34.8112549 12.3426939,33.5950823 9.05001931,32.5320574 C8.89489956,33.2130781 8.55243752,33.8371547 8.06131605,34.3337945 C11.3111994,35.495915 17.0362192,37.3044086 22.9256475,38.0160948 C23.4166208,37.2390957 23.7296727,36.2166098 23.6666119,34.8630548 Z" id="Path"></path>
                            <path d="M26.4630143,25.0689202 L37.665315,32.568651 L48.9059026,15.4138613 C49.6806495,13.623385 49.1784153,11.981552 48.5883464,11.2743702 L36.1450993,29.9155931 L24.9427986,22.4158622 C24.7288423,22.8212531 24.9270334,23.4090698 26.4630143,25.0689202 Z" id="Path"></path>
                            <path d="M10.5045101,61.842962 L5.57675905,34.897983 C5.4461331,34.897983 5.26821156,34.9385221 5.12632476,34.9385221 C4.96529487,34.9376806 4.80496475,34.9172612 4.64886442,34.8777135 L9.24104196,59.5750254 L9.24104196,61.8925098 C9.24104196,61.8925098 9.34914619,61.8722402 10.5045101,61.842962 Z" id="Path"></path>
                            <path d="M1.62606777,31.4290523 C1.62556708,30.0113208 2.42279298,28.7139133 3.68779011,28.0738 C4.95278725,27.4336867 6.47033026,27.5597759 7.61233943,28.3998817 C7.44264859,26.6787743 6.12177976,25.2948705 4.41044594,25.0451863 C2.69911212,24.7955022 1.03789854,25.7443191 0.383529099,27.3451959 C-0.270840341,28.9460726 0.250102664,30.7868611 1.64633731,31.8074171 C1.63272711,31.6817562 1.6259606,31.5554481 1.62606777,31.4290523 Z" id="Path"></path>
                            <path d="M18.3371798,22.6658533 C18.2784547,22.3638124 18.2482927,22.056914 18.2470929,21.7492195 C18.2474104,19.8683409 19.3514397,18.1627241 21.0672894,17.392293 C22.7831392,16.6218618 24.7913807,16.9300426 26.1972581,18.1795278 C25.8008524,16.1314691 24.1218533,14.5771542 22.0493495,14.3396471 C19.9768457,14.1021401 17.9897471,15.2363236 17.140292,17.1416078 C16.2908369,19.0468919 16.7753157,21.2830076 18.3371798,22.6658533 L18.3371798,22.6658533 Z" id="Path"></path>
                        </g>
                        <path d="M75.607647,155.778193 C75.607647,155.778193 66.0314141,160.413162 49.3518325,153.823309 C32.6722509,147.233455 27.3706394,138.533317 27.3706394,138.533317 L36.2509513,133.353322 C36.2509513,133.353322 26.9967789,126.103583 23.2897047,112.718928 C19.5826306,99.334273 20.008291,97.6406401 20.008291,97.6406401 L28.2444819,97.6406401 C28.2444819,97.6406401 25.7670933,94.7893911 30.3052187,80.1705463 C34.8433442,65.5517016 39.1585046,62.6824352 39.1585046,62.6824352 L45.338463,69.0740977 C45.338463,69.0740977 48.0140427,62.4887485 54.8088439,56.7231896 C61.6036451,50.9576307 68.6056461,48.4869987 68.6056461,48.4869987 L76.8373326,60.2478379 L75.607647,155.778193 Z" id="Path" fill="url(#linearGradient-5)"></path>
                        <g id="Group" opacity="0.6" style="mix-blend-mode: overlay;" transform="translate(19.819109, 48.421686)" fill="#FFFFFF">
                            <path d="M4.97729886,66.6327439 C1.27247686,53.2503413 1.69588509,51.63103 1.69588509,51.63103 L9.932076,51.63103 C9.932076,51.63103 7.45468743,48.7032071 11.9928129,34.0866146 C16.5309383,19.470022 20.8460987,16.5624687 20.8460987,16.5624687 L27.0260571,22.9338617 C27.0260571,22.9338617 29.703889,16.3395037 36.4986902,10.5739449 C40.5210561,7.18079532 45.0542579,4.44445621 49.9306406,2.46612771 L48.7887897,0.0675651429 C48.7887897,0.0675651429 41.7867887,2.54495371 34.9919875,8.30375606 C28.1971863,14.0625584 25.5216066,20.6569163 25.5216066,20.6569163 L19.3393961,14.2787669 C19.3393961,14.2787669 15.0174791,17.1322681 10.4861102,31.7556171 C5.95474126,46.3789662 8.42537331,49.2257109 8.42537331,49.2257109 L0.1891824,49.2257109 C0.1891824,49.2257109 -0.234225829,50.9170917 3.47059617,64.3039986 C4.81948683,69.125167 6.99841546,73.6743188 9.90955429,77.7472099 C7.73832672,74.299499 6.07705208,70.5559418 4.97729886,66.6327439 L4.97729886,66.6327439 Z" id="Path"></path>
                            <path d="M19.1434571,84.6816457 C19.1434571,84.6816457 18.91824,84.3190461 15.8507825,85.2829755 L7.55603514,90.1161354 C8.0598549,90.8778826 8.62315391,91.598574 9.24065937,92.2714634 L19.1434571,84.6816457 Z" id="Path"></path>
                        </g>
                        <path d="M76.8373326,60.2545944 L68.6056461,48.4937552 C68.6056461,48.4937552 61.6036451,50.9711438 54.8088439,56.7299461 C48.0140427,62.4887485 45.338463,69.0853586 45.338463,69.0853586 L39.1585046,62.7004526 C39.1585046,62.7004526 34.8365877,65.5539538 30.3052187,80.1773029 C25.7738498,94.8006519 28.2444819,97.6473966 28.2444819,97.6473966 L20.008291,97.6473966 C20.008291,97.6473966 19.5848827,99.3387774 23.2897047,112.725684 C26.9945267,126.112591 36.25996,133.346566 36.25996,133.346566 L27.3796481,138.52656 C27.3796481,138.52656 29.1318374,141.398079 33.7780671,145.087136 C47.9078552,148.299087 62.7266755,146.159875 75.371169,139.082847 L76.8373326,60.2545944 Z" id="Path" fill="#FFFFFF" opacity="0.23" style="mix-blend-mode: overlay;"></path>
                        <path d="M75.0491085,117.835861 L76.8373326,60.2545944 L68.6056461,48.4937552 C68.6056461,48.4937552 61.6036451,50.9711438 54.8088439,56.7299461 C48.0140427,62.4887485 45.338463,69.0853586 45.338463,69.0853586 L39.1585046,62.7004526 C39.1585046,62.7004526 34.8365877,65.5539538 30.3052187,80.1773029 C25.7738498,94.8006519 28.2444819,97.6473966 28.2444819,97.6473966 L20.008291,97.6473966 C20.008291,97.6473966 19.5848827,99.3387774 23.2897047,112.725684 C23.4676263,113.360797 23.6590609,113.991405 23.8595041,114.601743 C38.575107,126.258002 58.982655,127.548232 75.0491085,117.838113 L75.0491085,117.835861 Z" id="Path" fill="#FFFFFF" opacity="0.35" style="mix-blend-mode: overlay;"></path>
                        <path d="M74.7383089,96.6767107 L76.8373326,60.2545944 L68.6056461,48.4937552 C68.6056461,48.4937552 61.6036451,50.9711438 54.8088439,56.7299461 C48.0140427,62.4887485 45.338463,69.0853586 45.338463,69.0853586 L39.1585046,62.7004526 C39.1585046,62.7004526 34.9559527,65.5066582 30.4989055,79.5917383 C38.3771923,96.1217902 57.7939074,103.621389 74.7383089,96.6789629 L74.7383089,96.6767107 Z" id="Path" fill="#FFFFFF" opacity="0.35" style="mix-blend-mode: overlay;"></path>
                        <path d="M49.9306406,61.7387754 C54.3433092,70.8306169 64.7006597,75.3776998 74.3802136,72.4726244 L76.8373326,60.2545944 L68.6056461,48.4937552 C68.6056461,48.4937552 61.6036451,50.9711438 54.8088439,56.7299461 C53.0296552,58.2432638 51.3964255,59.9202272 49.9306406,61.7387754 L49.9306406,61.7387754 Z" id="Path" fill="#FFFFFF" opacity="0.2" style="mix-blend-mode: overlay;"></path>
                        <g id="Group" opacity="0.49" style="mix-blend-mode: overlay;" transform="translate(19.819109, 93.465114)" fill="#FFFFFF">
                            <path d="M8.42537331,2.73638829 C8.42537331,2.73638829 7.90286954,2.12154549 7.78125229,0.0337825714 C7.7310857,0.935154092 7.75594521,1.83913614 7.85557394,2.73638829 L8.42537331,2.73638829 Z" id="Path"></path>
                            <path d="M29.5327239,58.4731268 C16.7921902,53.4417758 10.6933099,47.1807393 8.52221669,44.5096639 L7.5515308,45.0772111 C7.5515308,45.0772111 12.8531423,53.7773494 29.5327239,60.367203 C46.2123055,66.9570566 55.7885385,62.3220878 55.7885385,62.3220878 L55.7615124,60.4527855 C55.191713,60.7050287 45.7010626,64.8625371 29.5327239,58.4731268 Z" id="Path"></path>
                            <path d="M16.3755385,39.8927125 L19.1389528,39.4422782 C19.1389528,39.4422782 7.15064429,30.755653 3.44357011,17.3709982 C1.3873376,9.93883251 0.632860171,6.11014109 0.342330057,4.17552583 L0.1891824,4.17552583 C0.1891824,4.17552583 -0.261251886,5.86690657 3.44357011,19.2538135 C6.30608,29.5710109 12.9252118,37.1225417 16.3755385,39.8927125 Z" id="Path"></path>
                        </g>
                        <path d="M100.221629,155.778193 C100.221629,155.778193 109.795609,160.413162 126.475191,153.823309 C143.154773,147.233455 148.456384,138.533317 148.456384,138.533317 L139.576072,133.353322 C139.576072,133.353322 148.830245,126.103583 152.537319,112.718928 C156.244393,99.334273 155.818732,97.6406401 155.818732,97.6406401 L147.573533,97.6406401 C147.573533,97.6406401 150.050921,94.7893911 145.515048,80.1705463 C140.979175,65.5517016 136.65951,62.6824352 136.65951,62.6824352 L130.481804,69.0740977 C130.481804,69.0740977 127.803972,62.4887485 121.009171,56.7231896 C114.21437,50.9576307 107.20336,48.491503 107.20336,48.491503 L100.856741,58.3695269 L100.221629,155.778193 Z" id="Path" fill="url(#linearGradient-6)"></path>
                        <g id="Group" opacity="0.6" style="mix-blend-mode: overlay;" transform="translate(106.077274, 48.421686)" fill="#FFFFFF">
                            <path d="M44.944333,66.6327439 C48.649155,53.2503413 48.2257468,51.63103 48.2257468,51.63103 L39.9895559,51.63103 C39.9895559,51.63103 42.4669445,48.7032071 37.928819,34.0866146 C33.3906936,19.470022 29.0755331,16.5624687 29.0755331,16.5624687 L22.8978269,22.9338617 C22.8978269,22.9338617 20.2199951,16.3395037 13.4251939,10.5852057 C9.40486378,7.19269409 4.87398906,4.45638323 -1.28021124e-14,2.47738857 L1.12608571,0.0743216571 C1.12608571,0.0743216571 8.12808669,2.55171023 14.9228879,8.31051257 C21.7176891,14.0693149 24.3955209,20.6636729 24.3955209,20.6636729 L30.5732271,14.2787669 C30.5732271,14.2787669 34.9086571,17.1322681 39.4377739,31.7556171 C43.9668906,46.3789662 41.4962586,49.2257109 41.4962586,49.2257109 L49.7324495,49.2257109 C49.7324495,49.2257109 50.1581099,50.9170917 46.4510357,64.3039986 C45.1048952,69.1248427 42.9298656,73.6745717 40.0233385,77.7494621 C42.1908606,74.3004191 43.8483371,70.5561152 44.944333,66.6327439 L44.944333,66.6327439 Z" id="Path"></path>
                            <path d="M30.7849313,84.6816457 C30.7849313,84.6816457 31.0101484,84.3190461 34.0776059,85.2829755 L42.3701011,90.1161354 C41.8676815,90.8782907 41.3050964,91.5990323 40.687729,92.2714634 L30.7849313,84.6816457 Z" id="Path"></path>
                        </g>
                        <path d="M100.86575,58.3717791 L107.20336,48.4937552 C107.20336,48.4937552 114.205361,50.9711438 121.000162,56.7299461 C127.794963,62.4887485 130.472795,69.0853586 130.472795,69.0853586 L136.650501,62.7004526 C136.650501,62.7004526 140.985931,65.5539538 145.515048,80.1773029 C150.044165,94.8006519 147.573533,97.6473966 147.573533,97.6473966 L155.809724,97.6473966 C155.809724,97.6473966 156.235384,99.3387774 152.52831,112.725684 C148.821236,126.112591 139.567063,133.348818 139.567063,133.348818 L148.447375,138.528812 C148.447375,138.528812 146.695186,141.400331 142.048956,145.089388 C127.919899,148.301196 113.101832,146.161976 100.458107,139.085099 L100.86575,58.3717791 Z" id="Path" fill="#FFFFFF" opacity="0.23" style="mix-blend-mode: overlay;"></path>
                        <path d="M100.771158,117.835861 L100.86575,58.3785356 L107.20336,48.4937552 C107.20336,48.4937552 114.205361,50.9711438 121.000162,56.7299461 C127.794963,62.4887485 130.472795,69.0853586 130.472795,69.0853586 L136.650501,62.7004526 C136.650501,62.7004526 140.985931,65.5539538 145.515048,80.1773029 C150.044165,94.8006519 147.573533,97.6473966 147.573533,97.6473966 L155.809724,97.6473966 C155.809724,97.6473966 156.235384,99.3387774 152.52831,112.725684 C152.352641,113.360797 152.158954,113.991405 151.958511,114.601743 C137.243861,126.25825 116.836752,127.548509 100.771158,117.838113 L100.771158,117.835861 Z" id="Path" fill="#FFFFFF" opacity="0.35" style="mix-blend-mode: overlay;"></path>
                        <path d="M101.081958,96.6767107 L100.856741,58.3717791 L107.20336,48.4937552 C107.20336,48.4937552 114.205361,50.9711438 121.000162,56.7299461 C127.794963,62.4887485 130.472795,69.0853586 130.472795,69.0853586 L136.650501,62.7004526 C136.650501,62.7004526 140.853053,65.5066582 145.312353,79.5917383 C137.434066,96.1217902 118.017351,103.621389 101.072949,96.6789629 L101.081958,96.6767107 Z" id="Path" fill="#FFFFFF" opacity="0.35" style="mix-blend-mode: overlay;"></path>
                        <path d="M125.896383,61.7387754 C121.483083,70.8348687 111.120124,75.3827383 101.437801,72.4726244 L100.86575,58.3717791 L107.20336,48.4937552 C107.20336,48.4937552 114.205361,50.9711438 121.000162,56.7299461 C122.786169,58.2418131 124.425511,59.918858 125.896383,61.7387754 L125.896383,61.7387754 Z" id="Path" fill="#FFFFFF" opacity="0.2" style="mix-blend-mode: overlay;"></path>
                        <g id="Group" opacity="0.49" style="mix-blend-mode: overlay;" transform="translate(100.221629, 93.465114)" fill="#FFFFFF">
                            <path d="M47.3519043,2.73638829 C47.3519043,2.73638829 47.8744081,2.12154549 47.9982775,0.0337825714 C48.0466398,0.935230144 48.0210295,1.83912521 47.9217037,2.73638829 L47.3519043,2.73638829 Z" id="Path"></path>
                            <path d="M26.2445537,58.4731268 C38.9850874,53.4417758 45.0839677,47.1807393 47.2550609,44.5096639 L48.2257468,45.0772111 C48.2257468,45.0772111 42.9241353,53.7773494 26.2445537,60.367203 C9.56497206,66.9570566 0,62.3130791 0,62.3130791 L0.0270260571,60.4437768 C0.585564571,60.7050287 10.0784671,64.8625371 26.2445537,58.4731268 Z" id="Path"></path>
                            <path d="M39.413,39.8927125 L36.6518378,39.4422782 C36.6518378,39.4422782 48.6378942,30.755653 52.3449683,17.3709982 C54.4012009,9.93883251 55.1579305,6.11014109 55.4484606,4.17552583 L55.5993561,4.17552583 C55.5993561,4.17552583 56.0497903,5.86690657 52.3449683,19.2538135 C49.4779541,29.5710109 42.8543179,37.1225417 39.413,39.8927125 Z" id="Path"></path>
                        </g>
                        <polygon id="Path" fill="url(#linearGradient-7)" points="88.0441377 20.4271949 68.1642205 48.5387986 88.0441377 76.6481502 107.924055 48.5387986"></polygon>
                        <polygon id="Path" fill="#FFFFFF" opacity="0.49" style="mix-blend-mode: overlay;" points="88.0441377 23.0982702 106.978143 49.8743363 107.924055 48.5387986 88.0441377 20.4271949 68.1642205 48.5387986 69.1078803 49.8743363"></polygon>
                        <polygon id="Path" fill="url(#linearGradient-8)" points="107.64929 48.5387986 88.1410206 20.6059786 87.8954943 76.4702287"></polygon>
                        <polygon id="Path" fill="#FFFFFF" opacity="0.49" style="mix-blend-mode: overlay;" points="88.1860245 20.6298903 88.0441377 20.4271949 68.7768111 47.6739648 86.1166329 32.8781273 87.8555293 56.3744653"></polygon>
                        <polygon id="Path" fill="#FFFFFF" points="86.8504868 42.7056746 87.8954943 56.9664241 89.7373486 42.7056746 88.1860245 21.0833752"></polygon>
                        <polygon id="Path" fill="url(#linearGradient-9)" points="125.360366 45.0479329 88.28512 69.9434359 118.594843 65.3557627"></polygon>
                        <polygon id="Path" fill="url(#linearGradient-10)" points="125.360366 45.0479329 88.28512 69.9434359 104.000772 43.6245606"></polygon>
                        <polygon id="Path" fill="#FFFFFF" opacity="0.61" style="mix-blend-mode: overlay;" points="125.360366 45.0479329 104.131398 43.6313171 118.635382 65.2341454"></polygon>
                        <polygon id="Path" fill="#FFFFFF" opacity="0.699999988" style="mix-blend-mode: overlay;" points="110.264061 53.6872625 104.131398 43.6313171 125.360366 45.0479329 88.28512 69.9434359"></polygon>
                        <polygon id="Path" fill="url(#linearGradient-11)" points="51.486891 45.0479329 88.5621371 69.9434359 58.2501618 65.3557627"></polygon>
                        <polygon id="Path" fill="url(#linearGradient-12)" points="51.486891 45.0479329 88.5621371 69.9434359 72.8464849 43.6245606"></polygon>
                        <polygon id="Path" fill="#FFFFFF" opacity="0.61" style="mix-blend-mode: overlay;" points="51.486891 45.0479329 72.7158589 43.6313171 58.2096227 65.2341454"></polygon>
                        <polygon id="Path" fill="#FFFFFF" opacity="0.61" style="mix-blend-mode: overlay;" points="66.5831961 53.6872625 72.7158589 43.6313171 51.486891 45.0479329 88.5621371 69.9434359"></polygon>
                        <path d="M88.5621371,56.9664241 C59.9415426,56.9664241 36.7441769,79.521921 36.7441769,107.342995 C36.7441769,135.164068 59.9415426,157.726322 88.5621371,157.726322 C117.182732,157.726322 140.377845,135.168573 140.377845,107.342995 C140.377845,79.5174166 117.175975,56.9664241 88.5621371,56.9664241 Z" id="Path" fill="url(#linearGradient-13)"></path>
                        <path d="M88.4067373,155.467394 C60.1757684,155.467394 37.219385,133.515479 36.6067944,106.212405 C36.6067944,106.588517 36.5910292,106.96463 36.5910292,107.33849 C36.5910292,135.164068 59.7883949,157.721817 88.4112416,157.721817 C117.034088,157.721817 140.222445,135.168573 140.222445,107.342995 C140.222445,106.96463 140.222445,106.588517 140.20668,106.216909 C139.589585,133.515479 116.633202,155.467394 88.4067373,155.467394 Z" id="Path" fill="#FFFFFF"></path>
                        <path d="M88.5621371,56.9664241 C59.9415426,56.9664241 36.7441769,79.521921 36.7441769,107.342995 C36.7441769,107.957837 36.7712029,108.559167 36.7959768,109.169506 C49.9937014,120.678102 68.1664726,127.794963 88.2265635,127.794963 C108.637993,127.794963 127.094538,120.425858 140.344063,108.556915 C140.355323,108.149272 140.377845,107.75289 140.377845,107.342995 C140.377845,79.521921 117.175975,56.9664241 88.5621371,56.9664241 Z" id="Path" fill="#FFFFFF" opacity="0.35" style="mix-blend-mode: overlay;"></path>
                        <path d="M129.912005,76.85535 C120.452885,64.7724503 105.500718,56.9664241 88.6702413,56.9664241 C71.7136426,56.9664241 56.6601288,64.8895632 47.2077653,77.1301149 C58.9213089,84.1613941 73.0829629,88.28512 88.3369199,88.28512 C103.79132,88.28512 118.112878,84.0555421 129.912005,76.85535 Z" id="Path" fill="#FFFFFF" opacity="0.49" style="mix-blend-mode: overlay;"></path>
                        <path d="M88.5621371,59.8469514 C116.678245,59.8469514 139.551298,81.6344578 140.337306,108.784384 C140.355323,108.306924 140.377845,107.827211 140.377845,107.342995 C140.377845,79.521921 117.180479,56.9664241 88.5621371,56.9664241 C59.9437947,56.9664241 36.746429,79.521921 36.746429,107.342995 C36.746429,107.827211 36.7712029,108.306924 36.7847159,108.784384 C37.5729759,81.6344578 60.4415246,59.8469514 88.5621371,59.8469514 Z" id="Path" fill="#FFFFFF" opacity="0.49" style="mix-blend-mode: overlay;"></path>
                        <path d="M81.6029274,60.2771161 C84.015003,60.0924381 86.5014002,61.011324 85.2964885,62.0585837 C84.0915768,63.1058434 75.9342119,67.8106295 72.3780332,64.9030762 C68.8218545,61.9955229 78.7674435,60.4955767 81.6029274,60.2771161 Z" id="Path" fill="#FFFFFF"></path>
                        <path d="M53.5678974,73.0874672 C46.0163666,79.4385906 39.9174864,91.1746559 40.0706341,98.0325179 C40.2237817,104.89038 43.8993255,94.1295049 45.7776365,90.2264918 C47.6559474,86.3234787 57.1285805,74.425257 63.9819381,70.8240349 C70.8352958,67.2228128 65.3715279,63.1553912 53.5678974,73.0874672 Z" id="Path" fill="#FFFFFF"></path>
                        <path d="M88.5643893,69.8330795 C67.2858736,69.8330795 50.0364926,86.6072523 50.0364926,107.291195 C50.0364926,127.975137 67.2858736,144.753814 88.5643893,144.753814 C109.842905,144.753814 127.076521,127.981894 127.076521,107.291195 C127.076521,86.6004958 109.842905,69.8330795 88.5643893,69.8330795 Z" id="Path" fill="url(#linearGradient-14)"></path>
                        <g id="Logo_-CHplay-notifi" transform="translate(59.232109, 87.636423)" fill="#FFFFFF">
                            <path d="M36.5392293,2.4716096 C35.9571122,2.4716096 35.485213,1.99971046 35.485213,1.41759337 C35.485213,0.835476282 35.9571122,0.363577143 36.5392293,0.363577143 L51.5319345,0.363577143 L45.4713411,34.9231477 L37.1968633,34.9231477 L38.4625837,26.0000445 L42.0232667,10.3812357 L29.9809061,34.9299042 L24.5216425,34.9299042 L22.7897227,24.022638 L24.6973119,24.022638 C25.2351871,24.0234262 25.6869838,23.6182666 25.7445716,23.0834825 L25.7445716,22.9686218 C25.7445716,22.3865047 25.2726725,21.9146055 24.6905554,21.9146055 L22.4383839,21.9146055 L20.5375513,9.93530571 L19.7402826,16.1760727 L19.6547001,16.1760727 L17.0714594,16.1760727 C16.4893423,16.1760727 16.0174432,16.6479719 16.0174432,17.230089 C16.0174432,17.8122061 16.4893423,18.2841052 17.0714594,18.2841052 L19.4857872,18.2841052 L18.3394319,27.268017 L18.0826844,28.7049024 L13.9161673,28.7049024 C13.378292,28.7041142 12.9264954,29.1092738 12.8689075,29.6440579 L12.8689075,29.7589186 C12.8689075,30.3410357 13.3408067,30.8129349 13.9229238,30.8129349 L17.7110761,30.8129349 L16.9768682,34.9366607 L8.74292949,34.9366607 L10.2045887,26.6036265 L3.64626554,26.6036265 C3.06414845,26.6036265 2.59224931,26.1317273 2.59224931,25.5496102 C2.59224931,24.9674931 3.06414845,24.495594 3.64626554,24.495594 L10.5852057,24.495594 L11.1122138,21.4889451 L7.65738286,21.4889451 C7.07526577,21.4889451 6.60336663,21.017046 6.60336663,20.4349289 C6.60336663,19.8528118 7.07526577,19.3809127 7.65738286,19.3809127 L11.4703091,19.3809127 L12.2270387,15.0702566 L4.50434286,15.0702566 C4.11656415,15.088196 3.75031221,14.8915321 3.55105822,14.5583775 C3.35180423,14.2252229 3.35180423,13.80951 3.55105822,13.4763554 C3.75031221,13.1432008 4.11656415,12.9465368 4.50434286,12.9644763 L12.598647,12.9644763 L13.3306027,8.80246349 L10.9207793,8.80246349 C10.3386622,8.80246349 9.86676303,8.33056435 9.86676303,7.74844726 C9.86676303,7.16633017 10.3386622,6.69443103 10.9207793,6.69443103 L26.3661709,6.69443103 L26.80084,9.81368846 L26.80084,9.81368846 L26.6859793,9.81368846 L24.514886,9.81368846 C23.9327689,9.81368846 23.4608698,10.2855876 23.4608698,10.8677047 C23.4608698,11.4498218 23.9327689,11.9217209 24.514886,11.9217209 L26.6859793,11.9217209 C26.8258541,11.9216046 26.9643485,11.8940588 27.0936223,11.8406427 L28.8277943,24.337942 L37.4671239,6.68542234 L32.0461473,6.68542234 C31.4640302,6.68542234 30.992131,6.2135232 30.992131,5.63140611 C30.992131,5.04928903 31.4640302,4.57738989 32.0461473,4.57738989 L40.6359291,4.57738989 C41.0237078,4.59532934 41.3899597,4.3986654 41.5892137,4.06551079 C41.7884677,3.73235617 41.7884677,3.31664331 41.5892137,2.9834887 C41.3899597,2.65033408 41.0237078,2.45367015 40.6359291,2.4716096 L36.5392293,2.4716096 L36.5392293,2.4716096 Z M5.49755046,28.6936415 C6.07966755,28.6936415 6.55156669,29.1655407 6.55156669,29.7476578 C6.55156669,30.3297749 6.07966755,30.801674 5.49755046,30.801674 L4.59668189,30.801674 C4.0145648,30.801674 3.54266566,30.3297749 3.54266566,29.7476578 C3.54266566,29.1655407 4.0145648,28.6936415 4.59668189,28.6936415 L5.49755046,28.6936415 Z M6.83308811,6.64713543 C7.4152052,6.64713543 7.88710434,7.11903457 7.88710434,7.70115166 C7.88710434,8.28326875 7.4152052,8.75516789 6.83308811,8.75516789 L1.23869429,8.75516789 C0.656577197,8.75516789 0.184678057,8.28326875 0.184678057,7.70115166 C0.184678057,7.11903457 0.656577197,6.64713543 1.23869429,6.64713543 L6.83308811,6.64713543 Z M24.751364,2.4716096 C25.1391427,2.45367015 25.5053946,2.65033408 25.7046486,2.9834887 C25.9039026,3.31664331 25.9039026,3.73235617 25.7046486,4.06551079 C25.5053946,4.3986654 25.1391427,4.59532934 24.751364,4.57738989 L13.7540109,4.57738989 C13.1914345,4.55136392 12.7487036,4.08767787 12.7487036,3.52449974 C12.7487036,2.96132162 13.1914345,2.49763556 13.7540109,2.4716096 L24.751364,2.4716096 Z" id="Combined-Shape"></path>
                        </g>
                        <g id="Group" opacity="0.35" style="mix-blend-mode: overlay;" transform="translate(47.746034, 68.015577)" fill="#FFFFFF">
                            <path d="M40.7643029,79.233643 C18.3326754,79.233643 0.0810781714,61.4640105 0.0810781714,39.6269563 C0.0810781714,17.7899021 18.3236667,0.0202695429 40.7643029,0.0202695429 C63.204939,0.0202695429 81.4362667,17.7921543 81.4362667,39.6382171 C81.4362667,61.48428 63.1869216,79.233643 40.7643029,79.233643 Z M40.7643029,3.61473514 C20.3145863,3.61473514 3.6732916,19.7695608 3.6732916,39.6269563 C3.6732916,59.4843518 20.3055776,75.6391774 40.7643029,75.6391774 C61.2230281,75.6391774 77.8418011,59.4843518 77.8418011,39.6382171 C77.8418011,19.7920825 61.2050107,3.61473514 40.7643029,3.61473514 Z" id="Shape"></path>
                        </g>
                        <path d="M88.5643893,69.8327869 C77.7708893,69.7912575 67.4449056,74.2343915 60.0541511,82.1006573 C67.2471513,75.6238331 76.5924525,72.05462 86.2716787,72.0875031 C107.54569,72.0875031 124.78381,88.8549194 124.78381,109.545618 C124.779481,118.915445 121.196014,127.929701 114.766152,134.745164 C122.344709,127.900815 127.078776,118.137652 127.078776,107.291195 C127.087782,86.6072523 109.842905,69.8327869 88.5643893,69.8327869 Z" id="Path" fill="#5B6CB2" opacity="0.68" style="mix-blend-mode: multiply;"></path>
                        <path d="M64.5675027,129.450309 C64.5675027,105.275501 81.8168837,91.9921942 103.090895,91.9921942 C111.41427,91.9674999 119.527772,94.6030859 126.247722,99.5144467 C122.567673,82.5601002 107.104264,69.8330795 88.5576327,69.8330795 C67.2813693,69.8330795 50.0319883,86.6072523 50.0319883,107.291195 C50.0319883,119.536251 56.0700599,130.398474 65.4008061,137.245075 C64.8486105,134.683528 64.5692845,132.070698 64.5675027,129.450309 Z" id="Path" fill="#9C84B2" opacity="0.25"></path>
                        <path d="M88.5643893,142.708843 C67.6597341,142.708843 50.6558398,126.511226 50.0702752,106.322761 C50.05451,106.680856 50.0364926,107.038951 50.0364926,107.399299 C50.0364926,128.09225 67.2858736,144.859666 88.5643893,144.859666 C109.842905,144.859666 127.076521,128.09225 127.076521,107.399299 C127.076521,107.038951 127.063008,106.680856 127.051747,106.322761 C126.472939,126.511226 109.471297,142.708843 88.5643893,142.708843 Z" id="Path" fill="#FFFFFF"></path>
                        <path d="M42.56604,130.85116 C42.56604,130.85116 44.4984031,134.051496 46.5771573,137.064901 L57.3560498,130.175509 L42.56604,130.85116 Z" id="Path" fill="#ADB2BB"></path>
                        <path d="M52.090473,143.280894 L57.4754149,130.175509 L57.3560498,130.175509 L46.572653,137.05364 C46.7843571,137.35393 46.9960612,137.654219 47.2077653,137.954509 C48.6098274,139.924231 50.2498121,141.713236 52.090473,143.280894 L52.090473,143.280894 Z" id="Path" fill="url(#linearGradient-15)"></path>
                        <polygon id="Path" fill="#FFFFFF" points="57.6150495 130.184517 53.6962712 144.753814 52.090473 143.280894"></polygon>
                        <polygon id="Path" fill="#FFFFFF" points="42.2687534 129.709309 42.5615357 130.85116 57.6150495 130.184517"></polygon>
                        <path d="M133.778983,130.85116 C133.778983,130.85116 131.844368,134.051496 129.765613,137.064901 L118.982217,130.175509 L133.778983,130.85116 Z" id="Path" fill="#ADB2BB"></path>
                        <path d="M124.247793,143.280894 L118.862851,130.175509 L118.982217,130.175509 L129.763361,137.05364 C129.55466,137.35393 129.343707,137.654219 129.130501,137.954509 C127.728439,139.924231 126.088454,141.713236 124.247793,143.280894 Z" id="Path" fill="url(#linearGradient-16)"></path>
                        <polygon id="Path" fill="#FFFFFF" points="118.723217 130.184517 122.641995 144.753814 124.247793 143.280894"></polygon>
                        <polygon id="Path" fill="#FFFFFF" points="134.069513 129.709309 133.776731 130.85116 118.723217 130.184517"></polygon>
                        <g id="Group-2" transform="translate(39.299173, 45.105197)">
                            <path d="M20.2099528,6.87266773 C9.05269558,6.87266773 0.00347077797,15.2957889 0.00347077797,25.6940644 C0.00347077797,36.0923398 9.05269558,44.5042001 20.2099528,44.5042001 C31.3672101,44.5042001 40.4141827,36.0743225 40.4141827,25.6940644 C40.4141827,15.3138062 31.3627057,6.87266773 20.2099528,6.87266773 Z" id="Path" fill="url(#radialGradient-17)" style="mix-blend-mode: overlay;"></path>
                            <path d="M1.75791232,50.454437 C7.17888895,44.3735742 23.1242627,25.6940644 23.1242627,25.6940644 C23.1242627,25.6940644 36.4413523,0.694961498 36.7634128,0.00129269783 C36.8534997,-0.201402731 19.7437533,23.5004494 19.7437533,23.5004494 L1.75791232,50.454437 Z" id="Path" fill="url(#radialGradient-18)" opacity="0.7"></path>
                            <path d="M24.6039393,21.2212519 C19.6919534,17.3767953 20.5860655,6.58213761 20.5500307,3.5169323 L20.5500307,6.44475515 C20.5500307,5.97855567 20.5117438,5.4718171 20.5117438,5.3614607 L20.5117438,3.51468013 C20.4968408,4.80865086 20.4058461,6.1006251 20.2392311,7.38391064 C20.2392311,7.38391064 18.7978413,18.2258639 16.2010877,20.4667745 C10.345442,25.5994732 -4.38150699,24.6107699 1.26693895,24.7459002 C20.3428309,25.1557954 20.3428309,43.7722444 20.5117438,49.8801333 L20.5117438,46.8059193 C20.527509,47.0311365 20.5500307,47.2113102 20.5500307,47.3194144 L20.5500307,49.8801333 C20.9531694,35.4234449 20.9058738,26.2773768 37.5471685,25.0566998 C43.0537276,24.6332916 30.3514808,25.6940644 24.6039393,21.2212519 Z" id="Path" fill="url(#radialGradient-19)"></path>
                        </g>
                        <polygon id="Path" fill="url(#linearGradient-20)" points="170.147047 106.266457 127.319755 106.126822 138.335126 119.302025"></polygon>
                        <polygon id="Path" fill="url(#linearGradient-21)" points="170.147047 106.266457 127.319755 106.126822 138.411699 93.1250364"></polygon>
                        <polygon id="Path" fill="#FFFFFF" opacity="0.61" style="mix-blend-mode: overlay;" points="170.147047 106.266457 138.517552 93.2038624 140.20668 106.212405 138.436473 119.223199"></polygon>
                        <polygon id="Path" fill="#FFFFFF" opacity="0.7" style="mix-blend-mode: overlay;" points="139.697689 104.969206 138.517552 93.2038624 170.147047 106.266457 127.319755 106.126822"></polygon>
                        <polygon id="Path" fill="url(#linearGradient-22)" points="7.83980874 106.266457 50.6671006 106.126822 39.6517302 119.302025"></polygon>
                        <polygon id="Path" fill="url(#linearGradient-23)" points="7.83980874 106.266457 50.6671006 106.126822 39.5751563 93.1250364"></polygon>
                        <polygon id="Path" fill="#FFFFFF" opacity="0.61" style="mix-blend-mode: overlay;" points="7.83980874 106.266457 39.4693043 93.2038624 37.7801757 106.212405 39.5503825 119.223199"></polygon>
                        <polygon id="Path" fill="#FFFFFF" opacity="0.7" style="mix-blend-mode: overlay;" points="38.2914186 104.969206 39.4693043 93.2038624 7.83980874 106.266457 50.6671006 106.126822"></polygon>
                        <path d="M36.5977857,99.4581425 C32.6227031,99.4581425 29.3908371,102.593165 29.3908371,106.457891 C29.3908371,110.322617 32.6136945,113.459892 36.5977857,113.459892 C40.581877,113.459892 43.8047343,110.32487 43.8047343,106.457891 C43.8047343,102.590913 40.5773726,99.4581425 36.5977857,99.4581425 Z" id="Path" fill="url(#linearGradient-24)"></path>
                        <g id="Group" opacity="0.35" style="mix-blend-mode: overlay;" transform="translate(28.827794, 99.095543)" fill="#FFFFFF">
                            <path d="M7.75873057,14.8305489 C3.56743954,14.8305489 0.155399829,11.508596 0.155399829,7.42766137 C0.155399829,3.34672674 3.56743954,0.0270260571 7.75873057,0.0270260571 C11.9500216,0.0270260571 15.3620613,3.34672674 15.3620613,7.42766137 C15.3620613,11.508596 11.9522738,14.8305489 7.75873057,14.8305489 Z M7.75873057,0.698173143 C3.93003914,0.698173143 0.828799086,3.71833503 0.828799086,7.42766137 C0.828799086,11.1369877 3.93679566,14.1594018 7.75873057,14.1594018 C11.5806655,14.1594018 14.6909142,11.1392399 14.6909142,7.42766137 C14.6909142,3.71608286 11.5806655,0.698173143 7.75873057,0.698173143 Z" id="Shape"></path>
                        </g>
                        <path d="M36.5977857,99.4580794 C34.5810156,99.4497462 32.6515534,100.280272 31.2714003,101.750853 C32.6146584,100.539532 34.3611193,99.8722638 36.1698731,99.8792985 C40.1472079,99.8792985 43.3768217,103.012069 43.3768217,106.879047 C43.3759627,108.629968 42.7065114,110.314472 41.5052673,111.588338 C42.9654835,110.282285 43.8015177,108.416971 43.8047343,106.457891 C43.7979778,102.593165 40.5773726,99.4580794 36.5977857,99.4580794 Z" id="Path" fill="#5B6CB2" opacity="0.68" style="mix-blend-mode: multiply;"></path>
                        <path d="M32.1137124,110.599635 C32.1137124,106.081779 35.3388219,103.599886 39.320661,103.599886 C40.875756,103.595059 42.3916735,104.087476 43.6470823,105.005241 C42.96017,101.836435 40.0683819,99.4581425 36.6045422,99.4581425 C32.6272075,99.4581425 29.3975937,102.593165 29.3975937,106.457891 C29.4030847,108.675691 30.470762,110.756615 32.2691122,112.054537 C32.1658141,111.576461 32.1137204,111.088743 32.1137124,110.599635 Z" id="Path" fill="#9C84B2" opacity="0.25"></path>
                        <path d="M140.571532,99.4581425 C136.596449,99.4581425 133.364583,102.593165 133.364583,106.457891 C133.364583,110.322617 136.589693,113.459892 140.571532,113.459892 C144.553371,113.459892 147.77848,110.32487 147.77848,106.457891 C147.77848,102.590913 144.548867,99.4581425 140.571532,99.4581425 Z" id="Path" fill="url(#linearGradient-24)"></path>
                        <g id="Group" opacity="0.35" style="mix-blend-mode: overlay;" transform="translate(132.878114, 99.095543)" fill="#FFFFFF">
                            <path d="M7.68215674,14.8305489 C3.49086571,14.8305489 0.078826,11.508596 0.078826,7.42766137 C0.078826,3.34672674 3.49086571,0.0270260571 7.68215674,0.0270260571 C11.8734478,0.0270260571 15.2854875,3.34672674 15.2854875,7.42766137 C15.2854875,11.508596 11.8756999,14.8305489 7.68215674,14.8305489 Z M7.68215674,0.698173143 C3.85346531,0.698173143 0.749973086,3.71833503 0.749973086,7.42766137 C0.749973086,11.1369877 3.86022183,14.1594018 7.68215674,14.1594018 C11.5040917,14.1594018 14.6143404,11.1392399 14.6143404,7.42766137 C14.6143404,3.71608286 11.5040917,0.698173143 7.68215674,0.698173143 Z" id="Shape"></path>
                        </g>
                        <path d="M140.571532,99.4580794 C138.554762,99.4497462 136.6253,100.280272 135.245146,101.750853 C136.588405,100.539532 138.334865,99.8722638 140.143619,99.8792985 C144.118702,99.8792985 147.350568,103.012069 147.350568,106.879047 C147.349784,108.630408 146.679414,110.315196 145.476761,111.588338 C146.93852,110.283209 147.775548,108.417506 147.77848,106.457891 C147.771724,102.593165 144.548867,99.4580794 140.571532,99.4580794 Z" id="Path" fill="#5B6CB2" opacity="0.68" style="mix-blend-mode: multiply;"></path>
                        <path d="M136.087459,110.599635 C136.087459,106.081779 139.310316,103.599886 143.294407,103.599886 C144.849502,103.595059 146.36542,104.087476 147.620828,105.005241 C146.945177,101.836435 144.042128,99.4581425 140.578288,99.4581425 C136.600954,99.4581425 133.37134,102.593165 133.37134,106.457891 C133.380332,108.678037 134.453198,110.759279 136.256371,112.054537 C136.147513,111.577123 136.090876,111.08929 136.087459,110.599635 L136.087459,110.599635 Z" id="Path" fill="#9C84B2" opacity="0.25"></path>
                        <polygon id="Path" fill="url(#linearGradient-25)" points="112.104085 139.632376 88.0418855 155.789454 107.714603 152.812084"></polygon>
                        <polygon id="Path" fill="url(#linearGradient-26)" points="112.104085 139.632376 88.0418855 155.789454 98.2419699 138.708986"></polygon>
                        <polygon id="Path" fill="#FFFFFF" opacity="0.61" style="mix-blend-mode: overlay;" points="112.104085 139.632376 98.3253002 138.71349 107.739377 152.733258"></polygon>
                        <polygon id="Path" fill="#FFFFFF" opacity="0.97" style="mix-blend-mode: overlay;" points="102.307139 145.238031 98.3253002 138.71349 112.104085 139.632376 88.0418855 155.789454"></polygon>
                        <polygon id="Path" fill="url(#linearGradient-27)" points="64.0022077 139.632376 88.0666594 155.789454 68.3939419 152.812084"></polygon>
                        <polygon id="Path" fill="url(#linearGradient-28)" points="64.0022077 139.632376 88.0666594 155.789454 77.866575 138.708986"></polygon>
                        <polygon id="Path" fill="#FFFFFF" opacity="0.61" style="mix-blend-mode: overlay;" points="64.0022077 139.632376 77.7809925 138.71349 68.3669159 152.733258"></polygon>
                        <polygon id="Path" fill="#FFFFFF" opacity="0.97" style="mix-blend-mode: overlay;" points="73.8014055 145.238031 77.7809925 138.71349 64.0022077 139.632376 88.0666594 155.789454"></polygon>
                        <polygon id="Path" fill="url(#linearGradient-29)" points="64.0022077 171.090707 88.0666594 154.933629 68.3939419 157.911"></polygon>
                        <polygon id="Path" fill="url(#linearGradient-30)" points="64.0022077 171.090707 88.0666594 154.933629 77.866575 172.014097"></polygon>
                        <polygon id="Path" fill="#FFFFFF" opacity="0.61" style="mix-blend-mode: overlay;" points="64.0022077 171.090707 77.7809925 172.009593 68.3669159 157.989826"></polygon>
                        <polygon id="Path" fill="#ADB2BB" points="74.3734571 166.935451 77.7809925 172.009593 64.0022077 171.090707 73.0739542 165.000835"></polygon>
                        <polygon id="Path" fill="url(#linearGradient-31)" points="112.104085 171.090707 88.0418855 154.933629 107.714603 157.911"></polygon>
                        <polygon id="Path" fill="url(#linearGradient-32)" points="112.104085 171.090707 88.0418855 154.933629 98.2419699 172.014097"></polygon>
                        <polygon id="Path" fill="#FFFFFF" opacity="0.61" style="mix-blend-mode: overlay;" points="112.104085 171.090707 98.3275524 172.009593 107.739377 157.989826"></polygon>
                        <polygon id="Path" fill="#ADB2BB" points="102.086427 166.410695 98.3275524 172.009593 112.104085 171.090707 103.034591 165.000835"></polygon>
                        <polygon id="Path" fill="url(#linearGradient-33)" points="88.0441377 142.024182 68.1642205 154.341308 88.0441377 166.660686 107.924055 154.341308"></polygon>
                        <polygon id="Path" fill="#FFFFFF" opacity="0.49" style="mix-blend-mode: overlay;" points="88.0441377 143.193059 106.978143 154.926873 107.924055 154.341308 88.0441377 142.024182 68.1642205 154.341308 69.1078803 154.926873"></polygon>
                        <polygon id="Path" fill="#9C84B2" opacity="0.25" points="87.8954943 166.58186 107.64929 154.341308 87.8954943 142.100756"></polygon>
                        <polygon id="Path" fill="#FFFFFF" opacity="0.49" style="mix-blend-mode: overlay;" points="88.0576507 166.410695 87.6815381 151.521589 88.0441377 142.024182 68.7768111 153.962943 81.5150927 157.36147"></polygon>
                        <polygon id="Path" fill="#FFFFFF" opacity="0.41" style="mix-blend-mode: overlay;" points="88.0441377 142.256156 68.1642205 154.341308 88.0441377 153.562057 107.924055 154.341308"></polygon>
                        <path d="M88.0599029,147.150125 C84.0825681,147.150125 80.8529543,150.285147 80.8529543,154.149873 C80.8529543,158.0146 84.0780638,161.151874 88.0599029,161.151874 C92.0417419,161.151874 95.2668514,158.019104 95.2668514,154.149873 C95.2668514,150.280643 92.0327333,147.150125 88.0599029,147.150125 Z" id="Path" fill="url(#linearGradient-24)"></path>
                        <g id="Group" opacity="0.35" style="mix-blend-mode: overlay;" transform="translate(80.402520, 146.616360)" fill="#FFFFFF">
                            <path d="M7.64161766,15.0017139 C3.44807446,15.0017139 0.0382869143,11.6820132 0.0382869143,7.60107857 C0.0382869143,3.52014394 3.44807446,0.198191086 7.64161766,0.198191086 C11.8351609,0.198191086 15.2449484,3.51789177 15.2449484,7.60107857 C15.2449484,11.6842654 11.8329087,15.0017139 7.64161766,15.0017139 Z M7.64161766,0.871590343 C3.81292623,0.871590343 0.709434,3.88950006 0.709434,7.60107857 C0.709434,11.3126571 3.81968274,14.3305668 7.64161766,14.3305668 C11.4635526,14.3305668 14.5715491,11.3104049 14.5715491,7.60107857 C14.5715491,3.89175223 11.4635526,0.871590343 7.64161766,0.871590343 Z" id="Shape"></path>
                        </g>
                        <path d="M88.0599029,147.150076 C86.0426836,147.142735 84.1129095,147.973044 82.7312653,149.442835 C84.0762453,148.232865 85.8228553,147.565846 87.6319903,147.571281 C91.6070729,147.571281 94.8389389,150.706303 94.8389389,154.573282 C94.8385358,156.324289 94.16902,158.008955 92.9673844,159.282572 C94.4286563,157.976341 95.2648458,156.109861 95.2668514,154.149873 C95.2668514,150.285147 92.0327333,147.150076 88.0599029,147.150076 Z" id="Path" fill="#5B6CB2" opacity="0.68" style="mix-blend-mode: multiply;"></path>
                        <path d="M83.569073,158.291617 C83.569073,153.773761 86.7941825,151.291868 90.7760216,151.291868 C92.3295781,151.288002 93.8437713,151.780371 95.0979386,152.697223 C94.4110263,149.528418 91.516986,147.150125 88.0531463,147.150125 C84.0780638,147.150125 80.8461978,150.285147 80.8461978,154.149873 C80.8529464,156.3679 81.9213402,158.448589 83.7199685,159.746519 C83.6180658,159.268299 83.567481,158.780571 83.569073,158.291617 L83.569073,158.291617 Z" id="Path" fill="#9C84B2" opacity="0.25"></path>
                    </g>
                </g>
            </g>
        </g>
    </g>
</svg>