<?xml version="1.0" encoding="UTF-8"?>
<svg width="220px" height="220px" viewBox="0 0 220 220" version="1.1" xmlns="http://www.w3.org/2000/svg" xmlns:xlink="http://www.w3.org/1999/xlink">
    <title>4071A732-7EE8-47EC-96A8-F1D0F93B3483</title>
    <defs>
        <linearGradient x1="49.4914367%" y1="4.36055651%" x2="51.5695871%" y2="101.219521%" id="linearGradient-1">
            <stop stop-color="#F7E436" offset="0%"></stop>
            <stop stop-color="#CE7C1D" offset="100%"></stop>
        </linearGradient>
        <linearGradient x1="50.6325425%" y1="4.39365371%" x2="48.6006992%" y2="101.252619%" id="linearGradient-2">
            <stop stop-color="#F7E436" offset="0%"></stop>
            <stop stop-color="#CE7C1D" offset="100%"></stop>
        </linearGradient>
        <linearGradient x1="49.9971676%" y1="-16.9731202%" x2="49.9971676%" y2="88.6231623%" id="linearGradient-3">
            <stop stop-color="#FFED5E" offset="2%"></stop>
            <stop stop-color="#F7E436" offset="51%"></stop>
            <stop stop-color="#CE7C1D" offset="100%"></stop>
        </linearGradient>
        <linearGradient x1="43.0905667%" y1="41.8702264%" x2="75.9278382%" y2="80.5106102%" id="linearGradient-4">
            <stop stop-color="#F7E436" offset="0%"></stop>
            <stop stop-color="#D58D21" offset="100%"></stop>
        </linearGradient>
        <linearGradient x1="0%" y1="49.995721%" x2="100%" y2="49.995721%" id="linearGradient-5">
            <stop stop-color="#FFED5E" offset="2%"></stop>
            <stop stop-color="#F7E436" offset="51%"></stop>
            <stop stop-color="#CE7C1D" offset="100%"></stop>
        </linearGradient>
        <linearGradient x1="56.9155075%" y1="41.8702264%" x2="24.0721618%" y2="80.5146884%" id="linearGradient-6">
            <stop stop-color="#F7E436" offset="0%"></stop>
            <stop stop-color="#D58D21" offset="100%"></stop>
        </linearGradient>
        <linearGradient x1="50.4039361%" y1="36.2964536%" x2="49.383466%" y2="74.5077268%" id="linearGradient-7">
            <stop stop-color="#FFED5E" offset="2%"></stop>
            <stop stop-color="#F7E436" offset="51%"></stop>
            <stop stop-color="#CE7C1D" offset="100%"></stop>
        </linearGradient>
        <linearGradient x1="47.7942455%" y1="-2.26038532%" x2="51.9732267%" y2="96.6717737%" id="linearGradient-8">
            <stop stop-color="#F7E436" offset="0%"></stop>
            <stop stop-color="#CE7C1D" offset="100%"></stop>
        </linearGradient>
        <linearGradient x1="58.5800719%" y1="91.4105806%" x2="45.140736%" y2="26.5410141%" id="linearGradient-9">
            <stop stop-color="#F7E436" offset="0%"></stop>
            <stop stop-color="#D58D21" offset="100%"></stop>
        </linearGradient>
        <linearGradient x1="43.0884417%" y1="41.8732255%" x2="75.9288723%" y2="80.506033%" id="linearGradient-10">
            <stop stop-color="#F7E436" offset="0%"></stop>
            <stop stop-color="#D58D21" offset="100%"></stop>
        </linearGradient>
        <linearGradient x1="0%" y1="50%" x2="100%" y2="50%" id="linearGradient-11">
            <stop stop-color="#FFED5E" offset="2%"></stop>
            <stop stop-color="#F7E436" offset="51%"></stop>
            <stop stop-color="#CE7C1D" offset="100%"></stop>
        </linearGradient>
        <linearGradient x1="56.9115583%" y1="41.8732255%" x2="24.0711277%" y2="80.5123158%" id="linearGradient-12">
            <stop stop-color="#F7E436" offset="0%"></stop>
            <stop stop-color="#D58D21" offset="100%"></stop>
        </linearGradient>
        <linearGradient x1="50.3977539%" y1="36.3026065%" x2="49.3869911%" y2="74.5118244%" id="linearGradient-13">
            <stop stop-color="#FFED5E" offset="2%"></stop>
            <stop stop-color="#F7E436" offset="51%"></stop>
            <stop stop-color="#CE7C1D" offset="100%"></stop>
        </linearGradient>
        <linearGradient x1="56.9115583%" y1="58.1310493%" x2="24.0617688%" y2="19.4802886%" id="linearGradient-14">
            <stop stop-color="#F7E436" offset="0%"></stop>
            <stop stop-color="#D58D21" offset="100%"></stop>
        </linearGradient>
        <linearGradient x1="80.1591015%" y1="78.9956948%" x2="45.2129153%" y2="43.8155803%" id="linearGradient-15">
            <stop stop-color="#F7E436" offset="0%"></stop>
            <stop stop-color="#D58D21" offset="100%"></stop>
        </linearGradient>
        <linearGradient x1="43.0978007%" y1="58.1310493%" x2="75.9382312%" y2="19.4802886%" id="linearGradient-16">
            <stop stop-color="#F7E436" offset="0%"></stop>
            <stop stop-color="#D58D21" offset="100%"></stop>
        </linearGradient>
        <linearGradient x1="24.585868%" y1="91.8560991%" x2="49.620964%" y2="49.275938%" id="linearGradient-17">
            <stop stop-color="#F7E436" offset="0%"></stop>
            <stop stop-color="#D58D21" offset="100%"></stop>
        </linearGradient>
        <linearGradient x1="49.5439869%" y1="35.610086%" x2="51.8325497%" y2="107.791355%" id="linearGradient-18">
            <stop stop-color="#F7E436" offset="0%"></stop>
            <stop stop-color="#CE7C1D" offset="100%"></stop>
        </linearGradient>
        <linearGradient x1="58.5625%" y1="91.3227112%" x2="45.140625%" y2="26.5724133%" id="linearGradient-19">
            <stop stop-color="#F7E436" offset="0%"></stop>
            <stop stop-color="#D58D21" offset="100%"></stop>
        </linearGradient>
        <linearGradient x1="71.6324976%" y1="69.4172254%" x2="9.86621229%" y2="-53.7218498%" id="linearGradient-20">
            <stop stop-color="#F7E436" offset="0%"></stop>
            <stop stop-color="#CE7C1D" offset="100%"></stop>
        </linearGradient>
        <linearGradient x1="28.2870413%" y1="69.4172254%" x2="90.0788605%" y2="-53.7218498%" id="linearGradient-21">
            <stop stop-color="#F7E436" offset="0%"></stop>
            <stop stop-color="#CE7C1D" offset="100%"></stop>
        </linearGradient>
        <radialGradient cx="50%" cy="45.172481%" fx="50%" fy="45.172481%" r="70.3382928%" gradientTransform="translate(0.500000,0.451725),scale(0.931413,1.000000),rotate(79.096586),translate(-0.500000,-0.451725)" id="radialGradient-22">
            <stop stop-color="#FFFFFF" offset="0%"></stop>
            <stop stop-color="#FFFFFF" stop-opacity="0.87847642" offset="30.4274375%"></stop>
            <stop stop-color="#FFFFFF" stop-opacity="0" offset="100%"></stop>
        </radialGradient>
        <radialGradient cx="50%" cy="54.7042678%" fx="50%" fy="54.7042678%" r="144.123251%" gradientTransform="translate(0.500000,0.547043),scale(1.000000,0.693851),rotate(90.000000),translate(-0.500000,-0.547043)" id="radialGradient-23">
            <stop stop-color="#FFFFFF" offset="0%"></stop>
            <stop stop-color="#FFFFFF" stop-opacity="0" offset="100%"></stop>
        </radialGradient>
        <radialGradient cx="50%" cy="45.172481%" fx="50%" fy="45.172481%" r="83.2148668%" gradientTransform="translate(0.500000,0.451725),scale(1.000000,0.839361),rotate(81.435743),translate(-0.500000,-0.451725)" id="radialGradient-24">
            <stop stop-color="#FFFFFF" offset="0%"></stop>
            <stop stop-color="#FFFFFF" stop-opacity="0.87847642" offset="30.4274375%"></stop>
            <stop stop-color="#FFFFFF" stop-opacity="0" offset="100%"></stop>
        </radialGradient>
        <linearGradient x1="52.1417828%" y1="41.6191687%" x2="47.4940836%" y2="60.6302897%" id="linearGradient-25">
            <stop stop-color="#F7E436" offset="0%"></stop>
            <stop stop-color="#D58D21" offset="100%"></stop>
        </linearGradient>
        <linearGradient x1="16.7374704%" y1="47.6852702%" x2="85.656061%" y2="61.9541819%" id="linearGradient-26">
            <stop stop-color="#FFED5E" offset="2%"></stop>
            <stop stop-color="#F7E436" offset="51%"></stop>
            <stop stop-color="#CE7C1D" offset="100%"></stop>
        </linearGradient>
        <linearGradient x1="46.5807215%" y1="41.3525514%" x2="51.2238115%" y2="60.3625789%" id="linearGradient-27">
            <stop stop-color="#F7E436" offset="0%"></stop>
            <stop stop-color="#D58D21" offset="100%"></stop>
        </linearGradient>
        <linearGradient x1="81.9788073%" y1="47.4196044%" x2="13.063841%" y2="61.6870155%" id="linearGradient-28">
            <stop stop-color="#FFED5E" offset="2%"></stop>
            <stop stop-color="#F7E436" offset="51%"></stop>
            <stop stop-color="#CE7C1D" offset="100%"></stop>
        </linearGradient>
    </defs>
    <g id="Master-mfast" stroke="none" stroke-width="1" fill="none" fill-rule="evenodd">
        <g id="Master-Mfast-1.7" transform="translate(-78.000000, -86.000000)" fill-rule="nonzero">
            <g id="Group-12" transform="translate(78.000000, 86.000000)">
                <g id="Master/-medal/-Master" transform="translate(0.000000, 7.333333)">
                    <path d="M91.8110957,183.384189 C91.8110957,183.384189 78.8399445,189.660749 56.2418863,180.732594 C33.643828,171.804438 26.457975,160.011096 26.457975,160.011096 L38.4923717,152.993065 C38.4923717,152.993065 25.9545076,143.176976 20.9320388,125.042996 C15.90957,106.909015 16.4771151,104.617476 16.4771151,104.617476 L27.6449376,104.617476 C27.6449376,104.617476 24.2884882,100.751456 30.4368932,80.9453537 C36.5852982,61.139251 42.4316227,57.2549237 42.4316227,57.2549237 L50.801387,65.9084605 C50.801387,65.9084605 54.4294036,56.9864078 63.6352288,49.1750347 C72.8410541,41.3636616 82.3276006,38.0194175 82.3276006,38.0194175 L93.4801664,53.9533981 L91.8110957,183.384189 Z" id="Path" fill="url(#linearGradient-1)"></path>
                    <g id="Group" opacity="0.6" style="mix-blend-mode: overlay;" transform="translate(16.171983, 37.836338)" fill="#FFFFFF">
                        <path d="M6.80138696,90.3678225 C1.78196949,72.2338419 2.3556172,70.0399445 2.3556172,70.0399445 L13.5142857,70.0399445 C13.5142857,70.0399445 10.1578363,66.0732316 16.3062413,46.2701803 C22.4546463,26.467129 28.3009709,22.5278779 28.3009709,22.5278779 L36.6707351,31.1631068 C36.6707351,31.1631068 40.2987517,22.2288488 49.504577,14.4174757 C54.9547209,9.82103031 61.0963378,6.11381688 67.7026352,3.43273232 L66.1556172,0.183079057 C66.1556172,0.183079057 56.6690707,3.53952843 47.4632455,11.3417476 C38.2574202,19.1439667 34.6294036,28.081276 34.6294036,28.081276 L26.2596394,19.4277393 C26.2596394,19.4277393 20.4011096,23.2937587 14.2649098,43.1029126 C8.12871012,62.9120666 11.4729542,66.7750347 11.4729542,66.7750347 L0.305131761,66.7750347 C0.305131761,66.7750347 -0.26851595,69.0665742 4.75090153,87.2005548 C6.57507137,93.7333553 9.5229438,99.8985904 13.4624133,105.419972 C10.5275019,100.75023 8.28390321,95.6802931 6.80138696,90.3678225 Z" id="Path"></path>
                        <path d="M25.9880721,114.814979 C25.9880721,114.814979 25.6829404,114.323717 21.5239945,115.629681 L10.2859917,122.174757 C10.9690007,123.209372 11.7321379,124.188799 12.5683773,125.104022 L25.9880721,114.814979 Z" id="Path"></path>
                    </g>
                    <path d="M93.4801664,53.9564494 L82.3276006,38.0224688 C82.3276006,38.0224688 72.8410541,41.3789182 63.6352288,49.1841886 C54.4294036,56.9894591 50.801387,65.9084605 50.801387,65.9084605 L42.4316227,57.257975 C42.4316227,57.257975 36.5730929,61.1239945 30.4368932,80.9331484 C24.3006935,100.742302 27.6449376,104.60527 27.6449376,104.60527 L16.4771151,104.60527 C16.4771151,104.60527 15.9034674,106.89681 20.9228849,125.030791 C25.9423024,143.164771 38.4832178,152.974757 38.4832178,152.974757 L26.4488211,159.992788 C26.4488211,159.992788 28.8257975,163.883218 35.1176144,168.881276 C54.2627915,173.240713 74.3444263,170.345505 91.4785021,160.755617 L93.4801664,53.9564494 Z" id="Path" fill="#FFFFFF" opacity="0.23" style="mix-blend-mode: overlay;"></path>
                    <path d="M91.0543689,131.972538 L93.4801664,53.9564494 L82.3276006,38.0224688 C82.3276006,38.0224688 72.8410541,41.3789182 63.6352288,49.1841886 C54.4294036,56.9894591 50.801387,65.9084605 50.801387,65.9084605 L42.4316227,57.257975 C42.4316227,57.257975 36.5730929,61.1239945 30.4368932,80.9331484 C24.3006935,100.742302 27.6449376,104.60527 27.6449376,104.60527 L16.4771151,104.60527 C16.4771151,104.60527 15.9034674,106.89681 20.9228849,125.030791 C21.163939,125.894313 21.423301,126.748682 21.6918169,127.572538 C41.6276913,143.367525 69.2776596,145.11686 91.045215,131.960333 L91.0543689,131.972538 Z" id="Path" fill="#FFFFFF" opacity="0.35" style="mix-blend-mode: overlay;"></path>
                    <path d="M90.6241331,103.305409 L93.4710125,53.9564494 L82.3184466,38.0224688 C82.3184466,38.0224688 72.8319001,41.3789182 63.6260749,49.1841886 C54.4202497,56.9894591 50.801387,65.9084605 50.801387,65.9084605 L42.4316227,57.257975 C42.4316227,57.257975 36.7378641,61.0599168 30.6962552,80.1428571 C41.3698001,102.5333 67.6665376,112.697176 90.6241331,103.305409 Z" id="Path" fill="#FFFFFF" opacity="0.35" style="mix-blend-mode: overlay;"></path>
                    <path d="M57.0260749,55.9672677 C63.0072314,68.2824714 77.0365515,74.4429144 90.1511789,70.5128988 L93.4801664,53.9564494 L82.3276006,38.0224688 C82.3276006,38.0224688 72.8410541,41.3789182 63.6352288,49.1841886 C61.2247929,51.2334389 59.0120358,53.5044264 57.0260749,55.9672677 L57.0260749,55.9672677 Z" id="Path" fill="#FFFFFF" opacity="0.2" style="mix-blend-mode: overlay;"></path>
                    <g id="Group" opacity="0.49" style="mix-blend-mode: overlay;" transform="translate(16.171983, 98.862691)" fill="#FFFFFF">
                        <path d="M11.4729542,3.79583911 C11.4729542,3.79583911 10.7650485,2.96588072 10.6002774,0.134257975 C10.5322536,1.35546564 10.5659342,2.58021561 10.7009709,3.79583911 L11.4729542,3.79583911 Z" id="Path"></path>
                        <path d="M40.0699029,79.3128988 C22.8085992,72.4932039 14.5456311,64.0105409 11.6041609,60.3947295 L10.2859917,61.1606103 C10.2859917,61.1606103 17.4718447,72.9478502 40.0699029,81.8760055 C62.6679612,90.8041609 75.6391123,84.5214979 75.6391123,84.5214979 L75.6024965,81.985853 C74.8335645,82.3337032 61.9722607,87.9664355 40.0699029,79.3128988 Z" id="Path"></path>
                        <path d="M22.2441054,54.1395284 L25.9880721,53.5292649 C25.9880721,53.5292649 9.74590846,41.7603329 4.72343967,23.6263523 C1.93758669,13.5570042 0.912343967,8.36976422 0.518723994,5.7517337 L0.305131761,5.7517337 C0.305131761,5.7517337 -0.305131761,8.04327323 4.71428571,26.1772538 C8.5925104,40.1522885 17.5664355,50.3864078 22.2441054,54.1395284 Z" id="Path"></path>
                    </g>
                    <path d="M125.146741,183.384189 C125.146741,183.384189 138.120943,189.660749 160.71595,180.732594 C183.310957,171.804438 190.499861,160.017198 190.499861,160.017198 L178.468516,152.999168 C178.468516,152.999168 191.00638,143.173925 196.028849,125.039945 C201.051318,106.905964 200.471567,104.617476 200.471567,104.617476 L189.31595,104.617476 C189.31595,104.617476 192.672399,100.751456 186.523994,80.9453537 C180.375589,61.139251 174.535368,57.2549237 174.535368,57.2549237 L166.159501,65.9084605 C166.159501,65.9084605 162.531484,56.9864078 153.325659,49.1750347 C144.119834,41.3636616 134.633287,38.0194175 134.633287,38.0194175 L126.019417,51.4055479 L125.146741,183.384189 Z" id="Path" fill="url(#linearGradient-2)"></path>
                    <g id="Group" opacity="0.6" style="mix-blend-mode: overlay;" transform="translate(133.037448, 37.836338)" fill="#FFFFFF">
                        <path d="M60.9500693,90.3678225 C65.9694868,72.2338419 65.3958391,70.0399445 65.3958391,70.0399445 L54.2371706,70.0399445 C54.2371706,70.0399445 57.59362,66.0732316 51.445215,46.2701803 C45.29681,26.467129 39.4504854,22.5278779 39.4504854,22.5278779 L31.0807212,31.1631068 C31.0807212,31.1631068 27.4618585,22.2288488 18.2468793,14.4174757 C12.7972725,9.82028093 6.65553131,6.11299248 0.0488210818,3.43273232 L1.59583911,0.183079057 C1.59583911,0.183079057 11.0823856,3.53952843 20.2882108,11.3417476 C29.4940361,19.1439667 33.1220527,28.081276 33.1220527,28.081276 L41.4979196,19.4338419 C41.4979196,19.4338419 47.3564494,23.2998613 53.4926491,43.1090153 C59.6288488,62.9181692 56.2846047,66.7811373 56.2846047,66.7811373 L67.4341193,66.7811373 C67.4341193,66.7811373 68.007767,69.0726768 62.9883495,87.2066574 C61.1638326,93.7387716 58.217101,99.9037801 54.279889,105.426075 C57.2159972,100.753615 59.4625381,95.6819414 60.9500693,90.3678225 L60.9500693,90.3678225 Z" id="Path"></path>
                        <path d="M41.7664355,114.814979 C41.7664355,114.814979 42.0715673,114.323717 46.2244105,115.629681 L57.4624133,122.174757 C56.7804653,123.208219 56.017255,124.185699 55.1800277,125.09792 L41.7664355,114.814979 Z" id="Path"></path>
                    </g>
                    <path d="M126.019417,51.4055479 L134.621082,38.0224688 C134.621082,38.0224688 144.107628,41.3789182 153.313454,49.1841886 C162.519279,56.9894591 166.159501,65.9084605 166.159501,65.9084605 L174.535368,57.2701803 C174.535368,57.2701803 180.393897,61.1361997 186.530097,80.9453537 C192.666297,100.754508 189.322053,104.617476 189.322053,104.617476 L200.471567,104.617476 C200.471567,104.617476 201.045215,106.909015 196.025798,125.042996 C191.00638,143.176976 178.465465,152.986963 178.465465,152.986963 L190.49681,160.004993 C190.49681,160.004993 188.122885,163.895423 181.828017,168.893481 C162.684236,173.246872 142.606219,170.347366 125.476283,160.755617 L126.019417,51.4055479 Z" id="Path" fill="#FFFFFF" opacity="0.23" style="mix-blend-mode: overlay;"></path>
                    <path d="M125.906519,131.972538 L126.031623,51.4177531 L134.633287,38.0346741 C134.633287,38.0346741 144.119834,41.3911234 153.325659,49.1963939 C162.531484,57.0016644 166.159501,65.9084605 166.159501,65.9084605 L174.535368,57.2701803 C174.535368,57.2701803 180.393897,61.1361997 186.530097,80.9453537 C192.666297,100.754508 189.322053,104.617476 189.322053,104.617476 L200.471567,104.617476 C200.471567,104.617476 201.045215,106.909015 196.025798,125.042996 C195.787795,125.906519 195.525381,126.760888 195.253814,127.584743 C175.319231,143.380066 147.669857,145.129441 125.903467,131.972538 L125.906519,131.972538 Z" id="Path" fill="#FFFFFF" opacity="0.35" style="mix-blend-mode: overlay;"></path>
                    <path d="M126.324549,103.305409 L126.019417,51.4055479 L134.621082,38.0224688 C134.621082,38.0224688 144.107628,41.3789182 153.313454,49.1841886 C162.519279,56.9894591 166.159501,65.9084605 166.159501,65.9084605 L174.535368,57.2701803 C174.535368,57.2701803 180.226075,61.0721221 186.267684,80.1550624 C175.591484,102.551375 149.283117,112.711802 126.324549,103.305409 L126.324549,103.305409 Z" id="Path" fill="#FFFFFF" opacity="0.35" style="mix-blend-mode: overlay;"></path>
                    <path d="M159.934813,55.9672677 C153.953656,68.2824714 139.924336,74.4429144 126.809709,70.5128988 L126.019417,51.4055479 L134.621082,38.0224688 C134.621082,38.0224688 144.107628,41.3789182 153.313454,49.1841886 C155.727385,51.2336614 157.944175,53.5045935 159.934813,55.9672677 Z" id="Path" fill="#FFFFFF" opacity="0.2" style="mix-blend-mode: overlay;"></path>
                    <g id="Group" opacity="0.49" style="mix-blend-mode: overlay;" transform="translate(125.104022, 98.862691)" fill="#FFFFFF">
                        <path d="M64.2119279,3.79583911 C64.2119279,3.79583911 64.9198336,2.96588072 65.0846047,0.134257975 C65.1526285,1.35546564 65.1189479,2.58021561 64.9839112,3.79583911 L64.2119279,3.79583911 Z" id="Path"></path>
                        <path d="M35.6119279,79.3128988 C52.8762829,72.4932039 61.139251,64.0105409 64.0807212,60.3947295 L65.3958391,61.1606103 C65.3958391,61.1606103 58.2130374,72.926491 35.6119279,81.8638003 C13.0108183,90.8011096 0.0427184466,84.5214979 0.0427184466,84.5214979 L0.0823855756,81.985853 C0.851317614,82.3337032 13.7126214,87.9664355 35.6119279,79.3128988 Z" id="Path"></path>
                        <path d="M53.4407767,54.1395284 L49.6998613,53.5292649 C49.6998613,53.5292649 65.9389736,41.7603329 70.9614424,23.6263523 C73.7472954,13.5570042 74.7725381,8.36976422 75.1661581,5.7517337 L75.3675451,5.7517337 C75.3675451,5.7517337 75.9778086,8.04327323 70.9583911,26.1772538 C67.0923717,40.1522885 58.1184466,50.3864078 53.4407767,54.1395284 Z" id="Path"></path>
                    </g>
                    <polygon id="Path" fill="url(#linearGradient-3)" points="108.663523 0 81.7295423 38.0834951 108.663523 76.1700416 135.594452 38.0834951"></polygon>
                    <polygon id="Path" fill="#FFFFFF" opacity="0.49" style="mix-blend-mode: overlay;" points="108.663523 3.61886269 134.31595 39.8959778 135.594452 38.0834951 108.663523 0 81.7295423 38.0834951 83.0080444 39.8959778"></polygon>
                    <polygon id="Path" fill="#B55F09" opacity="0.25" points="135.225243 38.0834951 108.855756 0.320325329 108.462136 75.9289875"></polygon>
                    <polygon id="Path" fill="#FFFFFF" opacity="0.49" style="mix-blend-mode: overlay;" points="108.855756 0.274618585 108.663523 0 82.5564494 36.9117892 106.125775 19.9479889 108.462136 48.6258248"></polygon>
                    <polygon id="Path" fill="#FFFFFF" points="107.046325 30.1805825 108.462136 49.2558946 110.533559 30.1805825 108.855756 0.320325329"></polygon>
                    <polygon id="Path" fill="url(#linearGradient-4)" points="159.220804 33.3570042 108.986963 67.0832178 150.054646 60.8707351"></polygon>
                    <polygon id="Path" fill="url(#linearGradient-5)" points="159.220804 33.3570042 108.986963 67.0832178 130.282108 31.4285714"></polygon>
                    <polygon id="Path" fill="#FFFFFF" opacity="0.61" style="mix-blend-mode: overlay;" points="159.220804 33.3570042 130.459085 31.4377254 150.10957 60.7059639"></polygon>
                    <polygon id="Path" fill="#FFFFFF" opacity="0.97" style="mix-blend-mode: overlay;" points="138.767822 45.0618585 130.459085 31.4377254 159.220804 33.3570042 108.986963 67.0832178"></polygon>
                    <polygon id="Path" fill="url(#linearGradient-6)" points="59.131484 33.3570042 109.365326 67.0832178 68.2976422 60.8707351"></polygon>
                    <polygon id="Path" fill="url(#linearGradient-7)" points="59.131484 33.3570042 109.365326 67.0832178 88.0732316 31.4285714"></polygon>
                    <polygon id="Path" fill="#FFFFFF" opacity="0.61" style="mix-blend-mode: overlay;" points="59.131484 33.3570042 87.8932039 31.4377254 68.2427184 60.7059639"></polygon>
                    <polygon id="Path" fill="#FFFFFF" opacity="0.97" style="mix-blend-mode: overlay;" points="79.584466 45.0618585 87.8932039 31.4377254 59.131484 33.3570042 109.365326 67.0832178"></polygon>
                    <path d="M109.365326,49.5015257 C70.5891817,49.5015257 39.1575589,80.0604716 39.1575589,117.756449 C39.1575589,155.452427 70.5861304,186.017476 109.365326,186.017476 C148.144521,186.017476 179.56699,155.452427 179.56699,117.756449 C179.56699,80.0604716 148.132316,49.5015257 109.365326,49.5015257 Z" id="Path" fill="url(#linearGradient-8)"></path>
                    <path d="M109.154785,182.957004 C70.9034674,182.957004 39.8044383,153.215811 38.9744799,116.224688 C38.9744799,116.734258 38.956172,117.243828 38.956172,117.750347 C38.956172,155.446325 70.3847434,186.011373 109.163939,186.011373 C147.943135,186.011373 179.356449,155.452427 179.356449,117.756449 C179.356449,117.243828 179.356449,116.734258 179.33509,116.230791 C178.50208,153.215811 147.396949,182.957004 109.154785,182.957004 Z" id="Path" fill="#FFF064"></path>
                    <path d="M109.365326,49.5015257 C70.5891817,49.5015257 39.1575589,80.0604716 39.1575589,117.756449 C39.1575589,118.589459 39.1941748,119.404161 39.2277393,120.231068 C57.1115118,135.823301 81.7325936,145.465465 108.907628,145.465465 C136.564771,145.465465 161.570319,135.478502 179.521221,119.398058 C179.521221,118.848821 179.56699,118.308738 179.56699,117.756449 C179.56699,80.0604716 148.132316,49.5015257 109.365326,49.5015257 Z" id="Path" fill="#FFFFFF" opacity="0.35" style="mix-blend-mode: overlay;"></path>
                    <path d="M165.381415,76.4477115 C152.565881,60.0804438 132.308183,49.5015257 109.505687,49.5015257 C86.5323162,49.5015257 66.1373093,60.2391123 53.3309293,76.8199723 C69.1977809,86.3492372 88.3875173,91.9300971 109.054092,91.9300971 C129.98613,91.9300971 149.398613,86.2058252 165.381415,76.4477115 Z" id="Path" fill="#FFFFFF" opacity="0.49" style="mix-blend-mode: overlay;"></path>
                    <path d="M109.365326,53.3980583 C147.457975,53.3980583 178.447157,82.9165049 179.512067,119.700139 C179.536477,119.053259 179.56699,118.403329 179.56699,117.747295 C179.56699,80.0513176 148.138419,49.4923717 109.365326,49.4923717 C70.592233,49.4923717 39.1636616,80.0604716 39.1636616,117.756449 C39.1636616,118.412483 39.1941748,119.062413 39.2124827,119.709293 C40.2773925,82.9256588 71.2665742,53.3980583 109.365326,53.3980583 Z" id="Path" fill="#FFFFFF" opacity="0.49" style="mix-blend-mode: overlay;"></path>
                    <path d="M99.9367545,53.9900139 C103.204716,53.7367545 106.57337,54.9816921 104.937864,56.4036061 C103.302358,57.8255201 92.2565881,64.1966713 87.4385576,60.2574202 C82.620527,56.3181692 96.0951456,54.2829404 99.9367545,53.9900139 Z" id="Path" fill="#FFFFFF"></path>
                    <path d="M61.9417476,71.3428571 C51.7106796,79.9506241 43.4477115,95.8479889 43.6552011,105.139251 C43.8626907,114.430513 48.8241331,99.8543689 51.3872399,94.5664355 C53.9503467,89.2785021 66.7658807,73.1553398 76.0510402,68.2793343 C85.3361997,63.4033287 77.9459085,57.8865465 61.9417476,71.3428571 Z" id="Path" fill="#FFFFFF"></path>
                    <path d="M109.368377,66.9337032 C80.5395284,66.9337032 57.1664355,89.6599168 57.1664355,117.686269 C57.1664355,145.712621 80.554785,168.432732 109.368377,168.432732 C138.181969,168.432732 161.561165,145.70957 161.561165,117.680166 C161.561165,89.6507628 138.197226,66.9337032 109.368377,66.9337032 Z" id="Path" fill="url(#linearGradient-9)"></path>
                    <g id="Master-mfast" transform="translate(70.790569, 92.454924)" fill="#FFFFFF" opacity="0.800000012">
                        <g id="Logo_-CHplay-notifi">
                            <path d="M49.3245492,3.28847876 C48.7991736,3.31278374 48.3029632,3.04633682 48.0330071,2.59496774 C47.7630511,2.14359866 47.7630511,1.58037689 48.0330071,1.12900781 C48.3029632,0.677638733 48.7991736,0.411191816 49.3245492,0.435496793 L69.6371706,0.435496793 L61.4230236,47.2579656 L50.215534,47.2579656 L51.9303745,35.1655939 L56.7545076,14.0077575 L40.4421637,47.2671195 L33.0427184,47.2671195 L30.6932039,32.4895883 L33.2807212,32.4895883 C34.0089176,32.4892571 34.6202292,31.9410487 34.6995839,31.2171889 L34.6995839,31.0615717 C34.6995839,30.2728999 34.0602391,29.633555 33.2715673,29.633555 L30.2202497,29.633555 L27.6418863,13.4035967 L26.5830791,21.8587978 L26.4701803,21.8587978 L22.9459085,21.8587978 C22.1572366,21.8587978 21.5178918,22.4981426 21.5178918,23.2868144 C21.5178918,24.0754862 22.1572366,24.7148311 22.9459085,24.7148311 L26.2199723,24.7148311 L24.6668516,36.8895883 L24.3190014,38.8332777 L18.6710125,38.8332777 C17.9438598,38.8334364 17.3329445,39.3799756 17.2521498,40.1026258 L17.2521498,40.258243 C17.2521498,40.6369765 17.4026011,41.0001982 17.6704062,41.2680032 C17.9382113,41.5358083 18.3014329,41.6862596 18.6801664,41.6862596 L23.8002774,41.6862596 L22.8024965,47.2732222 L11.6651872,47.2732222 L13.6424411,35.983347 L4.76005548,35.983347 C4.23467984,36.007652 3.7384694,35.7412051 3.46851338,35.289836 C3.19855737,34.8384669 3.19855737,34.2752451 3.46851338,33.8238761 C3.7384694,33.372507 4.23467984,33.1060601 4.76005548,33.130365 L14.1459085,33.130365 L14.8599168,29.0538047 L10.1944521,29.0538047 C9.66907651,29.0781097 9.17286607,28.8116628 8.90291006,28.3602937 C8.63295404,27.9089246 8.63295404,27.3457028 8.90291006,26.8943337 C9.17286607,26.4429647 9.66907651,26.1765178 10.1944521,26.2008227 L15.3603329,26.2008227 L16.3855756,20.3606008 L5.91955617,20.3606008 C5.13088436,20.3606008 4.49153953,19.721256 4.49153953,18.9325842 C4.49153953,18.1439124 5.13088436,17.5045675 5.91955617,17.5045675 L16.8859917,17.5045675 L17.8776699,11.8657326 L14.6127601,11.8657326 C13.8505626,11.8304717 13.2507359,11.2022543 13.2507359,10.4392416 C13.2507359,9.67622892 13.8505626,9.04801146 14.6127601,9.01275061 L35.5417476,9.01275061 L36.1337032,13.2510308 L36.1184466,13.2510308 L35.9628294,13.2510308 L33.0213592,13.2510308 C32.4959836,13.2267258 31.9997731,13.4931727 31.7298171,13.9445418 C31.4598611,14.3959109 31.4598611,14.9591326 31.7298171,15.4105017 C31.9997731,15.8618708 32.4959836,16.1283177 33.0213592,16.1040127 L35.9628294,16.1040127 C36.1513807,16.1041746 36.3380814,16.0668345 36.5120666,15.9941653 L38.8737864,32.9350807 L50.5816921,9.02190456 L43.2371706,9.02190456 C42.4484988,9.02190456 41.809154,8.38255973 41.809154,7.59388792 C41.809154,6.8052161 42.4484988,6.16587127 43.2371706,6.16587127 L54.874896,6.16587127 C55.6635678,6.16587127 56.3029126,5.52652644 56.3029126,4.73785463 C56.3029126,3.94918281 55.6635678,3.30983799 54.874896,3.30983799 L49.3245492,3.30983799 L49.3245492,3.28847876 Z M7.26518724,38.8180211 C7.79056288,38.7937161 8.28677332,39.060163 8.55672933,39.5115321 C8.82668535,39.9629012 8.82668535,40.5261229 8.55672933,40.977492 C8.28677332,41.4288611 7.79056288,41.695308 7.26518724,41.671003 L6.0629681,41.671003 C5.53759246,41.695308 5.04138202,41.4288611 4.77142601,40.977492 C4.50146999,40.5261229 4.50146999,39.9629012 4.77142601,39.5115321 C5.04138202,39.060163 5.53759246,38.7937161 6.0629681,38.8180211 L7.26518724,38.8180211 Z M9.0776699,8.94867294 C9.60304554,8.92436796 10.099256,9.19081488 10.369212,9.64218396 C10.639168,10.093553 10.639168,10.6567748 10.369212,11.1081439 C10.099256,11.559513 9.60304554,11.8259599 9.0776699,11.8016549 L1.49819695,11.8016549 C0.972821308,11.8259599 0.476610868,11.559513 0.206654855,11.1081439 C-0.0633011575,10.6567748 -0.0633011575,10.093553 0.206654855,9.64218396 C0.476610868,9.19081488 0.972821308,8.92436796 1.49819695,8.94867294 L9.0776699,8.94867294 Z M33.3539528,3.28847876 C34.1426247,3.28847876 34.7819695,3.92782359 34.7819695,4.71649541 C34.7819695,5.50516722 34.1426247,6.14451205 33.3539528,6.14451205 L18.4543689,6.14451205 C17.6656971,6.14451205 17.0263523,5.50516722 17.0263523,4.71649541 C17.0263523,3.92782359 17.6656971,3.28847876 18.4543689,3.28847876 L33.3539528,3.28847876 Z" id="Combined-Shape"></path>
                        </g>
                    </g>
                    <g id="Group" opacity="0.35" style="mix-blend-mode: overlay;" transform="translate(54.008322, 64.382802)" fill="#FFFFFF">
                        <path d="M55.2746186,107.436893 C24.8834951,107.436893 0.152565881,83.3650485 0.152565881,53.7764216 C0.152565881,24.1877947 24.8834951,0.115950069 55.2746186,0.115950069 C85.665742,0.115950069 110.390569,24.1877947 110.390569,53.7764216 C110.390569,83.3650485 85.665742,107.436893 55.2746186,107.436893 Z M55.2746186,4.9889043 C27.5686546,4.9889043 5.02246879,26.8729542 5.02246879,53.7764216 C5.02246879,80.679889 27.5686546,102.56699 55.2746186,102.56699 C82.9805825,102.56699 105.520666,80.679889 105.520666,53.7764216 C105.520666,26.8729542 82.9958391,4.9889043 55.2746186,4.9889043 Z" id="Shape"></path>
                    </g>
                    <path d="M109.368377,66.9333228 C94.7445952,66.8782002 80.7546761,72.8989822 70.7417476,83.5572816 C80.4867655,74.7814083 93.1480427,69.9446504 106.262136,69.9880721 C135.084882,69.9880721 158.439667,92.7081831 158.439667,120.737587 C158.433493,133.432083 153.578535,145.644792 144.867406,154.878779 C155.132039,145.608877 161.548965,132.381415 161.548965,117.686269 C161.561165,89.6599168 138.197226,66.9333228 109.368377,66.9333228 Z" id="Path" fill="#B06518"></path>
                    <path d="M76.8565881,147.708183 C76.8565881,114.95534 100.22663,96.9586685 129.049376,96.9586685 C140.325622,96.9256071 151.317646,100.495182 160.423024,107.147018 C155.437171,84.176699 134.471567,66.9337032 109.356172,66.9337032 C80.5303745,66.9337032 57.1786408,89.6599168 57.1786408,117.686269 C57.1786408,134.273232 65.3592233,148.992788 78.0008322,158.268793 C77.2458197,154.799156 76.8622445,151.259013 76.8565881,147.708183 Z" id="Path" fill="#B55F09" opacity="0.25"></path>
                    <path d="M109.368377,165.686546 C81.0460472,165.686546 58.0055479,143.71706 57.2152566,116.374202 C57.1938974,116.859362 57.1664355,117.34147 57.1664355,117.832732 C57.1664355,145.852982 80.554785,168.585298 109.368377,168.585298 C138.181969,168.585298 161.561165,145.852982 161.561165,117.832732 C161.561165,117.34147 161.542857,116.859362 161.527601,116.374202 C160.725104,143.71706 137.693759,165.686546 109.368377,165.686546 Z" id="Path" fill="#FFF064"></path>
                    <g id="Group-4" transform="translate(76.090707, 160.249098)">
                        <polygon id="Path" fill="url(#linearGradient-10)" points="65.1700416 1.25409154 32.5667129 23.1411928 59.2230236 19.1104022"></polygon>
                        <polygon id="Path" fill="url(#linearGradient-11)" points="65.1700416 1.25409154 32.5667129 23.1411928 46.3891817 -3.03954393e-14"></polygon>
                        <polygon id="Path" fill="#FFFFFF" opacity="0.61" style="mix-blend-mode: overlay;" points="65.1700416 1.25409154 46.5020804 0.00610263523 59.2565881 19.0036061"></polygon>
                        <polygon id="Path" fill="#FFFFFF" opacity="0.97" style="mix-blend-mode: overlay;" points="51.89681 8.84882108 46.5020804 0.00610263523 65.1700416 1.25409154 32.5667129 23.1411928"></polygon>
                        <polygon id="Path" fill="url(#linearGradient-12)" points="-5.86197757e-14 1.25409154 32.6033287 23.1411928 5.94701803 19.1104022"></polygon>
                        <polygon id="Path" fill="url(#linearGradient-13)" points="-5.86197757e-14 1.25409154 32.6033287 23.1411928 18.7839112 -3.03954393e-14"></polygon>
                        <polygon id="Path" fill="#FFFFFF" opacity="0.61" style="mix-blend-mode: overlay;" points="9.66140748e-14 1.25409154 18.6679612 0.00610263523 5.91345354 19.0036061"></polygon>
                        <polygon id="Path" fill="#FFFFFF" opacity="0.97" style="mix-blend-mode: overlay;" points="13.2732316 8.84882108 18.6679612 0.00610263523 -5.86197757e-14 1.25409154 32.6033287 23.1411928"></polygon>
                        <polygon id="Path" fill="url(#linearGradient-14)" points="-5.86197757e-14 43.874896 32.6033287 21.9847434 5.94701803 26.0185853"></polygon>
                        <polygon id="Path" fill="url(#linearGradient-15)" points="-5.86197757e-14 43.874896 32.6033287 21.9847434 18.7839112 45.1259362"></polygon>
                        <polygon id="Path" fill="#FFFFFF" opacity="0.61" style="mix-blend-mode: overlay;" points="9.66140748e-14 43.874896 18.6679612 45.1198336 5.91345354 26.1253814"></polygon>
                        <polygon id="Path" fill="#CE7C1D" points="14.0482663 38.2421637 18.6679612 45.1198336 9.66140748e-14 43.874896 12.2907074 35.6210818"></polygon>
                        <polygon id="Path" fill="url(#linearGradient-16)" points="65.1700416 43.874896 32.5667129 21.9847434 59.2230236 26.0185853"></polygon>
                        <polygon id="Path" fill="url(#linearGradient-17)" points="65.1700416 43.874896 32.5667129 21.9847434 46.3891817 45.1259362"></polygon>
                        <polygon id="Path" fill="#FFFFFF" opacity="0.61" style="mix-blend-mode: overlay;" points="65.1700416 43.874896 46.5051318 45.1198336 59.2565881 26.1253814"></polygon>
                        <polygon id="Path" fill="#CE7C1D" points="51.5977809 37.5312067 46.5051318 45.1198336 65.1700416 43.874896 52.8793343 35.6210818"></polygon>
                        <polygon id="Path" fill="url(#linearGradient-18)" points="32.5728155 4.49153953 5.63883495 21.1822469 32.5728155 37.8729542 59.5037448 21.1822469"></polygon>
                        <polygon id="Path" fill="#FFFFFF" opacity="0.49" style="mix-blend-mode: overlay;" points="32.5728155 6.07822469 58.2252427 21.9755895 59.5037448 21.1822469 32.5728155 4.49153953 5.63883495 21.1822469 6.91733703 21.9755895"></polygon>
                        <polygon id="Path" fill="#B55F09" opacity="0.25" points="32.3714286 37.7661581 59.1345354 21.1822469 32.3714286 4.59833564"></polygon>
                        <polygon id="Path" fill="#FFFFFF" opacity="0.49" style="mix-blend-mode: overlay;" points="32.5880721 37.5312067 32.0815534 17.3589459 32.5728155 4.49153953 6.46574202 20.6665742 23.7270458 25.2710125"></polygon>
                        <polygon id="Path" fill="#FFFFFF" opacity="0.41" style="mix-blend-mode: overlay;" points="32.5728155 4.80887656 5.63883495 21.1822469 32.5728155 20.1234397 59.5037448 21.1822469"></polygon>
                        <path d="M32.5880721,11.4393897 C27.1994452,11.4393897 22.8238558,15.6868239 22.8238558,20.9228849 C22.8238558,26.1589459 27.1933426,30.4094313 32.5880721,30.4094313 C37.9828017,30.4094313 42.3522885,26.1619972 42.3522885,20.9228849 C42.3522885,15.6837725 37.976699,11.4393897 32.5880721,11.4393897 Z" id="Path" fill="url(#linearGradient-19)"></path>
                        <g id="Group" opacity="0.35" style="mix-blend-mode: overlay;" transform="translate(22.161720, 10.929820)" fill="#FFFFFF">
                            <path d="M10.4110957,20.1112344 C4.7295423,20.1112344 0.109847434,15.6105409 0.109847434,10.0815534 C0.109847434,4.55256588 4.7295423,0.0549237171 10.4110957,0.0549237171 C16.0926491,0.0549237171 20.7092926,4.55256588 20.7092926,10.0815534 C20.7092926,15.6105409 16.0895978,20.1112344 10.4110957,20.1112344 Z M10.4110957,0.964216366 C5.22385576,0.964216366 1.01914008,5.05298197 1.01914008,10.0815534 C1.01914008,15.1101248 5.23300971,19.1988904 10.4110957,19.1988904 C15.5891817,19.1988904 19.8,15.1101248 19.8,10.0815534 C19.8,5.05298197 15.5861304,0.964216366 10.4110957,0.964216366 Z" id="Shape"></path>
                        </g>
                        <path d="M32.5880721,11.4393027 C29.854775,11.4279042 27.2396893,12.5530763 25.3686546,14.5456311 C27.1891681,12.9055098 29.5549241,12.0016279 32.0052705,12.0099861 C37.3938974,12.0099861 41.7694868,16.2543689 41.7694868,21.4934813 C41.7677063,23.8655686 40.8607981,26.1475723 39.2338419,27.8737864 C41.2142818,26.1055547 42.348315,23.5778368 42.3522885,20.9228849 C42.3431345,15.6868239 37.976699,11.4393027 32.5880721,11.4393027 Z" id="Path" fill="#B06518"></path>
                        <path d="M26.5098474,26.534258 C26.5098474,20.4133148 30.8793343,17.0507628 36.2740638,17.0507628 C38.3819005,17.0442132 40.43669,17.7113248 42.1386963,18.954785 C41.2049931,14.6615811 37.2871012,11.4393897 32.5941748,11.4393897 C27.2085992,11.4393897 22.8299584,15.6868239 22.8299584,20.9228849 C22.8431381,23.9305695 24.2964726,26.7498795 26.7386963,28.5054092 C26.592427,27.8583847 26.5157087,27.1975837 26.5098474,26.534258 Z" id="Path" fill="#B55F09" opacity="0.25"></path>
                    </g>
                    <path d="M47.0421637,149.603051 C47.0421637,149.603051 49.6601942,153.938974 52.4765603,158.018585 L67.0862691,148.702913 L47.0421637,149.603051 Z" id="Path" fill="#CE7C1D"></path>
                    <path d="M59.9522885,166.446325 L67.2449376,148.69681 L67.0862691,148.69681 L52.482663,158.018585 C52.7694868,158.425428 53.0563107,158.83227 53.3431345,159.239112 C55.2413967,161.904183 57.4612158,164.324872 59.9522885,166.446325 L59.9522885,166.446325 Z" id="Path" fill="url(#linearGradient-20)"></path>
                    <polygon id="Path" fill="#FFF064" points="67.4371706 148.702913 62.1248266 168.438835 59.9522885 166.446325"></polygon>
                    <polygon id="Path" fill="#FFF064" points="46.6454924 148.059085 47.0421637 149.603051 67.4371706 148.702913"></polygon>
                    <path d="M170.620527,149.603051 C170.620527,149.603051 168.002497,153.938974 165.18613,158.018585 L150.579473,148.702913 L170.620527,149.603051 Z" id="Path" fill="#CE7C1D"></path>
                    <path d="M157.710402,166.446325 L150.429958,148.69681 L150.591678,148.69681 L165.198336,158.012483 C164.913546,158.419325 164.627739,158.826167 164.340915,159.23301 C162.436837,161.901817 160.209734,164.324676 157.710402,166.446325 Z" id="Path" fill="url(#linearGradient-21)"></path>
                    <polygon id="Path" fill="#FFF064" points="150.228571 148.702913 155.537864 168.438835 157.713454 166.446325"></polygon>
                    <polygon id="Path" fill="#FFF064" points="171.02025 148.059085 170.620527 149.603051 150.228571 148.702913"></polygon>
                    <path d="M91.2343967,47.3900139 C83.4871012,47.3900139 77.1983356,53.2424411 77.1983356,60.4649098 C77.1983356,67.6873786 83.4718447,73.5367545 91.2343967,73.5367545 C98.9969487,73.5367545 105.270458,67.681276 105.270458,60.4740638 C105.270458,53.2668516 98.9664355,47.3900139 91.2343967,47.3900139 Z" id="Path" fill="url(#radialGradient-22)"></path>
                    <path d="M78.4188627,77.6621359 C82.1841886,73.436061 93.2604716,60.4649098 93.2604716,60.4649098 C93.2604716,60.4649098 102.509015,43.1059639 102.735047,42.6177531 C102.795839,42.4773925 90.910957,58.939251 90.910957,58.939251 L78.4188627,77.6621359 Z" id="Path" fill="url(#radialGradient-23)" opacity="0.7"></path>
                    <path d="M94.2857143,57.3647712 C90.8712899,54.6948682 91.4937587,47.1947295 91.4662968,45.0710125 L91.4662968,47.1062413 C91.4662968,46.7797503 91.438835,46.4288488 91.438835,46.3525659 L91.438835,45.0710125 C91.4290056,45.9690223 91.3658338,46.8656551 91.2496533,47.756172 C91.2496533,47.756172 90.2488211,55.2868239 88.4454924,56.8429958 C84.368932,60.4160888 74.147018,59.7112344 78.0618585,59.8058252 C91.3106796,60.0895978 91.3106796,73.0210818 91.4266297,77.2624133 L91.4266297,75.126491 C91.4266297,75.2790569 91.4540915,75.4072122 91.4540915,75.4834951 L91.4540915,77.2624133 C91.7348128,67.220527 91.7012483,60.8676838 103.259639,60.0194175 C107.101248,59.726491 98.2524272,60.4649098 94.2857143,57.3647712 Z" id="Path" fill="url(#radialGradient-24)"></path>
                    <g id="Group-3" transform="translate(161.875451, 98.490430)">
                        <polygon id="Path" fill="url(#linearGradient-25)" points="58.0208044 17.8044383 7.81597009e-14 17.6183079 14.9209431 35.468516"></polygon>
                        <polygon id="Path" fill="url(#linearGradient-26)" points="58.0208044 17.8044383 7.81597009e-14 17.6183079 15.0277393 1.84543738e-14"></polygon>
                        <polygon id="Path" fill="#FFFFFF" opacity="0.61" style="mix-blend-mode: overlay;" points="58.0208044 17.8044383 15.1711512 0.106796117 17.4596394 17.734258 15.0613037 35.3617198"></polygon>
                        <polygon id="Path" fill="#FFFFFF" opacity="0.97" style="mix-blend-mode: overlay;" points="16.7700416 16.0468793 15.1711512 0.106796117 58.0208044 17.8044383 7.81597009e-14 17.6183079"></polygon>
                    </g>
                    <g id="Group-2" transform="translate(0.000000, 98.490430)">
                        <polygon id="Path" fill="url(#linearGradient-27)" points="1.82372636e-13 17.8044383 58.0238558 17.6183079 43.0998613 35.468516"></polygon>
                        <polygon id="Path" fill="url(#linearGradient-28)" points="1.82372636e-13 17.8044383 58.0238558 17.6183079 42.9961165 1.84543738e-14"></polygon>
                        <polygon id="Path" fill="#FFFFFF" opacity="0.61" style="mix-blend-mode: overlay;" points="1.91057047e-13 17.8044383 42.8527046 0.106796117 40.561165 17.734258 42.962552 35.3617198"></polygon>
                        <polygon id="Path" fill="#FFFFFF" opacity="0.97" style="mix-blend-mode: overlay;" points="41.2538141 16.0468793 42.8527046 0.106796117 1.82372636e-13 17.8044383 58.0238558 17.6183079"></polygon>
                    </g>
                </g>
            </g>
        </g>
    </g>
</svg>