<?xml version="1.0" encoding="UTF-8"?>
<svg width="216px" height="40px" viewBox="0 0 216 40" version="1.1" xmlns="http://www.w3.org/2000/svg" xmlns:xlink="http://www.w3.org/1999/xlink">
    <title>8A825AAC-7BDA-42FD-9EC3-595D8E876F3C</title>
    <defs>
        <linearGradient x1="50%" y1="0%" x2="49.9999724%" y2="100%" id="linearGradient-1">
            <stop stop-color="#A67B02" offset="0%"></stop>
            <stop stop-color="#FFE59D" offset="17.6440261%"></stop>
            <stop stop-color="#C79403" offset="34.6624472%"></stop>
            <stop stop-color="#FFBE06" offset="49.4606123%"></stop>
            <stop stop-color="#C28F00" offset="67.3041045%"></stop>
            <stop stop-color="#D8B040" offset="80.8381046%"></stop>
            <stop stop-color="#A67B02" offset="100%"></stop>
        </linearGradient>
    </defs>
    <g id="Master-mfast" stroke="none" stroke-width="1" fill="none" fill-rule="evenodd">
        <g id="Master-Mfast-1.1" transform="translate(-80.000000, -460.000000)" fill="url(#linearGradient-1)" fill-rule="nonzero">
            <g id="Group-10" transform="translate(80.000000, 268.000000)">
                <path d="M20.3991779,225.831926 C28.311359,219.597205 28.6488454,218.32786 28.6488454,214.03449 C28.6488454,209.741119 25.9114557,206.717093 20.9616552,206.717093 C18.336761,206.717093 17.5492927,206.978429 13.199468,211.085131 L13.199468,202.08772 C13.4619574,202.013052 13.8744408,201.938385 14.3619212,201.938385 C18.186767,201.938385 20.7366643,203.021061 21.5241325,204.253072 L25.4239753,201.303713 C23.6615464,199.885034 21.1116491,198.914359 18.7867428,198.914359 C17.2118063,198.914359 16.1618486,199.362363 9.03713578,203.7304 L9.03713578,214.519827 C9.03713578,216.162508 8.21216903,217.543854 5.96225971,219.111867 C5.47477935,218.999866 4.79980656,218.925199 4.38732318,218.925199 L4.38732318,218.850532 C7.16221134,216.946515 7.76218716,215.751838 7.76218716,213.661153 L7.76218716,201.303713 L1.3124471,204.738409 C2.06241688,205.186413 2.96238061,205.821085 3.48735945,206.38109 L3.48735945,216.311843 C3.48735945,219.149201 3.18737154,219.671872 0,222.135894 C2.62489421,222.210561 6.74972797,223.181236 8.73714787,224.487914 L12.3745013,221.501221 C10.9870572,220.455879 8.81214485,219.709206 7.34970379,219.373203 C10.2745859,217.170517 13.199468,214.482494 13.199468,212.055806 C14.0619333,211.309133 16.2743441,210.189123 19.0492323,210.189123 C21.561631,210.189123 24.5990086,211.570468 24.5990086,216.38651 C24.5990086,218.701197 23.9240358,220.829216 23.2115645,222.583897 C21.5991295,221.799891 20.1366884,221.202552 19.3492202,221.202552 C18.8242413,221.202552 18.261764,221.538555 15.1868879,224.189245 C16.9868154,224.375913 19.0492323,225.085252 20.3991779,225.831926 Z M44.9339033,224.189245 L48.7587492,221.501221 C47.4463021,220.15721 47.0338187,219.335869 47.0338187,218.103859 L47.0338187,208.098438 C47.0338187,206.530425 46.4338429,205.746418 44.4839215,204.738409 L40.8465681,207.837103 C42.5714985,208.957112 42.758991,209.44245 42.758991,210.338458 L42.758991,220.15721 C39.384127,220.119876 37.5092026,219.44787 37.5092026,217.394519 L37.5092026,208.359774 C37.5092026,206.754427 37.0967192,206.082421 34.9968038,204.738409 L31.3594504,207.837103 C33.1593779,209.03178 33.2343749,209.181114 33.2343749,211.234466 L33.2343749,219.223868 C33.2343749,221.837224 36.0467615,223.442572 39.0091421,224.189245 L42.758991,220.829216 C42.758991,221.837224 43.3589668,222.658565 44.9339033,224.189245 Z M59.1940429,229.975962 C60.2440006,229.975962 61.2189613,228.482615 63.3938736,226.541265 C60.9564719,226.27993 59.1940429,225.271921 57.056629,225.271921 L62.4939099,218.290527 C64.9688102,215.117166 66.7687376,211.831804 66.7687376,209.293115 C66.7687376,206.829094 65.2687981,205.074412 62.0064296,205.074412 C61.1814628,205.074412 60.2065021,205.26108 59.6065263,205.447749 L55.9316744,208.359774 C54.5817288,205.26108 53.906756,204.962411 52.8942968,204.738409 L49.2194449,207.949104 C51.0943693,208.546442 51.3568588,208.919779 54.3567379,215.005165 C57.2525395,220.871883 57.6689742,221.711353 57.7238088,222.281123 L57.7292439,222.357595 C57.7310396,222.395441 57.7316018,222.433039 57.7316018,222.471896 C57.7316018,223.293237 57.5066109,223.62924 55.8566774,225.57059 L53.2692817,228.594616 C55.4066955,228.594616 58.2940792,229.975962 59.1940429,229.975962 Z M60.9939704,219.0372 L56.1941638,208.994446 C57.056629,208.546442 58.0690882,208.210439 59.1565444,208.210439 C61.8564356,208.210439 63.2813782,210.002455 63.2813782,212.429143 C63.2813782,214.370493 62.1564235,217.245184 60.9939704,219.0372 Z M86.3964343,197.851613 L81.9837703,192 L77.8091339,192 L83.6865826,197.851613 L86.3964343,197.851613 Z M74.9528037,203.247493 L78.6330753,199.56517 L78.6696949,199.56517 L82.3499665,203.247493 L85.0598182,203.247493 L80.6471543,197.39588 L76.6556159,197.39588 L72.242952,203.247493 L74.9528037,203.247493 Z M79.3039467,224.03991 C80.3164059,224.03991 81.4038621,223.965243 81.70385,223.62924 L85.2662064,220.007875 C84.3662427,220.231877 83.5037774,220.455879 81.9288409,220.455879 C79.6789316,220.455879 76.8290464,219.933208 75.4791009,216.610512 L86.0536747,207.837103 C84.8162245,206.829094 81.8163454,205.111746 80.2414089,205.111746 C79.866424,205.111746 79.4914391,205.26108 79.1164543,205.522416 L73.1541946,209.517117 C71.654255,210.525126 71.2792701,213.810488 71.2792701,215.602503 C71.2792701,221.725223 75.7415903,224.03991 79.3039467,224.03991 Z M75.2916084,215.677171 C75.2353607,215.369168 75.2212987,214.683162 75.2177833,214.186158 L75.2166114,213.773154 L75.2166114,213.773154 C75.2166114,212.429143 75.6290948,210.039789 76.3040676,208.807778 C76.6040555,208.247773 76.8290464,208.247773 77.5040192,208.247773 C78.5164784,208.247773 80.3164059,208.957112 81.8163454,210.039789 C79.866424,211.906471 77.5415177,213.847822 75.2916084,215.677171 Z M104.105995,224.189245 L107.893343,221.38922 C106.318406,219.634538 106.168412,219.223868 106.168412,217.730522 L106.168412,208.845112 C106.168412,206.269089 104.780968,205.074412 101.406104,205.074412 C101.031119,205.074412 100.468642,205.111746 99.9061647,205.149079 L96.3063097,207.91177 C96.3063097,206.38109 95.55634,205.783752 93.9064065,204.738409 L90.1565576,207.799769 C91.99815,208.98615 92.1011294,209.133948 92.1062313,211.443536 L92.106479,219.634538 C92.106479,221.053217 92.106479,222.359895 91.9189866,223.778574 L96.5687992,223.778574 C96.3813067,222.359895 96.3813067,221.053217 96.3813067,219.634538 L96.3813067,208.658443 C97.168775,208.546442 97.8812463,208.434441 98.4437236,208.434441 C101.443603,208.434441 101.893585,209.44245 101.893585,210.749128 L101.893585,220.418545 C101.893585,221.538555 102.75605,222.882567 104.105995,224.189245 Z M133.526238,224.189245 C136.338625,224.189245 137.238589,223.853242 137.913561,223.143902 L140.988438,219.895874 C139.001018,220.343878 137.501078,220.605214 135.738649,220.605214 C132.551278,220.605214 131.163833,220.15721 128.801429,218.775864 L132.663773,216.274509 L132.663773,203.7304 C134.313707,204.103737 136.826105,204.626408 138.551036,204.626408 C139.713489,204.626408 140.575954,203.693067 143.275845,201.005043 C142.825863,201.117044 142.525876,201.191712 142.075894,201.191712 C140.725948,201.191712 137.388583,200.669041 133.526238,199.959701 C130.338867,199.362363 127.039,198.914359 125.501562,198.914359 C124.226613,198.914359 123.851628,199.287695 121.039242,202.90906 C122.126698,202.759725 123.401646,202.722392 124.489102,202.722392 C126.176534,202.722392 127.938963,202.946394 129.926383,203.207729 L129.926383,203.282397 C126.77651,204.925077 124.189115,206.455757 123.101658,207.650434 C122.051701,208.770444 121.414226,211.3838 121.414226,212.951814 C121.414226,218.029191 124.564099,224.189245 133.526238,224.189245 Z M128.388945,218.477195 C126.326528,216.759847 125.464063,214.594495 125.464063,211.122465 C125.464063,208.285107 126.739012,206.306423 128.388945,205.186413 L128.388945,218.477195 Z M150.786257,229.975962 C156.448529,225.682591 161.660819,219.261202 161.660819,211.607802 C161.660819,207.799769 159.14842,205.074412 154.911091,205.074412 C154.498607,205.074412 154.123622,205.111746 153.786136,205.149079 L150.111284,207.949104 L150.111284,201.751717 C150.111284,200.333038 150.111284,199.02636 150.298777,197.607681 L145.648964,197.607681 C145.836456,199.02636 145.836456,200.333038 145.836456,201.751717 L145.836456,219.634538 C145.836456,221.053217 145.836456,222.359895 145.648964,223.778574 L150.298777,223.778574 C150.111284,222.359895 150.111284,221.053217 150.111284,219.634538 L150.111284,208.770444 C150.861254,208.546442 151.423731,208.434441 152.398692,208.434441 C153.898631,208.434441 155.66106,209.106447 156.298535,209.815787 C157.273495,210.898463 157.610982,212.205141 157.610982,215.042499 C157.610982,220.791882 153.711139,226.6906 150.186281,229.602625 L150.786257,229.975962 Z M173.708547,224.002576 C174.496016,224.002576 175.208487,223.815908 176.408439,222.9199 L179.295822,220.829216 C180.645768,219.85854 181.245744,219.261202 182.033212,218.21586 C182.595689,217.469186 183.345659,214.743829 183.345659,212.989147 C183.345659,207.463766 178.920837,205.074412 175.283484,205.074412 C174.571013,205.074412 174.271025,205.186413 173.071073,205.821085 C172.525903,206.112575 171.89919,206.460894 171.266309,206.820141 L170.724087,207.129673 C169.193474,208.008197 167.753499,208.87383 167.483798,209.069113 C167.146312,209.330449 164.896403,211.234466 164.896403,215.714504 C164.896403,220.829216 169.658711,224.002576 173.708547,224.002576 Z M177.073516,220.865339 L176.633429,220.866549 L176.633429,220.866549 C171.983617,220.866549 168.721248,217.394519 168.721248,213.175816 C168.721248,210.599793 169.958698,208.509109 170.558674,208.210439 C170.933659,208.023771 171.271146,207.986437 171.833623,207.986437 C176.970916,207.986437 179.633309,211.682469 179.633309,215.602503 C179.633309,218.066525 178.733345,220.306544 178.320861,220.605214 C178.039623,220.822993 177.732344,220.85929 177.073516,220.865339 L177.073516,220.865339 Z M196.982679,232 L196.982679,228.390594 L193.375647,228.390594 L193.375647,232 L196.982679,232 Z M199.889886,224.566852 L203.752231,221.804161 C202.066429,220.054349 201.958825,219.534219 201.952654,217.499263 L201.952303,208.550713 C201.952303,206.198693 199.627397,205.45202 197.339989,205.45202 C196.140037,205.45202 195.202575,205.564021 194.82759,205.86269 L192.090201,208.028042 C190.740255,209.110718 189.840291,210.641398 189.840291,212.844084 C189.840291,214.001427 190.102781,215.233438 190.740255,216.68945 L191.340231,216.204113 C190.890249,214.636099 190.702756,213.777425 190.702756,212.956085 C190.702756,210.940067 191.265234,210.006726 192.127699,209.110718 C192.465185,208.961383 193.440146,208.812049 194.565101,208.812049 C196.590019,208.812049 197.677475,209.484055 197.677475,210.678732 L197.677475,213.366755 C196.552521,214.33743 187.965367,220.684152 187.665379,220.684152 C189.727796,223.148173 191.040243,224.380184 192.502684,224.380184 C193.477645,224.380184 194.490104,223.745512 197.677475,221.094822 C197.902466,222.513501 198.689935,223.372175 199.889886,224.566852 Z M195.615058,221.318824 C194.902587,221.318824 193.215155,220.236148 192.090201,218.892136 C193.965125,217.324123 195.727554,215.905444 197.677475,214.449431 L197.677475,220.124147 C196.777512,220.982821 196.140037,221.318824 195.615058,221.318824 Z M208.05032,203.207729 L213.037619,201.303713 L216,197.607681 L211.087698,199.511697 L208.05032,203.207729 Z M211.350187,224.189245 L215.212532,221.38922 C213.712592,219.85854 213.412604,219.373203 213.412604,217.581187 L213.412604,208.061105 C213.412604,206.567758 212.850127,205.933086 210.937704,204.738409 L207.187855,207.799769 C209.025281,208.919779 209.137777,209.405116 209.137777,210.487792 L209.137777,220.269211 C209.137777,221.613222 209.925245,222.807899 211.350187,224.189245 Z" id="HuyềnThoại"></path>
            </g>
        </g>
    </g>
</svg>