<?xml version="1.0" encoding="UTF-8"?>
<svg width="148px" height="40px" viewBox="0 0 148 40" version="1.1" xmlns="http://www.w3.org/2000/svg" xmlns:xlink="http://www.w3.org/1999/xlink">
    <title>D7393E37-ED16-462A-B96A-00379CEFD26E</title>
    <defs>
        <linearGradient x1="50%" y1="0%" x2="49.9999724%" y2="100%" id="linearGradient-1">
            <stop stop-color="#A67B02" offset="0%"></stop>
            <stop stop-color="#FFE59D" offset="17.6440261%"></stop>
            <stop stop-color="#C79403" offset="34.6624472%"></stop>
            <stop stop-color="#FFBE06" offset="49.4606123%"></stop>
            <stop stop-color="#C28F00" offset="67.3041045%"></stop>
            <stop stop-color="#D8B040" offset="80.8381046%"></stop>
            <stop stop-color="#A67B02" offset="100%"></stop>
        </linearGradient>
    </defs>
    <g id="Master-mfast" stroke="none" stroke-width="1" fill="none" fill-rule="evenodd">
        <g id="Master-Mfast-1.7" transform="translate(-114.000000, -318.000000)" fill="url(#linearGradient-1)" fill-rule="nonzero">
            <g id="Group-12" transform="translate(78.000000, 86.000000)">
                <path d="M48.6283948,265.784729 C50.2171283,265.784729 52.3761764,265.463941 53.6797527,265.143153 C54.7796451,264.862463 54.9425922,264.702069 58.323743,260.571921 C56.6942727,261.013005 53.1909116,261.69468 51.2355472,261.69468 C47.9766067,261.69468 46.0212423,260.852611 44.5954558,259.409064 L49.0357623,256.842758 L49.0357623,241.685516 C51.1948105,242.447388 53.6390159,244.011231 54.1685938,245.013694 L58.0385857,241.966206 C56.5720624,240.402364 55.1055392,239.359802 52.5391235,238.397437 C50.094918,240.001378 47.4062921,241.525122 44.391772,242.968669 L44.391772,259.208571 L44.3102985,259.208571 C43.2511428,257.765024 43.047459,256.762561 43.047459,254.436847 L43.047459,241.084039 L36,244.893398 C36.9369454,245.374581 37.8331541,245.93596 38.4034687,246.497339 L38.4034687,255.760098 C38.4034687,261.935271 41.703146,265.784729 48.6283948,265.784729 Z M73.2450353,265.784729 L77.4409213,262.817438 C75.6095384,260.938038 75.4926416,260.379387 75.4859386,258.193726 L75.4855569,248.582462 C75.4855569,246.056255 72.959878,245.254285 70.4749358,245.254285 C69.1713595,245.254285 68.1529406,245.374581 67.745573,245.695369 L64.7717897,248.021083 C63.3052665,249.18394 62.3275843,250.82798 62.3275843,253.193793 C62.3275843,254.436847 62.6127416,255.760098 63.3052665,257.32394 L63.9570546,256.80266 C63.4682135,255.118522 63.2645297,254.196256 63.2645297,253.314088 C63.2645297,251.148768 63.8755811,250.146305 64.8125265,249.18394 C65.1791573,249.023546 66.238313,248.863152 67.4604157,248.863152 C69.6602006,248.863152 70.8415666,249.584925 70.8415666,250.868078 L70.8415666,253.755172 C69.6194639,254.797733 60.2907464,261.614482 59.9648524,261.614482 C62.205374,264.260985 63.6311605,265.584236 65.2198941,265.584236 C66.2790498,265.584236 67.3789422,264.902561 70.8415666,262.055566 C71.0859871,263.57931 71.941459,264.501576 73.2450353,265.784729 Z M68.6010449,262.296157 C67.8270465,262.296157 65.9938925,261.1333 64.7717897,259.689753 C66.8086276,258.005615 68.7232552,256.481871 70.8415666,254.918029 L70.8415666,261.013005 C69.8638844,261.935271 69.1713595,262.296157 68.6010449,262.296157 Z M89.9994816,265.584236 C90.7938484,265.584236 91.517965,265.411363 92.6610735,264.616143 L96.0692584,262.175862 C97.5357817,261.1333 98.1875698,260.491724 99.0430417,259.368965 C99.6540931,258.566995 100.468828,255.639802 100.468828,253.755172 C100.468828,247.82059 95.6618909,245.254285 91.7104254,245.254285 C90.936427,245.254285 90.610533,245.374581 89.3069567,246.056255 C88.7147069,246.369332 88.0338728,246.743447 87.346338,247.129299 L86.7572914,247.461755 C85.0944988,248.405341 83.5301712,249.335081 83.2371799,249.544827 C82.8705491,249.825517 80.4263436,251.870541 80.4263436,256.682364 C80.4263436,262.175862 85.5999118,265.584236 89.9994816,265.584236 Z M93.6550398,262.214661 L93.1769487,262.21596 L93.1769487,262.21596 C88.1255908,262.21596 84.5814929,258.486798 84.5814929,253.955665 C84.5814929,251.188866 85.9258059,248.943349 86.577594,248.622561 C86.9849616,248.422068 87.3515924,248.38197 87.9626437,248.38197 C93.5435795,248.38197 96.4358893,252.351724 96.4358893,256.562069 C96.4358893,259.208571 95.4582071,261.614482 95.0101028,261.935271 C94.7045771,262.169179 94.370762,262.208163 93.6550398,262.214661 L93.6550398,262.214661 Z M128.681942,265.784729 C131.737199,265.784729 132.714881,265.423842 133.448143,264.66197 L136.788557,261.173399 C134.629509,261.654581 133.000039,261.935271 131.085411,261.935271 C127.622787,261.935271 126.115527,261.454088 123.549111,259.970443 L127.744997,257.283842 L127.744997,243.810738 C129.537414,244.211723 132.266777,244.773103 134.140668,244.773103 C135.223102,244.773103 136.066103,244.036599 138.13192,242.008058 L138.674696,241.473684 C138.864677,241.286372 139.063996,241.089767 139.273499,240.883546 C138.784658,241.003841 138.458764,241.084039 137.969923,241.084039 C136.5034,241.084039 132.877828,240.522659 128.681942,239.760787 C125.219318,239.119211 121.634483,238.638029 119.964276,238.638029 C118.579227,238.638029 118.171859,239.039014 115.116602,242.928571 C116.297968,242.768176 117.683018,242.728078 118.864384,242.728078 C120.697538,242.728078 122.612166,242.968669 124.771214,243.249359 L124.771214,243.329556 C121.349326,245.093891 118.53849,246.73793 117.357124,248.021083 C116.216495,249.224039 115.52397,252.030935 115.52397,253.715073 C115.52397,259.168473 118.945857,265.784729 128.681942,265.784729 Z M123.101007,259.649655 C120.860485,257.805123 119.92354,255.479408 119.92354,251.750246 C119.92354,248.702758 121.308589,246.577536 123.101007,245.374581 L123.101007,259.649655 Z M147.43249,272 C153.58374,267.38867 159.24615,260.491724 159.24615,252.271527 C159.24615,248.181477 156.516787,245.254285 151.913533,245.254285 C151.465429,245.254285 151.058061,245.294383 150.69143,245.334482 L146.699228,248.341871 L146.699228,241.685516 C146.699228,240.161772 146.699228,238.758324 146.902912,237.23458 L141.851554,237.23458 C142.055238,238.758324 142.055238,240.161772 142.055238,241.685516 L142.055238,260.892709 C142.055238,262.416453 142.055238,263.819901 141.851554,265.343645 L146.902912,265.343645 C146.699228,263.819901 146.699228,262.416453 146.699228,260.892709 L146.699228,249.224039 C147.513963,248.983448 148.125015,248.863152 149.18417,248.863152 C150.813641,248.863152 152.728268,249.584925 153.420793,250.346797 C154.479949,251.509655 154.84658,252.913103 154.84658,255.960591 C154.84658,262.135763 150.609957,268.47133 146.780702,271.599015 L147.43249,272 Z M179.35601,245.298971 C181.474321,246.381631 182.126109,247.2237 182.126109,248.907838 L182.126109,248.907838 L182.126109,259.654242 C182.126109,260.977493 182.574213,261.859661 184,263.303208 L184,263.303208 L179.844851,266.190301 C178.133907,264.546262 177.482119,263.664094 177.482119,262.581434 L177.482119,262.581434 L173.408443,266.190301 C170.190239,265.388331 167.134982,263.664094 167.134982,260.857198 L167.134982,260.857198 L167.134428,252.010858 C167.12494,250.055379 166.972035,249.856836 165.098145,248.627148 L165.098145,248.627148 L169.04961,245.298971 C171.330868,246.742517 171.778973,247.464291 171.778973,249.188527 L171.778973,249.188527 L171.778973,258.89237 C171.778973,261.097789 173.815811,261.819562 177.482119,261.859661 L177.482119,261.859661 L177.482119,251.313749 C177.482119,250.351385 177.278435,249.830104 175.404544,248.627148 L175.404544,248.627148 Z M173.929227,232 C175.493985,232 176.667554,232.234952 177.449933,232.704857 C178.232312,233.174761 178.623502,233.879618 178.623502,234.819427 C178.623502,235.602602 178.106336,236.437988 177.072004,237.325585 L177.072004,237.325585 L176.634403,237.697593 L176.462544,237.846396 C175.968452,238.281058 175.6677,238.609991 175.560289,238.833196 C175.440943,239.081201 175.38127,239.544579 175.38127,240.22333 L175.38127,240.22333 L172.556749,240.22333 L172.561112,239.974492 C172.598932,238.92087 172.882582,238.188009 173.412061,237.77591 L173.412061,237.77591 L174.227592,237.16895 L174.744758,236.738204 L174.907009,236.594029 C175.422093,236.119378 175.679635,235.704058 175.679635,235.34807 C175.679635,234.917324 175.487355,234.594265 175.102796,234.378892 C174.718237,234.163519 174.141398,234.055832 173.372279,234.055832 C172.682725,234.055832 171.940128,234.179835 171.144488,234.42784 L171.144488,234.42784 L171.144488,232.352428 L171.55205,232.258927 C172.363928,232.086309 173.15632,232 173.929227,232 Z" id="CaoThủ"></path>
            </g>
        </g>
    </g>
</svg>