<?xml version="1.0" encoding="UTF-8"?>
<svg width="27px" height="21px" viewBox="0 0 27 21" version="1.1" xmlns="http://www.w3.org/2000/svg" xmlns:xlink="http://www.w3.org/1999/xlink">
    <title>20AB4ECD-666C-4F63-8592-85257A43BB6F</title>
    <defs>
        <path d="M11.8747924,21.25 C11.3459214,21.25 10.9090279,20.8595966 10.8449429,20.3555042 L10.836851,20.2272727 L10.836851,-0.227272727 C10.836851,-0.641818182 11.0901087,-1.01409091 11.4789908,-1.17227273 C11.6063116,-1.22409091 11.740552,-1.25 11.8747924,-1.25 C12.0996797,-1.25 12.3226449,-1.1780303 12.5052457,-1.0396149 L12.6096549,-0.948636364 L20.9477841,7.30136364 C21.3518893,7.70090909 21.3505053,8.34863636 20.9450162,8.74681818 C20.5720493,9.11181818 19.9886013,9.14223485 19.5826861,8.83596749 L19.4766751,8.74409091 L12.9127338,2.24909091 L12.9127338,20.2272727 C12.9127338,20.7918182 12.4477361,21.25 11.8747924,21.25 Z M4.27332486,8.74422727 C3.86921968,9.14513636 3.2118568,9.14513636 2.80498377,8.74695455 C2.43328543,8.38195455 2.40114769,7.80726705 2.70963652,7.40521843 L2.80221593,7.30013636 L7.40098824,2.75104545 C7.60442475,2.54922727 7.87013775,2.44968182 8.13723467,2.44968182 C8.40156374,2.44968182 8.66589281,2.54922727 8.86932933,2.74831818 C9.24229627,3.11331818 9.27453972,3.68685985 8.96499373,4.08871749 L8.87209717,4.19377273 L4.27332486,8.74422727 Z" id="path-1"></path>
        <filter x="-5.3%" y="-4.4%" width="116.0%" height="117.8%" filterUnits="objectBoundingBox" id="filter-2">
            <feOffset dx="1" dy="2" in="SourceAlpha" result="shadowOffsetOuter1"></feOffset>
            <feColorMatrix values="0 0 0 0 0.137254902   0 0 0 0 0.22745098   0 0 0 0 0.584313725  0 0 0 0.8 0" type="matrix" in="shadowOffsetOuter1"></feColorMatrix>
        </filter>
    </defs>
    <g id="Master-mfast" stroke="none" stroke-width="1" fill="none" fill-rule="evenodd">
        <g id="Master-Mfast-3.1" transform="translate(-16.000000, -95.000000)" fill-rule="nonzero">
            <g id="Group-12" transform="translate(15.500000, 93.000000)">
                <g id="Iconly/back" transform="translate(0.500000, 3.000000)">
                    <g id="Arrow---Left" transform="translate(0.625000, 0.000000)">
                        <g transform="translate(11.875000, 10.000000) rotate(-90.000000) translate(-11.875000, -10.000000) ">
                            <use fill="black" fill-opacity="1" filter="url(#filter-2)" xlink:href="#path-1"></use>
                            <use fill="#D7DFFF" xlink:href="#path-1"></use>
                        </g>
                    </g>
                </g>
            </g>
        </g>
    </g>
</svg>