<?xml version="1.0" encoding="UTF-8"?>
<svg width="24px" height="28px" viewBox="0 0 24 28" version="1.1" xmlns="http://www.w3.org/2000/svg" xmlns:xlink="http://www.w3.org/1999/xlink">
    <title>43639251-66D9-4874-8978-317569E8863E</title>
    <g id="Master-mfast" stroke="none" stroke-width="1" fill="none" fill-rule="evenodd">
        <g id="Contest-sau-tết-2.2" transform="translate(-16.000000, -50.000000)" fill="#1A36A1" fill-rule="nonzero">
            <g id="Group" transform="translate(16.000000, 48.000000)">
                <g id="policy" transform="translate(0.000000, 2.000000)">
                    <path d="M20.7,8.8817842e-15 C22.5204,8.8817842e-15 24,1.4385 24,3.20833333 L24,3.20833333 L24,24.7916667 C24,26.5615 22.5204,28 20.7,28 L20.7,28 L3.3,28 C1.4796,28 -4.45865567e-13,26.5615 -4.45865567e-13,24.7916667 L-4.45865567e-13,24.7916667 L-4.45865567e-13,3.20833333 C-4.45865567e-13,1.4385 1.4796,8.8817842e-15 3.3,8.8817842e-15 L3.3,8.8817842e-15 Z M19.5,22.75 L4.5,22.75 C4.0032,22.75 3.6,23.0222125 3.6,23.3576172 C3.6,23.6930219 4.0032,23.9652344 4.5,23.9652344 L4.5,23.9652344 L19.5,23.9652344 C19.9968,23.9652344 20.4,23.6930219 20.4,23.3576172 C20.4,23.0222125 19.9968,22.75 19.5,22.75 L19.5,22.75 Z M19.5,19.25 L4.5,19.25 C4.0032,19.25 3.6,19.5222125 3.6,19.8576172 C3.6,20.1930219 4.0032,20.4652344 4.5,20.4652344 L4.5,20.4652344 L19.5,20.4652344 C19.9968,20.4652344 20.4,20.1930219 20.4,19.8576172 C20.4,19.5222125 19.9968,19.25 19.5,19.25 L19.5,19.25 Z M12.19746,3.10511695 C11.905096,2.98299736 11.5513678,3.03073372 11.310468,3.22388788 C11.1352539,3.36438953 11.0330326,3.56972715 11.0330326,3.7819046 L11.0330326,3.7819046 L11.0330326,4.60532125 C10.2269691,4.70877379 9.42334126,4.99041834 8.81834183,5.49535507 C8.53540639,5.7315432 8.30464232,6.01646517 8.14435676,6.33380512 C7.97322835,6.6727333 7.89528557,7.04144328 7.89834985,7.41343068 C7.90133556,7.77978946 7.97479978,8.14864193 8.15213533,8.4797328 C8.32019945,8.79343908 8.57681349,9.05848278 8.87923463,9.2718002 C9.50151975,9.71054726 10.2793762,9.93904057 11.032954,10.1159501 L11.032954,10.1159501 L11.032954,13.0629225 C10.6475615,12.9648848 10.2778833,12.8000875 9.98764072,12.5465148 C9.84684085,12.4234689 9.72458383,12.2816848 9.62699821,12.127931 C9.57757682,12.0498428 9.53554115,11.967836 9.50073404,11.883478 C9.46561264,11.7985501 9.44439838,11.7105584 9.41312698,11.6247042 C9.31161279,11.3459808 9.02899163,11.1430657 8.7065348,11.1171313 C8.37889225,11.0906269 8.05800684,11.2501519 7.90573556,11.5142693 C7.83164277,11.6426588 7.80013566,11.7897153 7.81639993,11.9338506 C7.82606421,12.0197761 7.85403561,12.1035641 7.88114273,12.1859983 C7.91107841,12.2770537 7.94525695,12.3671115 7.98359977,12.4555307 C8.13037106,12.7938889 8.34259229,13.1073102 8.60289918,13.3835399 C9.12547725,13.9377092 9.84086943,14.3122615 10.6121258,14.5044182 C10.7509614,14.5389736 10.891447,14.5679717 11.032954,14.5923386 L11.032954,14.5923386 L11.032954,15.459288 C11.032954,15.7472736 11.2225467,16.015666 11.5111393,16.1360756 C11.8034247,16.2581952 12.1573101,16.2105301 12.3981313,16.0173047 C12.5733454,15.876803 12.6755667,15.6715367 12.6755667,15.459288 L12.6755667,15.459288 L12.6755667,14.6660806 C13.5008017,14.6054483 14.3313794,14.3889959 14.9935788,13.923602 C15.6207353,13.48286 16.0403064,12.8336454 16.1261849,12.1157475 C16.1910062,11.5744742 16.0930278,11.0047015 15.7948495,10.5281928 L15.7948495,10.5281928 L15.7924923,10.5241316 C15.4157427,9.9274271 14.7650933,9.55095106 14.0784582,9.3054294 C13.6241587,9.14298327 13.1495877,9.03069594 12.6754096,8.92774214 L12.6754096,8.92774214 L12.6754096,6.10759175 C13.0743949,6.17178647 13.4736945,6.28663874 13.8029085,6.50708099 C13.9549441,6.60875233 14.0881225,6.73215439 14.1908939,6.87607596 C14.2437724,6.95010295 14.289658,7.02847609 14.3250937,7.11062538 C14.3602151,7.1917772 14.3774222,7.2779164 14.4118365,7.35928196 C14.527415,7.63287545 14.8198575,7.82346467 15.1426287,7.83621811 C15.4711355,7.84897156 15.7833781,7.67712065 15.9226065,7.40723207 C15.9905707,7.27549396 16.0147707,7.1267275 15.9910421,6.98273468 C15.9761922,6.89253432 15.9449208,6.80354519 15.9138065,6.717121 C15.8804137,6.62442695 15.8418351,6.53351412 15.7977566,6.44466748 C15.6399068,6.12618756 15.4154284,5.83414076 15.1412144,5.58904659 C14.5623792,5.07157016 13.7882157,4.77517721 12.9966879,4.64529155 C12.8901451,4.62776447 12.7830523,4.61308732 12.6756453,4.60083261 L12.6756453,4.60083261 L12.6756453,3.7819046 C12.6756453,3.49391895 12.4859741,3.22559784 12.19746,3.10511695 Z M12.6756453,10.4634993 C13.0611164,10.5554097 13.4493374,10.6572235 13.8043228,10.8250845 C13.9673584,10.9022464 14.1251296,10.9948692 14.2498224,11.1186987 C14.3660294,11.2341922 14.4376079,11.3742664 14.4722579,11.5268803 C14.5361364,11.8085248 14.5049436,12.1193812 14.3481151,12.3723839 L14.3481151,12.3723839 L14.2581469,12.4981594 C13.9005351,12.9353771 13.2491703,13.113295 12.6756453,13.1720749 L12.6756453,13.1720749 Z M11.032954,6.11721027 L11.032954,8.56815195 C10.8428899,8.5152857 10.6665758,8.46056701 10.5098259,8.40335462 C10.3229833,8.33524124 10.1395191,8.25487315 9.97271216,8.1519906 C9.82405516,8.06008029 9.68003387,7.9459405 9.61128393,7.79133168 C9.53907686,7.62909929 9.52862687,7.43737011 9.54724828,7.26502046 C9.56586969,7.09302705 9.63336248,6.93122215 9.74092667,6.78879679 C10.0281835,6.40847334 10.5528045,6.21011806 11.032954,6.11721027 L11.032954,6.11721027 Z" id="Combined-Shape"></path>
                </g>
            </g>
        </g>
    </g>
</svg>