<?xml version="1.0" encoding="UTF-8"?>
<svg width="28px" height="32px" viewBox="0 0 28 32" version="1.1" xmlns="http://www.w3.org/2000/svg" xmlns:xlink="http://www.w3.org/1999/xlink">
    <title>D991AB7D-80CC-494B-9786-EE3189FF1FF6</title>
    <defs>
        <linearGradient x1="50%" y1="0%" x2="50%" y2="100%" id="linearGradient-1">
            <stop stop-color="#E4A200" offset="0%"></stop>
            <stop stop-color="#985A00" offset="100%"></stop>
        </linearGradient>
    </defs>
    <g id="Master-mfast" stroke="none" stroke-width="1" fill="none" fill-rule="evenodd">
        <g id="Contest-sau-tết-2.2" transform="translate(-292.000000, -528.000000)" fill="url(#linearGradient-1)" fill-rule="nonzero">
            <g id="Group-46" transform="translate(16.000000, 112.000000)">
                <g id="Group-20-Copy-3" transform="translate(0.000000, 372.000000)">
                    <g id="Group-12" transform="translate(0.000000, 32.000000)">
                        <g id="Group-7-Copy-2" transform="translate(237.000000, 0.000000)">
                            <g id="Logo-đối-tác/-product/-RI" transform="translate(39.000000, 12.000000)">
                                <path d="M22.6038207,-7.10542736e-15 C22.7780811,-7.10542736e-15 22.9381355,0.0875323304 23.0205304,0.227497393 C25.0440979,3.56557026 26.0588807,5.28025061 26.0648788,5.37153845 L26.0648788,5.37153845 L27.9992641,31.1597763 C28.0063671,31.2772083 27.9618549,31.3924736 27.8742512,31.4791393 C27.7861739,31.565805 27.6640022,31.6160711 27.5356746,31.6182377 L27.5356746,31.6182377 L5.92406825,32 L5.92406825,32 L5.91459758,32 C5.7815346,32 5.65368049,31.9484339 5.56418261,31.8578683 L5.56418261,31.8578683 L2.72061251,28.9922678 C2.63679704,28.9082021 2.5927584,28.7977034 2.59796727,28.6841713 L2.59796727,28.6841713 L3.79032523,5.51453681 L3.53603761,4.9109104 L0.45996244,4.8316113 C0.307011043,4.82814468 0.165424455,4.7566455 0.0801883818,4.64008017 C-0.00504769123,4.52351483 -0.023515507,4.37661652 0.0304673392,4.24575135 L0.0304673392,4.24575135 L1.63243198,0.357062575 C1.6622646,0.285563395 1.71387978,0.230530692 1.7730715,0.184164556 C1.86162231,0.0693325389 2.00557656,-7.10542736e-15 2.15947503,-7.10542736e-15 L2.15947503,-7.10542736e-15 Z M24.5415462,5.91536555 L5.81711132,5.91536555 L6.85119905,30.1699897 C6.8573607,30.3145117 6.97762127,30.4277683 7.12225284,30.4252572 L7.12225284,30.4252572 L26.4962987,30.0888862 L24.5415462,5.91536555 Z M4.62034461,10.9658826 L3.80780707,28.1125114 C3.80657682,28.1384727 3.81677062,28.163672 3.83570522,28.1814762 L3.83570522,28.1814762 L5.2865451,29.5456967 C5.30401816,29.5621265 5.32738918,29.5707981 5.35135025,29.569742 C5.40039461,29.5675804 5.43840054,29.5260697 5.43623887,29.4770253 L5.43623887,29.4770253 L4.62034461,10.9658826 Z M21.3335582,13.6879147 C21.515052,13.6879147 21.6866853,13.7630428 21.8001115,13.8920944 C21.8908285,13.9953574 21.9364333,14.124177 21.9306991,14.2541638 L21.9166751,14.3514917 L21.6778706,15.321134 L23.6716734,15.321134 C23.8315636,15.321134 23.9847607,15.3794944 24.0970514,15.4831494 C24.186884,15.5660951 24.2445317,15.6724896 24.2629383,15.7862914 L24.2692753,15.872781 L24.2673102,16.005344 C24.266115,17.0718362 23.7584462,18.0787159 22.837471,18.8408032 C22.0301611,19.5088715 20.9955207,19.9077037 20.0663583,19.9075404 L20.0287985,19.9058255 L20.0287985,19.9058255 C20.0205814,19.9053083 20.0123045,19.9050633 20.004177,19.9042739 L19.9788085,19.9007353 L19.942713,19.8950735 C19.9414879,19.8948285 19.9402926,19.8947468 19.9390675,19.8945018 C19.9339879,19.8934675 19.9292369,19.8918887 19.924217,19.8907454 L19.9042568,19.8860295 L19.8742008,19.877353 L19.8742008,19.877353 L19.8301234,19.8618102 C19.821727,19.8584621 19.8136892,19.8546785 19.8055019,19.8510038 C19.7965079,19.8469479 19.787484,19.843001 19.7787888,19.8385641 L19.7651596,19.8312452 L19.7651596,19.8312452 L19.7517769,19.8236201 L19.7302331,19.8109899 L19.7166898,19.8020344 L19.7166898,19.8020344 L19.7034602,19.7927523 L19.6845758,19.7791421 L19.6722277,19.7691965 L19.6722277,19.7691965 L19.6601933,19.7589446 L19.6421455,19.7431296 L19.621528,19.7224422 L19.621528,19.7224422 C19.6154324,19.7161271 19.6093069,19.7098664 19.60354,19.7033063 L19.5870161,19.6831633 L19.5870161,19.6831633 C19.5809803,19.6756232 19.5749743,19.6681104 19.5693866,19.6602982 L19.5627756,19.6506146 L19.5627756,19.6506146 L19.5563886,19.6408084 L19.5401038,19.6147314 L19.5159903,19.5671775 L19.5071755,19.5452379 L19.5071755,19.5452379 C19.5036497,19.536228 19.5000939,19.5272453 19.4971058,19.5180176 C19.4942373,19.5092798 19.4919963,19.5003516 19.4896058,19.4914778 L19.4834505,19.4672789 L19.4834505,19.4672789 C19.4811198,19.4564724 19.479566,19.4455299 19.4779824,19.4345601 L19.4751437,19.4147709 L19.4730521,19.3772885 L19.4726412,19.3698982 L19.4724545,19.3599764 L19.4743369,19.326196 C19.4749047,19.3186015 19.4751736,19.3109526 19.47607,19.3034398 C19.4770262,19.2957092 19.4786397,19.2879514 19.4799545,19.2802208 L19.4828566,19.2633817 L19.4828566,19.2633817 L19.4867672,19.2441539 L20.5870251,14.7767276 L10.3169956,14.7767276 L11.4357494,19.255287 C11.865998,20.9777073 13.5207772,22.1806549 15.4598689,22.1806549 C16.5574972,22.1806549 17.5910619,21.7921937 18.3701647,21.0867791 C18.6042482,20.8748417 18.9826542,20.8759033 19.2153033,21.0891473 C19.4479824,21.3024185 19.446817,21.6471094 19.2127037,21.8590469 L19.0206509,22.0246961 L19.0206509,22.0246961 L18.8212699,22.1806277 L21.3409984,22.1806277 C21.6710578,22.1806277 21.9386074,22.4243585 21.9386074,22.7250342 C21.9386074,22.9956423 21.7218922,23.220125 21.4379359,23.2623154 L21.3409984,23.2694406 L9.56810188,23.2694406 C9.23804246,23.2694406 8.97049292,23.0257098 8.97049292,22.7250342 C8.97049292,22.4544261 9.18720804,22.2299433 9.47116439,22.1877529 L9.56810188,22.1806277 L12.0997228,22.1806277 C11.2526259,21.552165 10.6345186,20.6934125 10.3377629,19.7377087 L10.2703223,19.4968402 L8.98540327,14.3531249 C8.94506466,14.1916268 8.98761442,14.0222347 9.10101072,13.8927749 C9.19172776,13.789207 9.31990771,13.7202372 9.46062884,13.696792 L9.56813176,13.6879147 L21.3335582,13.6879147 Z M23.0363553,16.4099469 L21.4097234,16.4099469 L20.8491961,18.6858379 C21.8103007,18.3773228 22.8343933,17.5512133 23.0363553,16.4099469 Z M16.1716809,9.33266333 C16.5017403,9.33266333 16.7692899,9.57639409 16.7692899,9.87706976 C16.7692899,10.7197837 16.1692307,11.2067552 15.7310339,11.5622798 C15.5069605,11.7441116 15.2752675,11.9321223 15.2752675,12.0546955 C15.2752675,12.3553711 15.0077179,12.5991019 14.6776585,12.5991019 C14.3475991,12.5991019 14.0800495,12.3553711 14.0800495,12.0546955 C14.0800495,11.4438714 14.5546706,11.0587311 14.9360646,10.7492633 C15.331622,10.428254 15.5740719,10.2144112 15.5740719,9.87706976 C15.5740719,9.57639409 15.8416215,9.33266333 16.1716809,9.33266333 Z M18.8609212,9.33266333 C19.1909806,9.33266333 19.4585302,9.57639409 19.4585302,9.87706976 C19.4585302,10.7197837 18.858471,11.2067552 18.4202743,11.5622798 C18.1962008,11.7441116 17.9645078,11.9321223 17.9645078,12.0546955 C17.9645078,12.3553711 17.6969582,12.5991019 17.3668988,12.5991019 C17.0368394,12.5991019 16.7692899,12.3553711 16.7692899,12.0546955 C16.7692899,11.4438714 17.2439109,11.0587311 17.6253049,10.7492633 C18.0208623,10.428254 18.2633123,10.2144112 18.2633123,9.87706976 C18.2633123,9.57639409 18.5308618,9.33266333 18.8609212,9.33266333 Z M13.4824406,9.33266333 C13.8125,9.33266333 14.0800495,9.57639409 14.0800495,9.87706976 C14.0800495,10.7197837 13.4799605,11.2067552 13.0417936,11.5622798 C12.8177201,11.7441116 12.5860271,11.9321223 12.5860271,12.0546955 C12.5860271,12.3553711 12.3184776,12.5991019 11.9884182,12.5991019 C11.6583587,12.5991019 11.3908092,12.3553711 11.3908092,12.0546955 C11.3908092,11.4438714 11.8654302,11.0587311 12.2468243,10.7492633 C12.6423817,10.428254 12.8848316,10.2144112 12.8848316,9.87706976 C12.8848316,9.57639409 13.1523811,9.33266333 13.4824406,9.33266333 Z M22.1894203,1.27589946 L3.38971179,1.27589946 L4.86548017,4.47622186 L24.0970514,4.47622186 L22.1894203,1.27589946 Z M2.13721894,1.58684848 L1.15084817,3.9822877 L3.16762836,4.03385378 L2.13721894,1.58684848 Z" id="Combined-Shape"></path>
                            </g>
                        </g>
                    </g>
                </g>
            </g>
        </g>
    </g>
</svg>