<?xml version="1.0" encoding="UTF-8"?>
<svg width="60px" height="60px" viewBox="0 0 60 60" version="1.1" xmlns="http://www.w3.org/2000/svg" xmlns:xlink="http://www.w3.org/1999/xlink">
    <title>F0C9598D-ED1F-4643-A908-C97F5A64C6D0</title>
    <defs>
        <radialGradient cx="50%" cy="39.4782016%" fx="50%" fy="39.4782016%" r="56.4766183%" gradientTransform="translate(0.500000,0.394782),scale(0.983607,1.000000),rotate(59.921905),translate(-0.500000,-0.394782)" id="radialGradient-1">
            <stop stop-color="#6C8AFF" offset="0%"></stop>
            <stop stop-color="#233A95" offset="100%"></stop>
        </radialGradient>
        <path d="M19.5592,0.000533333333 C24.0938667,0.000533333333 26.6538667,2.57253333 26.6672,7.1072 L26.6672,7.1072 L26.6672,19.5605333 C26.6672,24.0938667 24.0938667,26.6672 19.5592,26.6672 L19.5592,26.6672 L7.1072,26.6672 C2.57253333,26.6672 0.000533333333,24.0938667 0.000533333333,19.5605333 L0.000533333333,19.5605333 L0.000533333333,7.1072 C0.000533333333,2.57253333 2.57253333,0.000533333333 7.1072,0.000533333333 L7.1072,0.000533333333 Z M20.1192,14.7205333 C19.7605333,14.4938667 19.3072,14.4938667 18.9338667,14.7205333 C18.5725333,14.9472 18.3738667,15.3458667 18.4272,15.7738667 L18.4272,15.7738667 L18.4272,20.1472 C18.4805333,20.7205333 18.9592,21.1472 19.5338667,21.1472 C20.0938667,21.1472 20.5725333,20.7205333 20.6405333,20.1472 L20.6405333,20.1472 L20.6405333,15.7738667 C20.6792,15.3458667 20.4805333,14.9472 20.1192,14.7205333 Z M14.0005333,5.5072 C13.6258667,5.28053333 13.1725333,5.28053333 12.8138667,5.5072 C12.4525333,5.73253333 12.2538667,6.1472 12.2925333,6.56053333 L12.2925333,6.56053333 L12.2925333,20.1472 C12.3605333,20.7205333 12.8392,21.1472 13.3992,21.1472 C13.9738667,21.1472 14.4525333,20.7205333 14.5058667,20.1472 L14.5058667,20.1472 L14.5058667,6.56053333 C14.5592,6.1472 14.3605333,5.73253333 14.0005333,5.5072 Z M7.77386667,9.88053333 C7.41386667,9.65386667 6.9592,9.65386667 6.60053333,9.88053333 C6.2392,10.1072 6.04053333,10.5192 6.08053333,10.9338667 L6.08053333,10.9338667 L6.08053333,20.1472 C6.13253333,20.7205333 6.61253333,21.1472 7.18586667,21.1472 C7.76053333,21.1472 8.2392,20.7205333 8.29253333,20.1472 L8.29253333,20.1472 L8.29253333,10.9338667 C8.33386667,10.5192 8.13253333,10.1072 7.77386667,9.88053333 Z" id="path-2"></path>
        <filter x="-3.8%" y="-3.8%" width="111.2%" height="115.0%" filterUnits="objectBoundingBox" id="filter-3">
            <feOffset dx="1" dy="2" in="SourceAlpha" result="shadowOffsetOuter1"></feOffset>
            <feColorMatrix values="0 0 0 0 0.137254902   0 0 0 0 0.22745098   0 0 0 0 0.584313725  0 0 0 1 0" type="matrix" in="shadowOffsetOuter1"></feColorMatrix>
        </filter>
        <filter x="0.0%" y="0.0%" width="103.7%" height="107.5%" filterUnits="objectBoundingBox" id="filter-4">
            <feOffset dx="0" dy="0" in="SourceAlpha" result="shadowOffsetInner1"></feOffset>
            <feComposite in="shadowOffsetInner1" in2="SourceAlpha" operator="arithmetic" k2="-1" k3="1" result="shadowInnerInner1"></feComposite>
            <feColorMatrix values="0 0 0 0 0.301960784   0 0 0 0 0.407843137   0 0 0 0 0.823529412  0 0 0 1 0" type="matrix" in="shadowInnerInner1"></feColorMatrix>
        </filter>
        <radialGradient cx="49.999258%" cy="49.8324078%" fx="49.999258%" fy="49.8324078%" r="38.9051626%" gradientTransform="translate(0.499993,0.498324),scale(0.983607,1.000000),translate(-0.499993,-0.498324)" id="radialGradient-5">
            <stop stop-color="#FFFFFF" offset="0%"></stop>
            <stop stop-color="#FFFBF5" offset="13%"></stop>
            <stop stop-color="#FEF1DA" offset="36%"></stop>
            <stop stop-color="#FEE1AE" offset="65%"></stop>
            <stop stop-color="#FDCB73" offset="99%"></stop>
            <stop stop-color="#FDCA71" offset="100%"></stop>
        </radialGradient>
    </defs>
    <g id="Master-mfast" stroke="none" stroke-width="1" fill="none" fill-rule="evenodd">
        <g id="Master-Mfast-1.1" transform="translate(-158.000000, -634.000000)">
            <g id="Group-7" transform="translate(36.000000, 634.000000)">
                <g id="Group-4" transform="translate(121.000000, 0.000000)">
                    <g id="Group-5" transform="translate(1.000000, 0.000000)">
                        <ellipse id="Oval" fill="url(#radialGradient-1)" fill-rule="nonzero" cx="29.5526696" cy="29.0681996" rx="29.5526696" ry="29.0681996"></ellipse>
                        <g id="Iconly/Bold/Chart" transform="translate(16.000000, 16.000000)" fill-rule="nonzero">
                            <g id="Chart" transform="translate(0.666667, 0.666667)">
                                <use fill="black" fill-opacity="1" filter="url(#filter-3)" xlink:href="#path-2"></use>
                                <use fill="#D7DFFF" xlink:href="#path-2"></use>
                                <use fill="black" fill-opacity="1" filter="url(#filter-4)" xlink:href="#path-2"></use>
                            </g>
                        </g>
                        <path d="M4.2070844,18.7937712 C15.5329116,4.75474756 27.21533,0.00412590348 39.2543395,4.54190618 C47.7886611,7.75868874 56.2390056,16.2797487 57.4633853,29.0124089 C57.7985862,32.4982554 56.4946819,38.3472912 53.5516722,46.5595165 C54.9697093,37.5090736 54.6367687,29.8972998 52.5528504,23.724195 C49.4269729,14.4645379 42.5995478,9.10665218 37.5916509,7.82117282 C32.5837541,6.53569346 24.4570317,5.66726134 15.8325466,9.74058955 C13.103502,11.0295122 9.22834797,14.0472394 4.2070844,18.7937712 Z" id="Path-2" fill="#233A95"></path>
                        <path d="M29.5526696,1.36257185 C45.8741583,1.36257185 59.1053391,14.3768481 59.1053391,30.4307714 C59.1053391,46.4846947 45.8741583,59.498971 29.5526696,59.498971 C13.2311808,59.498971 0,46.4846947 0,30.4307714 C0,14.3768481 13.2311808,1.36257185 29.5526696,1.36257185 Z M29.5526696,4.08771556 C14.7613204,4.08771556 2.77056277,15.8819034 2.77056277,30.4307714 C2.77056277,44.9796394 14.7613204,56.7738273 29.5526696,56.7738273 C44.3440187,56.7738273 56.3347763,44.9796394 56.3347763,30.4307714 C56.3347763,15.8819034 44.3440187,4.08771556 29.5526696,4.08771556 Z" id="Combined-Shape" fill="#A35611" fill-rule="nonzero"></path>
                        <path d="M29.5526696,0 C45.8741583,0 59.1053391,13.0142762 59.1053391,29.0681996 C59.1053391,45.1221229 45.8741583,58.1363991 29.5526696,58.1363991 C13.2311808,58.1363991 0,45.1221229 0,29.0681996 C0,13.0142762 13.2311808,0 29.5526696,0 Z M29.5526696,2.72514371 C14.7613204,2.72514371 2.77056277,14.5193316 2.77056277,29.0681996 C2.77056277,43.6170676 14.7613204,55.4112554 29.5526696,55.4112554 C44.3440187,55.4112554 56.3347763,43.6170676 56.3347763,29.0681996 C56.3347763,14.5193316 44.3440187,2.72514371 29.5526696,2.72514371 Z" id="Combined-Shape-Copy" fill="url(#radialGradient-5)" fill-rule="nonzero"></path>
                    </g>
                </g>
            </g>
        </g>
    </g>
</svg>