<?xml version="1.0" encoding="UTF-8"?>
<svg width="24px" height="24px" viewBox="0 0 24 24" version="1.1" xmlns="http://www.w3.org/2000/svg" xmlns:xlink="http://www.w3.org/1999/xlink">
    <title>2EC3CE3D-37EC-4500-A06A-1CC96F5159D3</title>
    <g id="Master-mfast" stroke="none" stroke-width="1" fill="none" fill-rule="evenodd">
        <g id="Contest-sau-tết-2.2" transform="translate(-64.000000, -52.000000)" fill-rule="nonzero">
            <g id="Group" transform="translate(16.000000, 48.000000)">
                <g id="Group-22" transform="translate(0.000000, 2.000000)">
                    <g id="icon/nav/-GtKh" transform="translate(48.000000, 2.000000)">
                        <path d="M18,0 C15.1596784,0 12.8571429,2.30253557 12.8571429,5.14285714 C12.8571429,7.98317871 15.1596784,10.2857143 18,10.2857143 C19.7892604,10.2857143 21.3651074,9.37198317 22.286376,7.98568607 L22.2857143,21.4285714 C22.2857143,22.8487322 21.1344465,24 19.7142857,24 L4.28571429,24 C2.8655535,24 1.71428571,22.8487322 1.71428571,21.4285714 L1.71428571,2.57142857 C1.71428571,1.15126779 2.8655535,-1.03972617e-14 4.28571429,-1.0658141e-14 Z M19.2857143,19.7142857 L4.71428571,19.7142857 C4.47759225,19.7142857 4.28571429,19.9061637 4.28571429,20.1428571 C4.28571429,20.3795506 4.47759225,20.5714286 4.71428571,20.5714286 L4.71428571,20.5714286 L19.2857143,20.5714286 C19.5224077,20.5714286 19.7142857,20.3795506 19.7142857,20.1428571 C19.7142857,19.9061637 19.5224077,19.7142857 19.2857143,19.7142857 L19.2857143,19.7142857 Z M15.8571429,16.2857143 L4.71428571,16.2857143 C4.47759225,16.2857143 4.28571429,16.4775923 4.28571429,16.7142857 C4.28571429,16.9509792 4.47759225,17.1428571 4.71428571,17.1428571 L4.71428571,17.1428571 L15.8571429,17.1428571 C16.0938363,17.1428571 16.2857143,16.9509792 16.2857143,16.7142857 C16.2857143,16.4775923 16.0938363,16.2857143 15.8571429,16.2857143 L15.8571429,16.2857143 Z M19.2857143,12.8571429 L4.71428571,12.8571429 C4.47759225,12.8571429 4.28571429,13.0490208 4.28571429,13.2857143 C4.28571429,13.5224077 4.47759225,13.7142857 4.71428571,13.7142857 L4.71428571,13.7142857 L19.2857143,13.7142857 C19.5224077,13.7142857 19.7142857,13.5224077 19.7142857,13.2857143 C19.7142857,13.0490208 19.5224077,12.8571429 19.2857143,12.8571429 L19.2857143,12.8571429 Z M9.11117415,7.2187013 L6.04042696,7.2187013 L5.89651324,7.22506604 C4.99472878,7.30516456 4.28571429,8.13133392 4.28571429,9.1387013 L4.28571429,9.1387013 L4.28571429,10.0987013 L10.8658868,10.0987013 L10.8658868,9.1387013 L10.86007,8.98123145 C10.7868669,7.99450228 10.0318202,7.2187013 9.11117415,7.2187013 L9.11117415,7.2187013 Z M7.57580056,2.57142857 C6.60669951,2.57142857 5.82108788,3.43104185 5.82108788,4.49142857 C5.82108788,5.55181529 6.60669951,6.41142857 7.57580056,6.41142857 C8.54490161,6.41142857 9.33051324,5.55181529 9.33051324,4.49142857 C9.33051324,3.43104185 8.54490161,2.57142857 7.57580056,2.57142857 Z" id="Combined-Shape" fill="#233A95"></path>
                        <path d="M20.329926,1.430461 L22.0735485,3.18260626 L17.6599585,7.61781097 L15.9173246,5.86566571 L20.329926,1.430461 Z M23.3966207,1.00788374 L22.6190321,0.226487114 C22.318521,-0.0754957047 21.8305531,-0.0754957047 21.5290209,0.226487114 L20.7841689,0.974986944 L22.5277914,2.72714849 L23.3966207,1.85406425 C23.6296979,1.61982929 23.6296979,1.24210242 23.3966207,1.00788374 Z M15.0048521,8.32844691 C14.9731204,8.47195511 15.1020567,8.60054576 15.2448818,8.56564584 L17.1878564,8.0922414 L15.4452225,6.34009614 L15.0048521,8.32844691 Z" id="Shape" fill="#1F389B"></path>
                    </g>
                </g>
            </g>
        </g>
    </g>
</svg>