<?xml version="1.0" encoding="UTF-8"?>
<svg width="24px" height="24px" viewBox="0 0 24 24" version="1.1" xmlns="http://www.w3.org/2000/svg" xmlns:xlink="http://www.w3.org/1999/xlink">
    <title>156817CA-AE01-48B5-A4B6-7A2FDC519C3C</title>
    <g id="Master-mfast" stroke="none" stroke-width="1" fill="none" fill-rule="evenodd">
        <g id="Contest-sau-tết-2.2" transform="translate(-112.000000, -52.000000)">
            <g id="Group" transform="translate(16.000000, 48.000000)">
                <g id="Group-22" transform="translate(0.000000, 2.000000)">
                    <g id="icon/buy/15" transform="translate(96.000000, 2.000000)">
                        <rect id="Rectangle" x="0" y="0" width="24" height="24"></rect>
                        <g id="user-list" fill="#1433A7" fill-rule="nonzero">
                            <path d="M22.7887217,6.29062339 C23.1295642,6.29062339 23.4545394,6.42933898 23.6840691,6.67250063 C23.9135987,6.91566228 24.026365,7.24104742 23.9947517,7.56865481 L23.9947517,7.56865481 L22.8434697,22.938814 C22.7854514,23.5401099 22.2629232,24 21.6374397,24 L21.6374397,24 L2.36252037,24 C1.73703692,24 1.21450872,23.5402268 1.1564904,22.938814 L1.1564904,22.938814 L0.00520841076,7.56865481 C-0.0264049086,7.24104742 0.0863613761,6.91566228 0.315891032,6.67250063 C0.545420687,6.42933898 0.870517044,6.29062339 1.21123837,6.29062339 L1.21123837,6.29062339 Z M14.2,15.8571429 L9.8,15.8571429 C8.41139834,15.8571429 7.28571429,17.3921666 7.28571429,19.2857143 L7.28571429,21 L16.7142857,21 L16.7142857,19.2857143 C16.7142857,17.3921666 15.5886017,15.8571429 14.2,15.8571429 Z M11.9999801,9.42857143 C10.5798193,9.42857143 9.42855149,10.5798392 9.42855149,12 C9.42855149,13.4201608 10.5798193,14.5714286 11.9999801,14.5714286 C13.4201408,14.5714286 14.5714086,13.4201608 14.5714086,12 C14.5714086,10.5798392 13.4201408,9.42857143 11.9999801,9.42857143 Z M20.7856943,3 C21.1407345,3 21.4285515,3.28781695 21.4285515,3.64285714 C21.4285515,3.99789734 21.1407345,4.28571429 20.7856943,4.28571429 L3.21426577,4.28571429 C2.85922558,4.28571429 2.57140863,3.99789734 2.57140863,3.64285714 C2.57140863,3.28781695 2.85922558,3 3.21426577,3 L20.7856943,3 Z M18.2142658,-3.90798505e-14 C18.569306,-3.9034048e-14 18.8571229,0.287816947 18.8571229,0.642857143 C18.8571229,0.997897339 18.569306,1.28571429 18.2142658,1.28571429 L5.78569434,1.28571429 C5.43065415,1.28571429 5.1428372,0.997897339 5.1428372,0.642857143 C5.1428372,0.287816947 5.43065415,-3.89036083e-14 5.78569434,-3.90798505e-14 L18.2142658,-3.90798505e-14 Z" id="Combined-Shape"></path>
                        </g>
                    </g>
                </g>
            </g>
        </g>
    </g>
</svg>