<?xml version="1.0" encoding="UTF-8"?>
<svg width="180px" height="180px" viewBox="0 0 180 180" version="1.1" xmlns="http://www.w3.org/2000/svg" xmlns:xlink="http://www.w3.org/1999/xlink">
    <title>A381E721-71B2-4A2E-A08E-68321AE5B1AD</title>
    <defs>
        <linearGradient x1="44.2376383%" y1="12.1219405%" x2="60.3433543%" y2="117.962585%" id="linearGradient-1">
            <stop stop-color="#E38250" offset="6%"></stop>
            <stop stop-color="#BD6E50" offset="45%"></stop>
            <stop stop-color="#572600" offset="100%"></stop>
        </linearGradient>
        <linearGradient x1="49.482779%" y1="4.34607648%" x2="51.5866896%" y2="101.205041%" id="linearGradient-2">
            <stop stop-color="#E38250" offset="6%"></stop>
            <stop stop-color="#BD6E50" offset="45%"></stop>
            <stop stop-color="#572600" offset="100%"></stop>
        </linearGradient>
        <linearGradient x1="50.5140639%" y1="4.35021363%" x2="48.4183748%" y2="101.209178%" id="linearGradient-3">
            <stop stop-color="#E38250" offset="6%"></stop>
            <stop stop-color="#BD6E50" offset="45%"></stop>
            <stop stop-color="#572600" offset="100%"></stop>
        </linearGradient>
        <linearGradient x1="47.7920723%" y1="-2.26038532%" x2="51.9710535%" y2="96.6717737%" id="linearGradient-4">
            <stop stop-color="#E38250" offset="6%"></stop>
            <stop stop-color="#BD6E50" offset="45%"></stop>
            <stop stop-color="#572600" offset="100%"></stop>
        </linearGradient>
        <linearGradient x1="58.5886342%" y1="91.422687%" x2="45.1444107%" y2="26.5341558%" id="linearGradient-5">
            <stop stop-color="#E38250" offset="6%"></stop>
            <stop stop-color="#BD6E50" offset="45%"></stop>
            <stop stop-color="#572600" offset="100%"></stop>
        </linearGradient>
        <radialGradient cx="50%" cy="45.172481%" fx="50%" fy="45.172481%" r="55.6822031%" gradientTransform="translate(0.500000,0.451725),scale(0.931413,1.000000),rotate(100.051695),translate(-0.500000,-0.451725)" id="radialGradient-6">
            <stop stop-color="#FFFFFF" offset="0%"></stop>
            <stop stop-color="#FFFFFF" stop-opacity="0" offset="100%"></stop>
        </radialGradient>
    </defs>
    <g id="Master-mfast" stroke="none" stroke-width="1" fill="none" fill-rule="evenodd">
        <g id="Master-Mfast-1.5" transform="translate(-98.000000, -268.000000)" fill-rule="nonzero">
            <g id="Group-10" transform="translate(98.000000, 268.000000)">
                <g id="Master/-medal/-newcomer" transform="translate(3.000000, 3.000000)">
                    <polygon id="Path" fill="url(#linearGradient-1)" points="86.5642267 0 61.4152148 35.5596259 86.5642267 71.1221009 111.713239 35.5596259"></polygon>
                    <polygon id="Path" fill="#FFF6CC" opacity="0.49" style="mix-blend-mode: overlay;" points="86.5642267 3.37903344 110.519465 37.2519917 111.713239 35.5596259 86.5642267 0 61.4152148 35.5596259 62.608988 37.2519917"></polygon>
                    <polygon id="Path" fill="#723600" opacity="0.44" points="111.570784 35.5596259 86.7465692 0.256419063 86.5813213 70.897022"></polygon>
                    <polygon id="Path" fill="#FFF6CC" opacity="0.49" style="mix-blend-mode: overlay;" points="86.7465692 0.256419063 86.5642267 0 62.1901702 34.4655712 84.0380203 18.3210478 86.5 43.6973173"></polygon>
                    <polygon id="Path" fill="#FFF6CC" opacity="0.900000036" points="85.0570525 28.1804551 86.5813213 45.7140584 87.7670813 28.1804551 86.7465692 0.256419063"></polygon>
                    <path d="M70.3556928,171.230952 C70.3556928,171.230952 58.2441657,177.091553 37.1437259,168.755084 C16.0432861,160.418615 9.33365391,149.406841 9.33365391,149.406841 L20.567658,142.853909 C20.567658,142.853909 8.86070319,133.688352 4.17393253,116.756147 C-0.512838127,99.8239414 0.0227928056,97.6842668 0.0227928056,97.6842668 L10.4419541,97.6842668 C10.4419541,97.6842668 7.30794331,94.0744562 13.0460321,75.5809435 C18.784121,57.0874308 24.2486961,53.4605256 24.2486961,53.4605256 L32.0637793,61.5405752 C32.0637793,61.5405752 35.448511,53.2098048 44.0470969,45.916107 C52.6456828,38.6224092 61.5006878,35.4997948 61.5006878,35.4997948 L72.851505,50.3777987 L70.3556928,171.230952 Z" id="Path" fill="url(#linearGradient-2)"></path>
                    <g id="Group" opacity="0.6" style="mix-blend-mode: overlay;" transform="translate(0.000000, 35.328849)" fill="#FFF6CC">
                        <path d="M6.07998091,84.3789665 C1.39036114,67.446761 1.92884118,65.3982576 1.92884118,65.3982576 L12.3480025,65.3982576 C12.3480025,65.3982576 9.21399168,61.6944267 14.9520805,43.2037631 C20.6901693,24.7130995 26.1547445,21.0349105 26.1547445,21.0349105 L33.9698277,29.0978655 C33.9698277,29.0978655 37.3545593,20.7556986 45.9531453,13.4620008 C51.040728,9.1697274 56.7744646,5.70813898 62.9423328,3.20523829 L61.5006878,0.170946042 C61.5006878,0.170946042 52.6428337,3.30495682 44.0470969,10.5901073 C35.4513601,17.8752578 32.0637793,26.2202738 32.0637793,26.2202738 L24.2486961,18.1459224 C24.2486961,18.1459224 18.7784227,21.755733 13.0460321,40.2520948 C7.31364151,58.7484565 10.4419541,62.355418 10.4419541,62.355418 L0.0227928056,62.355418 C0.0227928056,62.355418 -0.515687228,64.4950927 4.17393253,81.4272982 C5.87633656,87.526966 8.62787806,93.2836073 12.3052659,98.4392785 C9.56236805,94.0775675 7.46551637,89.3416576 6.07998091,84.3789665 Z" id="Path"></path>
                        <path d="M23.992277,107.205961 C23.992277,107.205961 23.707367,106.747256 19.8268918,107.966671 L9.33365391,114.077992 C9.97015899,115.04493 10.6827957,115.959544 11.4647812,116.813129 L23.992277,107.205961 Z" id="Path"></path>
                    </g>
                    <path d="M72.851505,50.3806478 L61.5006878,35.5026439 C61.5006878,35.5026439 52.6428337,38.6366547 44.0470969,45.9246543 C35.4513601,53.2126539 32.0637793,61.5405752 32.0637793,61.5405752 L24.2486961,53.4747711 C24.2486961,53.4747711 18.7784227,57.0845817 13.0460321,75.5809435 C7.31364151,94.0773053 10.4419541,97.6842668 10.4419541,97.6842668 L0.0227928056,97.6842668 C0.0227928056,97.6842668 -0.515687228,99.8239414 4.17393253,116.756147 C8.86355229,133.688352 20.567658,142.848211 20.567658,142.848211 L9.33365391,149.401143 C9.33365391,149.401143 11.5531034,153.033746 17.427949,157.700573 C35.3030333,161.765456 54.0504399,159.058106 70.0451408,150.102022 L72.851505,50.3806478 Z" id="Path" fill="#FFF6CC" opacity="0.23" style="mix-blend-mode: overlay;"></path>
                    <path d="M69.6491158,123.226455 L72.851505,50.3806478 L61.5006878,35.5026439 C61.5006878,35.5026439 52.6428337,38.6366547 44.0470969,45.9246543 C35.4513601,53.2126539 32.0637793,61.5405752 32.0637793,61.5405752 L24.2486961,53.4747711 C24.2486961,53.4747711 18.7784227,57.0845817 13.0460321,75.5809435 C7.31364151,94.0773053 10.4419541,97.6842668 10.4419541,97.6842668 L0.0227928056,97.6842668 C0.0227928056,97.6842668 -0.515687228,99.8239414 4.17393253,116.756147 C4.39616239,117.562442 4.63833595,118.360191 4.89190591,119.129448 C23.5065901,133.877669 49.3241398,135.511073 69.6491158,123.226455 L69.6491158,123.226455 Z" id="Path" fill="#FFF6CC" opacity="0.35" style="mix-blend-mode: overlay;"></path>
                    <path d="M69.2559399,96.4591535 L72.851505,50.3806478 L61.5006878,35.5026439 C61.5006878,35.5026439 52.6428337,38.6366547 44.0470969,45.9246543 C35.4513601,53.2126539 32.0637793,61.5405752 32.0637793,61.5405752 L24.2486961,53.4747711 C24.2486961,53.4747711 18.9322742,57.0247506 13.2910548,74.8430264 C23.2616313,95.7497921 47.8204289,105.235492 69.2559399,96.4591535 Z" id="Path" fill="#FFF6CC" opacity="0.35" style="mix-blend-mode: overlay;"></path>
                    <path d="M37.8759448,52.2582051 C43.4596391,63.7568249 56.5582365,69.5091062 68.8029329,65.8398682 L72.851505,50.3806478 L61.5006878,35.5026439 C61.5006878,35.5026439 52.6428337,38.6366547 44.0470969,45.9246543 C41.7957035,47.8373454 39.7295229,49.9578992 37.8759448,52.2582051 L37.8759448,52.2582051 Z" id="Path" fill="#FFF6CC" opacity="0.2" style="mix-blend-mode: overlay;"></path>
                    <g id="Group" opacity="0.49" style="mix-blend-mode: overlay;" transform="translate(0.000000, 92.310863)" fill="#FFF6CC">
                        <path d="M10.4419541,3.54428128 C10.4419541,3.54428128 9.78096272,2.76932589 9.62426218,0.125360431 C9.56159998,1.26571397 9.59400173,2.40930518 9.72113161,3.54428128 L10.4419541,3.54428128 Z" id="Path"></path>
                        <path d="M37.1437259,74.0566746 C21.0235141,67.6889346 13.3109985,59.7684346 10.5644654,56.3922503 L9.33365391,57.1073745 C9.33365391,57.1073745 16.0432861,68.0935069 37.1437259,76.4385228 C58.2441657,84.7835388 70.3556928,78.9200895 70.3556928,78.9200895 L70.3215036,76.5524869 C69.6006811,76.8772843 57.5945708,82.1367242 37.1437259,74.0566746 Z" id="Path"></path>
                        <path d="M20.5135251,50.5515938 L24.0065225,49.9817737 C24.0065225,49.9817737 8.84075949,38.9927923 4.15113973,22.0605868 C1.53851438,12.6727999 0.569820141,7.80938503 0.213682553,5.37340393 L0.0227928056,5.37340393 C0.0227928056,5.37340393 -0.547027335,7.51307856 4.13689422,24.4452841 C7.74955392,37.4913162 16.1316082,47.0471999 20.5135251,50.5515938 Z" id="Path"></path>
                    </g>
                    <path d="M101.482118,171.230952 C101.482118,171.230952 113.593645,177.091553 134.694085,168.755084 C155.794525,160.418615 162.504157,149.412539 162.504157,149.412539 L151.270153,142.859608 C151.270153,142.859608 162.974259,133.685503 167.663878,116.753298 C172.353498,99.8210923 171.815018,97.6814177 171.815018,97.6814177 L161.395857,97.6814177 C161.395857,97.6814177 164.529868,94.0716071 158.791779,75.5780944 C153.05369,57.0845817 147.583417,53.4605256 147.583417,53.4605256 L139.774032,61.5405752 C139.774032,61.5405752 136.3893,53.2098048 127.790714,45.916107 C119.192128,38.6224092 110.339972,35.4997948 110.339972,35.4997948 L99.2712159,50.3777987 L101.482118,171.230952 Z" id="Path" fill="url(#linearGradient-3)"></path>
                    <g id="Group" opacity="0.6" style="mix-blend-mode: overlay;" transform="translate(108.835647, 35.328849)" fill="#FFF6CC">
                        <path d="M56.922183,84.3789665 C61.6118028,67.446761 61.0733227,65.3982576 61.0733227,65.3982576 L50.6541614,65.3982576 C50.6541614,65.3982576 53.7881722,61.6944267 48.0500834,43.2037631 C42.3119946,24.7130995 36.8474194,21.0349105 36.8474194,21.0349105 L29.0323362,29.0978655 C29.0323362,29.0978655 25.6419063,20.7556986 17.0490186,13.4620008 C11.9609344,9.17042691 6.22731382,5.70890852 0.0598311148,3.20523829 L1.50432517,0.170946042 C1.50432517,0.170946042 10.3593302,3.30495682 18.955067,10.5901073 C27.5508038,17.8752578 30.9383846,26.2202738 30.9383846,26.2202738 L38.7477696,18.1459224 C38.7477696,18.1459224 44.2180429,21.755733 49.9504336,40.2520948 C55.6828242,58.7484565 52.5545116,62.355418 52.5545116,62.355418 L62.9736729,62.355418 C62.9736729,62.355418 63.5121529,64.4950927 58.8225332,81.4272982 C57.1201291,87.526966 54.3685876,93.2836073 50.6911998,98.4392785 C53.4360867,94.0778956 55.5348643,89.3419708 56.922183,84.3789665 Z" id="Path"></path>
                        <path d="M39.0098869,107.205961 C39.0098869,107.205961 39.2947969,106.747256 43.1752721,107.966671 L53.66851,114.077992 C53.0317561,115.042964 52.3191252,115.955665 51.5373827,116.807431 L39.0098869,107.205961 Z" id="Path"></path>
                    </g>
                    <path d="M99.2712159,50.3806478 L110.339972,35.5026439 C110.339972,35.5026439 119.194977,38.6366547 127.790714,45.9246543 C136.386451,53.2126539 139.774032,61.5405752 139.774032,61.5405752 L147.583417,53.4747711 C147.583417,53.4747711 153.05369,57.0845817 158.786081,75.5809435 C164.518471,94.0773053 161.390159,97.6842668 161.390159,97.6842668 L171.80932,97.6842668 C171.80932,97.6842668 172.3478,99.8239414 167.65818,116.756147 C162.96856,133.688352 151.264455,142.848211 151.264455,142.848211 L162.498459,149.401143 C162.498459,149.401143 160.279009,153.033746 154.404164,157.700573 C136.529079,161.765456 117.781673,159.058106 101.786972,150.102022 L99.2712159,50.3806478 Z" id="Path" fill="#FFF6CC" opacity="0.23" style="mix-blend-mode: overlay;"></path>
                    <path d="M102.188695,123.226455 L99.2712159,50.3806478 L110.339972,35.5026439 C110.339972,35.5026439 119.194977,38.6366547 127.790714,45.9246543 C136.386451,53.2126539 139.774032,61.5405752 139.774032,61.5405752 L147.583417,53.4747711 C147.583417,53.4747711 153.05369,57.0845817 158.786081,75.5809435 C164.518471,94.0773053 161.390159,97.6842668 161.390159,97.6842668 L171.80932,97.6842668 C171.80932,97.6842668 172.3478,99.8239414 167.65818,116.756147 C167.43595,117.562442 167.190928,118.360191 166.940207,119.129448 C148.325522,133.877669 122.507973,135.511073 102.182997,123.226455 L102.188695,123.226455 Z" id="Path" fill="#FFF6CC" opacity="0.35" style="mix-blend-mode: overlay;"></path>
                    <path d="M102.581871,96.4591535 L99.2712159,50.3806478 L110.339972,35.5026439 C110.339972,35.5026439 119.194977,38.6366547 127.790714,45.9246543 C136.386451,53.2126539 139.774032,61.5405752 139.774032,61.5405752 L147.583417,53.4747711 C147.583417,53.4747711 152.899838,57.0247506 158.541058,74.8430264 C148.570481,95.7497921 124.011684,105.235492 102.576173,96.4591535 L102.581871,96.4591535 Z" id="Path" fill="#FFF6CC" opacity="0.35" style="mix-blend-mode: overlay;"></path>
                    <path d="M133.961866,52.2582051 C128.377093,63.7572557 115.277524,69.5094338 103.032029,65.8398682 L99.2712159,50.3806478 L110.339972,35.5026439 C110.339972,35.5026439 119.194977,38.6366547 127.790714,45.9246543 C130.041406,47.8380966 132.107519,49.9585812 133.961866,52.2582051 L133.961866,52.2582051 Z" id="Path" fill="#FFF6CC" opacity="0.2" style="mix-blend-mode: overlay;"></path>
                    <g id="Group" opacity="0.49" style="mix-blend-mode: overlay;" transform="translate(101.427985, 92.310863)" fill="#FFF6CC">
                        <path d="M59.9678716,3.54428128 C59.9678716,3.54428128 60.628863,2.76932589 60.7855636,0.125360431 C60.8482258,1.26571397 60.815824,2.40930518 60.6886941,3.54428128 L59.9678716,3.54428128 Z" id="Path"></path>
                        <path d="M33.2660998,74.0566746 C49.3863116,67.6889346 57.0988272,59.7684346 59.8453603,56.3922503 L61.0761718,57.1073745 C61.0761718,57.1073745 54.3665397,68.0935069 33.2660998,76.4385228 C12.16566,84.7835388 0.0541329134,78.9200895 0.0541329134,78.9200895 L0.0883221219,76.5524869 C0.8091446,76.8772843 12.8209532,82.1367242 33.2660998,74.0566746 Z" id="Path"></path>
                        <path d="M49.9105462,50.5515938 L46.4175487,49.9817737 C46.4175487,49.9817737 61.5833117,38.9927923 66.2729315,22.0605868 C68.8713114,12.6585544 69.8286092,7.81508324 70.1961432,5.37055483 L70.3870329,5.37055483 C70.3870329,5.37055483 70.9568531,7.51022946 66.2729315,24.442435 C62.6574227,37.4913162 54.2782175,47.0471999 49.9105462,50.5515938 Z" id="Path"></path>
                    </g>
                    <path d="M86.7437201,46.2209607 C50.5401974,46.2209607 21.191611,74.7547043 21.191611,109.952494 C21.191611,145.150285 50.5373483,173.689726 86.7437201,173.689726 C122.950092,173.689726 152.295829,145.150285 152.295829,109.952494 C152.295829,74.7547043 122.944394,46.2209607 86.7437201,46.2209607 Z" id="Path" fill="url(#linearGradient-4)"></path>
                    <path d="M86.5471321,170.832078 C50.8336548,170.832078 21.7956204,143.061894 21.0178159,108.522246 C21.0178159,108.998046 21.0007213,109.473846 21.0007213,109.946796 C21.0007213,145.144586 50.3464586,173.684028 86.5528303,173.684028 C122.759202,173.684028 152.096392,145.150285 152.096392,109.952494 C152.096392,109.473846 152.096392,108.998046 152.079297,108.527944 C151.287247,143.061894 122.254911,170.832078 86.5471321,170.832078 Z" id="Path" fill="#FFB797"></path>
                    <path d="M86.7437201,46.2209607 C50.5401974,46.2209607 21.191611,74.7547043 21.191611,109.952494 C21.191611,110.730299 21.2258003,111.491009 21.2571404,112.263115 C37.9528705,126.82202 60.9422641,135.825178 86.3192041,135.825178 C112.140604,135.825178 135.488984,126.500071 152.250243,111.485311 C152.250243,110.972472 152.295829,110.468182 152.295829,109.952494 C152.295829,74.7547043 122.944394,46.2209607 86.7437201,46.2209607 Z" id="Path" fill="#FFF6CC" opacity="0.35" style="mix-blend-mode: overlay;"></path>
                    <path d="M139.056058,71.3813691 C127.089835,56.0987929 108.171806,46.2209607 86.883326,46.2209607 C65.4324468,46.2209607 46.3862086,56.2469461 34.4285329,71.7289594 C49.2438566,80.6267009 67.1647,85.8377061 86.45881,85.8377061 C106.009339,85.8377061 124.12677,80.4927931 139.056058,71.3813691 Z" id="Path" fill="#FFF6CC" opacity="0.49" style="mix-blend-mode: overlay;"></path>
                    <path d="M86.7437201,49.8592623 C122.311893,49.8592623 151.24736,77.4214626 152.244545,111.767372 C152.264489,111.163362 152.295829,110.556504 152.295829,109.943947 C152.295829,74.746157 122.950092,46.2124134 86.7437201,46.2124134 C50.5373483,46.2124134 21.1944601,74.7547043 21.1944601,109.952494 C21.1944601,110.565051 21.2258003,111.17191 21.2428949,111.775919 C22.2400801,77.4300099 51.1698487,49.8592623 86.7437201,49.8592623 Z" id="Path" fill="#FFF6CC" opacity="0.49" style="mix-blend-mode: overlay;"></path>
                    <path d="M77.9399989,50.4119879 C80.9913858,50.1755125 84.1367929,51.3379456 82.6125241,52.6656265 C81.0882552,53.9933075 70.7688124,59.9422297 66.2700824,56.2640407 C61.7713524,52.5858517 74.3615284,50.6855016 77.9399989,50.4119879 Z" id="Path" fill="#FFFAE6"></path>
                    <path d="M42.4743933,66.6148236 C32.9242078,74.6464385 25.2059939,89.4959514 25.3997328,98.171463 C25.5934716,106.846975 30.2289585,93.2368206 32.6222031,88.2993291 C35.0154477,83.3618375 46.9788215,68.3071894 55.6514841,63.7543265 C64.3241466,59.2014636 57.4093792,54.0502895 42.4743933,66.6148236 Z" id="Path" fill="#FFFAE6"></path>
                    <path d="M86.7494183,62.4978731 C59.8282657,62.4978731 38.0070034,83.7179751 38.0070034,109.886965 C38.0070034,136.055955 59.8311148,157.270359 86.7494183,157.270359 C113.667722,157.270359 135.46904,136.053106 135.46904,109.881267 C135.46904,83.7094278 113.679118,62.4978731 86.7494183,62.4978731 Z" id="Path" fill="url(#linearGradient-5)"></path>
                    <g id="Master-mfast" opacity="0.8" transform="translate(49.004532, 86.897572)" fill="#FFFFFF">
                        <g id="Logo_-CHplay-notifi" opacity="0.900000036">
                            <path d="M46.1867715,2.84910074 C45.4503666,2.84910074 44.8533924,2.25212657 44.8533924,1.51572161 C44.8533924,0.779316654 45.4503666,0.182342483 46.1867715,0.182342483 L65.1532349,0.182342483 L57.4863049,43.9103401 L47.0101616,43.9103401 L48.6113562,32.6222031 L53.1157845,12.8636897 L37.8930394,43.9103401 L30.9839702,43.9103401 L28.7930117,30.1121454 L31.2062,30.1121454 C31.886637,30.1131425 32.4581806,29.6005969 32.5310319,28.9240704 L32.5310319,28.7787663 C32.5310319,28.0423613 31.9340577,27.4453871 31.1976527,27.4453871 L28.348552,27.4453871 L25.943911,12.2938696 L24.9353294,20.1858785 L24.8270635,20.1858785 L21.559145,20.1858785 C20.8227401,20.1858785 20.2257659,20.7828527 20.2257659,21.5192577 C20.2257659,22.2556626 20.8227401,22.8526368 21.559145,22.8526368 L24.613381,22.8526368 L23.1631887,34.2176995 L22.8383913,36.0354258 L17.5675549,36.0354258 C16.8870262,36.035583 16.3153271,36.5471678 16.239874,37.2235008 L16.239874,37.3688049 C16.239874,38.1052099 16.8368482,38.702184 17.5732532,38.702184 L22.3654405,38.702184 L21.4337846,43.9160383 L11.0231706,43.9160383 L12.872237,33.3743657 L4.57565573,33.3743657 C3.83925077,33.3743657 3.2422766,32.7773915 3.2422766,32.0409866 C3.2422766,31.3045816 3.83925077,30.7076074 4.57565573,30.7076074 L13.3394895,30.7076074 L14.0061791,26.904058 L9.64990409,26.904058 C8.91349913,26.904058 8.31652496,26.3070838 8.31652496,25.5706789 C8.31652496,24.8342739 8.91349913,24.2372997 9.64990409,24.2372997 L14.4734316,24.2372997 L15.4307294,18.784121 L5.658314,18.784121 C4.92190904,18.784121 4.32493487,18.1871468 4.32493487,17.4507419 C4.32493487,16.7143369 4.92190904,16.1173627 5.658314,16.1173627 L15.8979819,16.1173627 L16.8239397,10.8522246 L13.778251,10.8522246 C13.0418461,10.8522246 12.4448719,10.2552505 12.4448719,9.5188455 C12.4448719,8.78244054 13.0418461,8.18546636 13.778251,8.18546636 L33.3173836,8.18546636 L33.8701092,12.1457163 L33.8558637,12.1457163 L33.7105595,12.1457163 L30.9640265,12.1457163 C30.2276215,12.1457163 29.6306473,12.7426905 29.6306473,13.4790955 C29.6306473,14.2155004 30.2276215,14.8124746 30.9640265,14.8124746 L33.7105595,14.8124746 C33.8875077,14.8123275 34.0627095,14.7774807 34.2262468,14.709907 L36.4286016,30.5281141 L47.360601,8.19686277 L40.5028156,8.19686277 C40.0122577,8.21955701 39.5489321,7.97076806 39.2968666,7.54931211 C39.0448011,7.12785616 39.0448011,6.60196022 39.2968666,6.18050427 C39.5489321,5.75904832 40.0122577,5.51025937 40.5028156,5.53295361 L51.3692857,5.53295361 C52.1056907,5.53295361 52.7026648,4.93597944 52.7026648,4.19957448 C52.7026648,3.46316952 52.1056907,2.86619535 51.3692857,2.86619535 L46.1867715,2.86619535 L46.1867715,2.84910074 Z M6.91761651,36.0297276 C7.65402147,36.0297276 8.25099564,36.6267017 8.25099564,37.3631067 C8.25099564,38.0995116 7.65402147,38.6964858 6.91761651,38.6964858 L5.79222173,38.6964858 C5.05581677,38.6964858 4.4588426,38.0995116 4.4588426,37.3631067 C4.4588426,36.6267017 5.05581677,36.0297276 5.79222173,36.0297276 L6.91761651,36.0297276 Z M8.60713323,8.13988075 C9.34353819,8.13988075 9.94051236,8.73685492 9.94051236,9.47325988 C9.94051236,10.2096648 9.34353819,10.806639 8.60713323,10.806639 L1.52996708,10.806639 C0.79356212,10.806639 0.196587949,10.2096648 0.196587949,9.47325988 C0.196587949,8.73685492 0.79356212,8.13988075 1.52996708,8.13988075 L8.60713323,8.13988075 Z M31.2745784,2.84910074 C32.0109834,2.84910074 32.6079576,3.44607491 32.6079576,4.18247987 C32.6079576,4.91888483 32.0109834,5.515859 31.2745784,5.515859 L17.3624197,5.515859 C16.6260147,5.515859 16.0290406,4.91888483 16.0290406,4.18247987 C16.0290406,3.44607491 16.6260147,2.84910074 17.3624197,2.84910074 L31.2745784,2.84910074 Z" id="Combined-Shape"></path>
                        </g>
                    </g>
                    <g id="Group" opacity="0.35" style="mix-blend-mode: overlay;" transform="translate(35.043939, 60.116025)" fill="#FFF6CC">
                        <path d="M51.6257048,100.316836 C23.2458127,100.316836 0.156700539,77.8402804 0.156700539,50.2125508 C0.156700539,22.5848213 23.2344163,0.108265827 51.6257048,0.108265827 C80.0169933,0.108265827 103.089011,22.5848213 103.089011,50.2125508 C103.089011,77.8402804 80.0027478,100.316836 51.6257048,100.316836 Z M51.6257048,4.65827965 C25.7530213,4.65827965 4.70386526,25.0920299 4.70386526,50.2125508 C4.70386526,75.3330718 25.7530213,95.7696711 51.6257048,95.7696711 C77.4983883,95.7696711 98.538997,75.3330718 98.538997,50.2125508 C98.538997,25.0920299 77.4955392,4.65827965 51.6257048,4.65827965 Z" id="Shape"></path>
                    </g>
                    <path d="M86.7494183,62.4975179 C73.0947835,62.4460484 60.0320042,68.0678211 50.6826524,78.0197737 C59.7803953,69.8249719 71.6019205,65.3086212 83.8461847,65.3498229 C110.75879,65.3498229 132.565807,86.5642267 132.565807,112.736066 C132.560042,124.589273 128.026831,135.992621 119.893007,144.614654 C129.477382,135.959086 135.469047,123.608234 135.469047,109.886965 C135.483286,83.7179751 113.679118,62.4975179 86.7494183,62.4975179 Z" id="Path" fill="#B06518"></path>
                    <path d="M56.3894012,137.919267 C56.3894012,107.33702 78.2106635,90.533024 105.126118,90.533024 C115.655065,90.5021537 125.918625,93.8351654 134.420571,100.046171 C129.762292,78.5981412 110.186121,62.4978731 86.7380219,62.4978731 C59.8225675,62.4978731 38.0183998,83.7179751 38.0183998,109.886965 C38.0183998,125.374677 45.6539897,139.118738 57.460663,147.780004 C56.7547289,144.54041 56.3956188,141.234878 56.3894012,137.919267 Z" id="Path" fill="#723600" opacity="0.44"></path>
                    <path d="M86.7494183,154.706168 C60.3012164,154.706168 38.7905061,134.192643 38.0497399,108.661852 C38.0297962,109.114859 38.0070034,109.565017 38.0070034,110.023722 C38.0070034,136.187014 59.8311148,157.412814 86.7494183,157.412814 C113.667722,157.412814 135.46904,136.19841 135.46904,110.023722 C135.46904,109.565017 135.449097,109.114859 135.434851,108.661852 C134.702632,134.192643 113.19762,154.706168 86.7494183,154.706168 Z" id="Path" fill="#FFB797"></path>
                    <path d="M69.8029673,44.2493831 C62.5691006,44.2493831 56.697104,49.7139582 56.697104,56.4577796 C56.697104,63.2016009 62.5691006,68.663327 69.8029673,68.663327 C77.036834,68.663327 82.9088305,63.1959027 82.9088305,56.4663269 C82.9088305,49.736751 77.036834,44.2493831 69.8029673,44.2493831 Z" id="Path" fill="url(#radialGradient-6)"></path>
                    <path d="M57.8367443,72.5153112 C61.3525346,68.5693067 71.6919211,56.4577796 71.6919211,56.4577796 C71.6919211,56.4577796 80.3303944,40.2492457 80.5383787,39.7933896 C80.5982099,39.6623309 69.5009626,55.0332292 69.5009626,55.0332292 L57.8367443,72.5153112 Z" id="Path" fill="#FFFFFF" opacity="0.7"></path>
                    <path d="M72.652068,53.5630933 C69.4667734,51.0701301 70.0451408,44.0670406 70.0194989,42.0840665 L70.0194989,43.9844167 C70.0194989,43.6795629 69.9967061,43.3519163 69.9967061,43.2806888 L69.9967061,42.0840665 C69.9860762,42.9225038 69.9270968,43.7596301 69.8200619,44.5912751 C69.8200619,44.5912751 68.8855569,51.6228557 67.1988892,53.075897 C63.4038871,56.4064958 53.8508524,55.762599 57.5119468,55.8509211 C69.8827421,56.1158875 69.8827421,68.1903763 69.993857,72.1506263 L69.993857,70.1562558 C69.993857,70.2987108 70.0166498,70.418373 70.0166498,70.4896006 L70.0166498,72.1506263 C70.2787671,62.7742358 70.247427,56.8424082 81.0398205,56.0503582 C84.618291,55.7682972 76.3786917,56.4577796 72.652068,53.5630933 Z" id="Path" fill="#FFFFFF"></path>
                </g>
            </g>
        </g>
    </g>
</svg>