<?xml version="1.0" encoding="UTF-8"?>
<svg width="180px" height="180px" viewBox="0 0 180 180" version="1.1" xmlns="http://www.w3.org/2000/svg" xmlns:xlink="http://www.w3.org/1999/xlink">
    <title>8E54F8C0-64AB-4AD6-864A-AEA5B77AB543</title>
    <defs>
        <linearGradient x1="49.999192%" y1="10.6862595%" x2="49.999192%" y2="74.5059413%" id="linearGradient-1">
            <stop stop-color="#B5C0C9" offset="0%"></stop>
            <stop stop-color="#8F939C" offset="100%"></stop>
        </linearGradient>
        <linearGradient x1="50.0011811%" y1="10.6862595%" x2="50.0011811%" y2="74.5059413%" id="linearGradient-2">
            <stop stop-color="#B5C0C9" offset="0%"></stop>
            <stop stop-color="#8F939C" offset="100%"></stop>
        </linearGradient>
        <linearGradient x1="50%" y1="-16.9731202%" x2="50%" y2="88.6231623%" id="linearGradient-3">
            <stop stop-color="#B5C0C9" offset="0%"></stop>
            <stop stop-color="#8F939C" offset="100%"></stop>
        </linearGradient>
        <linearGradient x1="43.0871097%" y1="41.8692386%" x2="75.9324505%" y2="80.5183958%" id="linearGradient-4">
            <stop stop-color="#B5C0C9" offset="0%"></stop>
            <stop stop-color="#8F939C" offset="100%"></stop>
        </linearGradient>
        <linearGradient x1="0%" y1="49.995721%" x2="100%" y2="49.995721%" id="linearGradient-5">
            <stop stop-color="#B5C0C9" offset="0%"></stop>
            <stop stop-color="#8F939C" offset="100%"></stop>
        </linearGradient>
        <linearGradient x1="56.9094333%" y1="41.8702264%" x2="24.0660876%" y2="80.5146884%" id="linearGradient-6">
            <stop stop-color="#B5C0C9" offset="0%"></stop>
            <stop stop-color="#8F939C" offset="100%"></stop>
        </linearGradient>
        <linearGradient x1="50.3978619%" y1="36.2964536%" x2="49.383466%" y2="74.5077268%" id="linearGradient-7">
            <stop stop-color="#B5C0C9" offset="0%"></stop>
            <stop stop-color="#8F939C" offset="100%"></stop>
        </linearGradient>
        <linearGradient x1="49.9956541%" y1="3.13589629%" x2="49.9956541%" y2="72.0943228%" id="linearGradient-8">
            <stop stop-color="#B5C0C9" offset="0%"></stop>
            <stop stop-color="#8F939C" offset="100%"></stop>
        </linearGradient>
        <linearGradient x1="58.5715121%" y1="91.3984795%" x2="45.1312175%" y2="26.5478693%" id="linearGradient-9">
            <stop stop-color="#B5C0C9" offset="0%"></stop>
            <stop stop-color="#8F939C" offset="100%"></stop>
        </linearGradient>
        <radialGradient cx="50%" cy="45.172481%" fx="50%" fy="45.172481%" r="55.6822031%" gradientTransform="translate(0.500000,0.451725),scale(0.931413,1.000000),rotate(100.051695),translate(-0.500000,-0.451725)" id="radialGradient-10">
            <stop stop-color="#FFFFFF" offset="0%"></stop>
            <stop stop-color="#FFFFFF" stop-opacity="0" offset="100%"></stop>
        </radialGradient>
        <radialGradient cx="50%" cy="45.172481%" fx="50%" fy="45.172481%" r="101.609755%" gradientTransform="translate(0.500000,0.451725),scale(1.000000,0.839168),rotate(22.119704),translate(-0.500000,-0.451725)" id="radialGradient-11">
            <stop stop-color="#FFFFFF" offset="0%"></stop>
            <stop stop-color="#FFFFFF" stop-opacity="0.87847642" offset="30.4274375%"></stop>
            <stop stop-color="#FFFFFF" stop-opacity="0" offset="100%"></stop>
        </radialGradient>
        <linearGradient x1="43.0924747%" y1="41.8654201%" x2="75.935979%" y2="80.5117439%" id="linearGradient-12">
            <stop stop-color="#B5C0C9" offset="0%"></stop>
            <stop stop-color="#8F939C" offset="100%"></stop>
        </linearGradient>
        <linearGradient x1="0%" y1="50%" x2="100%" y2="50%" id="linearGradient-13">
            <stop stop-color="#B5C0C9" offset="0%"></stop>
            <stop stop-color="#8F939C" offset="100%"></stop>
        </linearGradient>
        <linearGradient x1="56.9115583%" y1="41.8732255%" x2="24.0711277%" y2="80.5123158%" id="linearGradient-14">
            <stop stop-color="#B5C0C9" offset="0%"></stop>
            <stop stop-color="#8F939C" offset="100%"></stop>
        </linearGradient>
        <linearGradient x1="50.3977539%" y1="36.3026065%" x2="49.3869911%" y2="74.5118244%" id="linearGradient-15">
            <stop stop-color="#B5C0C9" offset="0%"></stop>
            <stop stop-color="#8F939C" offset="100%"></stop>
        </linearGradient>
        <linearGradient x1="50%" y1="-332.394881%" x2="50%" y2="-50.3839122%" id="linearGradient-16">
            <stop stop-color="#B5C0C9" offset="0%"></stop>
            <stop stop-color="#8F939C" offset="100%"></stop>
        </linearGradient>
        <linearGradient x1="58.578125%" y1="91.3227112%" x2="45.140625%" y2="26.5724133%" id="linearGradient-17">
            <stop stop-color="#B5C0C9" offset="0%"></stop>
            <stop stop-color="#8F939C" offset="100%"></stop>
        </linearGradient>
    </defs>
    <g id="Master-mfast" stroke="none" stroke-width="1" fill="none" fill-rule="evenodd">
        <g id="Master-Mfast-1.4" transform="translate(-98.000000, -268.000000)" fill-rule="nonzero">
            <g id="Group-10" transform="translate(96.000000, 268.000000)">
                <g id="Master/-medal/-elite" transform="translate(2.000000, 0.000000)">
                    <g transform="translate(9.000000, 3.000000)">
                        <path d="M65.9800864,160.581647 C65.9800864,160.581647 54.6218072,166.077761 34.8336594,158.259759 C15.0455117,150.441758 8.75316931,140.114835 8.75316931,140.114835 L19.288501,133.969447 C19.288501,133.969447 8.31230456,125.365905 3.91434464,109.486758 C-0.483615276,93.607611 0.0213752608,91.6090241 0.0213752608,91.6090241 L9.79254137,91.6090241 C9.79254137,91.6090241 6.85344301,88.2237172 12.2346649,70.8803649 C17.6158868,53.5370127 22.7406056,50.1356743 22.7406056,50.1356743 L30.0696482,57.7132043 C30.0696482,57.7132043 33.2438744,49.9005464 41.3076916,43.060463 C49.3715087,36.2203795 57.6757975,33.2919688 57.6757975,33.2919688 L67.4416198,47.2446703 L65.9800864,160.581647 Z" id="Path" fill="url(#linearGradient-1)"></path>
                        <g id="Group" opacity="0.6" style="mix-blend-mode: overlay;" transform="translate(0.000000, 33.131654)" fill="#FFFFFF">
                            <path d="M5.70185083,79.1312156 C1.30389091,63.2520687 1.80888145,61.3309672 1.80888145,61.3309672 L11.5800476,61.3309672 C11.5800476,61.3309672 8.64094919,57.8574873 14.0221711,40.5168069 C19.403393,23.1761266 24.5281118,19.7266938 24.5281118,19.7266938 L31.8571544,27.2881924 C31.8571544,27.2881924 35.0313806,19.4648469 43.0951978,12.6247634 C47.8663703,8.59943783 53.2435107,5.35313473 59.0277828,3.00589605 L57.6757975,0.160314456 C57.6757975,0.160314456 49.3688368,3.09941282 41.3076916,9.93148057 C33.2465463,16.7635483 30.0696482,24.5895657 30.0696482,24.5895657 L22.7406056,17.0173795 C22.7406056,17.0173795 17.610543,20.4026865 12.2346649,37.7487106 C6.85878682,55.0947348 9.79254137,58.4773698 9.79254137,58.4773698 L0.0213752608,58.4773698 C0.0213752608,58.4773698 -0.483615276,60.4839724 3.91434464,76.3631193 C5.51087166,82.0834327 8.09128753,87.4820533 11.5399689,92.3170796 C8.96765911,88.226635 7.00121618,83.7852639 5.70185083,79.1312156 Z" id="Path"></path>
                            <path d="M22.5001339,100.538539 C22.5001339,100.538539 22.2329432,100.108362 18.593805,101.251939 L8.75316931,106.98318 C9.35008846,107.889982 10.0184044,108.747714 10.7517562,109.548212 L22.5001339,100.538539 Z" id="Path"></path>
                        </g>
                        <path d="M67.4416198,47.2473422 L57.6757975,33.2946407 C57.6757975,33.2946407 49.3688368,36.233739 41.3076916,43.0684787 C33.2465463,49.9032183 30.0696482,57.7132043 30.0696482,57.7132043 L22.7406056,50.1490338 C22.7406056,50.1490338 17.610543,53.5343408 12.2346649,70.8803649 C6.85878682,88.2263891 9.79254137,91.6090241 9.79254137,91.6090241 L0.0213752608,91.6090241 C0.0213752608,91.6090241 -0.483615276,93.6156267 3.91434464,109.494774 C8.31230456,125.373921 19.288501,133.964103 19.288501,133.964103 L8.75316931,140.109491 C8.75316931,140.109491 10.8345853,143.516173 16.3440588,147.892758 C33.1074444,151.704835 50.6889002,149.165862 65.6888485,140.76678 L67.4416198,47.2473422 Z" id="Path" fill="#FFFFFF" opacity="0.23" style="mix-blend-mode: overlay;"></path>
                        <path d="M65.3174533,115.562676 L67.4416198,47.2473422 L57.6757975,33.2946407 C57.6757975,33.2946407 49.3688368,36.233739 41.3076916,43.0684787 C33.2465463,49.9032183 30.0696482,57.7132043 30.0696482,57.7132043 L22.7406056,50.1490338 C22.7406056,50.1490338 17.610543,53.5343408 12.2346649,70.8803649 C6.85878682,88.2263891 9.79254137,91.6090241 9.79254137,91.6090241 L0.0213752608,91.6090241 C0.0213752608,91.6090241 -0.483615276,93.6156267 3.91434464,109.494774 C4.12275343,110.250923 4.34986558,110.999058 4.58766536,111.720473 C22.0446532,125.551463 46.2565412,127.083281 65.3174533,115.562676 L65.3174533,115.562676 Z" id="Path" fill="#FFFFFF" opacity="0.35" style="mix-blend-mode: overlay;"></path>
                        <path d="M64.94873,90.4601039 L67.4416198,47.2473422 L57.6757975,33.2946407 C57.6757975,33.2946407 49.3688368,36.233739 41.3076916,43.0684787 C33.2465463,49.9032183 30.0696482,57.7132043 30.0696482,57.7132043 L22.7406056,50.1490338 C22.7406056,50.1490338 17.754826,53.4782307 12.464449,70.1883409 C21.814929,89.7948595 44.8463501,98.6906184 64.94873,90.4601039 Z" id="Path" fill="#FFFFFF" opacity="0.35" style="mix-blend-mode: overlay;"></path>
                        <path d="M35.5203397,49.0081293 C40.7577812,59.7920235 53.0426534,65.1864585 64.5265686,61.7451128 L67.4416198,47.2473422 L57.6757975,33.2946407 C57.6757975,33.2946407 49.3688368,36.233739 41.3076916,43.0684787 C39.1963183,44.8622145 37.2586389,46.8508854 35.5203397,49.0081293 L35.5203397,49.0081293 Z" id="Path" fill="#FFFFFF" opacity="0.2" style="mix-blend-mode: overlay;"></path>
                        <g id="Group" opacity="0.49" style="mix-blend-mode: overlay;" transform="translate(0.000000, 86.569806)" fill="#FFFFFF">
                            <path d="M9.79254137,3.32385306 C9.79254137,3.32385306 9.17265881,2.59709419 9.02570389,0.117563935 C8.96693881,1.18699588 8.99732541,2.25946412 9.11654875,3.32385306 L9.79254137,3.32385306 Z" id="Path"></path>
                            <path d="M34.8336594,69.4508944 C19.7160062,63.4791809 12.4831523,56.0512777 9.9074334,52.8850672 L8.75316931,53.555716 C8.75316931,53.555716 15.0455117,63.8585917 34.8336594,71.6846091 C54.6218072,79.5106265 65.9800864,74.0118406 65.9800864,74.0118406 L65.9480235,71.7914854 C65.2720309,72.0960829 54.0126122,77.0284243 34.8336594,69.4508944 Z" id="Path"></path>
                            <path d="M19.2377348,47.4076566 L22.5134935,46.8732751 C22.5134935,46.8732751 8.2909293,36.5677275 3.89296938,20.6885806 C1.44283011,11.884645 0.534381521,7.32369874 0.20039307,5.03921774 L0.0213752608,5.03921774 C0.0213752608,5.03921774 -0.51300626,7.04582035 3.87960984,22.9249672 C7.27026059,35.1596322 15.1283409,44.1212103 19.2377348,47.4076566 Z" id="Path"></path>
                        </g>
                        <path d="M95.170677,160.581647 C95.170677,160.581647 106.528956,166.077761 126.317104,158.259759 C146.105252,150.441758 152.397594,140.120179 152.397594,140.120179 L141.85959,133.974791 C141.85959,133.974791 152.841131,125.371249 157.236419,109.492102 C161.631707,93.6129548 161.13206,91.6063522 161.13206,91.6063522 L151.358222,91.6063522 C151.358222,91.6063522 154.29732,88.2210453 148.916098,70.877693 C143.534877,53.5343408 138.404814,50.1356743 138.404814,50.1356743 L131.081115,57.7132043 C131.081115,57.7132043 127.906889,49.9005464 119.859103,43.060463 C111.811318,36.2203795 103.490997,33.2919688 103.490997,33.2919688 L95.9588897,45.0109555 L95.170677,160.581647 Z" id="Path" fill="url(#linearGradient-2)"></path>
                        <g id="Group" opacity="0.6" style="mix-blend-mode: overlay;" transform="translate(102.066870, 33.131654)" fill="#FFFFFF">
                            <path d="M53.382042,79.1312156 C57.7800019,63.2520687 57.2776833,61.3309672 57.2776833,61.3309672 L47.5065172,61.3309672 C47.5065172,61.3309672 50.4456156,57.8574873 45.0617217,40.5168069 C39.6778279,23.1761266 34.555781,19.7266938 34.555781,19.7266938 L27.2294104,27.2881924 C27.2294104,27.2881924 24.0471684,19.4648469 15.9886951,12.6247634 C11.2175226,8.59943783 5.8403822,5.35313473 0.0561100597,3.00589605 L1.41076722,0.160314456 C1.41076722,0.160314456 9.71505605,3.09941282 17.7788732,9.93148057 C25.8426903,16.7635483 29.0008851,24.5895657 29.0008851,24.5895657 L36.3379434,17.0173795 C36.3379434,17.0173795 41.468006,20.4026865 46.8438841,37.7487106 C52.2197622,55.0947348 49.2860077,58.4773698 49.2860077,58.4773698 L59.0598457,58.4773698 C59.0598457,58.4773698 59.5621643,60.4839724 55.1642044,76.3631193 C53.5676774,82.0834327 50.9872615,87.4820533 47.5385801,92.3170796 C50.1116935,88.2263772 52.0798722,83.7851508 53.382042,79.1312156 L53.382042,79.1312156 Z" id="Path"></path>
                            <path d="M36.5837589,100.538539 C36.5837589,100.538539 36.8509497,100.108362 40.4900878,101.251939 L50.3307235,106.98318 C49.733571,107.888138 49.0652606,108.744076 48.3321367,109.542868 L36.5837589,100.538539 Z" id="Path"></path>
                        </g>
                        <path d="M95.9455302,45.0136274 L103.477638,33.2946407 C103.477638,33.2946407 111.781927,36.233739 119.845744,43.0684787 C127.909561,49.9032183 131.067756,57.7238919 131.067756,57.7238919 L138.404814,50.1490338 C138.404814,50.1490338 143.534877,53.5343408 148.910755,70.8803649 C154.286633,88.2263891 151.352878,91.6090241 151.352878,91.6090241 L161.126716,91.6090241 C161.126716,91.6090241 161.629035,93.6156267 157.231075,109.494774 C152.833115,125.373921 141.854247,133.964103 141.854247,133.964103 L152.39225,140.109491 C152.39225,140.109491 150.310834,143.516173 144.801361,147.892758 C128.037975,151.704835 110.456519,149.165862 95.4565711,140.76678 L95.9455302,45.0136274 Z" id="Path" fill="#FFFFFF" opacity="0.23" style="mix-blend-mode: overlay;"></path>
                        <path d="M95.83331,115.562676 L95.9455302,45.024315 L103.477638,33.3053283 C103.477638,33.3053283 111.781927,36.2444267 119.845744,43.0791663 C127.909561,49.913906 131.067756,57.7345795 131.067756,57.7345795 L138.404814,50.1490338 C138.404814,50.1490338 143.534877,53.5343408 148.910755,70.8803649 C154.286633,88.2263891 151.352878,91.6090241 151.352878,91.6090241 L161.126716,91.6090241 C161.126716,91.6090241 161.629035,93.6156267 157.231075,109.494774 C157.022666,110.250923 156.792882,110.999058 156.557754,111.720473 C139.100766,125.551463 114.888878,127.083281 95.8279662,115.562676 L95.83331,115.562676 Z" id="Path" fill="#FFFFFF" opacity="0.35" style="mix-blend-mode: overlay;"></path>
                        <path d="M96.2020333,90.4601039 L95.9348425,45.0136274 L103.46695,33.2946407 C103.46695,33.2946407 111.771239,36.233739 119.835056,43.0684787 C127.898873,49.9032183 131.057068,57.7238919 131.057068,57.7238919 L138.404814,50.1490338 C138.404814,50.1490338 143.390593,53.4782307 148.680971,70.1883409 C139.330491,89.7948595 116.299069,98.6906184 96.1966895,90.4601039 L96.2020333,90.4601039 Z" id="Path" fill="#FFFFFF" opacity="0.35" style="mix-blend-mode: overlay;"></path>
                        <path d="M125.630424,49.0081293 C120.393994,59.7916195 108.110033,65.1861512 96.6268666,61.7451128 L95.9455302,45.0136274 L103.477638,33.2946407 C103.477638,33.2946407 111.781927,36.233739 119.845744,43.0684787 C121.954994,44.8636186 123.891661,46.8521681 125.630424,49.0081293 L125.630424,49.0081293 Z" id="Path" fill="#FFFFFF" opacity="0.2" style="mix-blend-mode: overlay;"></path>
                        <g id="Group" opacity="0.49" style="mix-blend-mode: overlay;" transform="translate(95.119911, 86.569806)" fill="#FFFFFF">
                            <path d="M56.2383113,3.32385306 C56.2383113,3.32385306 56.8608657,2.59709419 57.0051487,0.117563935 C57.0647142,1.18692297 57.0352216,2.25938384 56.9169758,3.32385306 L56.2383113,3.32385306 Z" id="Path"></path>
                            <path d="M31.1971932,69.4508944 C46.3148464,63.4791809 53.5503722,56.0512777 56.1260911,52.8850672 L57.2776833,53.555716 C57.2776833,53.555716 50.9880128,63.8585917 31.1971932,71.6846091 C11.4063736,79.5106265 0.0507662445,74.0118406 0.0507662445,74.0118406 L0.0828291357,71.7914854 C0.75882176,72.0960829 12.0235842,77.0284243 31.1971932,69.4508944 Z" id="Path"></path>
                            <path d="M46.8064774,47.4076566 L43.5307187,46.8732751 C43.5307187,46.8732751 57.7532829,36.5677275 62.1512428,20.6885806 C64.5906944,11.8712855 65.4857835,7.32904256 65.8331315,5.03654583 L66.0121493,5.03654583 C66.0121493,5.03654583 66.5465308,7.04314845 62.1512428,22.9222953 C58.7632639,35.1596322 50.9025118,44.1212103 46.8064774,47.4076566 Z" id="Path"></path>
                        </g>
                        <polygon id="Path" fill="url(#linearGradient-3)" points="80.7343602 0 57.1494318 33.3480788 80.7343602 66.6988295 104.319289 33.3480788"></polygon>
                        <polygon id="Path" fill="#FFFFFF" opacity="0.49" style="mix-blend-mode: overlay;" points="80.7343602 3.16888242 103.199759 34.9351919 104.319289 33.3480788 80.7343602 0 57.1494318 33.3480788 58.2716329 34.9351919"></polygon>
                        <polygon id="Path" fill="#828282" opacity="0.25" points="104.525025 33.3480788 80.9053623 0.240471684 81.0923958 66.4877488"></polygon>
                        <polygon id="Path" fill="#FFFFFF" opacity="0.49" style="mix-blend-mode: overlay;" points="80.9053623 0.240471684 80.7343602 0 57.8761906 32.3220663 78.3455518 17.3176171 80.9053623 41.7059725"></polygon>
                        <polygon id="Path" fill="#FFFFFF" points="79.3182491 26.4278381 81 42.9634958 82.1928288 26.2551832 80.883987 0.240471684"></polygon>
                        <polygon id="Path" fill="url(#linearGradient-4)" points="125.117417 29.2092939 81.1324744 58.7418887 117.093679 53.3018848"></polygon>
                        <polygon id="Path" fill="url(#linearGradient-5)" points="125.117417 29.2092939 81.1324744 58.7418887 99.7770457 27.5206483"></polygon>
                        <polygon id="Path" fill="#FFFFFF" opacity="0.61" style="mix-blend-mode: overlay;" points="125.117417 29.2092939 99.9320163 27.528664 117.141773 53.1576018"></polygon>
                        <polygon id="Path" fill="#FFFFFF" opacity="0.97" style="mix-blend-mode: overlay;" points="107.207621 39.4587315 99.9320163 27.528664 125.117417 29.2092939 81.1324744 58.7418887"></polygon>
                        <polygon id="Path" fill="url(#linearGradient-6)" points="37.4761761 29.2092939 81.463791 58.7418887 45.4999146 53.3018848"></polygon>
                        <polygon id="Path" fill="url(#linearGradient-7)" points="37.4761761 29.2092939 81.463791 58.7418887 62.8165478 27.5206483"></polygon>
                        <polygon id="Path" fill="#FFFFFF" opacity="0.61" style="mix-blend-mode: overlay;" points="37.4761761 29.2092939 62.6615771 27.528664 45.4544922 53.1576018"></polygon>
                        <polygon id="Path" fill="#FFFFFF" opacity="0.97" style="mix-blend-mode: overlay;" points="55.3833008 39.4587315 62.6615771 27.528664 37.4761761 29.2092939 81.463791 58.7418887"></polygon>
                        <path d="M81.461119,43.3463571 C47.5065172,43.3463571 19.9858689,70.1055117 19.9858689,103.114258 C19.9858689,136.123005 47.5065172,162.887503 81.461119,162.887503 C115.415721,162.887503 142.947057,136.123005 142.947057,103.114258 C142.947057,70.1055117 115.410377,43.3463571 81.461119,43.3463571 Z" id="Path" fill="url(#linearGradient-8)"></path>
                        <path d="M81.1645373,160.20758 C47.6721755,160.20758 20.4400932,134.164497 19.7106624,101.772961 C19.7106624,102.219169 19.694631,102.665378 19.694631,103.108914 C19.694631,136.117661 47.2152793,162.882159 81.1698811,162.882159 C115.124483,162.882159 142.639787,136.123005 142.639787,103.114258 C142.639787,102.665378 142.639787,102.219169 142.621084,101.778304 C141.878294,134.164497 114.651555,160.20758 81.1645373,160.20758 Z" id="Path" fill="#FFFFFF"></path>
                        <path d="M81.461119,43.3463571 C47.5065172,43.3463571 19.9858689,70.1055117 19.9858689,103.114258 C19.9858689,103.843689 20.0179318,104.557088 20.0473228,105.281175 C35.7047013,118.934623 57.2643238,127.377851 81.0603329,127.377851 C105.27316,127.377851 127.182802,118.632698 142.893619,104.551745 C142.906978,104.070801 142.936372,103.597874 142.936372,103.114258 C142.947057,70.1055117 115.410377,43.3463571 81.461119,43.3463571 Z" id="Path" fill="#FFFFFF" opacity="0.35" style="mix-blend-mode: overlay;"></path>
                        <path d="M130.520015,66.9419731 C119.298003,52.6098607 101.556536,43.3463571 81.5920425,43.3463571 C61.4752502,43.3463571 43.6135478,52.7487999 32.3995516,67.2679458 C46.2934712,75.6123133 63.09977,80.4992323 81.1939283,80.4992323 C99.5285583,80.4992323 116.519219,75.4867336 130.520015,66.9419731 Z" id="Path" fill="#FFFFFF" opacity="0.49" style="mix-blend-mode: overlay;"></path>
                        <path d="M81.461119,46.7583831 C114.817214,46.7583831 141.953107,72.6064172 142.888275,104.816263 C142.906978,104.249819 142.936369,103.680703 142.936369,103.106243 C142.936369,70.097496 115.415721,43.3383413 81.461119,43.3383413 C47.5065172,43.3383413 19.9885408,70.1055117 19.9885408,103.114258 C19.9885408,103.688718 20.0179318,104.257835 20.0339632,104.824279 C20.9691309,72.614433 48.0943369,46.7583831 81.461119,46.7583831 Z" id="Path" fill="#FFFFFF" opacity="0.49" style="mix-blend-mode: overlay;"></path>
                        <path d="M73.2102684,47.2767332 C76.0718814,47.0549648 79.0216674,48.1451031 77.5921968,49.3902121 C76.1627263,50.635321 66.4797331,56.2142641 62.2554472,52.7648314 C58.0311613,49.3153987 69.8409929,47.5332363 73.2102684,47.2767332 Z" id="Path" fill="#FFFFFF"></path>
                        <path d="M39.9450187,62.4718717 C30.9941282,70.0039792 23.7505867,83.9299617 23.9322764,92.0659203 C24.1139661,100.201879 28.4745193,87.4381764 30.7055622,82.8077605 C32.936605,78.1773446 44.1693046,64.0589848 52.3025914,59.7892765 C60.4358781,55.5195681 53.9511583,50.6887592 39.9450187,62.4718717 Z" id="Path" fill="#FFFFFF"></path>
                        <path d="M81.463791,58.6109652 C56.2196079,58.6109652 35.7554676,78.511333 35.7554676,103.052804 C35.7554676,127.594276 56.2196079,147.4893 81.463791,147.4893 C106.707974,147.4893 127.182802,127.596948 127.182802,103.052804 C127.182802,78.5086611 106.710646,58.6109652 81.463791,58.6109652 Z" id="Path" fill="url(#linearGradient-9)"></path>
                        <g id="Master-mfast" opacity="0.9" transform="translate(47.827146, 80.958800)" fill="#FFFFFF">
                            <g id="Logo_-CHplay-notifi" opacity="0.800000012">
                                <path d="M43.2341369,2.55434367 C42.543531,2.55434367 41.9836842,1.9944969 41.9836842,1.30389091 C41.9836842,0.613284922 42.543531,0.0534381521 43.2341369,0.0534381521 L61.0210259,0.0534381521 L53.8282506,41.0538603 L44.014334,41.0538603 L45.515946,30.4597467 L49.7375601,11.9300675 L35.453542,41.0538603 L28.976838,41.0538603 L26.9194691,28.1138118 L29.1852468,28.1138118 C29.8228971,28.1135218 30.3581963,27.6334792 30.4276838,26.9996263 L30.4276838,26.8633591 C30.4262142,26.1733627 29.8672274,25.6143759 29.177231,25.6129063 L26.5053234,25.6129063 L24.2475615,11.4010297 L23.3017062,18.8048857 L23.2028456,18.8048857 L20.1354957,18.8048857 C19.4448897,18.8048857 18.8850429,19.3647325 18.8850429,20.0553385 C18.8850429,20.7459445 19.4448897,21.3057912 20.1354957,21.3057912 L23.0024526,21.3057912 L21.6424516,31.9586869 L21.3378541,33.6660358 L16.3921532,33.6660358 C15.7545029,33.6663258 15.2192036,34.1463684 15.1497161,34.7802213 L15.1497161,34.9164886 C15.1511895,35.6060509 15.710605,36.164271 16.4001689,36.1642694 L20.8969894,36.1642694 L20.0232756,41.0565322 L10.2574533,41.0565322 L11.9888494,31.1704741 L4.21092638,31.1704741 C3.5203204,31.1704741 2.96047363,30.6106273 2.96047363,29.9200214 C2.96047363,29.2294154 3.5203204,28.6695686 4.21092638,28.6695686 L12.4297142,28.6695686 L13.0549406,25.1159315 L8.96959383,25.1159315 C8.27898784,25.1159315 7.71914107,24.5560847 7.71914107,23.8654787 C7.71914107,23.1748727 8.27898784,22.615026 8.96959383,22.615026 L13.4931334,22.615026 L14.3908944,17.5009948 L5.22625127,17.5009948 C4.76620242,17.5222776 4.33169228,17.2889615 4.09530341,16.893717 C3.85891454,16.4984725 3.85891454,16.0052835 4.09530341,15.610039 C4.33169228,15.2147945 4.76620242,14.9814784 5.22625127,15.0027612 L14.8290872,15.0027612 L15.6974572,10.0650759 L12.838516,10.0650759 C12.1479101,10.0650759 11.5880633,9.50522918 11.5880633,8.81462319 C11.5880633,8.1240172 12.1479101,7.56417043 12.838516,7.56417043 L31.1651303,7.56417043 L31.6834804,11.2754501 L31.6701208,11.2754501 L31.5338535,11.2754501 L28.9581346,11.2754501 C28.2675286,11.2754501 27.7076819,11.8352969 27.7076819,12.5259028 C27.7076819,13.2165088 28.2675286,13.7763556 28.9581346,13.7763556 L31.5285097,13.7763556 C31.6939254,13.7769115 31.8576687,13.7432531 32.0094531,13.677495 L34.0775096,28.514598 L44.3296191,7.57218615 L37.9036813,7.57218615 C37.2130753,7.57218615 36.6532285,7.01233938 36.6532285,6.32173339 C36.6532285,5.6311274 37.2130753,5.07128063 37.9036813,5.07128063 L48.0943369,5.07128063 C48.5543857,5.09256346 48.9888959,4.85924735 49.2252847,4.46400286 C49.4616736,4.06875837 49.4616736,3.57556929 49.2252847,3.1803248 C48.9888959,2.78508031 48.5543857,2.5517642 48.0943369,2.57304702 L43.2341369,2.57304702 L43.2341369,2.55434367 Z M6.41257825,33.6660358 C6.8726271,33.644753 7.30713725,33.8780691 7.54352612,34.2733136 C7.77991499,34.6685581 7.77991499,35.1617472 7.54352612,35.5569917 C7.30713725,35.9522361 6.8726271,36.1855522 6.41257825,36.1642694 L5.34381521,36.1642694 C4.88376636,36.1855522 4.44925621,35.9522361 4.21286734,35.5569917 C3.97647847,35.1617472 3.97647847,34.6685581 4.21286734,34.2733136 C4.44925621,33.8780691 4.88376636,33.644753 5.34381521,33.6660358 L6.41257825,33.6660358 Z M7.99969137,7.51073228 C8.69029736,7.51073228 9.25014413,8.07057905 9.25014413,8.76118503 C9.25014413,9.45179102 8.69029736,10.0116378 7.99969137,10.0116378 L1.35465716,10.0116378 C0.664051166,10.0116378 0.104204397,9.45179102 0.104204397,8.76118503 C0.104204397,8.07057905 0.664051166,7.51073228 1.35465716,7.51073228 L7.99969137,7.51073228 Z M29.2573883,2.55701558 C29.7174371,2.53573275 30.1519473,2.76904886 30.3883361,3.16429335 C30.624725,3.55953784 30.624725,4.05272692 30.3883361,4.44797141 C30.1519473,4.8432159 29.7174371,5.07653201 29.2573883,5.05524919 L16.2024477,5.05524919 C15.7423989,5.07653201 15.3078887,4.8432159 15.0714998,4.44797141 C14.835111,4.05272692 14.835111,3.55953784 15.0714998,3.16429335 C15.3078887,2.76904886 15.7423989,2.53573275 16.2024477,2.55701558 L29.2573883,2.55701558 Z" id="Combined-Shape"></path>
                            </g>
                        </g>
                        <g id="Group" opacity="0.35" style="mix-blend-mode: overlay;" transform="translate(33.131654, 56.377250)" fill="#FFFFFF">
                            <path d="M48.2573232,94.0778668 C21.6424516,94.0778668 0,72.9991877 0,47.0896996 C0,21.1802116 21.6424516,0.101532489 48.265339,0.101532489 C74.8882263,0.101532489 96.5306779,21.1802116 96.5306779,47.0896996 C96.5306779,72.9991877 74.8721949,94.0778668 48.2573232,94.0778668 Z M48.2573232,4.36856893 C23.9964022,4.36856893 4.25634881,23.5314903 4.25634881,47.0896996 C4.25634881,70.647909 23.9964022,89.8135022 48.2573232,89.8135022 C72.5182443,89.8135022 92.2556258,70.647909 92.2556258,47.0896996 C92.2556258,23.5314903 72.5182443,4.36856893 48.2573232,4.36856893 Z" id="Shape"></path>
                        </g>
                        <path d="M81.463791,58.6106335 C68.6591702,58.5624605 56.4096629,63.8346454 47.6427845,73.1675178 C56.1747147,65.4823724 67.261028,61.2469054 78.743789,61.2855447 C103.982628,61.2855447 124.446769,81.1805687 124.446769,105.724712 C124.441362,116.840737 120.190084,127.53488 112.562124,135.620686 C121.550421,127.503431 127.182802,115.920711 127.182802,103.052804 C127.182802,78.511333 106.710646,58.6106335 81.463791,58.6106335 Z" id="Path" fill="#777C84"></path>
                        <path d="M52.9946154,129.341703 C52.9946154,100.661447 73.4587558,84.902536 98.7002669,84.902536 C108.574391,84.8735856 118.199633,87.9993086 126.172821,93.8240355 C121.804252,73.7099151 103.445575,58.6109652 81.4557752,58.6109652 C56.2142641,58.6109652 35.7661552,78.511333 35.7661552,103.052804 C35.7661552,117.577294 42.9268676,130.466576 53.9992527,138.589176 C53.3372225,135.55106 53.0004464,132.451108 52.9946154,129.341703 Z" id="Path" fill="#828282" opacity="0.25"></path>
                        <path d="M81.463791,145.084583 C56.6631446,145.084583 36.4902422,125.846848 35.8035619,101.903884 C35.7848585,102.328717 35.7634833,102.750879 35.7634833,103.181056 C35.7634833,127.727871 56.2276236,147.622895 81.4718067,147.622895 C106.71599,147.622895 127.182802,127.717183 127.182802,103.181056 C127.182802,102.750879 127.164099,102.328717 127.150739,101.903884 C126.43734,125.846848 106.269781,145.084583 81.463791,145.084583 Z" id="Path" fill="#FFFFFF"></path>
                        <path d="M65.5739564,41.497397 C58.7873111,41.497397 53.2831814,46.6221158 53.2831814,52.9465211 C53.2831814,59.2709264 58.7819673,64.3929733 65.5739564,64.3929733 C72.3659456,64.3929733 77.8647314,59.2655826 77.8647314,52.9545368 C77.8647314,46.643491 72.3579298,41.497397 65.5739564,41.497397 Z" id="Path" fill="url(#radialGradient-10)"></path>
                        <path d="M54.3519445,68.0053923 C57.6490785,64.3048003 67.3454312,52.9465211 67.3454312,52.9465211 C67.3454312,52.9465211 75.446655,37.7460387 75.6419094,37.3185335 C75.6951424,37.1956258 65.2907342,51.6105673 65.2907342,51.6105673 L54.3519445,68.0053923 Z" id="Path" fill="#FFFFFF" opacity="0.7"></path>
                        <path d="M68.245864,50.231863 C65.2586713,47.8939438 65.8010686,41.3263949 65.7770214,39.4667472 L65.7770214,41.2489096 C65.7770214,40.9630155 65.7556461,40.6557461 65.7556461,40.5889484 L65.7556461,39.4667472 C65.74452,40.2530798 65.6883177,41.0381276 65.587316,41.8180259 C65.587316,41.8180259 64.7136022,48.4122939 63.1318329,49.7749668 C59.5728519,52.8984268 50.6139458,52.2945756 54.047347,52.3774048 C65.6487698,52.6258922 65.6487698,63.9494366 65.7529742,67.6633882 L65.7529742,65.7930529 C65.7529742,65.9266482 65.7743495,66.0388684 65.7743495,66.105666 L65.7743495,67.6633882 C66.020165,58.8701402 65.990774,53.3072286 76.1146319,52.5644383 C79.467876,52.2999194 71.7407192,52.9465211 68.245864,50.231863 Z" id="Path" fill="url(#radialGradient-11)"></path>
                        <polygon id="Path" fill="url(#linearGradient-12)" points="109.206208 141.421398 80.6595468 160.586991 103.99866 157.057401"></polygon>
                        <polygon id="Path" fill="url(#linearGradient-13)" points="109.206208 141.421398 80.6595468 160.586991 92.7606163 140.323244"></polygon>
                        <polygon id="Path" fill="#FFFFFF" opacity="0.61" style="mix-blend-mode: overlay;" points="109.206208 141.421398 92.8621488 140.328587 104.030723 156.963884"></polygon>
                        <polygon id="Path" fill="#FFFFFF" opacity="0.97" style="mix-blend-mode: overlay;" points="97.5834095 148.071776 92.8621488 140.328587 109.206208 141.421398 80.6595468 160.586991"></polygon>
                        <polygon id="Path" fill="url(#linearGradient-14)" points="52.3266385 141.421398 80.8759713 160.586991 57.5341864 157.057401"></polygon>
                        <polygon id="Path" fill="url(#linearGradient-15)" points="52.3266385 141.421398 80.8759713 160.586991 68.7722298 140.323244"></polygon>
                        <polygon id="Path" fill="#FFFFFF" opacity="0.61" style="mix-blend-mode: overlay;" points="52.3266385 141.421398 68.6706973 140.328587 57.5047955 156.963884"></polygon>
                        <polygon id="Path" fill="#FFFFFF" opacity="0.97" style="mix-blend-mode: overlay;" points="63.9494366 148.071776 68.6706973 140.328587 52.3266385 141.421398 80.8759713 160.586991"></polygon>
                        <polygon id="Path" fill="url(#linearGradient-16)" points="80.7343602 144.256292 57.1494318 158.871626 80.7343602 173.486961 104.319289 158.871626"></polygon>
                        <polygon id="Path" fill="#FFFFFF" opacity="0.49" style="mix-blend-mode: overlay;" points="80.7343602 145.645684 103.199759 159.566322 104.319289 158.871626 80.7343602 144.256292 57.1494318 158.871626 58.2716329 159.566322"></polygon>
                        <polygon id="Path" fill="#828282" opacity="0.25" points="81.0923958 173.393444 104.525025 158.871626 81.0923958 144.349808"></polygon>
                        <polygon id="Path" fill="#FFFFFF" opacity="0.49" style="mix-blend-mode: overlay;" points="80.7503916 173.187707 80.3041831 155.523726 80.7343602 144.256292 57.8761906 158.420074 72.9911719 162.451982"></polygon>
                        <polygon id="Path" fill="#FFFFFF" opacity="0.41" style="mix-blend-mode: overlay;" points="80.7343602 144.53417 57.1494318 158.871626 80.7343602 157.944474 104.319289 158.871626"></polygon>
                        <path d="M80.8599398,150.340225 C76.1440229,150.340225 72.3098355,154.059521 72.3098355,158.644514 C72.3098355,163.229507 76.1360072,166.951475 80.8599398,166.951475 C85.5838725,166.951475 89.4100442,163.232179 89.4100442,158.644514 C89.4100442,154.056849 85.5785287,150.340225 80.8599398,150.340225 Z" id="Path" fill="url(#linearGradient-17)"></path>
                        <g id="Group" opacity="0.35" style="mix-blend-mode: overlay;" transform="translate(71.607124, 149.894017)" fill="#FFFFFF">
                            <path d="M9.2394565,17.610543 C4.26703644,17.610543 0.219096424,13.6694793 0.219096424,8.82798272 C0.219096424,3.98648615 4.26703644,0.0480943369 9.2394565,0.0480943369 C14.2118765,0.0480943369 18.2598166,3.98648615 18.2598166,8.82798272 C18.2598166,13.6694793 14.2145485,17.610543 9.2394565,17.610543 Z M9.2394565,0.844322803 C4.69721357,0.844322803 1.01532489,4.42467899 1.01532489,8.82798272 C1.01532489,13.2312865 4.70522929,16.8116426 9.2394565,16.8116426 C13.7736837,16.8116426 17.4635881,13.2312865 17.4635881,8.82798272 C17.4635881,4.42467899 13.7736837,0.844322803 9.2394565,0.844322803 Z" id="Shape"></path>
                        </g>
                        <path d="M80.8599398,150.340186 C78.4694247,150.333038 76.1830812,151.318014 74.5462222,153.060227 C76.1411869,151.623646 78.2137565,150.832145 80.3602931,150.839872 C85.07621,150.839872 88.9103974,154.556495 88.9103974,159.144161 C88.9089261,161.221818 88.1136962,163.220406 86.6873703,164.73112 C88.4215564,163.182755 89.4145805,160.969341 89.4180599,158.644514 C89.4020284,154.059521 85.5785287,150.340186 80.8599398,150.340186 Z" id="Path" fill="#777C84"></path>
                        <path d="M75.5401718,163.558152 C75.5401718,158.198305 79.3636716,155.253863 84.0902761,155.253863 C85.9351935,155.248137 87.7336319,155.832325 89.2230106,156.921134 C88.4214384,153.16176 84.9773495,150.340225 80.8679556,150.340225 C76.1493667,150.340225 72.3178512,154.059521 72.3178512,158.644514 C72.3252373,161.275432 73.5917059,163.743804 75.7245334,165.284204 C75.601823,164.717055 75.5400188,164.138425 75.5401718,163.558152 L75.5401718,163.558152 Z" id="Path" fill="#828282" opacity="0.25"></path>
                    </g>
                </g>
            </g>
        </g>
    </g>
</svg>