<?xml version="1.0" encoding="UTF-8"?>
<svg width="144px" height="40px" viewBox="0 0 144 40" version="1.1" xmlns="http://www.w3.org/2000/svg" xmlns:xlink="http://www.w3.org/1999/xlink">
    <title>40A0B632-EC33-4A32-B1E8-E15C9B374DCC</title>
    <defs>
        <linearGradient x1="50%" y1="0%" x2="49.9999724%" y2="100%" id="linearGradient-1">
            <stop stop-color="#A67B02" offset="0%"></stop>
            <stop stop-color="#FFE59D" offset="17.6440261%"></stop>
            <stop stop-color="#C79403" offset="34.6624472%"></stop>
            <stop stop-color="#FFBE06" offset="49.4606123%"></stop>
            <stop stop-color="#C28F00" offset="67.3041045%"></stop>
            <stop stop-color="#D8B040" offset="80.8381046%"></stop>
            <stop stop-color="#A67B02" offset="100%"></stop>
        </linearGradient>
    </defs>
    <g id="Master-mfast" stroke="none" stroke-width="1" fill="none" fill-rule="evenodd">
        <g id="Master-Mfast-1.5" transform="translate(-116.000000, -460.000000)" fill="url(#linearGradient-1)" fill-rule="nonzero">
            <g id="Group-10" transform="translate(98.000000, 268.000000)">
                <path d="M31.4361924,225.784729 C34.4623619,225.784729 35.4307361,225.423842 36.1570168,224.66197 L39.4656287,221.173399 C37.3271356,221.654581 35.7131786,221.935271 33.8167791,221.935271 C30.3871203,221.935271 28.8942101,221.454088 26.3522277,219.970443 L30.5081671,217.283842 L30.5081671,203.810738 C32.2835199,204.211723 34.9868979,204.773103 36.8429485,204.773103 C37.9150771,204.773103 38.7500529,204.036599 40.7962022,202.008058 L41.3338105,201.473684 C41.5219829,201.286372 41.7194045,201.089767 41.9269132,200.883546 C41.4427261,201.003841 41.1199347,201.084039 40.6357476,201.084039 C39.1831862,201.084039 35.5921318,200.522659 31.4361924,199.760787 C28.0065337,199.119211 24.4558282,198.638029 22.8015222,198.638029 C21.4296587,198.638029 21.0261695,199.039014 18,202.928571 C19.1701189,202.768176 20.5419823,202.728078 21.7121012,202.728078 C23.5278029,202.728078 25.4242024,202.968669 27.5626955,203.249359 L27.5626955,203.329556 C24.1733857,205.093891 21.3893098,206.73793 20.2191909,208.021083 C19.089421,209.224039 18.4034893,212.030935 18.4034893,213.715073 C18.4034893,219.168473 21.7927991,225.784729 31.4361924,225.784729 Z M25.9083895,219.649655 C23.6891986,217.805123 22.7611733,215.479408 22.7611733,211.750246 C22.7611733,208.702758 24.1330368,206.577536 25.9083895,205.374581 L25.9083895,219.649655 Z M54.1641661,203.249359 L57.1903356,201.204334 C55.0518425,199.96128 52.8730005,198.638029 50.6941585,197.23458 C48.7170611,198.998915 46.6996148,200.76325 44.5207728,202.527585 L45.6101938,203.249359 C46.9417083,202.246896 48.1118272,201.244433 49.2415971,200.24197 C50.8959031,201.32463 52.5098602,202.327093 54.1641661,203.249359 Z M54.6080043,225.784729 L58.7639437,222.817438 C56.9499963,220.938038 56.8342125,220.379387 56.8275733,218.193726 L56.8271953,208.582462 C56.8271953,206.056255 54.3255618,205.254285 51.8642773,205.254285 C50.5731117,205.254285 49.5643885,205.374581 49.1608993,205.695369 L46.2154277,208.021083 C44.7628663,209.18394 43.7944921,210.82798 43.7944921,213.193793 C43.7944921,214.436847 44.0769346,215.760098 44.7628663,217.32394 L45.4084491,216.80266 C44.924262,215.118522 44.7225174,214.196256 44.7225174,213.314088 C44.7225174,211.148768 45.3277513,210.146305 46.2557766,209.18394 C46.6189169,209.023546 47.667989,208.863152 48.8784568,208.863152 C51.0572988,208.863152 52.2274177,209.584925 52.2274177,210.868078 L52.2274177,213.755172 C51.0169499,214.797733 41.7770458,221.614482 41.4542544,221.614482 C43.6734453,224.260985 45.0856577,225.584236 46.6592659,225.584236 C47.7083379,225.584236 48.7977589,224.902561 52.2274177,222.055566 C52.4695112,223.57931 53.3168387,224.501576 54.6080043,225.784729 Z M50.0082267,222.296157 C49.2415971,222.296157 47.4258955,221.1333 46.2154277,219.689753 C48.232874,218.005615 50.1292735,216.481871 52.2274177,214.918029 L52.2274177,221.013005 C51.2590434,221.935271 50.5731117,222.296157 50.0082267,222.296157 Z M76.3676038,225.784729 L80.4428453,222.77734 C78.7481904,220.892709 78.5867947,220.451625 78.5867947,218.847684 L78.5867947,209.304236 C78.5867947,206.537438 77.0938845,205.254285 73.4624811,205.254285 C73.0589918,205.254285 72.453758,205.294383 71.8485241,205.334482 L67.9750271,208.301773 C67.9750271,206.657733 67.1680486,206.016157 65.3926959,204.893398 L61.3578033,208.181477 C63.3393839,209.455719 63.4501912,209.614463 63.4556809,212.095095 L63.4559474,220.892709 C63.4559474,222.416453 63.4559474,223.819901 63.2542028,225.343645 L68.2574696,225.343645 C68.055725,223.819901 68.055725,222.416453 68.055725,220.892709 L68.055725,209.103743 C68.9030524,208.983448 69.669682,208.863152 70.2749159,208.863152 C73.50283,208.863152 73.9870171,209.945812 73.9870171,211.34926 L73.9870171,221.734778 C73.9870171,222.937734 74.9150425,224.381281 76.3676038,225.784729 Z M108.024218,225.784729 C111.050388,225.784729 112.018762,225.423842 112.745043,224.66197 L116.053655,221.173399 C113.915162,221.654581 112.301205,221.935271 110.404805,221.935271 C106.975146,221.935271 105.482236,221.454088 102.940254,219.970443 L107.096193,217.283842 L107.096193,203.810738 C108.871546,204.211723 111.574924,204.773103 113.430975,204.773103 C114.503103,204.773103 115.338079,204.036599 117.384228,202.008058 L117.921837,201.473684 C118.110009,201.286372 118.30743,201.089767 118.514939,200.883546 C118.030752,201.003841 117.707961,201.084039 117.223774,201.084039 C115.771212,201.084039 112.180158,200.522659 108.024218,199.760787 C104.59456,199.119211 101.043854,198.638029 99.3895482,198.638029 C98.0176848,198.638029 97.6141955,199.039014 94.588026,202.928571 C95.7581449,202.768176 97.1300084,202.728078 98.3001272,202.728078 C100.115829,202.728078 102.012228,202.968669 104.150722,203.249359 L104.150722,203.329556 C100.761412,205.093891 97.9773358,206.73793 96.807217,208.021083 C95.677447,209.224039 94.9915153,212.030935 94.9915153,213.715073 C94.9915153,219.168473 98.3808251,225.784729 108.024218,225.784729 Z M102.496416,219.649655 C100.277225,217.805123 99.3491993,215.479408 99.3491993,211.750246 C99.3491993,208.702758 100.721063,206.577536 102.496416,205.374581 L102.496416,219.649655 Z M126.596253,232 C132.688941,227.38867 138.297441,220.491724 138.297441,212.271527 C138.297441,208.181477 135.594063,205.254285 131.034635,205.254285 C130.590796,205.254285 130.187307,205.294383 129.824167,205.334482 L125.869972,208.341871 L125.869972,201.685516 C125.869972,200.161772 125.869972,198.758324 126.071717,197.23458 L121.06845,197.23458 C121.270195,198.758324 121.270195,200.161772 121.270195,201.685516 L121.270195,220.892709 C121.270195,222.416453 121.270195,223.819901 121.06845,225.343645 L126.071717,225.343645 C125.869972,223.819901 125.869972,222.416453 125.869972,220.892709 L125.869972,209.224039 C126.676951,208.983448 127.282185,208.863152 128.331257,208.863152 C129.945214,208.863152 131.841613,209.584925 132.527545,210.346797 C133.576617,211.509655 133.939757,212.913103 133.939757,215.960591 C133.939757,222.135763 129.743469,228.47133 125.95067,231.599015 L126.596253,232 Z M157.400222,203.866881 C159.498367,204.949541 160.143949,205.79161 160.143949,207.475748 L160.143949,207.475748 L160.143949,218.222152 C160.143949,219.545403 160.587788,220.427571 162,221.871117 L162,221.871117 L157.88441,224.758211 C156.189755,223.114172 155.544172,222.232004 155.544172,221.149344 L155.544172,221.149344 L151.509279,224.758211 C148.321714,223.956241 145.295545,222.232004 145.295545,219.425108 L145.295545,219.425108 L145.294996,210.578768 C145.285597,208.623289 145.134149,208.424746 143.278098,207.195058 L143.278098,207.195058 L147.191944,203.866881 C149.451484,205.310427 149.895322,206.032201 149.895322,207.756437 L149.895322,207.756437 L149.895322,217.46028 C149.895322,219.665699 151.912768,220.387472 155.544172,220.427571 L155.544172,220.427571 L155.544172,209.881659 C155.544172,208.919294 155.342427,208.398014 153.486377,207.195058 L153.486377,207.195058 Z M152.84073,192 C154.390591,192 155.552987,192.234952 156.327917,192.704857 C157.102848,193.174761 157.490313,193.879618 157.490313,194.819427 C157.490313,195.602602 156.978071,196.437988 155.953587,197.325585 L155.953587,197.325585 L155.520151,197.697593 C154.929102,198.206656 154.574473,198.58519 154.456263,198.833196 C154.338053,199.081201 154.278949,199.544579 154.278949,200.22333 L154.278949,200.22333 L151.481318,200.22333 C151.481318,199.035516 151.763708,198.219709 152.328488,197.77591 L152.328488,197.77591 L153.136254,197.16895 L153.648497,196.738204 C154.265814,196.203035 154.574473,195.739657 154.574473,195.34807 C154.574473,194.917324 154.384024,194.594265 154.003126,194.378892 C153.622228,194.163519 153.050881,194.055832 152.289084,194.055832 C151.606095,194.055832 150.870568,194.179835 150.082503,194.42784 L150.082503,194.42784 L150.082503,192.352428 C151.028181,192.117476 151.94759,192 152.84073,192 Z" id="TânThủ"></path>
            </g>
        </g>
    </g>
</svg>