<?xml version="1.0" encoding="UTF-8"?>
<svg width="125px" height="40px" viewBox="0 0 125 40" version="1.1" xmlns="http://www.w3.org/2000/svg" xmlns:xlink="http://www.w3.org/1999/xlink">
    <title>84BCEF36-ECA0-4082-9D2B-96575FD6D40F</title>
    <defs>
        <linearGradient x1="50%" y1="0%" x2="49.9999724%" y2="100%" id="linearGradient-1">
            <stop stop-color="#A67B02" offset="0%"></stop>
            <stop stop-color="#FFE59D" offset="17.6440261%"></stop>
            <stop stop-color="#C79403" offset="34.6624472%"></stop>
            <stop stop-color="#FFBE06" offset="49.4606123%"></stop>
            <stop stop-color="#C28F00" offset="67.3041045%"></stop>
            <stop stop-color="#D8B040" offset="80.8381046%"></stop>
            <stop stop-color="#A67B02" offset="100%"></stop>
        </linearGradient>
        <path d="M15.76,33.7017187 C16.84,33.7017187 18.4,33.1817188 22.04,31.3417187 C26.2,29.2217187 27.56,27.4217187 27.56,24.0217187 C27.56,19.2217187 23.2,18.1017187 19.76,17.9817188 L19.76,17.9017187 C24.04,15.8217188 25.44,14.4217188 25.44,11.9417188 C25.44,8.14171875 20.64,8.62171875 16.04,6.38171875 C13.56,8.22171875 11.92,9.34171875 8.28,11.0217187 L8.28,21.2617188 C8.28,24.8617188 8.2,25.3817188 5.96,27.5817187 C5.36,27.5417187 4.8,27.4617187 4.2,27.4617187 L4.2,27.3817188 C6.12,25.9817188 6.96,24.6617187 6.96,22.2617188 L6.96,9.02171875 L0,12.8617188 C0.84,13.1817188 1.6,13.7417188 2.4,14.4217188 L2.4,26.5817187 C2.4,28.9017187 1.72,29.7017187 0.04,31.1017188 C8.16,31.6217188 13.64,33.7017187 15.76,33.7017187 Z M12.84,20.4217188 L12.84,9.70171875 C13.72,10.4217187 15.76,11.0217187 17,11.4617187 L18.84,12.1017188 C20.2,12.5817187 21.12,12.8617188 21.12,14.3417187 C21.12,15.7417188 20.36,17.1017187 17.64,18.3017188 L12.84,20.4217188 Z M21.8,30.5017188 C18.12,30.3017188 12.8,28.5417187 7.16,27.7017188 C11.76,24.4217188 12.44,23.7417188 12.84,21.2217187 C13.92,21.0217187 14.6,20.9417188 15.28,20.9417188 C21.56,20.9417188 22.88,23.5017188 22.88,26.5817187 C22.88,27.9017187 22.32,29.3017188 21.8,30.5017188 Z M36.48,11.2217187 C38.44,10.4617187 42.04,8.46171875 44.56,7.10171875 L41.08,5.22171875 C39.2,6.94171875 37.48,8.66171875 35.24,10.3817188 L36.48,11.2217187 Z M42.68,33.7017187 L46.8,30.7417188 C44.92,28.7817187 44.88,28.2617188 44.88,25.8217188 L44.88,16.5417187 C44.88,14.0217187 42.4,13.2217187 39.96,13.2217187 C38.68,13.2217187 37.68,13.3417187 37.28,13.6617187 L34.36,15.9817188 C32.92,17.1417187 31.96,18.7817187 31.96,21.1417187 C31.96,22.3817188 32.24,23.7017187 32.92,25.2617188 L33.56,24.7417188 C33.08,23.0617188 32.88,22.1417187 32.88,21.2617188 C32.88,19.1017187 33.48,18.1017187 34.4,17.1417187 C34.76,16.9817188 35.8,16.8217188 37,16.8217188 C39.16,16.8217188 40.32,17.5417187 40.32,18.8217188 L40.32,21.7017187 C39.9342857,22.0360045 38.7261735,22.9653922 37.2535714,24.0727792 L36.7536735,24.4479287 C33.7046939,26.7315147 29.8457143,29.5417187 29.64,29.5417187 C31.84,32.1817188 33.24,33.5017188 34.8,33.5017188 C35.84,33.5017188 36.92,32.8217188 40.32,29.9817188 C40.56,31.5017188 41.4,32.4217187 42.68,33.7017187 Z M38.12,30.2217187 C37.36,30.2217187 35.56,29.0617188 34.36,27.6217188 C36.36,25.9417188 38.24,24.4217188 40.32,22.8617188 L40.32,28.9417188 C39.36,29.8617188 38.68,30.2217187 38.12,30.2217187 Z M71.72,33.7017187 C73.28,33.7017187 75.4,33.3817188 76.68,33.0617188 C77.76,32.7817187 77.92,32.6217188 81.24,28.5017188 C79.64,28.9417188 76.2,29.6217188 74.28,29.6217188 C71.08,29.6217188 69.16,28.7817187 67.76,27.3417187 L72.12,24.7817187 L72.12,9.66171875 C74.24,10.4217187 76.64,11.9817188 77.16,12.9817188 L80.96,9.94171875 C79.52,8.38171875 78.08,7.34171875 75.56,6.38171875 C73.16,7.98171875 70.52,9.50171875 67.56,10.9417188 L67.56,27.1417187 L67.48,27.1417187 C66.44,25.7017187 66.24,24.7017187 66.24,22.3817188 L66.24,9.06171875 L59.32,12.8617188 C60.24,13.3417187 61.12,13.9017187 61.68,14.4617187 L61.68,23.7017187 C61.68,29.8617188 64.92,33.7017187 71.72,33.7017187 Z M90.28,39.9017187 C96.32,35.3017188 101.88,28.4217187 101.88,20.2217187 C101.88,16.1417187 99.2,13.2217187 94.68,13.2217187 C94.24,13.2217187 93.84,13.2617188 93.48,13.3017188 L89.56,16.3017188 L89.56,9.66171875 C89.56,8.14171875 89.56,6.74171875 89.76,5.22171875 L84.8,5.22171875 C84.9714286,6.52457589 84.9959184,7.73926977 84.9994169,9.01693741 L85,28.8217188 C85,30.3417187 85,31.7417188 84.8,33.2617188 L89.76,33.2617188 C89.56,31.7417188 89.56,30.3417187 89.56,28.8217188 L89.56,17.1817188 C90.36,16.9417188 90.96,16.8217188 92,16.8217188 C93.6,16.8217188 95.48,17.5417187 96.16,18.3017188 C97.2,19.4617187 97.56,20.8617188 97.56,23.9017187 C97.56,30.0617188 93.4,36.3817188 89.64,39.5017188 L90.28,39.9017187 Z M117.151875,8.203125 C117.151875,7.52604167 117.210469,7.06380208 117.327656,6.81640625 C117.444844,6.56901042 117.796406,6.19140625 118.382344,5.68359375 L118.382344,5.68359375 L118.812031,5.3125 C119.827656,4.42708333 120.335469,3.59375 120.335469,2.8125 C120.335469,1.875 119.951354,1.171875 119.183125,0.703125 C118.414896,0.234375 117.262552,0 115.726094,0 C114.840677,0 113.929219,0.1171875 112.991719,0.3515625 L112.991719,0.3515625 L112.991719,2.421875 C113.772969,2.17447917 114.502135,2.05078125 115.179219,2.05078125 C115.934427,2.05078125 116.500833,2.15820312 116.878438,2.37304688 C117.256042,2.58789062 117.444844,2.91015625 117.444844,3.33984375 C117.444844,3.73046875 117.138854,4.19270833 116.526875,4.7265625 L116.526875,4.7265625 L116.019063,5.15625 L115.218281,5.76171875 C114.658385,6.20442708 114.378438,7.01822917 114.378438,8.203125 L114.378438,8.203125 L117.151875,8.203125 Z M120.695213,33.2617188 L124.652109,30.4978032 C123.294351,29.1158454 122.867627,28.2713157 122.867627,27.0045211 L122.867627,16.7166132 C122.867627,15.1043291 122.246937,14.2981871 120.229696,13.2617188 L116.466765,16.4478992 C118.251247,17.5995307 118.445213,18.098571 118.445213,19.0198761 L118.445213,29.1158454 C114.953834,29.0774577 113.014178,28.3864788 113.014178,26.2751545 L113.014178,16.9853272 C113.014178,15.3346554 112.587454,14.6436765 110.41504,13.2617188 L106.652109,16.4478992 C108.436592,17.6251225 108.582201,17.815195 108.591237,19.6872431 L108.591765,28.1561525 C108.591765,30.8432926 111.501247,32.4939644 114.565902,33.2617188 L118.445213,29.8068243 C118.445213,30.8432926 119.065902,31.6878224 120.695213,33.2617188 Z" id="path-2"></path>
    </defs>
    <g id="Master-mfast" stroke="none" stroke-width="1" fill="none" fill-rule="evenodd">
        <g id="Master-Mfast-1.2" transform="translate(-125.000000, -460.000000)" fill-rule="nonzero">
            <g id="Group-10" transform="translate(98.000000, 268.000000)">
                <g id="BáChủ" transform="translate(27.000000, 192.000000)">
                    <use fill="#24253D" xlink:href="#path-2"></use>
                    <use fill="url(#linearGradient-1)" xlink:href="#path-2"></use>
                </g>
            </g>
        </g>
    </g>
</svg>