<?xml version="1.0" encoding="UTF-8"?>
<svg width="183px" height="40px" viewBox="0 0 183 40" version="1.1" xmlns="http://www.w3.org/2000/svg" xmlns:xlink="http://www.w3.org/1999/xlink">
    <title>539202FA-E139-4816-ADA0-47B70374DFAF</title>
    <defs>
        <linearGradient x1="50%" y1="0%" x2="49.9999724%" y2="100%" id="linearGradient-1">
            <stop stop-color="#A67B02" offset="0%"></stop>
            <stop stop-color="#FFE59D" offset="17.6440261%"></stop>
            <stop stop-color="#C79403" offset="34.6624472%"></stop>
            <stop stop-color="#FFBE06" offset="49.4606123%"></stop>
            <stop stop-color="#C28F00" offset="67.3041045%"></stop>
            <stop stop-color="#D8B040" offset="80.8381046%"></stop>
            <stop stop-color="#A67B02" offset="100%"></stop>
        </linearGradient>
    </defs>
    <g id="Master-mfast" stroke="none" stroke-width="1" fill="none" fill-rule="evenodd">
        <g id="Master-Mfast-1.4" transform="translate(-96.000000, -460.000000)" fill="url(#linearGradient-1)" fill-rule="nonzero">
            <g id="Group-10" transform="translate(96.000000, 268.000000)">
                <path d="M15.4315016,224.848904 C18.9070651,224.848904 20.0192454,224.433679 20.8533806,223.557093 L24.65333,219.543253 C22.1972651,220.096886 20.3436313,220.419839 18.1656115,220.419839 C14.2266397,220.419839 12.5120284,219.866205 9.59255508,218.15917 L14.3656622,215.068051 L14.3656622,199.566321 C16.4046594,200.027682 19.5094961,200.673587 21.641175,200.673587 C22.8725175,200.673587 23.8314892,199.826189 26.181497,197.492214 L26.7989415,196.87738 C27.0150581,196.661865 27.2417972,196.435657 27.4801215,196.198385 C26.9240314,196.336794 26.5533046,196.429066 25.9972145,196.429066 C24.328944,196.429066 20.2046088,195.78316 15.4315016,194.906574 C11.4925298,194.168397 7.41453533,193.614764 5.51456065,193.614764 C3.93897189,193.614764 3.47556343,194.076125 0,198.551326 C1.34388453,198.366782 2.91947328,198.320646 4.26335781,198.320646 C6.34869587,198.320646 8.52671562,198.597463 10.9827805,198.920415 L10.9827805,199.012687 C7.0901494,201.042676 3.89263105,202.934256 2.54874652,204.410611 C1.25120284,205.794694 0.463408458,209.024221 0.463408458,210.961938 C0.463408458,217.236448 4.3560395,224.848904 15.4315016,224.848904 Z M9.08280577,217.790081 C6.53405926,215.66782 5.4682198,212.991926 5.4682198,208.701269 C5.4682198,205.194925 7.04380856,202.749712 9.08280577,201.365629 L9.08280577,217.790081 Z M29.4391737,198.662724 L34.1808159,198.088567 L36.1180058,194.662724 L31.6802905,195.165387 L29.4391737,198.662724 Z M32.544514,224.848904 L37.3176211,221.388697 C35.4639873,219.497116 35.0932605,218.897347 35.0932605,216.682814 L35.0932605,204.918108 C35.0932605,203.072664 34.3981478,202.288351 32.0347647,200.811995 L27.4006801,204.595156 C29.5632529,205.91333 29.7923301,206.520109 29.8092432,207.730677 L29.8104041,220.004614 C29.8104041,221.665513 30.7835618,223.141869 32.544514,224.848904 Z M57.3037659,224.848904 L61.9841913,221.388697 C60.0378758,219.2203 59.8525124,218.712803 59.8525124,216.867359 L59.8525124,205.886967 C59.8525124,202.703576 58.1379011,201.22722 53.967225,201.22722 C53.5038165,201.22722 52.8087038,201.273356 52.1135911,201.319493 L47.6648699,204.733564 C47.6648699,202.841984 46.738053,202.103806 44.6990558,200.811995 L40.0649712,204.595156 C42.3408217,206.061258 42.4680842,206.243904 42.4743892,209.098042 L42.4746952,219.2203 C42.4746952,220.973472 42.4746952,222.588235 42.242991,224.341407 L47.9892559,224.341407 C47.7575516,222.588235 47.7575516,220.973472 47.7575516,219.2203 L47.7575516,205.656286 C48.7307094,205.517878 49.6111855,205.379469 50.3062982,205.379469 C54.0135658,205.379469 54.569656,206.625144 54.569656,208.239908 L54.569656,220.189158 C54.569656,221.573241 55.6354954,223.234141 57.3037659,224.848904 Z M73.3045979,232 C80.3020656,226.694348 86.7434432,218.758939 86.7434432,209.301038 C86.7434432,204.595156 83.6386065,201.22722 78.4020909,201.22722 C77.8923416,201.22722 77.4289332,201.273356 77.0118656,201.319493 L72.4704627,204.7797 L72.4704627,197.121107 C72.4704627,195.367935 72.4704627,193.753172 72.7021669,192 L66.955902,192 C67.1489889,193.460977 67.18117,194.825836 67.1865336,196.254774 L67.1876063,219.2203 C67.1876063,220.973472 67.1876063,222.588235 66.955902,224.341407 L72.7021669,224.341407 C72.4704627,222.588235 72.4704627,220.973472 72.4704627,219.2203 L72.4704627,205.794694 C73.3972796,205.517878 74.0923923,205.379469 75.2972543,205.379469 C77.1508881,205.379469 79.3289079,206.209919 80.1167022,207.086505 C81.3215642,208.424452 81.7386318,210.039216 81.7386318,213.545559 C81.7386318,220.650519 76.9191839,227.940023 72.5631444,231.538639 L73.3045979,232 Z M129.218138,225.217993 L133.388815,221.158016 C131.025431,219.174164 130.562023,218.620531 130.562023,216.359862 L130.562023,198.089965 C130.562023,196.752018 131.303476,195.460208 132.091271,194.537486 C130.283978,195.137255 128.476685,195.644752 126.715733,195.644752 C125.788916,195.644752 123.193828,195.275663 119.810947,194.675894 C116.798792,194.122261 113.508592,193.614764 110.959845,193.614764 C108.596462,193.614764 108.411099,193.614764 104.240423,199.658593 C105.862352,199.012687 107.3916,198.597463 108.920848,198.597463 C111.284231,198.597463 114.250045,198.920415 116.567088,199.197232 L116.567088,199.289504 L111.376913,202.703576 L106.603806,216.775087 C106.27942,217.743945 105.816011,218.435986 104.981876,218.851211 L101.691676,222.265283 C106.047716,222.865052 109.754983,223.695502 113.462251,225.217993 L118.235358,221.065744 C115.964657,220.096886 113.276887,219.358708 110.959845,219.081892 L110.959845,218.989619 C116.474406,215.66782 117.076837,215.068051 118.235358,213.176471 L125.279167,213.176471 L125.279167,217.928489 C125.279167,221.11188 126.159643,222.911188 129.218138,225.217993 Z M125.279167,209.439446 L119.579242,209.439446 L123.008465,199.981546 C124.120645,199.935409 124.90844,199.750865 125.696234,199.10496 L125.696234,199.243368 C125.371848,199.797001 125.279167,200.719723 125.279167,201.919262 L125.279167,209.439446 Z M109.56962,218.805075 C109.01353,218.712803 108.179394,218.574394 107.530623,218.574394 L107.530623,218.482122 C109.986687,217.282584 111.654958,215.483276 112.396411,213.268743 L117.169519,199.289504 L122.035307,199.935409 L117.447564,203.026528 L114.250045,212.438293 C113.184206,215.621684 111.886662,217.051903 109.56962,218.805075 Z M153.560323,224.848904 L158.240748,221.388697 C156.294433,219.2203 156.109069,218.712803 156.109069,216.867359 L156.109069,205.886967 C156.109069,202.703576 154.394458,201.22722 150.223782,201.22722 C149.760373,201.22722 149.065261,201.273356 148.370148,201.319493 L143.921427,204.733564 C143.921427,202.841984 142.99461,202.103806 140.955613,200.811995 L136.321528,204.595156 C138.597378,206.061258 138.724641,206.243904 138.730946,209.098042 L138.731252,219.2203 C138.731252,220.973472 138.731252,222.588235 138.499548,224.341407 L144.245813,224.341407 C144.014108,222.588235 144.014108,220.973472 144.014108,219.2203 L144.014108,205.656286 C144.987266,205.517878 145.867742,205.379469 146.562855,205.379469 C150.270123,205.379469 150.826213,206.625144 150.826213,208.239908 L150.826213,220.189158 C150.826213,221.573241 151.892052,223.234141 153.560323,224.848904 Z M169.561155,232 C176.558622,226.694348 183,218.758939 183,209.301038 C183,204.595156 179.895163,201.22722 174.658648,201.22722 C174.148898,201.22722 173.68549,201.273356 173.268422,201.319493 L168.727019,204.7797 L168.727019,197.121107 C168.727019,195.367935 168.727019,193.753172 168.958724,192 L163.212459,192 C163.405546,193.460977 163.437727,194.825836 163.44309,196.254774 L163.444163,219.2203 C163.444163,220.973472 163.444163,222.588235 163.212459,224.341407 L168.958724,224.341407 C168.765637,222.880431 168.733456,221.515571 168.728092,220.086633 L168.727019,205.794694 C169.653836,205.517878 170.348949,205.379469 171.553811,205.379469 C173.407445,205.379469 175.585465,206.209919 176.373259,207.086505 C177.578121,208.424452 177.995189,210.039216 177.995189,213.545559 C177.995189,220.650519 173.175741,227.940023 168.819701,231.538639 L169.561155,232 Z" id="TinhAnh"></path>
            </g>
        </g>
    </g>
</svg>