<?xml version="1.0" encoding="UTF-8"?>
<svg width="88px" height="40px" viewBox="0 0 88 40" version="1.1" xmlns="http://www.w3.org/2000/svg" xmlns:xlink="http://www.w3.org/1999/xlink">
    <title>01745B5A-C518-40D8-938E-04F58AE1C2F0</title>
    <defs>
        <linearGradient x1="50%" y1="0%" x2="49.9999724%" y2="100%" id="linearGradient-1">
            <stop stop-color="#A67B02" offset="0%"></stop>
            <stop stop-color="#FFE59D" offset="23.7014263%"></stop>
            <stop stop-color="#C79403" offset="34.6624472%"></stop>
            <stop stop-color="#FFBE06" offset="49.4606123%"></stop>
            <stop stop-color="#C28F00" offset="67.3041045%"></stop>
            <stop stop-color="#D8B040" offset="80.8381046%"></stop>
            <stop stop-color="#A67B02" offset="100%"></stop>
        </linearGradient>
    </defs>
    <g id="Master-mfast" stroke="none" stroke-width="1" fill="none" fill-rule="evenodd">
        <g id="Master-Mfast-1.9" transform="translate(-143.000000, -460.000000)" fill="url(#linearGradient-1)" fill-rule="nonzero">
            <g id="Group-10" transform="translate(130.000000, 460.000000)">
                <g id="AnSĩ" transform="translate(13.000000, 0.000000)">
                    <path d="M21.6,39.7818182 L24.8727273,36.5818182 C23.0181818,35.0181818 22.6545455,34.5818182 22.6545455,32.8 L22.6545455,18.4 C22.6545455,17.3454545 23.2363636,16.3272727 23.8545455,15.6 C22.4363636,16.0727273 21.0181818,16.4727273 19.6363636,16.4727273 C18.9090909,16.4727273 16.8727273,16.1818182 14.2181818,15.7090909 C11.8545455,15.2727273 9.27272727,14.8727273 7.27272727,14.8727273 L7.17142458,14.8727273 L7.17142458,14.8727273 L6.978632,14.8735441 C5.39236813,14.8874299 5.09090909,15.1373737 2,19.6363636 C3.27272727,19.1272727 4.47272727,18.8 5.67272727,18.8 C7.52727273,18.8 9.85454545,19.0545455 11.6727273,19.2727273 L11.6727273,19.3454545 L7.6,22.0363636 L3.85454545,33.1272727 C3.6,33.8909091 3.23636364,34.4363636 2.58181818,34.7636364 L0,37.4545455 C3.41818182,37.9272727 6.32727273,38.5818182 9.23636364,39.7818182 L12.9818182,36.5090909 C11.2,35.7454545 9.09090909,35.1636364 7.27272727,34.9454545 L7.27272727,34.8727273 C11.6,32.2545455 12.0727273,31.7818182 12.9818182,30.2909091 L18.5090909,30.2909091 L18.5090909,34.0363636 C18.5090909,36.5454545 19.2,37.9636364 21.6,39.7818182 Z M18.5090909,27.3454545 L14.0363636,27.3454545 L16.7272727,19.8909091 C17.6,19.8545455 18.2181818,19.7090909 18.8363636,19.2 L18.8363636,19.3090909 C18.5818182,19.7454545 18.5090909,20.4727273 18.5090909,21.4181818 L18.5090909,27.3454545 Z M6.18181818,34.7272727 C5.74545455,34.6545455 5.09090909,34.5454545 4.58181818,34.5454545 L4.58181818,34.4727273 C6.50909091,33.5272727 7.81818182,32.1090909 8.4,30.3636364 L12.1454545,19.3454545 L15.9636364,19.8545455 L12.3636364,22.2909091 L9.85454545,29.7090909 C9.01818182,32.2181818 8,33.3454545 6.18181818,34.7272727 Z M40.1818182,39.4909091 L43.8545455,36.7636364 C42.3272727,35.0545455 42.1818182,34.6545455 42.1818182,33.2 L42.1818182,24.5454545 C42.1818182,22.0363636 40.8363636,20.8727273 37.5636364,20.8727273 C37.2,20.8727273 36.6545455,20.9090909 36.1090909,20.9454545 L32.6181818,23.6363636 C32.6181818,22.1454545 31.8909091,21.5636364 30.2909091,20.5454545 L26.6545455,23.5272727 C28.4528926,24.6909091 28.5415811,24.8287503 28.5453048,27.1238698 L28.5454545,35.0545455 C28.5454545,36.4363636 28.5454545,37.7090909 28.3636364,39.0909091 L32.8727273,39.0909091 C32.6909091,37.7090909 32.6909091,36.4363636 32.6909091,35.0545455 L32.6909091,24.3636364 C33.4545455,24.2545455 34.1454545,24.1454545 34.6909091,24.1454545 C37.6,24.1454545 38.0363636,25.1272727 38.0363636,26.4 L38.0363636,35.8181818 C38.0363636,36.9090909 38.8727273,38.2181818 40.1818182,39.4909091 Z M71.8909091,36.6909091 C74.1454545,34.6545455 75.6363636,32.8727273 76.2181818,31.9272727 C76.4363636,31.5636364 76.6545455,30.4363636 76.6545455,29.2363636 C76.6545455,26.8363636 75.2727273,24.6545455 72.2909091,22.8727273 L69.2727273,26 C68.4,24.8363636 67.5272727,24.2181818 66.2909091,23.5272727 L62.9090909,27.0909091 C60.9454545,26.1818182 59.5272727,24.0727273 59.5272727,21.6727273 C59.5272727,20.6181818 59.8909091,19.4181818 60.3272727,18.2909091 C61.1636364,18.2181818 62,18.1454545 62.8,18.1454545 C66.0727273,18.1454545 71.7454545,19.9272727 72.5090909,21.0545455 L75.7090909,17.7454545 C73.4909091,16.2545455 69.0181818,14.8727273 65.7454545,14.8727273 C63.5272727,14.8727273 62.9454545,15.1272727 56.9454545,19.8545455 C56.2545455,20.4 55.8181818,22.7636364 55.8181818,23.7090909 C55.8181818,26.8363636 57.4545455,29.1272727 60.0363636,30.5818182 L63.3454545,27.2727273 C64.7636364,27.8181818 65.7090909,28.6545455 66.2909091,29.8181818 L69.4909091,26.4727273 C72.0363636,27.9636364 72.8363636,29.3454545 72.8363636,31.6727273 C72.8363636,32.9818182 72.4,34.3272727 71.7090909,35.6727273 C70.9818182,35.8181818 70.4,35.8909091 69.4909091,35.8909091 C63.8181818,35.8909091 58.1090909,33.5636364 57.8181818,32.5818182 L54.3636364,36.0363636 C58.8,38.8727273 63.8909091,39.4909091 67.2727273,39.4909091 C68.1090909,39.4909091 69.1272727,39.1636364 71.8909091,36.6909091 Z M80.2767536,9.46248268 C80.2182505,8.83715512 80.2608825,8.35445773 80.4046495,8.01439052 C80.5484165,7.6743233 80.7883751,7.47766922 81.1245252,7.42442826 C81.4211283,7.37745094 81.8765659,7.50146381 82.4908378,7.79646688 L82.4908378,7.79646688 L83.4795885,8.2802267 C84.1620947,8.62211284 84.8642149,8.73590018 85.5859491,8.62158871 C86.4460981,8.48535449 87.0514235,8.05199199 87.4019253,7.32150121 C87.7524271,6.59101043 87.8530487,5.56260841 87.70379,4.23629516 L87.70379,4.23629516 L85.8796809,4.52520566 C85.9381839,5.15053322 85.8955519,5.63323061 85.751785,5.97329782 C85.608018,6.31336504 85.3680594,6.51001912 85.0319092,6.56326008 C84.7353061,6.6102374 84.2789772,6.48059667 83.6629226,6.1743379 L83.6629226,6.1743379 L82.6741718,5.69057808 C81.9934484,5.35994764 81.2922195,5.25178816 80.5704853,5.36609963 C79.7103363,5.50233385 79.1025392,5.93608783 78.7470941,6.66736156 C78.3916489,7.3986353 78.293499,8.42664584 78.4526445,9.75139318 L78.4526445,9.75139318 L80.2767536,9.46248268 Z M80.6179487,15.4545455 L84.9285326,14.9325839 L86.6896143,11.8181818 L82.6553276,12.2751478 L80.6179487,15.4545455 Z M82.9775769,17.4084282 C85.126107,18.7505693 85.7580276,19.4635818 85.7580276,21.1412582 L85.7580276,21.1412582 L85.7580276,31.8364454 C85.7580276,33.8496571 86.095052,34.3949019 87.7801736,36.1145203 L87.7801736,36.1145203 L83.4409853,39.2601636 C81.8401198,37.7083129 80.9554309,36.3661717 80.9554309,34.856263 L80.9554309,34.856263 L80.9543755,23.6981387 C80.939,22.5976221 80.730748,22.0460052 78.7647727,20.8476649 L78.7647727,20.8476649 Z M16.7961783,7 C19.5477707,8.63333333 22.2993631,10.1733333 25,11.62 L25,11.62 L21.1783439,14 C19.089172,12.9266667 17.0509554,11.76 14.9617834,10.5 C13.5350318,11.6666667 12.0573248,12.8333333 10.3757962,14 L10.3757962,14 L9,13.16 C11.7515924,11.1066667 14.2993631,9.05333333 16.7961783,7 Z M22.1264191,0.0322803636 C23.5345254,-0.016891793 24.5980595,0.159691961 25.3170212,0.562031625 C26.0359829,0.96437129 26.4103724,1.59246686 26.4401895,2.44631835 C26.4650372,3.15786126 26.0261502,3.93309217 25.1235287,4.77201109 L25.1235287,4.77201109 L24.7415389,5.1237455 C24.2207001,5.60500049 23.910516,5.96016415 23.8109865,6.18923648 C23.711457,6.41830882 23.6724595,6.84118025 23.6939941,7.45785077 L23.6939941,7.45785077 L21.1522428,7.54661068 C21.1145573,6.46743727 21.3452361,5.71728741 21.8442793,5.2961611 L21.8442793,5.2961611 L22.5589083,4.71908749 L23.0106332,4.31148708 C23.5545099,3.80568057 23.8202363,3.37489159 23.8078125,3.01912014 C23.7941463,2.62777154 23.6108666,2.34030244 23.2579735,2.15671282 C22.9050804,1.9731232 22.3825738,1.89341308 21.6904537,1.91758244 C21.0699323,1.93925153 20.4056126,2.07524843 19.6974948,2.32557314 L19.6974948,2.32557314 L19.6316486,0.439984441 C20.4833778,0.19651822 21.314968,0.0606168606 22.1264191,0.0322803636 Z"></path>
                </g>
            </g>
        </g>
    </g>
</svg>